<svg width="426" height="832" viewBox="0 0 426 832" fill="none" xmlns="http://www.w3.org/2000/svg">
<path fill-rule="evenodd" clip-rule="evenodd" d="M64.4879 0H364.51C398.471 0 425.999 26.7754 425.999 59.8038L425.999 178V307L425.999 772.196C425.999 805.225 398.471 832 364.51 832H64.4879C30.5279 832 2.99921 805.225 2.99921 772.196V315.688C1.76306 315.263 0.878906 314.117 0.878906 312.77V263.278C0.878906 261.931 1.76306 260.785 2.99921 260.36V241.448C1.76306 241.024 0.878906 239.878 0.878906 238.531V189.038C0.878906 187.692 1.76306 186.546 2.99921 186.121V152.022C1.76306 151.598 0.878906 150.452 0.878906 149.105V123.328C0.878906 121.981 1.76306 120.835 2.99921 120.411V59.8038C2.99921 26.7754 30.5279 0 64.4879 0Z" fill="#EEEEEE"/>
</svg>
