<svg width="330" height="187" viewBox="0 0 330 187" fill="none" xmlns="http://www.w3.org/2000/svg">
<g clip-path="url(#clip0_9485_5424)">
<path d="M166.5 99.6844C173.248 99.6844 178.715 94.1968 178.715 87.4237C178.715 80.6507 173.248 75.1631 166.5 75.1631C159.752 75.1631 154.285 80.6507 154.285 87.4237C154.285 94.1844 159.752 99.6844 166.5 99.6844ZM159.223 86.9417H166.069V78.6608H167.251V88.1282H159.223V86.9417Z" fill="white"/>
<path d="M79.3555 165.202H111.765V107.409H79.3555V165.202ZM86.5096 130.843C86.5096 125.825 90.5607 121.746 95.5723 121.746C100.572 121.746 104.635 125.813 104.635 130.843V139.939H86.5096V130.843ZM86.5096 141.534H104.623V159.715H86.5096V141.534Z" fill="#B6CCF9"/>
<path d="M221.219 107.409V165.202H253.628V107.409H221.219ZM246.486 159.715H228.373V141.534H246.486V159.715ZM246.486 139.939H228.373V130.843C228.373 125.825 232.424 121.746 237.436 121.746C242.435 121.746 246.498 125.813 246.498 130.843V139.939H246.486Z" fill="#B6CCF9"/>
<path d="M132.834 111.735C126.518 111.735 121.383 116.877 121.383 123.23V134.724H144.274V123.23C144.274 116.877 139.151 111.735 132.834 111.735Z" fill="#BDD0F9"/>
<path d="M144.274 136.738H121.383V159.715H144.274V136.738Z" fill="#BDD0F9"/>
<path d="M200.162 111.735C193.846 111.735 188.711 116.877 188.711 123.23V134.724H211.602V123.23C211.614 116.877 206.492 111.735 200.162 111.735Z" fill="#BDD0F9"/>
<path d="M211.602 136.738H188.711V159.715H211.602V136.738Z" fill="#BDD0F9"/>
<path d="M221.219 93.2578H219.261L167.04 58.1196V52.6072L193.772 46.1556L165.956 39.4443V52.8792V58.0454L113.685 93.2578H79.3555V107.409H111.777V107.36H102.172L111.777 100.896L120.877 94.7533L166.572 63.9286L212.107 94.7162L221.219 100.871L230.824 107.36H221.219V107.409H253.628V93.2578H221.219Z" fill="#72A0FE"/>
<path d="M166.486 111.735C159.639 111.735 154.086 117.309 154.086 124.181V159.727H178.873V124.169C178.885 117.297 173.332 111.735 166.486 111.735Z" fill="#72A0FE"/>
<path d="M167.251 78.6738H166.057V86.9424H159.223V88.1289H167.251V78.6738Z" fill="#79B7B7"/>
<path d="M228.376 139.94H246.489V130.844C246.489 125.826 242.438 121.747 237.426 121.747C232.427 121.747 228.363 125.813 228.363 130.844V139.94H228.376Z" fill="#96B3EF"/>
<path d="M246.488 141.534H228.375V159.715H246.488V141.534Z" fill="#96B3EF"/>
<path d="M104.625 130.844C104.625 125.826 100.574 121.747 95.5627 121.747C90.5634 121.747 86.5 125.813 86.5 130.844V139.94H104.613V130.844H104.625Z" fill="#96B3EF"/>
<path d="M104.625 141.534H86.5117V159.715H104.625V141.534Z" fill="#96B3EF"/>
<path d="M264.835 165.203H253.643H221.233V107.41V107.36H230.838L221.233 100.871L212.121 94.7163L166.574 63.9287L120.879 94.7534L111.767 100.896L102.162 107.372H111.767V107.422V165.215H79.3575H68.1646C66.4161 165.215 65 166.636 65 168.392C65 170.147 66.4161 171.568 68.1646 171.568H79.3575H111.767H221.221H253.63H264.823C266.572 171.568 267.988 170.147 267.988 168.392C268 166.624 266.584 165.203 264.835 165.203ZM166.5 75.1635C173.248 75.1635 178.715 80.6512 178.715 87.4242C178.715 94.1972 173.248 99.6849 166.5 99.6849C159.752 99.6849 154.285 94.1972 154.285 87.4242C154.285 80.6512 159.752 75.1635 166.5 75.1635ZM144.274 159.715H121.383V136.739H144.274V159.715ZM144.274 134.712H121.383V123.217C121.383 116.877 126.506 111.723 132.835 111.723C139.152 111.723 144.286 116.865 144.286 123.217V134.712H144.274ZM178.887 159.715H154.1V124.169C154.1 117.297 159.654 111.723 166.5 111.723C173.346 111.723 178.9 117.297 178.9 124.169V159.715H178.887ZM211.617 159.715H188.726V136.739H211.617V159.715ZM211.617 134.712H188.726V123.217C188.726 116.877 193.848 111.723 200.177 111.723C206.494 111.723 211.629 116.865 211.629 123.217V134.712H211.617Z" fill="#D5E2FF"/>
</g>
<path d="M273.5 77.8156C284.822 77.8156 294 68.6787 294 57.4078C294 46.1369 284.822 37 273.5 37C262.178 37 253 46.1369 253 57.4078C253 68.6787 262.178 77.8156 273.5 77.8156Z" fill="#FFC535"/>
<path d="M272.024 54.6719H269.658C269.658 53.5104 268.709 52.566 267.543 52.566C266.376 52.566 265.433 53.5104 265.433 54.6719H263.066C263.066 52.2132 265.073 50.2158 267.543 50.2158C270.018 50.2158 272.024 52.2132 272.024 54.6719Z" fill="white"/>
<path d="M283.938 54.6719H281.572C281.572 53.5104 280.623 52.566 279.462 52.566C278.295 52.566 277.347 53.5104 277.347 54.6719H274.98C274.98 52.2132 276.987 50.2158 279.457 50.2158C281.932 50.2158 283.938 52.2132 283.938 54.6719Z" fill="white"/>
<path d="M273.502 64.5932C269.391 64.5932 265.618 63.2689 263.41 61.049L265.089 59.3936C266.84 61.1467 270.062 62.2376 273.502 62.2376C276.942 62.2376 280.165 61.1467 281.915 59.3936L283.594 61.049C281.386 63.2689 277.613 64.5932 273.502 64.5932Z" fill="white"/>
<path d="M250.238 31.9943C251.32 26.4196 247.657 21.0273 242.058 19.9502C236.458 18.8731 231.041 22.519 229.959 28.0937C228.877 33.6683 232.54 39.0607 238.139 40.1378C243.739 41.2149 249.156 37.5689 250.238 31.9943Z" fill="#FF9595"/>
<path d="M245.804 27.8728C245.773 26.2071 244.407 24.8721 242.734 24.8721C241.612 24.8721 240.635 25.471 240.096 26.3631C239.557 25.471 238.579 24.8721 237.457 24.8721C235.778 24.8721 234.418 26.2133 234.387 27.8728C234.387 27.8915 234.387 27.9164 234.387 27.9351C234.387 28.2283 234.431 28.5153 234.506 28.7836C234.625 29.0955 234.769 29.4012 234.938 29.6881C235.151 30.0437 235.396 30.3806 235.684 30.6925L239.619 34.9471L239.701 35.0345C239.914 35.2653 240.277 35.2653 240.49 35.0345L240.572 34.9471L244.507 30.6925C244.796 30.3806 245.04 30.0437 245.253 29.6881C245.447 29.4136 245.591 29.1142 245.685 28.7836C245.761 28.5153 245.804 28.2283 245.804 27.9351C245.804 27.9164 245.804 27.8977 245.804 27.8728Z" fill="white"/>
<g clip-path="url(#clip1_9485_5424)">
<path d="M92.0743 56.2795C95.8987 47.0468 91.5144 36.4618 82.2816 32.6374C73.0489 28.813 62.464 33.1973 58.6396 42.4301C54.8151 51.6628 59.1995 62.2478 68.4322 66.0722C77.665 69.8966 88.2499 65.5123 92.0743 56.2795Z" fill="#B9DA5B"/>
<path d="M84.4484 43.4875C82.1813 41.2203 78.5974 40.868 75.9362 42.5324V53.1494C75.9362 53.4693 75.6766 53.729 75.3521 53.729C75.0275 53.729 74.7679 53.4693 74.7679 53.1494V42.5231C73.6784 41.8323 72.4358 41.4707 71.1145 41.4707C69.2786 41.4707 67.5539 42.1847 66.2557 43.4828C66.0888 43.6451 65.9961 43.8769 65.9961 44.1087V56.3531C65.9961 56.7101 66.2094 57.0346 66.5432 57.1691C66.6544 57.2154 66.7703 57.2386 66.8816 57.2386C67.1088 57.2386 67.336 57.1505 67.5075 56.979C68.4719 56.0146 69.7515 55.4861 71.1145 55.4861C72.4776 55.4861 73.7572 56.0146 74.7447 56.9975C74.7725 57.0253 74.805 57.0531 74.8421 57.0763L74.8792 57.0995C74.9209 57.1273 74.9672 57.1505 75.0182 57.1737L75.0414 57.183C75.0831 57.1969 75.1249 57.2108 75.1712 57.2201L75.2176 57.2293C75.2547 57.234 75.2964 57.2386 75.315 57.2386H75.3799C75.4309 57.2386 75.4772 57.234 75.505 57.2247L75.5329 57.2201C75.5839 57.2108 75.6349 57.1922 75.6627 57.183L75.7044 57.1691C75.7183 57.1644 75.7276 57.1598 75.7369 57.1551C75.76 57.1459 75.7786 57.1366 75.8018 57.1227C75.8203 57.1134 75.8342 57.1041 75.8528 57.0902C75.8713 57.0763 75.8899 57.0671 75.9084 57.0531C75.9269 57.0392 75.9455 57.0253 75.9594 57.0114L75.9919 56.9836C77.9808 54.9947 81.2215 54.9947 83.2105 56.9836C83.4609 57.234 83.8457 57.3128 84.1748 57.1737C84.5087 57.0346 84.7219 56.7147 84.7219 56.3577V44.1134C84.708 43.8769 84.6153 43.6544 84.4484 43.4875Z" fill="white"/>
</g>
<g clip-path="url(#clip2_9485_5424)">
<path d="M43.7458 96.0541C46.1418 95.2303 48.7545 96.505 49.5828 98.9098C50.4055 101.309 49.1325 103.925 46.731 104.755C44.3351 105.578 41.7224 104.304 40.8941 101.899C40.0713 99.4942 41.3499 96.878 43.7458 96.0541Z" fill="#E8EFFF"/>
<path d="M51.9183 77.9467C54.3142 77.1229 56.9269 78.3976 57.7552 80.8023C58.5779 83.2015 57.3049 85.8178 54.9034 86.6472C52.5075 87.471 49.8948 86.1963 49.0665 83.7916C48.2438 81.3868 49.5168 78.7706 51.9183 77.9467Z" fill="#E8EFFF"/>
<path d="M25.1019 70.2485C27.4978 69.4246 30.1105 70.6994 30.9388 73.1041C31.7671 75.5088 30.4885 78.1195 28.087 78.9489C25.6911 79.7728 23.0784 78.498 22.2501 76.0933C21.4274 73.6886 22.7004 71.0723 25.1019 70.2485Z" fill="#E8EFFF"/>
<path d="M44.6709 88.7566C43.7259 89.0851 42.6919 88.5785 42.3695 87.6322C42.0415 86.6859 42.5474 85.6505 43.4924 85.3277C44.4375 84.9992 45.4714 85.5058 45.7939 86.4521C46.1218 87.3984 45.616 88.4338 44.6709 88.7566Z" fill="#E8EFFF"/>
<path d="M29.6643 81.6988C30.6093 81.3703 31.6433 81.8769 31.9657 82.8232C32.2937 83.7695 31.7878 84.8049 30.8428 85.1277C29.8978 85.4561 28.8638 84.9496 28.5414 84.0033C28.2134 83.057 28.7193 82.0272 29.6643 81.6988Z" fill="#E8EFFF"/>
<path d="M35.7196 57.1001C36.6646 56.7717 37.6986 57.2783 38.021 58.2246C38.349 59.1709 37.8431 60.2062 36.8981 60.5291C35.953 60.8575 34.9191 60.351 34.5966 59.4047C34.2687 58.4584 34.769 57.423 35.7196 57.1001Z" fill="#E8EFFF"/>
</g>
<g clip-path="url(#clip3_9485_5424)">
<path d="M290.696 109.523L286.173 112.213L281.382 110.041L282.562 115.135L279 118.989L284.251 119.452L286.839 124.001L288.905 119.193L294.066 118.151L290.092 114.719L290.696 109.523Z" fill="#E8EFFF"/>
<path d="M306.673 110.776L304.264 111.94L301.93 110.626L302.301 113.261L300.324 115.052L302.967 115.522L304.072 117.939L305.335 115.597L307.998 115.297L306.138 113.384L306.673 110.776Z" fill="#E8EFFF"/>
<path d="M300.106 97.0071C299.344 96.9253 298.658 97.4769 298.582 98.2328C298.5 98.9886 299.056 99.6696 299.818 99.7445C300.58 99.8262 301.266 99.2746 301.342 98.5188C301.424 97.7629 300.868 97.0888 300.106 97.0071Z" fill="#E8EFFF"/>
</g>
<defs>
<clipPath id="clip0_9485_5424">
<rect width="203" height="132.111" fill="white" transform="translate(65 39.4443)"/>
</clipPath>
<clipPath id="clip1_9485_5424">
<rect width="47" height="47" fill="white" transform="translate(57 28)"/>
</clipPath>
<clipPath id="clip2_9485_5424">
<rect width="36" height="48" fill="white" transform="translate(26 60)"/>
</clipPath>
<clipPath id="clip3_9485_5424">
<rect width="29" height="27" fill="white" transform="translate(279 97)"/>
</clipPath>
</defs>
</svg>
