<svg id="Isolation_Mode" data-name="Isolation Mode" xmlns="http://www.w3.org/2000/svg" viewBox="0 0 119.24 147.89"><defs><style>.cls-1{fill:#090a0a;}.cls-1,.cls-2,.cls-3{stroke:#090a0a;stroke-miterlimit:10;stroke-width:3px;}.cls-2{fill:#ffeec7;}.cls-3{fill:#f4de5f;}</style></defs><title>finger</title><path class="cls-1" d="M181.43,730.74c.19-.18.4-.36.58-.56,5-5.23,4.21-15.17,4.06-16.58v-57a15.4,15.4,0,0,0-25-12.05,15.37,15.37,0,0,0-9.59-3.37,15,15,0,0,0-3.71.46,8.88,8.88,0,0,0-2.94,1.05l-.82.42a3.28,3.28,0,0,0-.38.27,15.34,15.34,0,0,0-17-3.9V624.31c0-7.73-7.08-11.5-8.55-12.2a15.06,15.06,0,0,0-6.25-1.35A15.44,15.44,0,0,0,96.4,626.19v51l-.45-.42a15.42,15.42,0,1,0-21.12,22.48l32.67,30.7a10.75,10.75,0,0,0-5.37,9.3v5.68a10.78,10.78,0,0,0,10.76,10.76h62a10.77,10.77,0,0,0,10.75-10.76v-5.68A10.72,10.72,0,0,0,181.43,730.74ZM75,688.3a10.37,10.37,0,0,1,2.82-7.46,10.42,10.42,0,0,1,14.74-.46l4.65,4.38a2.51,2.51,0,0,0,4.22-1.83V626.19a10.43,10.43,0,0,1,10.42-10.43,10.26,10.26,0,0,1,4.15.88c1,.45,5.65,2.94,5.65,7.67v16.9a2.49,2.49,0,0,0-.15.87v26.86a2.5,2.5,0,0,0,5,0V645.18a10.28,10.28,0,0,1,5.82-1.79,10.46,10.46,0,0,1,8.54,4.48v21.69a2.5,2.5,0,0,0,5,0V648.31a5.16,5.16,0,0,1,.91-.9l.23-.2.09-.05.18-.09a3.76,3.76,0,0,1,1.27-.49l.37-.07a10.28,10.28,0,0,1,2.59-.33,10.43,10.43,0,0,1,7.73,3.46,2.3,2.3,0,0,0,.37.33v19.59a2.5,2.5,0,0,0,5,0v-21.4a10.4,10.4,0,0,1,16.5,8.44v57.13c0,.09,0,.19,0,.29.28,2.45.36,9.52-2.69,12.71a5.84,5.84,0,0,1-4.93,1.63H113.13L78.25,695.57A10.35,10.35,0,0,1,75,688.3Zm105.62,56.6a5.77,5.77,0,0,1-5.75,5.76H112.89a5.77,5.77,0,0,1-5.76-5.76v-5.68a5.76,5.76,0,0,1,5.76-5.76h62a5.76,5.76,0,0,1,5.75,5.76Z" transform="translate(-68.46 -609.26)"/><path class="cls-2" d="M75,688.3a10.37,10.37,0,0,1,2.82-7.46,10.42,10.42,0,0,1,14.74-.46l4.65,4.38a2.51,2.51,0,0,0,4.22-1.83V626.19a10.43,10.43,0,0,1,10.42-10.43,10.26,10.26,0,0,1,4.15.88c1,.45,5.65,2.94,5.65,7.67v16.9a2.49,2.49,0,0,0-.15.87v26.86a2.5,2.5,0,0,0,5,0V645.18a10.28,10.28,0,0,1,5.82-1.79,10.46,10.46,0,0,1,8.54,4.48v21.69a2.5,2.5,0,0,0,5,0V648.31a5.16,5.16,0,0,1,.91-.9l.23-.2.09-.05.18-.09a3.76,3.76,0,0,1,1.27-.49l.37-.07a10.28,10.28,0,0,1,2.59-.33,10.43,10.43,0,0,1,7.73,3.46,2.3,2.3,0,0,0,.37.33v19.59a2.5,2.5,0,0,0,5,0v-21.4a10.4,10.4,0,0,1,16.5,8.44v57.13c0,.09,0,.19,0,.29.28,2.45.36,9.52-2.69,12.71a5.84,5.84,0,0,1-4.93,1.63H113.13L78.25,695.57A10.35,10.35,0,0,1,75,688.3Z" transform="translate(-68.46 -609.26)"/><rect class="cls-3" x="38.66" y="124.2" width="73.46" height="17.2" rx="5.76"/></svg>