<svg width="16" height="16" viewBox="0 0 16 16" fill="none" xmlns="http://www.w3.org/2000/svg">
<g id="ic_chat_pinup">
<g id="Layer_1">
<path id="Vector" d="M10.1932 6.95999L9.83321 3.76999C10.1754 3.41948 10.4112 2.97911 10.5132 2.49999C10.5339 2.40988 10.5339 2.31625 10.5131 2.22617C10.4923 2.13608 10.4513 2.0519 10.3932 1.97999C10.3348 1.90894 10.2616 1.85154 10.1787 1.81181C10.0958 1.77207 10.0052 1.75097 9.91321 1.74999H6.04321C5.9509 1.74881 5.85956 1.76896 5.77631 1.80885C5.69306 1.84874 5.62013 1.90731 5.56321 1.97999C5.50528 2.05001 5.46431 2.13247 5.44349 2.22094C5.42268 2.3094 5.42258 2.40148 5.44321 2.48999C5.54427 2.97161 5.78414 3.41311 6.13321 3.75999L5.75321 6.95999C5.07735 7.31891 4.50029 7.83875 4.07299 8.47359C3.6457 9.10843 3.38132 9.83874 3.30321 10.6C3.29428 10.6875 3.30295 10.776 3.32871 10.8601C3.35447 10.9443 3.3968 11.0224 3.45321 11.09C3.51274 11.1556 3.58526 11.2082 3.66617 11.2443C3.74707 11.2805 3.8346 11.2994 3.92321 11.3H7.36321V14.04C7.3655 14.2041 7.4298 14.3613 7.54321 14.48C7.59856 14.5346 7.66416 14.5777 7.73624 14.6069C7.80832 14.6361 7.88545 14.6507 7.96321 14.65C8.12695 14.6458 8.28348 14.5818 8.40321 14.47C8.45783 14.4146 8.50096 14.349 8.53014 14.277C8.55931 14.2049 8.57395 14.1277 8.57321 14.05V11.3H12.0232C12.1101 11.2981 12.1957 11.2785 12.2748 11.2423C12.3539 11.2062 12.4248 11.1544 12.4832 11.09C12.5435 11.0246 12.5889 10.947 12.6165 10.8624C12.6442 10.7779 12.6532 10.6884 12.6432 10.6C12.5651 9.83874 12.3007 9.10843 11.8734 8.47359C11.4461 7.83875 10.8691 7.31891 10.1932 6.95999Z" fill="#BBBBBB"/>
</g>
</g>
</svg>
