<svg width="61" height="20" viewBox="0 0 61 20" fill="none" xmlns="http://www.w3.org/2000/svg">
<path d="M7.7727 0H57.2273C59.3109 0 61 1.56929 61 3.50511V16.4949C61 18.4307 59.3109 20 57.2273 20H7.7727C5.68909 20 4 18.4307 4 16.4949V3.50511C4 1.56929 5.68909 0 7.7727 0Z" fill="#FF8737"/>
<path d="M0.421229 9.66558L5.74112 6.1294C5.86874 6.0446 6.01351 5.99997 6.16087 6C6.30824 6.00003 6.45299 6.0447 6.58059 6.12955C6.70819 6.21439 6.81414 6.33643 6.88776 6.48334C6.96138 6.63026 7.00009 6.79689 7 6.96649V14.0335C7.00009 14.2031 6.96138 14.3697 6.88776 14.5167C6.81414 14.6636 6.70819 14.7856 6.58059 14.8704C6.45299 14.9553 6.30824 15 6.16087 15C6.01351 15 5.86874 14.9554 5.74112 14.8706L0.421229 11.3344C0.293298 11.2505 0.186926 11.1291 0.112948 10.9825C0.0389714 10.836 0 10.6695 0 10.5C0 10.3305 0.0389714 10.164 0.112948 10.0175C0.186926 9.87095 0.293298 9.74953 0.421229 9.66558Z" fill="#FF8737"/>
</svg>
