<svg width="423" height="379" viewBox="0 0 423 379" fill="none" xmlns="http://www.w3.org/2000/svg">
<path d="M351.673 214.614C351.673 186.743 343.47 159.498 328.103 136.322C312.735 113.147 290.892 95.0812 265.335 84.4093C239.777 73.7374 211.653 70.9384 184.516 76.366C157.38 81.7935 132.45 95.2039 112.878 114.902C93.3057 134.6 79.9699 159.702 74.5563 187.034C69.1427 214.366 71.8943 242.701 82.4632 268.458C93.0322 294.215 110.944 316.237 133.935 331.741C156.925 347.245 183.962 355.534 211.628 355.561C230.013 355.578 248.22 351.946 265.211 344.87C282.201 337.795 297.64 327.416 310.646 314.326C323.653 301.236 333.97 285.692 341.01 268.583C348.049 251.474 351.673 233.135 351.673 214.614Z" fill="white"/>
<mask id="path-2-outside-1_1_41" maskUnits="userSpaceOnUse" x="59.1406" y="10.5493" width="305" height="358" fill="black">
<rect fill="white" x="59.1406" y="10.5493" width="305" height="358"/>
<path fill-rule="evenodd" clip-rule="evenodd" d="M198.803 58.1603C200.456 59.2728 202.235 60.1595 204.094 60.8063V66.1956C196.988 66.5617 189.889 67.4469 182.853 68.8567C156.38 74.1615 131.902 86.6738 112.052 104.976C111.841 104.692 111.609 104.423 111.358 104.169L102.93 95.6786L106.978 91.6076C108.264 90.1601 108.954 88.2729 108.906 86.3308C108.859 84.3887 108.078 82.5378 106.723 81.1555C105.368 79.7733 103.541 78.9637 101.614 78.8917C99.687 78.8197 97.8051 79.4907 96.3522 80.7681L77.5142 99.7793C76.4608 100.842 75.7436 102.195 75.4531 103.668C75.1627 105.141 75.3121 106.668 75.8824 108.055C76.4526 109.443 77.4182 110.629 78.6573 111.464C79.8963 112.299 81.3532 112.745 82.8438 112.746C84.8106 112.745 86.6991 111.969 88.1064 110.585L92.2609 106.407L100.699 114.907C100.973 115.184 101.266 115.437 101.575 115.665C84.0891 135.409 72.1184 159.542 66.9746 185.594C61.2838 214.415 64.2045 244.289 75.3674 271.438C86.5302 298.587 105.434 321.792 129.688 338.118C153.942 354.444 182.457 363.158 211.627 363.158C250.742 363.158 288.256 347.504 315.915 319.641C343.574 291.777 359.112 253.985 359.112 214.58C359.112 185.194 350.463 156.468 334.257 132.034C330.457 126.306 326.282 120.873 321.769 115.769C322.131 115.513 322.47 115.225 322.783 114.907L331.239 106.388L335.36 110.517C336.057 111.228 336.887 111.791 337.802 112.173C338.717 112.556 339.699 112.751 340.69 112.746V112.814C342.181 112.812 343.638 112.366 344.877 111.531C346.116 110.696 347.081 109.51 347.652 108.122C348.222 106.735 348.371 105.209 348.081 103.736C347.79 102.263 347.073 100.909 346.02 99.8469L327.148 80.8356C326.446 80.1305 325.613 79.5716 324.697 79.1909C323.78 78.8102 322.798 78.6151 321.807 78.6167C320.815 78.6183 319.834 78.8163 318.919 79.2C318.003 79.5836 317.172 80.1452 316.472 80.8525C315.772 81.5598 315.217 82.3989 314.84 83.3222C314.462 84.2455 314.268 85.2347 314.27 86.2334C314.271 87.2321 314.468 88.2209 314.849 89.143C315.23 90.065 315.787 90.9025 316.489 91.6075L320.552 95.6784L312.124 104.169C311.836 104.459 311.573 104.771 311.337 105.102C298.702 93.4232 284.075 83.9916 268.067 77.3116C252.437 70.7893 235.896 67.0601 219.178 66.1966V60.7955C222.451 59.652 225.459 57.7715 227.955 55.2569C232.284 50.8957 234.72 44.9831 234.729 38.8154C234.729 34.2138 233.375 29.7155 230.837 25.8895C228.299 22.0634 224.692 19.0813 220.472 17.3204C216.252 15.5594 211.608 15.0986 207.128 15.9964C202.648 16.8941 198.533 19.1099 195.304 22.3637C192.074 25.6175 189.874 29.7632 188.983 34.2764C188.092 38.7895 188.549 43.4675 190.297 47.7188C192.045 51.9701 195.005 55.6038 198.803 58.1603ZM211.634 30.7448C210.05 30.7448 208.501 31.2181 207.183 32.1049C205.866 32.9917 204.839 34.252 204.233 35.7267C203.626 37.2014 203.468 38.8243 203.777 40.3898C204.086 41.9553 204.849 43.3932 205.969 44.5219C207.09 45.6506 208.517 46.4193 210.071 46.7307C211.625 47.0421 213.236 46.8824 214.7 46.2715C216.164 45.6607 217.415 44.6261 218.295 43.2989C219.175 41.9717 219.645 40.4116 219.645 38.8154C219.636 36.6777 218.79 34.6299 217.289 33.1183C215.789 31.6067 213.756 30.7537 211.634 30.7448ZM138.086 103.738C159.854 89.0856 185.447 81.2648 211.627 81.2648C246.722 81.3006 280.37 95.3613 305.186 120.361C330.002 145.361 343.96 179.258 343.995 214.614C343.995 240.988 336.232 266.769 321.687 288.698C307.142 310.627 286.469 327.719 262.282 337.812C238.095 347.905 211.48 350.546 185.803 345.4C160.126 340.255 136.54 327.555 118.028 308.906C99.5158 290.256 86.9089 266.496 81.8014 240.629C76.694 214.762 79.3152 187.95 89.3339 163.583C99.3526 139.217 116.319 118.391 138.086 103.738Z"/>
</mask>
<path fill-rule="evenodd" clip-rule="evenodd" d="M198.803 58.1603C200.456 59.2728 202.235 60.1595 204.094 60.8063V66.1956C196.988 66.5617 189.889 67.4469 182.853 68.8567C156.38 74.1615 131.902 86.6738 112.052 104.976C111.841 104.692 111.609 104.423 111.358 104.169L102.93 95.6786L106.978 91.6076C108.264 90.1601 108.954 88.2729 108.906 86.3308C108.859 84.3887 108.078 82.5378 106.723 81.1555C105.368 79.7733 103.541 78.9637 101.614 78.8917C99.687 78.8197 97.8051 79.4907 96.3522 80.7681L77.5142 99.7793C76.4608 100.842 75.7436 102.195 75.4531 103.668C75.1627 105.141 75.3121 106.668 75.8824 108.055C76.4526 109.443 77.4182 110.629 78.6573 111.464C79.8963 112.299 81.3532 112.745 82.8438 112.746C84.8106 112.745 86.6991 111.969 88.1064 110.585L92.2609 106.407L100.699 114.907C100.973 115.184 101.266 115.437 101.575 115.665C84.0891 135.409 72.1184 159.542 66.9746 185.594C61.2838 214.415 64.2045 244.289 75.3674 271.438C86.5302 298.587 105.434 321.792 129.688 338.118C153.942 354.444 182.457 363.158 211.627 363.158C250.742 363.158 288.256 347.504 315.915 319.641C343.574 291.777 359.112 253.985 359.112 214.58C359.112 185.194 350.463 156.468 334.257 132.034C330.457 126.306 326.282 120.873 321.769 115.769C322.131 115.513 322.47 115.225 322.783 114.907L331.239 106.388L335.36 110.517C336.057 111.228 336.887 111.791 337.802 112.173C338.717 112.556 339.699 112.751 340.69 112.746V112.814C342.181 112.812 343.638 112.366 344.877 111.531C346.116 110.696 347.081 109.51 347.652 108.122C348.222 106.735 348.371 105.209 348.081 103.736C347.79 102.263 347.073 100.909 346.02 99.8469L327.148 80.8356C326.446 80.1305 325.613 79.5716 324.697 79.1909C323.78 78.8102 322.798 78.6151 321.807 78.6167C320.815 78.6183 319.834 78.8163 318.919 79.2C318.003 79.5836 317.172 80.1452 316.472 80.8525C315.772 81.5598 315.217 82.3989 314.84 83.3222C314.462 84.2455 314.268 85.2347 314.27 86.2334C314.271 87.2321 314.468 88.2209 314.849 89.143C315.23 90.065 315.787 90.9025 316.489 91.6075L320.552 95.6784L312.124 104.169C311.836 104.459 311.573 104.771 311.337 105.102C298.702 93.4232 284.075 83.9916 268.067 77.3116C252.437 70.7893 235.896 67.0601 219.178 66.1966V60.7955C222.451 59.652 225.459 57.7715 227.955 55.2569C232.284 50.8957 234.72 44.9831 234.729 38.8154C234.729 34.2138 233.375 29.7155 230.837 25.8895C228.299 22.0634 224.692 19.0813 220.472 17.3204C216.252 15.5594 211.608 15.0986 207.128 15.9964C202.648 16.8941 198.533 19.1099 195.304 22.3637C192.074 25.6175 189.874 29.7632 188.983 34.2764C188.092 38.7895 188.549 43.4675 190.297 47.7188C192.045 51.9701 195.005 55.6038 198.803 58.1603ZM211.634 30.7448C210.05 30.7448 208.501 31.2181 207.183 32.1049C205.866 32.9917 204.839 34.252 204.233 35.7267C203.626 37.2014 203.468 38.8243 203.777 40.3898C204.086 41.9553 204.849 43.3932 205.969 44.5219C207.09 45.6506 208.517 46.4193 210.071 46.7307C211.625 47.0421 213.236 46.8824 214.7 46.2715C216.164 45.6607 217.415 44.6261 218.295 43.2989C219.175 41.9717 219.645 40.4116 219.645 38.8154C219.636 36.6777 218.79 34.6299 217.289 33.1183C215.789 31.6067 213.756 30.7537 211.634 30.7448ZM138.086 103.738C159.854 89.0856 185.447 81.2648 211.627 81.2648C246.722 81.3006 280.37 95.3613 305.186 120.361C330.002 145.361 343.96 179.258 343.995 214.614C343.995 240.988 336.232 266.769 321.687 288.698C307.142 310.627 286.469 327.719 262.282 337.812C238.095 347.905 211.48 350.546 185.803 345.4C160.126 340.255 136.54 327.555 118.028 308.906C99.5158 290.256 86.9089 266.496 81.8014 240.629C76.694 214.762 79.3152 187.95 89.3339 163.583C99.3526 139.217 116.319 118.391 138.086 103.738Z" fill="#222222"/>
<path d="M204.094 60.8063H209.094V57.252L205.737 56.084L204.094 60.8063ZM198.803 58.1603L201.595 54.0125L201.595 54.0125L198.803 58.1603ZM204.094 66.1956L204.351 71.189L209.094 70.9446V66.1956H204.094ZM182.853 68.8567L183.836 73.7592L183.836 73.7592L182.853 68.8567ZM112.052 104.976L108.044 107.964L111.361 112.414L115.442 108.652L112.052 104.976ZM111.358 104.169L114.908 100.649L114.906 100.647L111.358 104.169ZM102.93 95.6786L99.3842 92.153L95.8814 95.6755L99.3811 99.2011L102.93 95.6786ZM106.978 91.6076L110.523 95.1332L110.622 95.0336L110.716 94.9286L106.978 91.6076ZM108.906 86.3308L103.908 86.4525L103.908 86.4525L108.906 86.3308ZM106.723 81.1555L103.153 84.6557L103.153 84.6557L106.723 81.1555ZM101.614 78.8917L101.801 73.8952L101.801 73.8952L101.614 78.8917ZM96.3522 80.7681L93.0508 77.013L92.9216 77.1266L92.8005 77.2488L96.3522 80.7681ZM77.5142 99.7793L81.065 103.3L81.0659 103.299L77.5142 99.7793ZM75.4531 103.668L70.5476 102.701L70.5476 102.701L75.4531 103.668ZM75.8824 108.055L80.507 106.154L80.507 106.154L75.8824 108.055ZM78.6573 111.464L75.8632 115.61L75.8632 115.61L78.6573 111.464ZM82.8438 112.746L82.8394 117.746L82.8478 117.746L82.8438 112.746ZM88.1064 110.585L91.6124 114.15L91.6322 114.13L91.6518 114.111L88.1064 110.585ZM92.2609 106.407L95.8094 102.885L92.264 99.3132L88.7155 102.882L92.2609 106.407ZM100.699 114.907L104.249 111.387L104.247 111.385L100.699 114.907ZM101.575 115.665L105.318 118.98L108.941 114.89L104.546 111.644L101.575 115.665ZM66.9746 185.594L62.0693 184.625L62.0693 184.625L66.9746 185.594ZM75.3674 271.438L79.9917 269.537L75.3674 271.438ZM129.688 338.118L126.896 342.266L126.896 342.266L129.688 338.118ZM315.915 319.641L319.463 323.163L319.463 323.163L315.915 319.641ZM334.257 132.034L330.09 134.798L330.09 134.798L334.257 132.034ZM321.769 115.769L318.882 111.686L314.332 114.904L318.023 119.08L321.769 115.769ZM322.783 114.907L319.234 111.384L319.227 111.392L319.219 111.4L322.783 114.907ZM331.239 106.388L334.778 102.856L331.23 99.3002L327.691 102.865L331.239 106.388ZM335.36 110.517L338.931 107.017L338.915 107.001L338.9 106.985L335.36 110.517ZM337.802 112.173L335.873 116.786L335.873 116.786L337.802 112.173ZM340.69 112.746H345.69V107.722L340.666 107.746L340.69 112.746ZM340.69 112.814H335.69V117.818L340.695 117.814L340.69 112.814ZM344.877 111.531L342.082 107.385L342.082 107.385L344.877 111.531ZM348.081 103.736L352.986 102.768L352.986 102.768L348.081 103.736ZM346.02 99.8469L349.57 96.3266L349.568 96.3244L346.02 99.8469ZM327.148 80.8356L330.697 77.3131L330.691 77.3076L327.148 80.8356ZM324.697 79.1909L326.615 74.5735L326.615 74.5735L324.697 79.1909ZM316.472 80.8525L312.918 77.3356L312.918 77.3356L316.472 80.8525ZM314.84 83.3222L319.467 85.2164L319.467 85.2164L314.84 83.3222ZM314.849 89.143L310.227 91.0516L310.227 91.0516L314.849 89.143ZM316.489 91.6075L312.946 95.1356L312.95 95.1395L316.489 91.6075ZM320.552 95.6784L324.1 99.2009L327.606 95.669L324.091 92.1465L320.552 95.6784ZM312.124 104.169L308.575 100.646L308.573 100.648L312.124 104.169ZM311.337 105.102L307.943 108.773L312.11 112.625L315.406 108.007L311.337 105.102ZM268.067 77.3116L266.141 81.926L266.141 81.926L268.067 77.3116ZM219.178 66.1966H214.178V70.945L218.92 71.19L219.178 66.1966ZM219.178 60.7955L217.529 56.0752L214.178 57.2458V60.7955H219.178ZM227.955 55.2569L224.406 51.7345L224.406 51.7345L227.955 55.2569ZM234.729 38.8154L239.729 38.8225V38.8154H234.729ZM220.472 17.3204L218.547 21.9347L218.547 21.9347L220.472 17.3204ZM207.128 15.9964L206.146 11.0938L207.128 15.9964ZM195.304 22.3637L198.852 25.8862L198.852 25.8862L195.304 22.3637ZM188.983 34.2764L184.078 33.3078L184.078 33.3078L188.983 34.2764ZM211.634 30.7448L211.655 25.7449L211.645 25.7448H211.634V30.7448ZM204.233 35.7267L208.857 37.6281L208.857 37.6281L204.233 35.7267ZM203.777 40.3898L208.682 39.4212L208.682 39.4212L203.777 40.3898ZM205.969 44.5219L209.518 40.9995L209.518 40.9995L205.969 44.5219ZM210.071 46.7307L209.089 51.6332L209.089 51.6332L210.071 46.7307ZM214.7 46.2715L212.774 41.6571L212.774 41.6571L214.7 46.2715ZM218.295 43.2989L214.128 40.5352L214.128 40.5352L218.295 43.2989ZM219.645 38.8154H224.645V38.805L224.645 38.7947L219.645 38.8154ZM217.289 33.1183L220.838 29.5958L220.838 29.5958L217.289 33.1183ZM211.627 81.2648L211.632 76.2648H211.627V81.2648ZM305.186 120.361L308.735 116.839L308.735 116.839L305.186 120.361ZM343.995 214.614L348.995 214.614L348.995 214.609L343.995 214.614ZM321.687 288.698L317.52 285.935L317.52 285.935L321.687 288.698ZM262.282 337.812L260.356 333.198L260.356 333.198L262.282 337.812ZM118.028 308.906L121.576 305.383L121.576 305.383L118.028 308.906ZM89.3339 163.583L93.9583 165.485L93.9583 165.485L89.3339 163.583ZM205.737 56.084C204.283 55.578 202.89 54.8839 201.595 54.0125L196.011 62.3081C198.022 63.6616 200.187 64.741 202.451 65.5286L205.737 56.084ZM209.094 66.1956V60.8063H199.094V66.1956H209.094ZM183.836 73.7592C190.631 72.3975 197.488 71.5426 204.351 71.189L203.837 61.2022C196.488 61.5808 189.147 62.4962 181.871 63.9541L183.836 73.7592ZM115.442 108.652C134.62 90.9688 158.267 78.8829 183.836 73.7592L181.871 63.9541C154.494 69.4401 129.184 82.3789 108.663 101.3L115.442 108.652ZM116.061 101.988C115.711 101.518 115.326 101.07 114.908 100.649L107.807 107.689C107.893 107.776 107.971 107.867 108.044 107.964L116.061 101.988ZM114.906 100.647L106.478 92.1561L99.3811 99.2011L107.809 107.692L114.906 100.647ZM106.475 99.2042L110.523 95.1332L103.433 88.082L99.3842 92.153L106.475 99.2042ZM110.716 94.9286C112.846 92.531 113.983 89.4124 113.905 86.209L103.908 86.4525C103.925 87.1334 103.682 87.7891 103.24 88.2866L110.716 94.9286ZM113.905 86.2091C113.827 83.0057 112.539 79.9459 110.294 77.6554L103.153 84.6557C103.618 85.1297 103.891 85.7716 103.908 86.4525L113.905 86.2091ZM110.294 77.6554C108.047 75.3637 105.011 74.0151 101.801 73.8952L101.427 83.8882C102.071 83.9123 102.689 84.1828 103.153 84.6557L110.294 77.6554ZM101.801 73.8952C98.5907 73.7753 95.4615 74.8935 93.0508 77.013L99.6536 84.5232C100.149 84.0879 100.783 83.8642 101.427 83.8882L101.801 73.8952ZM92.8005 77.2488L73.9626 96.26L81.0659 103.299L99.9039 84.2874L92.8005 77.2488ZM73.9635 96.2591C72.2145 98.0232 71.0278 100.266 70.5476 102.701L80.3587 104.635C80.4594 104.125 80.7072 103.661 81.065 103.3L73.9635 96.2591ZM70.5476 102.701C70.0674 105.136 70.3141 107.66 71.2578 109.956L80.507 106.154C80.3101 105.675 80.258 105.146 80.3587 104.635L70.5476 102.701ZM71.2578 109.956C72.2016 112.252 73.8022 114.221 75.8632 115.61L81.4514 107.317C81.0343 107.036 80.7037 106.633 80.507 106.154L71.2578 109.956ZM75.8632 115.61C77.9245 116.999 80.3522 117.744 82.8394 117.746L82.8483 107.746C82.3541 107.746 81.8681 107.598 81.4514 107.317L75.8632 115.61ZM82.8478 117.746C86.1302 117.744 89.2747 116.449 91.6124 114.15L84.6005 107.02C84.1235 107.489 83.491 107.746 82.8399 107.746L82.8478 117.746ZM91.6518 114.111L95.8063 109.933L88.7155 102.882L84.561 107.059L91.6518 114.111ZM88.7123 109.93L97.15 118.43L104.247 111.385L95.8094 102.885L88.7123 109.93ZM97.1478 118.428C97.6029 118.887 98.0901 119.307 98.6042 119.687L104.546 111.644C104.442 111.567 104.343 111.481 104.249 111.387L97.1478 118.428ZM71.8799 186.562C76.8519 161.381 88.4219 138.058 105.318 118.98L97.832 112.35C79.7564 132.76 67.385 157.703 62.0693 184.625L71.8799 186.562ZM79.9917 269.537C69.2027 243.297 66.3792 214.421 71.8799 186.562L62.0693 184.625C56.1885 214.409 59.2064 245.281 70.743 273.34L79.9917 269.537ZM132.48 333.97C109.049 318.198 90.7807 295.777 79.9917 269.537L70.743 273.34C82.2798 301.398 101.819 325.386 126.896 342.266L132.48 333.97ZM211.627 358.158C183.454 358.158 155.911 349.742 132.48 333.97L126.896 342.266C151.973 359.146 181.459 368.158 211.627 368.158V358.158ZM312.366 316.118C285.642 343.04 249.404 358.158 211.627 358.158V368.158C252.08 368.158 290.87 351.969 319.463 323.163L312.366 316.118ZM354.112 214.58C354.112 252.671 339.092 289.195 312.366 316.118L319.463 323.163C348.056 294.359 364.112 255.299 364.112 214.58H354.112ZM330.09 134.798C345.751 158.41 354.112 186.175 354.112 214.58H364.112C364.112 184.213 355.174 154.525 338.423 129.271L330.09 134.798ZM318.023 119.08C322.384 124.013 326.418 129.262 330.09 134.798L338.423 129.271C334.496 123.349 330.181 117.734 325.516 112.457L318.023 119.08ZM319.219 111.4C319.115 111.506 319.002 111.602 318.882 111.686L324.657 119.851C325.26 119.424 325.826 118.943 326.347 118.414L319.219 111.4ZM327.691 102.865L319.234 111.384L326.331 118.429L334.788 109.91L327.691 102.865ZM338.9 106.985L334.778 102.856L327.7 109.92L331.821 114.049L338.9 106.985ZM339.731 107.561C339.434 107.436 339.161 107.252 338.931 107.017L331.79 114.018C332.952 115.203 334.34 116.145 335.873 116.786L339.731 107.561ZM340.666 107.746C340.347 107.748 340.028 107.685 339.731 107.56L335.873 116.786C337.406 117.427 339.052 117.754 340.714 117.746L340.666 107.746ZM345.69 112.814V112.746H335.69V112.814H345.69ZM342.082 107.385C341.665 107.666 341.179 107.813 340.686 107.814L340.695 117.814C343.182 117.812 345.61 117.066 347.671 115.677L342.082 107.385ZM343.027 106.222C342.83 106.7 342.5 107.103 342.082 107.385L347.671 115.677C349.732 114.289 351.332 112.32 352.276 110.023L343.027 106.222ZM343.175 104.703C343.276 105.214 343.224 105.743 343.027 106.222L352.276 110.023C353.22 107.727 353.467 105.203 352.986 102.768L343.175 104.703ZM342.469 103.367C342.827 103.728 343.075 104.192 343.175 104.703L352.986 102.768C352.506 100.333 351.319 98.0906 349.57 96.3266L342.469 103.367ZM323.6 84.3581L342.471 103.369L349.568 96.3244L330.697 77.3131L323.6 84.3581ZM322.778 83.8083C323.085 83.9357 323.366 84.1237 323.605 84.3636L330.691 77.3076C329.526 76.1373 328.141 75.2076 326.615 74.5735L322.778 83.8083ZM321.815 83.6167C322.145 83.6162 322.472 83.681 322.778 83.8083L326.615 74.5735C325.088 73.9393 323.452 73.6141 321.799 73.6167L321.815 83.6167ZM320.851 83.8113C321.157 83.6832 321.484 83.6172 321.815 83.6167L321.799 73.6167C320.146 73.6193 318.511 73.9495 316.986 74.5886L320.851 83.8113ZM320.026 84.3694C320.265 84.1285 320.545 83.9396 320.851 83.8113L316.986 74.5886C315.461 75.2276 314.079 76.1619 312.918 77.3356L320.026 84.3694ZM319.467 85.2164C319.597 84.8977 319.788 84.6102 320.026 84.3694L312.918 77.3356C311.757 78.5094 310.838 79.9002 310.212 81.4281L319.467 85.2164ZM319.27 86.2256C319.269 85.878 319.336 85.535 319.467 85.2164L310.212 81.428C309.587 82.956 309.267 84.5914 309.27 86.2412L319.27 86.2256ZM319.47 87.2344C319.339 86.9159 319.27 86.5729 319.27 86.2256L309.27 86.2412C309.272 87.8913 309.597 89.5259 310.227 91.0516L319.47 87.2344ZM320.032 88.0795C319.793 87.8397 319.602 87.553 319.47 87.2343L310.227 91.0516C310.857 92.5771 311.78 93.9652 312.946 95.1356L320.032 88.0795ZM324.091 92.1465L320.028 88.0756L312.95 95.1395L317.012 99.2103L324.091 92.1465ZM315.672 107.691L324.1 99.2009L317.003 92.1559L308.575 100.646L315.672 107.691ZM315.406 108.007C315.487 107.894 315.577 107.788 315.674 107.689L308.573 100.648C308.095 101.131 307.659 101.649 307.268 102.196L315.406 108.007ZM266.141 81.926C281.605 88.3785 295.736 97.4898 307.943 108.773L314.731 101.43C301.669 89.3567 286.546 79.6047 269.992 72.6972L266.141 81.926ZM218.92 71.19C235.067 72.024 251.043 75.6258 266.141 81.926L269.992 72.6972C253.83 65.9528 236.725 62.0963 219.435 61.2033L218.92 71.19ZM214.178 60.7955V66.1966H224.178V60.7955H214.178ZM224.406 51.7345C222.448 53.7073 220.091 55.1801 217.529 56.0752L220.826 65.5157C224.811 64.1239 228.47 61.8357 231.503 58.7794L224.406 51.7345ZM229.729 38.8082C229.722 43.6641 227.804 48.3118 224.406 51.7345L231.503 58.7794C236.764 53.4795 239.718 46.3022 239.729 38.8225L229.729 38.8082ZM226.67 28.6532C228.663 31.658 229.729 35.1946 229.729 38.8154H239.729C239.729 33.233 238.086 27.7731 235.004 23.1258L226.67 28.6532ZM218.547 21.9347C221.849 23.3127 224.677 25.6487 226.67 28.6532L235.004 23.1258C231.921 18.4781 227.536 14.8499 222.398 12.706L218.547 21.9347ZM208.111 20.8989C211.614 20.197 215.245 20.5569 218.547 21.9347L222.398 12.706C217.26 10.5619 211.603 10.0003 206.146 11.0938L208.111 20.8989ZM198.852 25.8862C201.385 23.3344 204.608 21.6009 208.111 20.8989L206.146 11.0938C200.689 12.1873 195.682 14.8854 191.755 18.8412L198.852 25.8862ZM193.888 35.2449C194.589 31.6947 196.319 28.4384 198.852 25.8862L191.755 18.8412C187.829 22.7966 185.159 27.8318 184.078 33.3078L193.888 35.2449ZM194.921 45.8174C193.547 42.4751 193.187 38.7954 193.888 35.2449L184.078 33.3078C182.996 38.7837 183.551 44.4598 185.673 49.6202L194.921 45.8174ZM201.595 54.0125C198.62 52.0098 196.296 49.1593 194.921 45.8174L185.673 49.6202C187.795 54.7808 191.39 59.1978 196.011 62.3081L201.595 54.0125ZM209.975 36.2527C210.469 35.9201 211.047 35.7448 211.634 35.7448V25.7448C209.053 25.7448 206.532 26.5161 204.391 27.957L209.975 36.2527ZM208.857 37.6281C209.089 37.0629 209.481 36.5858 209.975 36.2527L204.391 27.957C202.251 29.3976 200.589 31.4412 199.608 33.8253L208.857 37.6281ZM208.682 39.4212C208.563 38.8182 208.625 38.1936 208.857 37.6281L199.608 33.8253C198.628 36.2092 198.372 38.8303 198.872 41.3583L208.682 39.4212ZM209.518 40.9995C209.094 40.5725 208.801 40.024 208.682 39.4212L198.872 41.3583C199.371 43.8865 200.604 46.214 202.421 48.0444L209.518 40.9995ZM211.054 41.8282C210.477 41.7125 209.941 41.4261 209.518 40.9995L202.421 48.0444C204.238 49.8751 206.558 51.1261 209.089 51.6332L211.054 41.8282ZM212.774 41.6571C212.229 41.8848 211.631 41.9438 211.054 41.8282L209.089 51.6332C211.62 52.1404 214.243 51.8799 216.625 50.8859L212.774 41.6571ZM214.128 40.5352C213.793 41.0411 213.32 41.4294 212.774 41.6571L216.625 50.8859C219.007 49.8919 221.037 48.2111 222.462 46.0626L214.128 40.5352ZM214.645 38.8154C214.645 39.4304 214.464 40.0289 214.128 40.5352L222.462 46.0626C223.887 43.9145 224.645 41.3927 224.645 38.8154H214.645ZM213.741 36.6408C214.312 37.2169 214.642 38.0054 214.645 38.836L224.645 38.7947C224.631 35.35 223.267 32.0428 220.838 29.5958L213.741 36.6408ZM211.613 35.7448C212.405 35.7481 213.17 36.0659 213.741 36.6408L220.838 29.5958C218.407 27.1475 215.108 25.7593 211.655 25.7449L211.613 35.7448ZM211.627 76.2648C184.449 76.2648 157.886 84.3837 135.294 99.5904L140.878 107.886C161.823 93.7876 186.444 86.2648 211.627 86.2648V76.2648ZM308.735 116.839C282.985 90.8984 248.063 76.302 211.632 76.2648L211.621 86.2648C245.381 86.2992 277.755 99.8243 301.637 123.884L308.735 116.839ZM348.995 214.609C348.958 177.941 334.483 142.778 308.735 116.839L301.637 123.884C325.521 147.945 338.961 180.576 338.995 214.619L348.995 214.609ZM325.854 291.462C340.943 268.712 348.995 241.968 348.995 214.614H338.995C338.995 240.007 331.52 264.827 317.52 285.935L325.854 291.462ZM264.207 342.426C289.312 331.95 310.764 314.213 325.854 291.462L317.52 285.935C303.52 307.042 283.626 323.488 260.356 333.198L264.207 342.426ZM184.82 350.303C211.475 355.644 239.102 352.902 264.207 342.426L260.356 333.198C237.087 342.907 211.485 345.447 186.785 340.498L184.82 350.303ZM114.479 312.428C133.688 331.779 158.166 344.962 184.82 350.303L186.785 340.498C162.085 335.548 139.392 323.33 121.576 305.383L114.479 312.428ZM76.8961 241.597C82.1937 268.427 95.2707 293.077 114.479 312.428L121.576 305.383C103.761 287.435 91.6241 264.564 86.7067 239.66L76.8961 241.597ZM84.7095 161.682C74.3171 186.957 71.5986 214.767 76.8961 241.597L86.7067 239.66C81.7893 214.756 84.3134 188.942 93.9583 165.485L84.7095 161.682ZM135.294 99.5904C112.704 114.797 95.1021 136.406 84.7095 161.682L93.9583 165.485C103.603 142.028 119.933 121.985 140.878 107.886L135.294 99.5904Z" fill="white" mask="url(#path-2-outside-1_1_41)"/>
<path d="M338.796 215.285C338.796 190.238 331.37 165.753 317.458 144.924C303.545 124.096 283.77 107.86 260.632 98.2674C237.494 88.6753 212.031 86.1579 187.463 91.0334C162.895 95.9089 140.323 107.959 122.601 125.659C104.879 143.36 92.8027 165.917 87.8979 190.48C82.993 215.042 85.4801 240.508 95.0446 263.657C104.609 286.806 120.822 306.601 141.633 320.538C162.445 334.476 186.922 341.931 211.969 341.961C228.617 341.981 245.106 338.718 260.492 332.361C275.878 326.004 289.861 316.677 301.64 304.912C313.419 293.147 322.763 279.176 329.139 263.797C335.514 248.418 338.796 231.933 338.796 215.285Z" fill="#FDF8EA"/>
<path fill-rule="evenodd" clip-rule="evenodd" d="M210.998 211H338.723C337.926 187.453 330.576 164.563 317.458 144.924C303.545 124.096 283.77 107.86 260.632 98.2674C244.83 91.7165 227.944 88.4653 210.998 88.6153V211Z" fill="#FCE08A"/>
<path d="M296.714 132.36L292.486 136.588C291.568 137.506 291.568 138.994 292.486 139.911C293.404 140.829 294.892 140.829 295.809 139.911L300.038 135.683C300.956 134.765 300.956 133.277 300.038 132.36C299.12 131.442 297.632 131.442 296.714 132.36Z" fill="#1D1D1B"/>
<path d="M330.682 208.72H324.702C323.404 208.72 322.352 209.772 322.352 211.07C322.352 212.368 323.404 213.42 324.702 213.42H330.682C331.979 213.42 333.032 212.368 333.032 211.07C333.032 209.772 331.979 208.72 330.682 208.72Z" fill="#1D1D1B"/>
<path d="M101.33 208.72H95.35C94.0521 208.72 93 209.772 93 211.07C93 212.368 94.0521 213.42 95.35 213.42H101.33C102.628 213.42 103.68 212.368 103.68 211.07C103.68 209.772 102.628 208.72 101.33 208.72Z" fill="#1D1D1B"/>
<path d="M296.667 291.718L292.438 287.489C291.52 286.571 290.033 286.571 289.115 287.489C288.197 288.407 288.197 289.895 289.115 290.813L293.343 295.041C294.261 295.959 295.749 295.959 296.667 295.041C297.584 294.123 297.584 292.635 296.667 291.718Z" fill="#1D1D1B"/>
<path d="M214.309 330.68V324.7C214.309 323.402 213.257 322.35 211.959 322.35C210.662 322.35 209.609 323.402 209.609 324.7V330.68C209.609 331.978 210.662 333.03 211.959 333.03C213.257 333.03 214.309 331.978 214.309 330.68Z" fill="#1D1D1B"/>
<path d="M128.226 284.11L123.998 288.339C123.08 289.256 123.08 290.744 123.998 291.662C124.915 292.58 126.403 292.58 127.321 291.662L131.55 287.433C132.467 286.516 132.467 285.028 131.55 284.11C130.632 283.192 129.144 283.192 128.226 284.11Z" fill="#1D1D1B"/>
<path d="M135.909 138.219L131.68 133.99C130.763 133.072 129.275 133.072 128.357 133.99C127.439 134.908 127.439 136.396 128.357 137.314L132.586 141.542C133.503 142.46 134.991 142.46 135.909 141.542C136.827 140.624 136.827 139.136 135.909 138.219Z" fill="#1D1D1B"/>
<path d="M213.419 105.33V99.35C213.419 98.0521 212.367 97 211.069 97C209.771 97 208.719 98.0521 208.719 99.35V105.33C208.719 106.628 209.771 107.68 211.069 107.68C212.367 107.68 213.419 106.628 213.419 105.33Z" fill="#1D1D1B"/>
<g clip-path="url(#clip0_1_41)">
<path d="M24.6574 91.1194C24.6574 90.527 24.541 89.9405 24.3151 89.3935C24.0891 88.8465 23.7581 88.3498 23.3408 87.9319C22.9235 87.5139 22.4282 87.1831 21.8834 86.9582C21.3387 86.7334 20.7552 86.619 20.1663 86.6217H5.49019C4.87652 86.5803 4.26096 86.6662 3.68166 86.874C3.10236 87.0819 2.57171 87.4072 2.12252 87.8298C1.67334 88.2524 1.3152 88.7635 1.07037 89.3311C0.825547 89.8986 0.699219 90.5108 0.699219 91.1295C0.699219 91.7482 0.825547 92.3603 1.07037 92.9279C1.3152 93.4955 1.67334 94.0064 2.12252 94.429C2.57171 94.8517 3.10236 95.177 3.68166 95.3848C4.26096 95.5926 4.87652 95.6786 5.49019 95.6373H20.1663C21.3574 95.6373 22.4998 95.1613 23.342 94.314C24.1842 93.4668 24.6574 92.3176 24.6574 91.1194Z" fill="white"/>
<path d="M26.7857 120.465L14.0745 127.847C13.526 128.123 13.0394 128.508 12.6447 128.98C12.25 129.452 11.9555 130 11.7793 130.591C11.6031 131.181 11.549 131.802 11.6203 132.415C11.6917 133.027 11.8869 133.618 12.194 134.152C12.5011 134.686 12.9137 135.151 13.4061 135.518C13.8985 135.885 14.4605 136.147 15.0574 136.288C15.6543 136.428 16.2735 136.445 16.8768 136.335C17.4801 136.226 18.0549 135.994 18.5655 135.653L31.2768 128.271C31.8252 127.995 32.3118 127.609 32.7065 127.138C33.1013 126.666 33.3958 126.118 33.572 125.527C33.7481 124.936 33.8021 124.316 33.7308 123.703C33.6595 123.091 33.4643 122.499 33.1572 121.965C32.8501 121.432 32.4376 120.967 31.9451 120.599C31.4527 120.232 30.8908 119.97 30.2939 119.83C29.697 119.689 29.0778 119.673 28.4744 119.782C27.8711 119.891 27.2964 120.124 26.7857 120.465Z" fill="white"/>
<path d="M31.2768 53.9865L18.5655 46.6045C18.0549 46.2633 17.4801 46.0309 16.8768 45.9216C16.2735 45.8123 15.6543 45.8284 15.0574 45.969C14.4605 46.1096 13.8985 46.3716 13.4061 46.7389C12.9137 47.1062 12.5011 47.5711 12.194 48.1048C11.8869 48.6386 11.6917 49.2299 11.6203 49.8425C11.549 50.455 11.6031 51.0757 11.7793 51.6664C11.9555 52.257 12.25 52.8052 12.6447 53.277C13.0394 53.7489 13.526 54.1344 14.0745 54.41L26.7857 61.792C27.2964 62.1332 27.8711 62.3654 28.4744 62.4747C29.0778 62.584 29.697 62.5679 30.2939 62.4273C30.8908 62.2868 31.4527 62.0249 31.9451 61.6576C32.4376 61.2903 32.8501 60.8254 33.1572 60.2916C33.4643 59.7579 33.6595 59.1665 33.7308 58.554C33.8021 57.9415 33.7481 57.3208 33.572 56.7301C33.3958 56.1394 33.1013 55.5913 32.7065 55.1194C32.3118 54.6476 31.8252 54.262 31.2768 53.9865Z" fill="white"/>
</g>
<g clip-path="url(#clip1_1_41)">
<path d="M398.343 91.1194C398.343 90.527 398.459 89.9405 398.685 89.3935C398.911 88.8465 399.242 88.3498 399.659 87.9319C400.077 87.5139 400.572 87.1831 401.117 86.9582C401.661 86.7334 402.245 86.619 402.834 86.6217H417.51C418.123 86.5803 418.739 86.6662 419.318 86.874C419.898 87.0819 420.428 87.4072 420.877 87.8298C421.327 88.2524 421.685 88.7635 421.93 89.3311C422.174 89.8986 422.301 90.5108 422.301 91.1295C422.301 91.7482 422.174 92.3603 421.93 92.9279C421.685 93.4955 421.327 94.0064 420.877 94.429C420.428 94.8517 419.898 95.177 419.318 95.3848C418.739 95.5926 418.123 95.6786 417.51 95.6373H402.834C401.643 95.6373 400.5 95.1613 399.658 94.314C398.816 93.4668 398.343 92.3176 398.343 91.1194Z" fill="white"/>
<path d="M396.214 120.465L408.926 127.847C409.474 128.123 409.961 128.508 410.355 128.98C410.75 129.452 411.045 130 411.221 130.591C411.397 131.181 411.451 131.802 411.38 132.415C411.308 133.027 411.113 133.618 410.806 134.152C410.499 134.686 410.086 135.151 409.594 135.518C409.101 135.885 408.54 136.147 407.943 136.288C407.346 136.428 406.727 136.445 406.123 136.335C405.52 136.226 404.945 135.994 404.434 135.653L391.723 128.271C391.175 127.995 390.688 127.609 390.293 127.138C389.899 126.666 389.604 126.118 389.428 125.527C389.252 124.936 389.198 124.316 389.269 123.703C389.341 123.091 389.536 122.499 389.843 121.965C390.15 121.432 390.562 120.967 391.055 120.599C391.547 120.232 392.109 119.97 392.706 119.83C393.303 119.689 393.922 119.673 394.526 119.782C395.129 119.891 395.704 120.124 396.214 120.465Z" fill="white"/>
<path d="M391.723 53.9865L404.434 46.6045C404.945 46.2633 405.52 46.0309 406.123 45.9216C406.727 45.8123 407.346 45.8284 407.943 45.969C408.54 46.1096 409.101 46.3716 409.594 46.7389C410.086 47.1062 410.499 47.5711 410.806 48.1048C411.113 48.6386 411.308 49.2299 411.38 49.8425C411.451 50.455 411.397 51.0757 411.221 51.6664C411.045 52.257 410.75 52.8052 410.355 53.277C409.961 53.7489 409.474 54.1344 408.926 54.41L396.214 61.792C395.704 62.1332 395.129 62.3654 394.526 62.4747C393.922 62.584 393.303 62.5679 392.706 62.4273C392.109 62.2868 391.547 62.0249 391.055 61.6576C390.562 61.2903 390.15 60.8254 389.843 60.2916C389.536 59.7579 389.341 59.1665 389.269 58.554C389.198 57.9415 389.252 57.3208 389.428 56.7301C389.604 56.1394 389.899 55.5913 390.293 55.1194C390.688 54.6476 391.175 54.262 391.723 53.9865Z" fill="white"/>
</g>
<defs>
<clipPath id="clip0_1_41">
<rect width="35" height="91" fill="white" transform="translate(0 46)"/>
</clipPath>
<clipPath id="clip1_1_41">
<rect width="35" height="91" fill="white" transform="matrix(-1 0 0 1 423 46)"/>
</clipPath>
</defs>
</svg>
