<svg width="520" height="188" viewBox="0 0 520 188" fill="none" xmlns="http://www.w3.org/2000/svg">
<path fill-rule="evenodd" clip-rule="evenodd" d="M0 6C0 2.68629 2.68629 0 6 0H514C517.314 0 520 2.68629 520 6V182C520 185.314 517.314 188 514 188H5.99999C2.68628 188 0 185.314 0 182V6ZM12 9C12 10.6569 10.6569 12 9 12C7.34315 12 6 10.6569 6 9C6 7.34315 7.34315 6 9 6C10.6569 6 12 7.34315 12 9ZM9 182C10.6569 182 12 180.657 12 179C12 177.343 10.6569 176 9 176C7.34315 176 6 177.343 6 179C6 180.657 7.34315 182 9 182ZM514 9C514 10.6569 512.657 12 511 12C509.343 12 508 10.6569 508 9C508 7.34315 509.343 6 511 6C512.657 6 514 7.34315 514 9ZM511 182C512.657 182 514 180.657 514 179C514 177.343 512.657 176 511 176C509.343 176 508 177.343 508 179C508 180.657 509.343 182 511 182Z" fill="#FDF8EA"/>
<path d="M198.28 71.22C198.28 73.02 198.4 74.67 198.64 76.17C198.94 77.67 199.36 79.11 199.9 80.49C200.44 81.87 201.13 83.22 201.97 84.54C202.87 85.8 203.95 87.12 205.21 88.5C206.83 90.24 208.45 91.95 210.07 93.63C211.75 95.31 213.28 96.75 214.66 97.95C215.8 98.97 216.25 100.2 216.01 101.64C215.77 103.02 215.2 104.19 214.3 105.15C213.88 105.57 213.37 105.93 212.77 106.23C212.17 106.53 211.54 106.74 210.88 106.86C210.28 106.92 209.65 106.86 208.99 106.68C208.39 106.5 207.82 106.17 207.28 105.69C206.08 104.61 204.76 103.38 203.32 102C201.94 100.56 200.53 99.06 199.09 97.5C196.69 94.98 195.04 93.09 194.14 91.83C193.24 90.51 192.7 89.4 192.52 88.5H192.43C192.31 89.04 192.1 89.61 191.8 90.21C191.56 90.75 191.2 91.38 190.72 92.1C190.24 92.76 189.58 93.57 188.74 94.53C187.96 95.43 186.97 96.51 185.77 97.77C184.33 99.33 182.83 100.86 181.27 102.36C179.77 103.86 178.12 105.45 176.32 107.13C175.18 108.15 173.89 108.48 172.45 108.12C171.07 107.7 169.96 107.04 169.12 106.14C168.22 105.12 167.74 103.92 167.68 102.54C167.62 101.16 168.13 99.96 169.21 98.94C172.93 95.52 176.41 92.04 179.65 88.5C180.91 87.12 181.96 85.8 182.8 84.54C183.7 83.22 184.42 81.87 184.96 80.49C185.5 79.11 185.89 77.67 186.13 76.17C186.43 74.67 186.58 73.02 186.58 71.22V58.62C186.58 56.88 187.15 55.62 188.29 54.84C189.49 54.06 190.87 53.67 192.43 53.67C193.99 53.67 195.34 54.06 196.48 54.84C197.68 55.62 198.28 56.88 198.28 58.62V71.22ZM234.82 123.33C234.82 125.01 234.22 126.24 233.02 127.02C231.88 127.8 230.53 128.19 228.97 128.19C227.47 128.19 226.12 127.8 224.92 127.02C223.78 126.24 223.21 125.01 223.21 123.33V54.39C223.21 52.71 223.78 51.48 224.92 50.7C226.12 49.92 227.47 49.53 228.97 49.53C230.53 49.53 231.88 49.92 233.02 50.7C234.22 51.48 234.82 52.71 234.82 54.39V123.33ZM278.194 63.84V66.09C278.194 68.85 278.614 71.16 279.454 73.02C280.294 74.88 281.674 76.62 283.594 78.24C285.574 79.86 287.404 81.33 289.084 82.65C290.824 83.91 292.354 85.02 293.674 85.98C294.934 86.88 295.594 87.99 295.654 89.31C295.714 90.57 295.324 91.77 294.484 92.91C294.124 93.39 293.704 93.84 293.224 94.26C292.744 94.62 292.174 94.89 291.514 95.07C290.914 95.25 290.254 95.31 289.534 95.25C288.874 95.13 288.184 94.83 287.464 94.35C286.444 93.63 285.154 92.7 283.594 91.56C282.094 90.36 280.444 89.04 278.644 87.6C276.484 85.86 274.984 84.51 274.144 83.55C273.364 82.59 272.854 81.69 272.614 80.85H272.524C272.284 81.87 271.714 82.92 270.814 84C269.914 85.08 268.384 86.49 266.224 88.23C262.744 90.99 259.264 93.6 255.784 96.06C254.464 97.02 253.144 97.26 251.824 96.78C250.504 96.24 249.514 95.49 248.854 94.53C248.074 93.45 247.684 92.22 247.684 90.84C247.684 89.46 248.374 88.29 249.754 87.33C251.794 85.89 253.714 84.48 255.514 83.1C257.374 81.72 259.294 80.22 261.274 78.6C263.194 76.98 264.574 75.24 265.414 73.38C266.254 71.52 266.674 69.21 266.674 66.45V63.84H253.264C251.884 63.84 250.864 63.36 250.204 62.4C249.544 61.44 249.214 60.3 249.214 58.98C249.214 57.66 249.544 56.52 250.204 55.56C250.864 54.6 251.884 54.12 253.264 54.12H290.704C292.084 54.12 293.104 54.6 293.764 55.56C294.424 56.52 294.754 57.66 294.754 58.98C294.754 60.3 294.424 61.44 293.764 62.4C293.104 63.36 292.084 63.84 290.704 63.84H278.194ZM321.124 68.43C322.564 68.43 323.614 68.91 324.274 69.87C324.934 70.83 325.264 72 325.264 73.38C325.264 74.76 324.934 75.96 324.274 76.98C323.614 77.94 322.564 78.42 321.124 78.42H312.664V93.9C312.664 95.58 312.064 96.81 310.864 97.59C309.724 98.37 308.404 98.76 306.904 98.76C305.404 98.76 304.054 98.37 302.854 97.59C301.714 96.81 301.144 95.58 301.144 93.9V54.39C301.144 52.71 301.714 51.48 302.854 50.7C304.054 49.92 305.404 49.53 306.904 49.53C308.404 49.53 309.724 49.92 310.864 50.7C312.064 51.48 312.664 52.71 312.664 54.39V68.43H321.124ZM301.144 113.88C301.144 112.5 300.454 111.81 299.074 111.81H261.994C260.614 111.81 259.594 111.33 258.934 110.37C258.274 109.41 257.944 108.27 257.944 106.95C257.944 105.63 258.274 104.49 258.934 103.53C259.594 102.57 260.614 102.09 261.994 102.09H305.014C307.894 102.09 309.874 102.63 310.954 103.71C312.094 104.79 312.664 106.74 312.664 109.56V129.27C312.664 130.95 312.064 132.18 310.864 132.96C309.724 133.74 308.404 134.13 306.904 134.13C305.404 134.13 304.054 133.74 302.854 132.96C301.714 132.18 301.144 130.95 301.144 129.27V113.88ZM340.828 110.46C342.748 110.46 344.368 111.12 345.688 112.44C347.008 113.76 347.668 115.38 347.668 117.3C347.668 119.22 347.008 120.84 345.688 122.16C344.368 123.48 342.748 124.14 340.828 124.14C338.908 124.14 337.288 123.48 335.968 122.16C334.648 120.84 333.988 119.22 333.988 117.3C333.988 115.38 334.648 113.76 335.968 112.44C337.288 111.12 338.908 110.46 340.828 110.46ZM340.828 52.86C342.748 52.86 344.278 53.28 345.418 54.12C346.618 54.96 347.188 56.37 347.128 58.35L345.688 99.48C345.628 101.34 345.088 102.63 344.068 103.35C343.108 104.07 342.028 104.43 340.828 104.43C339.628 104.43 338.518 104.07 337.498 103.35C336.538 102.63 336.028 101.34 335.968 99.48L334.528 58.35C334.468 56.37 335.008 54.96 336.148 54.12C337.348 53.28 338.908 52.86 340.828 52.86Z" fill="#222222"/>
<path d="M439.025 72.13C433.658 69.1635 431.946 66.7568 429.797 59.26C427.66 66.7375 425.936 69.1442 420.562 72.13C425.936 75.103 427.641 77.5097 429.797 85C431.946 77.5097 433.645 75.103 439.025 72.13Z" stroke="#FCD049" stroke-opacity="0.6" stroke-width="3" stroke-linecap="round" stroke-linejoin="round"/>
<path d="M401 43C396.93 40.695 395.632 38.825 394.002 33C392.382 38.81 391.075 40.68 387 43C391.075 45.31 392.368 47.18 394.002 53C395.632 47.18 396.921 45.31 401 43Z" stroke="#FCD049" stroke-opacity="0.6" stroke-width="3" stroke-linecap="round" stroke-linejoin="round"/>
<path d="M421.484 46.2805H427.919" stroke="#FCD049" stroke-opacity="0.6" stroke-width="3" stroke-linecap="round" stroke-linejoin="round"/>
<path d="M424.703 43.0632V49.4982" stroke="#FCD049" stroke-opacity="0.6" stroke-width="3" stroke-linecap="round" stroke-linejoin="round"/>
<path d="M123.025 123.13C117.658 120.163 115.946 117.757 113.797 110.26C111.66 117.737 109.936 120.144 104.562 123.13C109.936 126.103 111.641 128.51 113.797 136C115.946 128.51 117.645 126.103 123.025 123.13Z" stroke="#FCD049" stroke-opacity="0.6" stroke-width="3" stroke-linecap="round" stroke-linejoin="round"/>
<path d="M90.4844 97.2805H96.9194" stroke="#FCD049" stroke-opacity="0.6" stroke-width="3" stroke-linecap="round" stroke-linejoin="round"/>
<path d="M93.7031 94.0632V100.498" stroke="#FCD049" stroke-opacity="0.6" stroke-width="3" stroke-linecap="round" stroke-linejoin="round"/>
</svg>
