<svg width="24" height="24" viewBox="0 0 24 24" fill="none" xmlns="http://www.w3.org/2000/svg">
<path d="M18.3086 7.7998H9.90859C8.7488 7.7998 7.80859 8.74001 7.80859 9.8998V18.2998C7.80859 19.4596 8.7488 20.3998 9.90859 20.3998H18.3086C19.4684 20.3998 20.4086 19.4596 20.4086 18.2998V9.8998C20.4086 8.74001 19.4684 7.7998 18.3086 7.7998Z" stroke="#9E9E9E" stroke-width="1.8" stroke-linecap="round" stroke-linejoin="round"/>
<path d="M16.2055 7.79961V5.69961C16.2055 5.14265 15.9842 4.60851 15.5904 4.21469C15.1966 3.82086 14.6624 3.59961 14.1055 3.59961H5.70547C5.14851 3.59961 4.61437 3.82086 4.22054 4.21469C3.82672 4.60851 3.60547 5.14265 3.60547 5.69961V14.0996C3.60547 14.6566 3.82672 15.1907 4.22054 15.5845C4.61437 15.9784 5.14851 16.1996 5.70547 16.1996H7.80547" stroke="#9E9E9E" stroke-width="1.8" stroke-linecap="round" stroke-linejoin="round"/>
</svg>
