<svg width="52" height="52" viewBox="0 0 52 52" fill="none" xmlns="http://www.w3.org/2000/svg">
<path d="M17.4883 11.6181C17.4883 11.6277 17.4883 11.6374 17.4883 11.647L17.4883 23.1663C17.4883 27.6572 21.242 31.2855 25.9186 31.2855C30.5953 31.2855 34.4873 27.6572 34.4873 23.1663V10.9132H34.4528C34.0589 6.74009 30.3392 3.49805 25.9186 3.49805C21.4979 3.49805 17.9019 6.74009 17.5216 10.9132H17.4883V11.6181Z" fill="#FF7596"/>
<path d="M40.6534 24.7178V21.3488C40.6534 20.7796 40.115 20.4258 39.5458 20.4258H37.8536C37.3151 20.4258 36.9305 20.7796 36.9305 21.3488V24.7178C36.9305 30.8713 32.0847 35.7326 25.9158 35.7326C19.7469 35.7326 15.0857 30.8867 15.0857 24.7178V21.3488C15.0857 20.7796 14.5165 20.4258 14.1319 20.4258H12.2858C11.9012 20.4258 11.332 20.7796 11.332 21.3488V24.7178C11.332 31.979 16.9625 38.3171 24.2236 39.2708V43.2245H16.5779C16.0087 43.2245 15.6549 43.6091 15.6549 44.1475V45.8397C15.6549 46.4089 16.0087 46.9781 16.5779 46.9781H35.4537C35.8075 46.9781 36.3767 46.4089 36.3767 45.8397V44.1475C36.3767 43.6091 35.8075 43.2245 35.4537 43.2245H27.7772V39.2708C35.0691 38.3171 40.6688 31.979 40.6688 24.7178H40.6534Z" fill="#FF7596"/>
</svg>
