<svg width="24" height="24" viewBox="0 0 24 24" fill="none" xmlns="http://www.w3.org/2000/svg">
<path fill-rule="evenodd" clip-rule="evenodd" d="M20.4376 11.2615C20.3707 6.68308 16.5825 3.00001 11.9305 3.00001C10.474 2.99759 9.04124 3.36606 7.76916 4.0702C6.49707 4.77433 5.42818 5.7906 4.66464 7.02185C4.57331 7.17797 4.54702 7.36334 4.59139 7.53843C4.63577 7.71351 4.74728 7.86446 4.90216 7.9591C5.05704 8.05373 5.24303 8.08456 5.42048 8.04501C5.59792 8.00546 5.75279 7.89866 5.85205 7.74739C6.49081 6.71748 7.38507 5.8675 8.4493 5.27873C9.51353 4.68997 10.7121 4.38211 11.9305 4.38462C15.8219 4.38462 18.974 7.45662 19.0419 11.2597L18.67 10.8932C18.5387 10.7638 18.361 10.6915 18.1759 10.6922C17.9909 10.6929 17.8138 10.7666 17.6834 10.8969C17.5531 11.0273 17.4803 11.2037 17.481 11.3874C17.4817 11.571 17.5558 11.7469 17.6871 11.8763L19.2493 13.4141C19.3799 13.5427 19.5563 13.6148 19.7402 13.6148C19.9241 13.6148 20.1006 13.5427 20.2312 13.4141L21.7933 11.8763C21.8584 11.8123 21.9102 11.7362 21.9456 11.6523C21.9811 11.5685 21.9996 11.4785 22 11.3876C22.0004 11.2966 21.9828 11.2065 21.9481 11.1223C21.9135 11.0381 21.8625 10.9615 21.798 10.8969C21.7335 10.8323 21.6569 10.7809 21.5724 10.7457C21.4879 10.7105 21.3973 10.6922 21.3057 10.6918C21.2141 10.6913 21.1233 10.7088 21.0385 10.7432C20.9537 10.7776 20.8765 10.8283 20.8114 10.8923L20.4376 11.2615ZM4.76413 10.5849C4.63357 10.4567 4.45731 10.3847 4.27364 10.3847C4.08997 10.3847 3.91371 10.4567 3.78315 10.5849L2.21542 12.1228C2.14854 12.1862 2.09505 12.2623 2.05808 12.3465C2.02111 12.4307 2.00139 12.5214 2.00007 12.6133C1.99875 12.7051 2.01586 12.7963 2.0504 12.8815C2.08494 12.9668 2.13622 13.0443 2.20125 13.1097C2.26628 13.175 2.34376 13.2269 2.42918 13.2622C2.5146 13.2975 2.60624 13.3156 2.69878 13.3154C2.79132 13.3153 2.88289 13.2968 2.96817 13.2611C3.05344 13.2255 3.13072 13.1733 3.19548 13.1077L3.57672 12.7338C3.64181 17.3169 7.44581 21 12.1127 21C13.5728 21.0035 15.0095 20.6358 16.286 19.9319C17.5624 19.2281 18.636 18.2115 19.4046 16.9791C19.4527 16.9017 19.485 16.8156 19.4996 16.7258C19.5142 16.636 19.5108 16.5443 19.4897 16.4558C19.4686 16.3673 19.4302 16.2838 19.3765 16.21C19.3229 16.1363 19.2552 16.0737 19.1772 16.026C19.0993 15.9782 19.0126 15.9462 18.9221 15.9317C18.8317 15.9172 18.7393 15.9205 18.6501 15.9414C18.561 15.9624 18.4768 16.0006 18.4025 16.0538C18.3283 16.107 18.2653 16.1743 18.2172 16.2517C17.5736 17.2831 16.6747 18.1338 15.6061 18.7226C14.5375 19.3114 13.3349 19.6188 12.1127 19.6154C8.20177 19.6154 5.03658 16.5388 4.97149 12.7357L5.35087 13.1077C5.48243 13.2368 5.66029 13.3088 5.84531 13.3078C6.03032 13.3067 6.20735 13.2328 6.33743 13.1021C6.46752 12.9715 6.54001 12.795 6.53897 12.6113C6.53792 12.4276 6.46342 12.2519 6.33185 12.1228L4.76413 10.5849Z" fill="#9E9E9E" stroke="#9E9E9E" stroke-width="0.5"/>
</svg>
