<svg width="16" height="16" viewBox="0 0 16 16" fill="none" xmlns="http://www.w3.org/2000/svg">
<path d="M8 15C11.866 15 15 11.866 15 8C15 4.13401 11.866 1 8 1C4.13401 1 1 4.13401 1 8C1 11.866 4.13401 15 8 15Z" stroke="#9E9E9E" stroke-linecap="round" stroke-linejoin="round"/>
<path d="M7.875 11.75C8.35825 11.75 8.75 11.3582 8.75 10.875C8.75 10.3918 8.35825 10 7.875 10C7.39175 10 7 10.3918 7 10.875C7 11.3582 7.39175 11.75 7.875 11.75Z" fill="#9E9E9E"/>
<path d="M7.78351 8.49999C8.16835 8.50118 8.54234 8.36967 8.8451 8.12672C9.14786 7.88377 9.36171 7.54356 9.45211 7.16101C9.54251 6.77847 9.50419 6.37593 9.34334 6.0184C9.18249 5.66088 8.90849 5.36923 8.56559 5.19055C8.22519 5.01223 7.83579 4.95694 7.46076 5.03368C7.08572 5.11041 6.74711 5.31466 6.5 5.6132" stroke="#9E9E9E" stroke-linecap="round" stroke-linejoin="round"/>
</svg>
