<svg width="70" height="70" viewBox="0 0 70 70" fill="none" xmlns="http://www.w3.org/2000/svg">
<circle cx="35" cy="35" r="32" fill="white" stroke="#E1E1E1" stroke-width="3"/>
<path d="M35.2209 51.136C36.764 51.136 38.0149 49.881 38.0149 48.3329C38.0149 46.7848 36.764 45.5298 35.2209 45.5298C33.6779 45.5298 32.427 46.7848 32.427 48.3329C32.427 49.881 33.6779 51.136 35.2209 51.136Z" fill="#E1E1E1"/>
<path d="M35.221 51.5482C33.4415 51.5482 32 50.102 32 48.3166C32 46.5311 33.4415 45.085 35.221 45.085C37.0006 45.085 38.4421 46.5311 38.4421 48.3166C38.4421 50.102 37.0006 51.5482 35.221 51.5482ZM35.221 45.9598C33.922 45.9598 32.8542 47.0311 32.8542 48.3344C32.8542 49.6378 33.922 50.709 35.221 50.709C36.5201 50.709 37.5879 49.6378 37.5879 48.3344C37.5879 47.0311 36.5379 45.9598 35.221 45.9598Z" fill="#E1E1E1"/>
<path d="M35.2213 40.5128C33.8154 40.5128 32.6765 39.3702 32.6765 37.9597V20.9804C32.6765 19.5699 33.8154 18.4272 35.2213 18.4272C36.6272 18.4272 37.7661 19.5699 37.7661 20.9804V37.9597C37.7839 39.3702 36.6272 40.5128 35.2213 40.5128Z" fill="#E1E1E1"/>
</svg>
