<svg width="52" height="52" viewBox="0 0 52 52" fill="none" xmlns="http://www.w3.org/2000/svg">
<path fill-rule="evenodd" clip-rule="evenodd" d="M4.875 15.6734C4.875 11.5045 8.25453 8.125 12.4234 8.125H39.5766C43.7455 8.125 47.125 11.5045 47.125 15.6734V37.9516C47.125 42.1205 43.7455 45.5 39.5766 45.5H12.4234C8.25453 45.5 4.875 42.1205 4.875 37.9516V15.6734ZM19.511 26.0056L11.6504 33.9024C11.474 34.0796 11.375 34.3195 11.375 34.5695V39.0183C11.375 39.4704 11.5538 39.9039 11.872 40.2236C12.1901 40.5433 12.6217 40.7229 13.0717 40.7229H38.9291C39.3791 40.7229 39.8107 40.5433 40.1289 40.2236C40.4471 39.9039 40.6258 39.4704 40.6258 39.0183V35.9525C40.6258 35.7026 40.5269 35.4629 40.3507 35.2857L34.6435 29.5477C34.486 29.3893 34.2989 29.2636 34.093 29.1779C33.887 29.0921 33.6662 29.0479 33.4432 29.0479C33.2203 29.0479 32.9995 29.0921 32.7935 29.1779C32.5877 29.2636 32.4003 29.3896 32.2428 29.5479L28.8403 32.9661L21.9114 26.0051C21.7539 25.8469 21.5669 25.7213 21.3611 25.6356C21.1551 25.5498 20.9344 25.5057 20.7114 25.5057C20.4884 25.5057 20.2676 25.5498 20.0617 25.6356C19.8559 25.7213 19.6685 25.8473 19.511 26.0056ZM35.3642 22.6767C37.85 22.6767 39.8652 20.6616 39.8652 18.1758C39.8652 15.69 37.85 13.6748 35.3642 13.6748C32.8784 13.6748 30.8633 15.69 30.8633 18.1758C30.8633 20.6616 32.8784 22.6767 35.3642 22.6767Z" fill="#53B9FF"/>
</svg>
