<svg width="24" height="24" viewBox="0 0 24 24" fill="none" xmlns="http://www.w3.org/2000/svg">
<path d="M8 3H6C5.46957 3 4.96086 3.18964 4.58579 3.52721C4.21071 3.86477 4 4.32261 4 4.8V19.2C4 19.6774 4.21071 20.1352 4.58579 20.4728C4.96086 20.8104 5.46957 21 6 21H8C8.53043 21 9.03914 20.8104 9.41421 20.4728C9.78929 20.1352 10 19.6774 10 19.2V4.8C10 4.32261 9.78929 3.86477 9.41421 3.52721C9.03914 3.18964 8.53043 3 8 3ZM18 3H16C15.4696 3 14.9609 3.18964 14.5858 3.52721C14.2107 3.86477 14 4.32261 14 4.8V19.2C14 19.6774 14.2107 20.1352 14.5858 20.4728C14.9609 20.8104 15.4696 21 16 21H18C18.5304 21 19.0391 20.8104 19.4142 20.4728C19.7893 20.1352 20 19.6774 20 19.2V4.8C20 4.32261 19.7893 3.86477 19.4142 3.52721C19.0391 3.18964 18.5304 3 18 3Z" fill="black"/>
</svg>
