<svg width="24" height="24" viewBox="0 0 24 24" fill="none" xmlns="http://www.w3.org/2000/svg">
<path d="M15.2893 10.4401L14.7493 5.65507C15.2626 5.12931 15.6163 4.46875 15.7693 3.75007C15.8004 3.61492 15.8003 3.47447 15.7692 3.33934C15.738 3.20422 15.6765 3.07795 15.5893 2.97007C15.5018 2.86351 15.3919 2.7774 15.2675 2.7178C15.1432 2.6582 15.0072 2.62655 14.8693 2.62507H9.06433C8.92586 2.62331 8.78886 2.65353 8.66398 2.71337C8.5391 2.7732 8.42971 2.86105 8.34433 2.97007C8.25743 3.07511 8.19598 3.1988 8.16475 3.3315C8.13353 3.46419 8.13338 3.60231 8.16433 3.73507C8.31592 4.45751 8.67572 5.11975 9.19933 5.64007L8.62933 10.4401C7.61554 10.9785 6.74995 11.7582 6.109 12.7105C5.46806 13.6627 5.07149 14.7582 4.95433 15.9001C4.94093 16.0314 4.95394 16.1641 4.99258 16.2903C5.03122 16.4165 5.09471 16.5337 5.17933 16.6351C5.26863 16.7335 5.3774 16.8124 5.49876 16.8666C5.62012 16.9208 5.75141 16.9492 5.88433 16.9501H11.0443V21.0601C11.0478 21.3063 11.1442 21.5421 11.3143 21.7201C11.3974 21.802 11.4958 21.8667 11.6039 21.9105C11.712 21.9542 11.8277 21.9762 11.9443 21.9751C12.1899 21.9688 12.4247 21.8727 12.6043 21.7051C12.6862 21.622 12.751 21.5236 12.7947 21.4155C12.8385 21.3074 12.8604 21.1917 12.8593 21.0751V16.9501H18.0343C18.1647 16.9472 18.2931 16.9178 18.4118 16.8636C18.5304 16.8094 18.6367 16.7317 18.7243 16.6351C18.8147 16.5369 18.8829 16.4205 18.9243 16.2937C18.9657 16.1669 18.9794 16.0326 18.9643 15.9001C18.8472 14.7582 18.4506 13.6627 17.8097 12.7105C17.1687 11.7582 16.3031 10.9785 15.2893 10.4401Z" fill="#FF8737" stroke="#FF8737" stroke-width="0.6"/>
</svg>
