<svg width="20" height="20" viewBox="0 0 20 20" fill="none" xmlns="http://www.w3.org/2000/svg">
<path d="M18.332 9.99984C18.332 14.5998 14.5987 18.3332 9.9987 18.3332C5.3987 18.3332 1.66537 14.5998 1.66537 9.99984C1.66537 5.39984 5.3987 1.6665 9.9987 1.6665C14.5987 1.6665 18.332 5.39984 18.332 9.99984ZM9.9987 7.67484V9.1665H7.4987C7.04037 9.1665 6.66537 9.5415 6.66537 9.99984C6.66537 10.4582 7.04037 10.8332 7.4987 10.8332H9.9987V12.3248C9.9987 12.6998 10.4487 12.8832 10.707 12.6165L13.032 10.2915C13.1987 10.1248 13.1987 9.8665 13.032 9.69984L10.707 7.37484C10.6483 7.31725 10.5738 7.27834 10.493 7.26302C10.4122 7.24769 10.3286 7.25663 10.2529 7.28872C10.1771 7.3208 10.1126 7.37458 10.0673 7.4433C10.0221 7.51201 9.99821 7.59258 9.9987 7.67484Z" fill="#9E9E9E"/>
</svg>
