<svg width="24" height="24" viewBox="0 0 24 24" fill="none" xmlns="http://www.w3.org/2000/svg">
<path d="M3.88126 10.9713C3.602 11.2484 3.38037 11.5781 3.22912 11.9413C3.07787 12.3045 3 12.6941 3 13.0876C3 13.481 3.07787 13.8706 3.22912 14.2338C3.38037 14.597 3.602 14.9267 3.88126 15.2038L8.82477 20.1234C9.39031 20.6846 10.1548 20.9996 10.9516 20.9996C11.7483 20.9996 12.5128 20.6846 13.0784 20.1234L20.0827 13.1535C20.641 12.5985 20.9574 11.8455 20.9631 11.0582L20.9991 6.01574C21.0011 5.61891 20.9243 5.22563 20.7732 4.85867C20.6221 4.49172 20.3998 4.15839 20.1189 3.87799C19.8381 3.59759 19.5045 3.3757 19.1373 3.22517C18.7701 3.07464 18.3767 2.99846 17.9799 3.00104L13.1054 3.02204C12.3127 3.02463 11.5529 3.33931 10.9906 3.89795L3.88126 10.9713ZM16.4995 9.00045C16.1017 9.00045 15.7202 8.84243 15.439 8.56115C15.1577 8.27988 14.9997 7.89838 14.9997 7.5006C14.9997 7.10281 15.1577 6.72132 15.439 6.44004C15.7202 6.15877 16.1017 6.00075 16.4995 6.00075C16.8973 6.00075 17.2788 6.15877 17.5601 6.44004C17.8414 6.72132 17.9994 7.10281 17.9994 7.5006C17.9994 7.89838 17.8414 8.27988 17.5601 8.56115C17.2788 8.84243 16.8973 9.00045 16.4995 9.00045Z" fill="#9E9E9E"/>
</svg>
