<svg width="14" height="14" viewBox="0 0 14 14" fill="none" xmlns="http://www.w3.org/2000/svg">
<path d="M6.97825 10.3601C7.17425 10.3601 7.34001 10.2924 7.47553 10.1569C7.61105 10.0213 7.67862 9.85577 7.67825 9.66015C7.67825 9.46415 7.61068 9.29839 7.47553 9.16287C7.34038 9.02735 7.17462 8.95977 6.97825 8.96015C6.78225 8.96015 6.61668 9.02791 6.48153 9.16343C6.34638 9.29895 6.27862 9.46452 6.27825 9.66015C6.27825 9.85615 6.34601 10.0219 6.48153 10.1574C6.61705 10.2929 6.78262 10.3605 6.97825 10.3601ZM6.47425 8.20415H7.51025C7.51025 7.89615 7.54534 7.65348 7.61553 7.47615C7.68572 7.29881 7.88396 7.05615 8.21025 6.74815C8.45292 6.50548 8.64425 6.27439 8.78425 6.05487C8.92425 5.83535 8.99425 5.57177 8.99425 5.26415C8.99425 4.74148 8.80292 4.34015 8.42025 4.06015C8.03758 3.78015 7.58492 3.64015 7.06225 3.64015C6.53025 3.64015 6.09868 3.78015 5.76753 4.06015C5.43638 4.34015 5.20529 4.67615 5.07425 5.06815L5.99825 5.43215C6.04492 5.26415 6.15001 5.08215 6.31353 4.88615C6.47705 4.69015 6.72662 4.59215 7.06225 4.59215C7.36092 4.59215 7.58492 4.67391 7.73425 4.83743C7.88358 5.00095 7.95825 5.18052 7.95825 5.37615C7.95825 5.56281 7.90225 5.73791 7.79025 5.90143C7.67825 6.06495 7.53825 6.21652 7.37025 6.35615C6.95958 6.72015 6.70758 6.99548 6.61425 7.18215C6.52092 7.36881 6.47425 7.70948 6.47425 8.20415ZM7.00625 12.6001C6.23158 12.6001 5.50358 12.4532 4.82225 12.1594C4.14092 11.8656 3.54825 11.4665 3.04425 10.9621C2.54025 10.4581 2.14134 9.86548 1.84753 9.18415C1.55372 8.50281 1.40662 7.77481 1.40625 7.00015C1.40625 6.22548 1.55334 5.49748 1.84753 4.81615C2.14172 4.13481 2.54062 3.54215 3.04425 3.03815C3.54825 2.53415 4.14092 2.13524 4.82225 1.84143C5.50358 1.54761 6.23158 1.40052 7.00625 1.40015C7.78092 1.40015 8.50892 1.54724 9.19025 1.84143C9.87158 2.13561 10.4642 2.53452 10.9682 3.03815C11.4722 3.54215 11.8713 4.13481 12.1655 4.81615C12.4597 5.49748 12.6066 6.22548 12.6062 7.00015C12.6062 7.77481 12.4592 8.50281 12.165 9.18415C11.8708 9.86548 11.4719 10.4581 10.9682 10.9621C10.4642 11.4661 9.87158 11.8652 9.19025 12.1594C8.50892 12.4536 7.78092 12.6005 7.00625 12.6001Z" fill="#616161"/>
</svg>
