<svg width="24" height="24" viewBox="0 0 24 24" fill="none" xmlns="http://www.w3.org/2000/svg">
<g clip-path="url(#clip0_2274_5826)">
<path d="M12 21C9.61305 21 7.32387 20.0518 5.63604 18.364C3.94821 16.6761 3 14.3869 3 12C3 9.61305 3.94821 7.32387 5.63604 5.63604C7.32387 3.94821 9.61305 3 12 3C16.97 3 21 6.582 21 11C21 12.06 20.526 13.078 19.682 13.828C18.838 14.578 17.693 15 16.5 15H14C13.5539 14.9928 13.1181 15.135 12.7621 15.404C12.4061 15.673 12.1503 16.0533 12.0353 16.4844C11.9203 16.9155 11.9528 17.3727 12.1276 17.7833C12.3025 18.1938 12.6095 18.5341 13 18.75C13.1997 18.9342 13.3366 19.1764 13.3915 19.4425C13.4465 19.7085 13.4167 19.9851 13.3064 20.2334C13.196 20.4816 13.0107 20.6891 12.7764 20.8266C12.5421 20.9641 12.2705 21.0247 12 21Z" fill="#BDBDBD" stroke="#BDBDBD" stroke-width="1.5" stroke-linecap="round" stroke-linejoin="round"/>
<path d="M8.30078 6.5C8.30078 6.76522 8.40614 7.01957 8.59367 7.20711C8.78121 7.39464 9.03556 7.5 9.30078 7.5C9.566 7.5 9.82035 7.39464 10.0079 7.20711C10.1954 7.01957 10.3008 6.76522 10.3008 6.5C10.3008 6.23478 10.1954 5.98043 10.0079 5.79289C9.82035 5.60536 9.566 5.5 9.30078 5.5C9.03556 5.5 8.78121 5.60536 8.59367 5.79289C8.40614 5.98043 8.30078 6.23478 8.30078 6.5Z" fill="white" stroke="white" stroke-linecap="round" stroke-linejoin="round"/>
<path d="M5 10.2C5 10.4652 5.10536 10.7195 5.29289 10.9071C5.48043 11.0946 5.73478 11.2 6 11.2C6.26522 11.2 6.51957 11.0946 6.70711 10.9071C6.89464 10.7195 7 10.4652 7 10.2C7 9.93473 6.89464 9.68038 6.70711 9.49284C6.51957 9.30531 6.26522 9.19995 6 9.19995C5.73478 9.19995 5.48043 9.30531 5.29289 9.49284C5.10536 9.68038 5 9.93473 5 10.2Z" fill="white" stroke="white" stroke-linecap="round" stroke-linejoin="round"/>
<path d="M13.3008 6.5C13.3008 6.76522 13.4061 7.01957 13.5937 7.20711C13.7812 7.39464 14.0356 7.5 14.3008 7.5C14.566 7.5 14.8204 7.39464 15.0079 7.20711C15.1954 7.01957 15.3008 6.76522 15.3008 6.5C15.3008 6.23478 15.1954 5.98043 15.0079 5.79289C14.8204 5.60536 14.566 5.5 14.3008 5.5C14.0356 5.5 13.7812 5.60536 13.5937 5.79289C13.4061 5.98043 13.3008 6.23478 13.3008 6.5Z" fill="white" stroke="white" stroke-linecap="round" stroke-linejoin="round"/>
<path d="M16.8984 10.2C16.8984 10.4652 17.0038 10.7195 17.1913 10.9071C17.3789 11.0946 17.6332 11.2 17.8984 11.2C18.1637 11.2 18.418 11.0946 18.6055 10.9071C18.7931 10.7195 18.8984 10.4652 18.8984 10.2C18.8984 9.93473 18.7931 9.68038 18.6055 9.49284C18.418 9.30531 18.1637 9.19995 17.8984 9.19995C17.6332 9.19995 17.3789 9.30531 17.1913 9.49284C17.0038 9.68038 16.8984 9.93473 16.8984 10.2Z" fill="white" stroke="white" stroke-linecap="round" stroke-linejoin="round"/>
</g>
<defs>
<clipPath id="clip0_2274_5826">
<rect width="24" height="24" fill="white"/>
</clipPath>
</defs>
</svg>
