<svg width="23" height="24" viewBox="0 0 23 24" fill="none" xmlns="http://www.w3.org/2000/svg">
<path d="M22.6603 0.354752C22.5534 0.242343 22.4263 0.153122 22.2863 0.0922348C22.1462 0.0313477 21.996 0 21.8442 0C21.6925 0 21.5423 0.0313477 21.4022 0.0922348C21.2622 0.153122 21.1351 0.242343 21.0282 0.354752L0.340215 21.9422C0.23249 22.0537 0.146986 22.1864 0.0886358 22.3325C0.0302857 22.4787 0.000244141 22.6354 0.000244141 22.7937C0.000244141 22.9521 0.0302857 23.1088 0.0886358 23.255C0.146986 23.4011 0.23249 23.5338 0.340215 23.6452C0.447061 23.7577 0.574178 23.8469 0.714235 23.9078C0.854292 23.9687 1.00452 24 1.15624 24C1.30797 24 1.45819 23.9687 1.59825 23.9078C1.73831 23.8469 1.86542 23.7577 1.97227 23.6452L22.6603 2.05776C22.768 1.94627 22.8535 1.81363 22.9119 1.66748C22.9702 1.52134 23.0002 1.36458 23.0002 1.20626C23.0002 1.04794 22.9702 0.891181 22.9119 0.745034C22.8535 0.598888 22.768 0.466243 22.6603 0.354752Z" fill="#FF4040"/>
</svg>
