<svg width="24" height="24" viewBox="0 0 24 24" fill="none" xmlns="http://www.w3.org/2000/svg">
<path d="M12.0008 14.6998C13.492 14.6998 14.7008 13.491 14.7008 11.9998C14.7008 10.5086 13.492 9.2998 12.0008 9.2998C10.5096 9.2998 9.30078 10.5086 9.30078 11.9998C9.30078 13.491 10.5096 14.6998 12.0008 14.6998Z" stroke="#4778DE" stroke-width="1.5" stroke-linecap="round" stroke-linejoin="round"/>
<path d="M18.0553 14.4553C17.9473 14.7028 17.9164 14.9772 17.9665 15.2426C18.0167 15.5079 18.1456 15.752 18.3365 15.9431L18.3843 15.9937C18.5366 16.1453 18.6573 16.3254 18.7398 16.5238C18.8222 16.7222 18.8646 16.9348 18.8646 17.1496C18.8646 17.3645 18.8222 17.5771 18.7398 17.7755C18.6573 17.9739 18.5366 18.154 18.3843 18.3056V18.3056C18.0774 18.6125 17.6611 18.7849 17.227 18.7849C16.7929 18.7849 16.3766 18.6125 16.0697 18.3056V18.3056L16.0191 18.255C15.8275 18.0702 15.5861 17.9457 15.3245 17.8967C15.063 17.8477 14.7928 17.8765 14.5474 17.9794C14.302 18.0824 14.0922 18.255 13.9439 18.4759C13.7955 18.6968 13.7152 18.9564 13.7128 19.2224V19.3603C13.7136 19.5765 13.6714 19.7908 13.5887 19.9906C13.5061 20.1904 13.3846 20.3718 13.2313 20.5244C13.0779 20.6769 12.8959 20.7975 12.6956 20.8791C12.4954 20.9607 12.2809 21.0018 12.0647 20.9999C11.6306 20.9999 11.2142 20.8275 10.9073 20.5205C10.6003 20.2135 10.4278 19.7972 10.4278 19.3631V19.2899C10.4218 19.0192 10.3343 18.7566 10.1767 18.5364C10.0192 18.3161 9.79895 18.1485 9.54471 18.0553C9.29716 17.9473 9.02283 17.9163 8.75745 17.9665C8.49207 18.0167 8.24795 18.1456 8.05691 18.3365L8.00628 18.3843C7.85472 18.5365 7.67458 18.6573 7.47622 18.7397C7.27785 18.8222 7.06516 18.8646 6.85035 18.8646C6.63555 18.8646 6.42286 18.8222 6.22449 18.7397C6.02612 18.6573 5.84599 18.5365 5.69442 18.3843V18.3843C5.38751 18.0774 5.2151 17.6611 5.2151 17.227C5.2151 16.7929 5.38751 16.3766 5.69442 16.0697V16.0697L5.74505 16.019C5.93528 15.8276 6.06376 15.5835 6.11389 15.3183C6.16403 15.0531 6.13351 14.7789 6.02629 14.5312C5.92218 14.2891 5.7496 14.0826 5.52975 13.9372C5.30991 13.7918 5.05238 13.7138 4.7888 13.7128H4.65099C4.4338 13.715 4.21834 13.674 4.01721 13.592C3.81607 13.51 3.63331 13.3887 3.47959 13.2353C3.32587 13.0818 3.20429 12.8992 3.12196 12.6983C3.03962 12.4973 2.99818 12.2819 3.00006 12.0647C3.00006 11.6306 3.17252 11.2142 3.47949 10.9072C3.78646 10.6003 4.2028 10.4278 4.63693 10.4278H4.71005C4.98077 10.4217 5.24337 10.3342 5.46362 10.1767C5.68386 10.0192 5.85152 9.79893 5.94473 9.54469C6.05272 9.29714 6.08365 9.02281 6.03349 8.75743C5.98332 8.49205 5.85439 8.24793 5.66348 8.05689L5.61567 8.00626C5.46346 7.8547 5.34267 7.67456 5.26026 7.47619C5.17784 7.27783 5.13542 7.06514 5.13542 6.85033C5.13542 6.63552 5.17784 6.42283 5.26026 6.22447C5.34267 6.0261 5.46346 5.84596 5.61567 5.6944V5.6944C5.92263 5.38749 6.33893 5.21507 6.77301 5.21507C7.20708 5.21507 7.62338 5.38749 7.93035 5.6944V5.6944L7.98097 5.74502C8.17243 5.93526 8.41652 6.06374 8.68173 6.11387C8.94694 6.164 9.22108 6.13349 9.46877 6.02627H9.53346C9.7756 5.92216 9.98206 5.74958 10.1275 5.52973C10.2729 5.30989 10.3509 5.05235 10.3519 4.78878V4.65097C10.35 4.43388 10.3914 4.21859 10.4735 4.01763C10.5556 3.81667 10.6769 3.63405 10.8303 3.48041C10.9837 3.32677 11.1661 3.20518 11.3669 3.12271C11.5677 3.04024 11.7829 2.99854 12 3.00004C12.4341 3.00004 12.8505 3.17249 13.1574 3.47947C13.4644 3.78644 13.6369 4.20278 13.6369 4.6369V4.71003C13.6381 4.97321 13.7162 5.23029 13.8616 5.44965C14.007 5.66901 14.2134 5.84109 14.4553 5.94471C14.7029 6.0527 14.9772 6.08363 15.2426 6.03346C15.508 5.9833 15.7521 5.85436 15.9431 5.66346L15.9937 5.61565C16.1453 5.46343 16.3254 5.34265 16.5238 5.26024C16.7222 5.17782 16.9349 5.1354 17.1497 5.1354C17.3645 5.1354 17.5772 5.17782 17.7755 5.26024C17.9739 5.34265 18.154 5.46343 18.3056 5.61565V5.61565C18.6125 5.92261 18.7849 6.33891 18.7849 6.77299C18.7849 7.20706 18.6125 7.62336 18.3056 7.93032V7.93032L18.255 7.98095C18.0647 8.17241 17.9363 8.4165 17.8861 8.68171C17.836 8.94692 17.8665 9.22106 17.9737 9.46875V9.53344C18.0778 9.77558 18.2504 9.98204 18.4703 10.1274C18.6901 10.2728 18.9476 10.3508 19.2112 10.3519H19.349C19.5661 10.35 19.7814 10.3913 19.9824 10.4735C20.1833 10.5556 20.3659 10.6769 20.5196 10.8303C20.6732 10.9836 20.7948 11.166 20.8773 11.3669C20.9598 11.5677 21.0015 11.7829 21 12C21 12.4341 20.8275 12.8505 20.5205 13.1574C20.2136 13.4644 19.7972 13.6369 19.3631 13.6369H19.29C19.0268 13.6381 18.7697 13.7162 18.5504 13.8616C18.331 14.007 18.1589 14.2134 18.0553 14.4553V14.4553Z" stroke="#4778DE" stroke-width="1.5" stroke-linecap="round" stroke-linejoin="round"/>
</svg>
