<svg width="24" height="24" viewBox="0 0 24 24" fill="none" xmlns="http://www.w3.org/2000/svg">
<path d="M17.6382 11.7484C17.0728 11.7484 16.6102 12.2109 16.6102 12.7763V18.1423C16.6102 18.7076 16.1476 19.1702 15.5822 19.1702H6.08388C5.5185 19.1702 5.05592 18.7076 5.05592 18.1423V7.63651C5.05592 7.07114 5.5185 6.60855 6.08388 6.60855H10.4424C11.0078 6.60855 11.4704 6.14597 11.4704 5.58059C11.4704 5.01521 11.0078 4.55263 10.4424 4.55263H5.05592C3.92516 4.55263 3 5.4778 3 6.60855V18.9441C3 20.0748 3.92516 21 5.05592 21H16.6102C17.741 21 18.6661 20.0748 18.6661 18.9441V12.7763C18.6661 12.2109 18.2035 11.7484 17.6382 11.7484ZM20.7426 4.55263H18.6661V2.47615C18.6661 1.92105 18.2138 1.46875 17.6587 1.46875H17.6279C17.0625 1.46875 16.6102 1.92105 16.6102 2.47615V4.55263H14.544C13.9889 4.55263 13.5366 5.00493 13.5263 5.56003V5.59087C13.5263 6.15625 13.9786 6.60855 14.544 6.60855H16.6102V8.67475C16.6102 9.22985 17.0625 9.69243 17.6279 9.68215H17.6587C18.2138 9.68215 18.6661 9.22985 18.6661 8.67475V6.60855H20.7426C21.2977 6.60855 21.75 6.15625 21.75 5.60115V5.56003C21.75 5.00493 21.2977 4.55263 20.7426 4.55263Z" fill="#BDBDBD"/>
<path d="M12.7426 8.66431H8.13734C7.57196 8.66431 7.10938 9.12689 7.10938 9.69227C7.10938 10.2576 7.57196 10.7202 8.13734 10.7202H12.7426C13.308 10.7202 13.7706 10.2576 13.7706 9.69227C13.7706 9.12689 13.308 8.66431 12.7426 8.66431ZM12.7426 11.7482H8.13734C7.57196 11.7482 7.10938 12.2108 7.10938 12.7761C7.10938 13.3415 7.57196 13.8041 8.13734 13.8041H12.7426C13.308 13.8041 13.7706 13.3415 13.7706 12.7761C13.7706 12.2108 13.308 11.7482 12.7426 11.7482ZM12.7426 14.8321H8.13734C7.57196 14.8321 7.10938 15.2947 7.10938 15.86C7.10938 16.4254 7.57196 16.888 8.13734 16.888H12.7426C13.308 16.888 13.7706 16.4254 13.7706 15.86C13.7706 15.2947 13.308 14.8321 12.7426 14.8321Z" fill="#BDBDBD"/>
</svg>
