<svg width="20" height="20" viewBox="0 0 20 20" fill="none" xmlns="http://www.w3.org/2000/svg">
<path d="M3.77777 13.0276V15.7498C3.77777 16.1624 3.94165 16.558 4.23337 16.8497C4.52509 17.1415 4.92075 17.3053 5.3333 17.3053H14.6665C15.0791 17.3053 15.4747 17.1415 15.7664 16.8497C16.0582 16.558 16.222 16.1624 16.222 15.7498V13.0276M3 11.0832V10.3054C3 9.89288 3.16389 9.49723 3.45561 9.20551C3.74732 8.91379 4.14298 8.7499 4.55553 8.7499H15.4443C15.8568 8.7499 16.2525 8.91379 16.5442 9.20551C16.8359 9.49723 16.9998 9.89288 16.9998 10.3054V11.0832M9.9999 6.4166V8.7499M9.9999 6.4166C10.9814 6.4166 11.5554 5.66372 11.5554 4.37496C11.5554 3.0862 9.9999 1.75 9.9999 1.75C9.9999 1.75 8.44437 3.0862 8.44437 4.37496C8.44437 5.66372 9.01836 6.4166 9.9999 6.4166Z" stroke="#9E9E9E" stroke-width="1.4" stroke-linecap="round" stroke-linejoin="round"/>
<path d="M3 11.083C3 11.7018 3.24583 12.2953 3.68341 12.7329C4.12099 13.1705 4.71447 13.4163 5.3333 13.4163C5.95213 13.4163 6.54562 13.1705 6.98319 12.7329C7.42077 12.2953 7.6666 11.7018 7.6666 11.083C7.6666 11.7018 7.91243 12.2953 8.35001 12.7329C8.78759 13.1705 9.38107 13.4163 9.9999 13.4163C10.6187 13.4163 11.2122 13.1705 11.6498 12.7329C12.0874 12.2953 12.3332 11.7018 12.3332 11.083C12.3332 11.7018 12.579 12.2953 13.0166 12.7329C13.4542 13.1705 14.0477 13.4163 14.6665 13.4163C15.2853 13.4163 15.8788 13.1705 16.3164 12.7329C16.754 12.2953 16.9998 11.7018 16.9998 11.083" stroke="#9E9E9E" stroke-width="1.4" stroke-linecap="round" stroke-linejoin="round"/>
</svg>
