<svg width="90" height="90" viewBox="0 0 90 90" fill="none" xmlns="http://www.w3.org/2000/svg">
<g filter="url(#filter0_d_866_17402)">
<circle cx="45" cy="41" r="33" fill="#FF8737"/>
</g>
<path d="M54.3763 33.1156H51.1271L49.5294 30.7458C49.4438 30.6189 49.3279 30.5148 49.192 30.4428C49.056 30.3708 48.9042 30.3331 48.75 30.333H41.2481C41.0939 30.3331 40.9421 30.3708 40.8061 30.4428C40.6702 30.5148 40.5542 30.6189 40.4687 30.7458L38.8698 33.1156H35.6218C34.8757 33.1156 34.1601 33.4088 33.6326 33.9306C33.105 34.4525 32.8086 35.1602 32.8086 35.8982V48.8837C32.8086 49.6217 33.105 50.3295 33.6326 50.8513C34.1601 51.3731 34.8757 51.6663 35.6218 51.6663H54.3763C55.1224 51.6663 55.838 51.3731 56.3655 50.8513C56.8931 50.3295 57.1895 49.6217 57.1895 48.8837V35.8982C57.1895 35.1602 56.8931 34.4525 56.3655 33.9306C55.838 33.4088 55.1224 33.1156 54.3763 33.1156ZM49.2188 41.9272C49.2188 42.7527 48.9713 43.5597 48.5077 44.2461C48.044 44.9325 47.3849 45.4675 46.6139 45.7834C45.8428 46.0993 44.9944 46.1819 44.1758 46.0209C43.3573 45.8598 42.6054 45.4623 42.0152 44.8786C41.4251 44.2949 41.0232 43.5511 40.8604 42.7415C40.6975 41.9318 40.7811 41.0926 41.1005 40.3299C41.4199 39.5672 41.9607 38.9153 42.6547 38.4567C43.3486 37.9981 44.1645 37.7533 44.999 37.7533C46.1182 37.7533 47.1915 38.193 47.9829 38.9758C48.7742 39.7585 49.2188 40.8202 49.2188 41.9272Z" fill="white"/>
<defs>
<filter id="filter0_d_866_17402" x="0" y="0" width="90" height="90" filterUnits="userSpaceOnUse" color-interpolation-filters="sRGB">
<feFlood flood-opacity="0" result="BackgroundImageFix"/>
<feColorMatrix in="SourceAlpha" type="matrix" values="0 0 0 0 0 0 0 0 0 0 0 0 0 0 0 0 0 0 127 0" result="hardAlpha"/>
<feOffset dy="4"/>
<feGaussianBlur stdDeviation="6"/>
<feComposite in2="hardAlpha" operator="out"/>
<feColorMatrix type="matrix" values="0 0 0 0 0 0 0 0 0 0 0 0 0 0 0 0 0 0 0.15 0"/>
<feBlend mode="normal" in2="BackgroundImageFix" result="effect1_dropShadow_866_17402"/>
<feBlend mode="normal" in="SourceGraphic" in2="effect1_dropShadow_866_17402" result="shape"/>
</filter>
</defs>
</svg>
