<svg width="20" height="20" viewBox="0 0 20 20" fill="none" xmlns="http://www.w3.org/2000/svg">
<path fill-rule="evenodd" clip-rule="evenodd" d="M10.4117 17.4995H15.2829C16.2255 17.4995 16.989 16.7417 16.989 15.8061V13.3913C16.9899 12.7114 16.5787 12.0976 15.9466 11.8351L11.6632 10.3821C11.1317 10.1942 10.5755 10.1036 10.0193 10.101V10.0977C10.0125 10.0977 10.0057 10.0993 9.99799 10.0993C9.99117 10.0993 9.98434 10.0977 9.97752 10.0977V10.101C9.42131 10.1036 8.8651 10.1942 8.33362 10.3821L4.05028 11.8351C3.41815 12.0976 3.00696 12.7114 3.00781 13.3913V15.8061C3.00781 16.7417 3.77132 17.4995 4.71398 17.4995H9.97752H10.4117Z" fill="#222222"/>
<path fill-rule="evenodd" clip-rule="evenodd" d="M10.0251 9.27682C12.0696 9.27682 13.726 7.61944 13.726 5.57591C13.726 3.53144 12.0696 1.875 10.0251 1.875C7.98159 1.875 6.32422 3.53144 6.32422 5.57591C6.32422 7.61944 7.98159 9.27682 10.0251 9.27682Z" fill="#222222"/>
</svg>
