<svg width="18" height="18" viewBox="0 0 18 18" fill="none" xmlns="http://www.w3.org/2000/svg">
<g clip-path="url(#clip0_9887_6557)">
<path d="M9 1.5C13.1423 1.5 16.5 4.85642 16.5 8.99703C16.5016 10.9654 15.7287 12.8553 14.3482 14.2589C12.9677 15.6625 11.0904 16.4671 9.12152 16.499C7.15267 16.5309 5.25025 15.7875 3.825 14.4294C2.39974 13.0712 1.56599 11.2073 1.50375 9.23994L1.5 8.99703L1.503 8.78712C1.614 4.74397 4.9275 1.5 9 1.5ZM9.0075 11.2461L8.91225 11.2514C8.72996 11.2731 8.56196 11.3608 8.44006 11.498C8.31816 11.6352 8.25084 11.8123 8.25084 11.9958C8.25084 12.1793 8.31816 12.3565 8.44006 12.4937C8.56196 12.6309 8.72996 12.7186 8.91225 12.7403L9 12.7456L9.09525 12.7403C9.27754 12.7186 9.44554 12.6309 9.56744 12.4937C9.68934 12.3565 9.75666 12.1793 9.75666 11.9958C9.75666 11.8123 9.68934 11.6352 9.56744 11.498C9.44554 11.3608 9.27754 11.2731 9.09525 11.2514L9.0075 11.2461ZM9 5.24852C8.8163 5.24854 8.639 5.31596 8.50172 5.43798C8.36444 5.56 8.27674 5.72814 8.25525 5.91051L8.25 5.99822V8.99703L8.25525 9.08475C8.27693 9.26696 8.36472 9.4349 8.50197 9.55675C8.63923 9.6786 8.81643 9.7459 9 9.7459C9.18357 9.7459 9.36077 9.6786 9.49803 9.55675C9.63528 9.4349 9.72307 9.26696 9.74475 9.08475L9.75 8.99703V5.99822L9.74475 5.91051C9.72326 5.72814 9.63556 5.56 9.49828 5.43798C9.361 5.31596 9.1837 5.24854 9 5.24852Z" fill="#FF6A6A"/>
</g>
<defs>
<clipPath id="clip0_9887_6557">
<rect width="18" height="18" fill="white"/>
</clipPath>
</defs>
</svg>
