<svg width="24" height="24" viewBox="0 0 24 24" fill="none" xmlns="http://www.w3.org/2000/svg">
<g clip-path="url(#clip0_4421_1983)">
<path d="M15.212 4.49184C15.7792 3.92478 16.5485 3.6063 17.3506 3.60645C18.1527 3.60659 18.9219 3.92536 19.489 4.49263C20.056 5.0599 20.3745 5.8292 20.3743 6.63129C20.3742 7.43339 20.0554 8.20257 19.4882 8.76963L18.7299 9.52787L14.4537 5.24851L15.212 4.49184ZM13.3369 6.36693L17.6131 10.6431L8.16183 20.0944C7.59477 20.6614 6.82568 20.98 6.02373 20.98C5.22179 20.98 4.45269 20.6614 3.88563 20.0944C3.31857 19.5273 3 18.7582 3 17.9563C3 17.1543 3.31857 16.3852 3.88563 15.8182L13.3369 6.36693Z" fill="#333333"/>
<path d="M8.85423 3.45996C8.85423 3.9775 9.05982 4.47385 9.42578 4.83981C9.79173 5.20576 10.2881 5.41136 10.8056 5.41136C10.2881 5.41136 9.79173 5.61695 9.42578 5.98291C9.05982 6.34886 8.85423 6.84521 8.85423 7.36275C8.85423 6.84521 8.64863 6.34886 8.28268 5.98291C7.91672 5.61695 7.42037 5.41136 6.90283 5.41136C7.42037 5.41136 7.91672 5.20576 8.28268 4.83981C8.64863 4.47385 8.85423 3.9775 8.85423 3.45996Z" fill="#333333"/>
<path fill-rule="evenodd" clip-rule="evenodd" d="M8.85433 3.021C9.09681 3.021 9.29339 3.21757 9.29339 3.46006C9.29339 3.86115 9.45272 4.24582 9.73634 4.52944C10.02 4.81306 10.4046 4.97239 10.8057 4.97239C11.0482 4.97239 11.2448 5.16897 11.2448 5.41145C11.2448 5.65394 11.0482 5.85052 10.8057 5.85052C10.4046 5.85052 10.02 6.00985 9.73634 6.29347C9.45272 6.57709 9.29339 6.96175 9.29339 7.36285C9.29339 7.60534 9.09681 7.80191 8.85433 7.80191C8.61184 7.80191 8.41526 7.60534 8.41526 7.36285C8.41526 6.96175 8.25593 6.57709 7.97231 6.29347C7.68869 6.00985 7.30403 5.85052 6.90293 5.85052C6.66044 5.85052 6.46387 5.65394 6.46387 5.41145C6.46387 5.16897 6.66044 4.97239 6.90293 4.97239C7.30403 4.97239 7.68869 4.81306 7.97231 4.52944C8.25593 4.24582 8.41526 3.86115 8.41526 3.46006C8.41526 3.21757 8.61184 3.021 8.85433 3.021ZM8.85433 4.84078C8.77672 4.95046 8.68951 5.0541 8.59324 5.15037C8.49697 5.24664 8.39333 5.33385 8.28365 5.41145C8.39333 5.48906 8.49697 5.57627 8.59324 5.67254C8.68951 5.76881 8.77672 5.87245 8.85433 5.98213C8.93193 5.87245 9.01914 5.76881 9.11541 5.67254C9.21168 5.57627 9.31532 5.48906 9.425 5.41145C9.31532 5.33385 9.21168 5.24664 9.11541 5.15037C9.01914 5.0541 8.93193 4.95046 8.85433 4.84078Z" fill="#333333"/>
<path d="M18.6111 13.2168C18.6111 13.7343 18.8167 14.2307 19.1826 14.5966C19.5486 14.9626 20.0449 15.1682 20.5625 15.1682C20.0449 15.1682 19.5486 15.3738 19.1826 15.7397C18.8167 16.1057 18.6111 16.602 18.6111 17.1196C18.6111 16.602 18.4055 16.1057 18.0395 15.7397C17.6736 15.3738 17.1772 15.1682 16.6597 15.1682C17.1772 15.1682 17.6736 14.9626 18.0395 14.5966C18.4055 14.2307 18.6111 13.7343 18.6111 13.2168Z" fill="#333333"/>
<path fill-rule="evenodd" clip-rule="evenodd" d="M18.6107 12.7781C18.8532 12.7781 19.0497 12.9747 19.0497 13.2171C19.0497 13.6182 19.2091 14.0029 19.4927 14.2865C19.7763 14.5701 20.161 14.7295 20.5621 14.7295C20.8046 14.7295 21.0011 14.926 21.0011 15.1685C21.0011 15.411 20.8046 15.6076 20.5621 15.6076C20.161 15.6076 19.7763 15.7669 19.4927 16.0506C19.2091 16.3342 19.0497 16.7188 19.0497 17.1199C19.0497 17.3624 18.8532 17.559 18.6107 17.559C18.3682 17.559 18.1716 17.3624 18.1716 17.1199C18.1716 16.7188 18.0123 16.3342 17.7287 16.0506C17.445 15.7669 17.0604 15.6076 16.6593 15.6076C16.4168 15.6076 16.2202 15.411 16.2202 15.1685C16.2202 14.926 16.4168 14.7295 16.6593 14.7295C17.0604 14.7295 17.445 14.5701 17.7287 14.2865C18.0123 14.0029 18.1716 13.6182 18.1716 13.2171C18.1716 12.9747 18.3682 12.7781 18.6107 12.7781ZM18.6107 14.5979C18.5331 14.7075 18.4459 14.8112 18.3496 14.9074C18.2533 15.0037 18.1497 15.0909 18.04 15.1685C18.1497 15.2461 18.2533 15.3333 18.3496 15.4296C18.4459 15.5259 18.5331 15.6295 18.6107 15.7392C18.6883 15.6295 18.7755 15.5259 18.8718 15.4296C18.968 15.3333 19.0717 15.2461 19.1813 15.1685C19.0717 15.0909 18.968 15.0037 18.8718 14.9074C18.7755 14.8112 18.6883 14.7075 18.6107 14.5979Z" fill="#333333"/>
</g>
<defs>
<clipPath id="clip0_4421_1983">
<rect width="24" height="24" fill="white"/>
</clipPath>
</defs>
</svg>
