<svg width="38" height="38" viewBox="0 0 38 38" fill="none" xmlns="http://www.w3.org/2000/svg">
<g clip-path="url(#clip0_1934_3580)">
<path d="M32.3398 15.7107L31.7757 15.1427L32.6503 14.2471C33.5763 13.3191 34.0964 12.0621 34.0964 10.7517C34.0964 9.4413 33.5763 8.18434 32.6503 7.2564L30.5512 5.15483C29.6225 4.22955 28.3644 3.70996 27.0529 3.70996C25.7413 3.70996 24.4833 4.22955 23.5545 5.15483L22.6799 6.05488L22.1114 5.48689L3.91992 23.6626V33.8864H14.1526L32.3398 15.7107ZM27.3721 16.969L20.8477 10.4503L22.1071 9.19193L28.6315 15.7107L27.3721 16.969ZM25.4261 7.01172C25.6418 6.7956 25.8981 6.62413 26.1803 6.50713C26.4624 6.39013 26.7649 6.3299 27.0704 6.3299C27.3758 6.3299 27.6783 6.39013 27.9605 6.50713C28.2426 6.62413 28.4989 6.7956 28.7146 7.01172L30.818 9.10892C31.2527 9.54532 31.4968 10.136 31.4968 10.7517C31.4968 11.3675 31.2527 11.9581 30.818 12.3945L29.9172 13.2902L24.5297 7.9074L25.4261 7.01172ZM6.53933 31.2649V24.7505L18.9935 12.3071L25.518 18.8259L13.0638 31.2649H6.53933Z" fill="#9E9E9E"/>
</g>
<defs>
<clipPath id="clip0_1934_3580">
<rect width="38" height="38" fill="white"/>
</clipPath>
</defs>
</svg>
