<svg width="22" height="22" viewBox="0 0 22 22" fill="none" xmlns="http://www.w3.org/2000/svg">
<path d="M6.87969 8.51992C6.4023 8.51992 5.94446 8.33028 5.6069 7.99271C5.26933 7.65515 5.07969 7.19731 5.07969 6.71992C5.07969 6.24253 5.26933 5.7847 5.6069 5.44713C5.94446 5.10956 6.4023 4.91992 6.87969 4.91992C7.35708 4.91992 7.81491 5.10956 8.15248 5.44713C8.49005 5.7847 8.67969 6.24253 8.67969 6.71992C8.67969 7.19731 8.49005 7.65515 8.15248 7.99271C7.81491 8.33028 7.35708 8.51992 6.87969 8.51992Z" fill="#BDBDBD"/>
<path d="M21.8789 2.52012C21.8789 1.8836 21.626 1.27315 21.176 0.823061C20.7259 0.372974 20.1154 0.120117 19.4789 0.120117L2.67891 0.120117C2.04239 0.120117 1.43194 0.372974 0.98185 0.823061C0.531763 1.27315 0.278906 1.8836 0.278906 2.52012L0.278906 19.3201C0.278906 19.9566 0.531763 20.5671 0.98185 21.0172C1.43194 21.4673 2.04239 21.7201 2.67891 21.7201L19.4789 21.7201C20.1154 21.7201 20.7259 21.4673 21.176 21.0172C21.626 20.5671 21.8789 19.9566 21.8789 19.3201L21.8789 2.52012ZM2.67891 2.52012L19.4789 2.52012V12.0241L15.4289 8.78412C15.2161 8.61371 14.9516 8.52087 14.6789 8.52087C14.4063 8.52087 14.1417 8.61371 13.9289 8.78412L8.76891 12.9121L7.12731 11.2717C6.90227 11.0468 6.5971 10.9204 6.27891 10.9204C5.96071 10.9204 5.65554 11.0468 5.4305 11.2717L2.67891 14.0233V2.52012ZM19.4789 19.3201L2.67891 19.3201V17.4169L6.27891 13.8169L7.83051 15.3685C8.0393 15.5774 8.31782 15.702 8.61273 15.7184C8.90765 15.7348 9.19825 15.6418 9.42891 15.4573L14.6789 11.2561L19.4789 15.0961L19.4789 19.3201Z" fill="#BDBDBD"/>
</svg>
