<svg width="18" height="18" viewBox="0 0 18 18" fill="none" xmlns="http://www.w3.org/2000/svg">
<g clip-path="url(#clip0_2918_2117)">
<path d="M9.78111 1.80078C9.99279 1.80078 10.1822 1.93254 10.2534 2.12982L10.7618 3.53886C10.9439 3.58422 11.1002 3.62958 11.2326 3.6771C11.3774 3.72894 11.5638 3.80742 11.7942 3.9147L12.9779 3.2883C13.0745 3.23712 13.1851 3.21864 13.2931 3.23564C13.4012 3.25265 13.5007 3.30422 13.577 3.38262L14.6181 4.45902C14.7563 4.6023 14.7952 4.81182 14.7174 4.9947L14.1623 6.29574C14.2545 6.46494 14.3279 6.60966 14.3841 6.73062C14.4446 6.86238 14.5194 7.04382 14.6087 7.27782L15.9026 7.83222C16.097 7.91502 16.2172 8.10942 16.2042 8.3175L16.1092 9.8115C16.1027 9.90856 16.0678 10.0016 16.009 10.079C15.9501 10.1564 15.8698 10.2149 15.778 10.2471L14.5526 10.6827C14.5173 10.8519 14.4806 10.9966 14.4417 11.119C14.379 11.3081 14.3074 11.494 14.2271 11.6763L14.8427 13.0371C14.8862 13.1327 14.8979 13.2397 14.8761 13.3425C14.8543 13.4452 14.8002 13.5383 14.7218 13.6081L13.551 14.6535C13.4739 14.7221 13.3777 14.7654 13.2753 14.7778C13.1729 14.7901 13.0691 14.7709 12.9779 14.7226L11.7712 14.0833C11.5824 14.1832 11.3876 14.2715 11.188 14.3475L10.661 14.5448L10.193 15.8408C10.1583 15.9357 10.0957 16.0179 10.0135 16.0766C9.93124 16.1353 9.83318 16.1678 9.73215 16.1698L8.36415 16.2008C8.26045 16.2035 8.15844 16.174 8.07218 16.1164C7.98593 16.0587 7.91965 15.9758 7.88247 15.8789L7.33095 14.4195C7.14278 14.3552 6.95646 14.2856 6.77223 14.2107C6.62155 14.1455 6.47314 14.0751 6.32727 13.9997L4.95927 14.5844C4.86913 14.6228 4.76976 14.6343 4.67325 14.6173C4.57673 14.6003 4.48724 14.5556 4.41567 14.4886L3.40335 13.5389C3.32798 13.4685 3.27666 13.3762 3.25663 13.2751C3.2366 13.1739 3.24889 13.069 3.29175 12.9752L3.87999 11.6936C3.80176 11.5418 3.72923 11.3871 3.66255 11.2299C3.58472 11.0375 3.51269 10.8427 3.44655 10.646L2.15775 10.2536C2.05299 10.2219 1.96162 10.1566 1.89782 10.0676C1.83403 9.9787 1.80138 9.8712 1.80495 9.76182L1.85535 8.3787C1.85894 8.28846 1.88713 8.20091 1.93688 8.12553C1.98662 8.05015 2.05603 7.98981 2.13759 7.95102L3.48975 7.30158C3.55239 7.0719 3.60711 6.89334 3.65535 6.76302C3.72328 6.58896 3.79871 6.41792 3.88143 6.25038L3.29535 5.01198C3.25087 4.91794 3.23737 4.81221 3.25677 4.71C3.27618 4.6078 3.3275 4.51438 3.40335 4.44318L4.41423 3.48846C4.4851 3.42163 4.57376 3.37669 4.66956 3.35906C4.76537 3.34144 4.86422 3.35187 4.95423 3.3891L6.32079 3.95358C6.47199 3.85278 6.60879 3.77142 6.73263 3.7059C6.88023 3.62742 7.07751 3.54534 7.32591 3.45678L7.80111 2.13126C7.83624 2.03426 7.90046 1.95046 7.985 1.89131C8.06953 1.83216 8.17026 1.80055 8.27343 1.80078H9.78111ZM9.02223 6.85446C7.82199 6.85446 6.84927 7.81566 6.84927 9.00222C6.84927 10.1888 7.82199 11.1507 9.02223 11.1507C10.2218 11.1507 11.1945 10.1888 11.1945 9.00222C11.1945 7.81566 10.2225 6.85446 9.02223 6.85446Z" fill="#FF8737"/>
</g>
<defs>
<clipPath id="clip0_2918_2117">
<rect width="14.4" height="14.4" fill="white" transform="translate(1.80469 1.80078)"/>
</clipPath>
</defs>
</svg>
