<svg width="30" height="30" viewBox="0 0 30 30" fill="none" xmlns="http://www.w3.org/2000/svg">
<g clip-path="url(#clip0_4421_4884)">
<path d="M3.59961 9.4998V6.6498C3.59961 5.89394 3.89988 5.16903 4.43435 4.63455C4.96883 4.10007 5.69374 3.7998 6.44961 3.7998H9.29961M3.59961 20.8998V23.7498C3.59961 24.5057 3.89988 25.2306 4.43435 25.7651C4.96883 26.2995 5.69374 26.5998 6.44961 26.5998H9.29961M20.6996 3.7998H23.5496C24.3055 3.7998 25.0304 4.10007 25.5649 4.63455C26.0993 5.16903 26.3996 5.89394 26.3996 6.6498V9.4998M20.6996 26.5998H23.5496C24.3055 26.5998 25.0304 26.2995 25.5649 25.7651C26.0993 25.2306 26.3996 24.5057 26.3996 23.7498V20.8998" stroke="white" stroke-width="1.8" stroke-linecap="round" stroke-linejoin="round"/>
<path d="M11.5908 18.0907C12.0352 18.5442 12.5656 18.9046 13.151 19.1505C13.7364 19.3965 14.365 19.5232 14.9999 19.5232C15.6349 19.5232 16.2635 19.3965 16.8489 19.1505C17.4343 18.9046 17.9647 18.5442 18.4091 18.0907" stroke="white" stroke-width="1.8" stroke-linecap="round" stroke-linejoin="round"/>
<path d="M10.9082 12.4725H10.9218M19.0901 12.4725H19.1037" stroke="white" stroke-width="2.46" stroke-linecap="round" stroke-linejoin="round"/>
</g>
<defs>
<clipPath id="clip0_4421_4884">
<rect width="25.2" height="25.2" fill="white" transform="translate(2.40039 2.6001)"/>
</clipPath>
</defs>
</svg>
