<svg width="200" height="200" viewBox="0 0 200 200" fill="none" xmlns="http://www.w3.org/2000/svg">
<circle cx="100" cy="100" r="97" stroke="#FA903B" stroke-width="6"/>
<path d="M50.9451 117.157V102.354L57.8076 95.6753L73.838 117.157H82.5193L62.7177 90.8965L82.1335 72H73.002L50.9451 94.1269V72H44V117.157H50.9451Z" fill="#FA903B"/>
<path fill-rule="evenodd" clip-rule="evenodd" d="M93.0333 115.609C95.7342 117.071 98.8209 117.802 102.293 117.802C103.88 117.802 105.487 117.587 107.116 117.157C108.788 116.684 110.353 116.06 111.811 115.286C113.311 114.512 114.576 113.609 115.605 112.577L112.261 107.868C110.589 109.33 109.024 110.34 107.567 110.899C106.152 111.459 104.608 111.738 102.936 111.738C100.579 111.738 98.4994 111.265 96.6988 110.319C94.8982 109.373 93.5049 108.04 92.5189 106.319C91.7734 104.986 91.3097 103.481 91.1279 101.804H116.955L117.019 98.9651C117.062 96.5998 116.698 94.428 115.926 92.4496C115.197 90.4283 114.126 88.6866 112.711 87.2243C111.339 85.7621 109.71 84.6224 107.824 83.8053C105.937 82.9452 103.901 82.5151 101.715 82.5151C99.2281 82.5151 96.9131 82.9667 94.7696 83.8698C92.6689 84.73 90.8469 85.9772 89.3036 87.6114C87.8031 89.2026 86.6242 91.0949 85.7668 93.2883C84.9093 95.4816 84.4806 97.9115 84.4806 100.578C84.4806 103.932 85.2309 106.9 86.7313 109.48C88.2747 112.061 90.3754 114.103 93.0333 115.609ZM91.3811 96.5138C91.5841 95.5413 91.8776 94.6597 92.2617 93.8689C93.0762 92.1486 94.2766 90.8584 95.8628 89.9983C97.449 89.0951 99.3996 88.6436 101.715 88.6436C103.172 88.6436 104.523 88.9661 105.766 89.6112C107.009 90.2563 108.038 91.1379 108.853 92.2561C109.667 93.3743 110.139 94.643 110.267 96.0622V96.5138H91.3811Z" fill="#FA903B"/>
<path d="M136.346 131.994L110.901 199L104.591 196.589L134.509 117.805L119.281 83.2892H126.998L137.544 108.19C137.759 108.62 138.016 109.287 138.316 110.19L138.393 110.414C138.731 109.522 139.048 108.63 139.345 107.738L148.155 83.2892H156L142.11 117.157L136.387 131.994H136.346Z" fill="#FA903B"/>
</svg>
