<svg width="50" height="50" viewBox="0 0 50 50" fill="none" xmlns="http://www.w3.org/2000/svg">
<path fill-rule="evenodd" clip-rule="evenodd" d="M11 6.8C9.88609 6.8 8.8178 7.2425 8.03015 8.03015C7.2425 8.8178 6.8 9.88609 6.8 11V17H4V11C4 9.14348 4.7375 7.36301 6.05025 6.05025C7.36301 4.7375 9.14348 4 11 4L17 4V6.8H11ZM39 6.8H33V4H39C40.8565 4 42.637 4.7375 43.9497 6.05025C45.2625 7.36301 46 9.14348 46 11V17H43.2V11C43.2 9.88609 42.7575 8.8178 41.9698 8.03015C41.1822 7.2425 40.1139 6.8 39 6.8ZM4 39V33H6.8V39C6.8 40.1139 7.2425 41.1822 8.03015 41.9698C8.8178 42.7575 9.88609 43.2 11 43.2H17V46H11C9.14348 46 7.36301 45.2625 6.05025 43.9497C4.7375 42.637 4 40.8565 4 39ZM46 33V39C46 40.8565 45.2625 42.637 43.9497 43.9497C42.637 45.2625 40.8565 46 39 46H33V43.2H39C40.1139 43.2 41.1822 42.7575 41.9698 41.9698C42.7575 41.1822 43.2 40.1139 43.2 39V33H46Z" fill="#828282"/>
<g filter="url(#filter0_f_5372_2724)">
<g filter="url(#filter1_d_5372_2724)">
<path d="M37 25.0027C37.0005 22.6291 36.2972 20.3087 34.9788 18.3349C33.6604 16.3611 31.7863 14.8226 29.5935 13.914C27.4007 13.0054 24.9876 12.7675 22.6596 13.2304C20.3316 13.6934 18.1931 14.8363 16.5147 16.5147C14.8363 18.1931 13.6934 20.3316 13.2304 22.6596C12.7675 24.9876 13.0054 27.4006 13.914 29.5935C14.8226 31.7863 16.3611 33.6604 18.3349 34.9788C20.3087 36.2971 22.6291 37.0005 25.0027 37C28.1846 37 31.2362 35.736 33.4861 33.4861C35.736 31.2362 37 28.1846 37 25.0027Z" fill="#EAEAEA"/>
<path d="M35.4393 18.0272C36.8185 20.0921 37.5544 22.5196 37.5538 25.0027L35.4393 18.0272ZM35.4393 18.0272C34.0601 15.9623 32.0995 14.3528 29.8055 13.4023M35.4393 18.0272L29.8055 13.4023M29.8055 13.4023C27.5114 12.4518 24.9871 12.2029 22.5516 12.6872M29.8055 13.4023L22.5516 12.6872M22.5516 12.6872C20.1161 13.1715 17.879 14.3672 16.1231 16.1231M22.5516 12.6872L16.1231 16.1231M16.1231 16.1231C14.3672 17.8789 13.1715 20.1161 12.6872 22.5516M16.1231 16.1231L12.6872 22.5516M12.6872 22.5516C12.2029 24.987 12.4518 27.5114 13.4023 29.8055M12.6872 22.5516L13.4023 29.8055M13.4023 29.8055C14.3528 32.0995 15.9623 34.0601 18.0273 35.4393M13.4023 29.8055L18.0273 35.4393M18.0273 35.4393C20.0921 36.8185 22.5196 37.5544 25.0027 37.5538L18.0273 35.4393ZM25.0029 37.5538C28.3316 37.5538 31.524 36.2315 33.8777 33.8777C36.2315 31.5239 37.5538 28.3316 37.5538 25.0029L25.0029 37.5538Z" stroke="#EAEAEA" stroke-width="1.10769"/>
</g>
<path d="M25.095 30.6274C24.2926 30.6313 23.4975 30.4288 22.7559 30.0317C22.0144 29.6346 21.3412 29.0508 20.7753 28.3141C20.6949 28.2181 20.6303 28.1021 20.5854 27.973C20.5404 27.8439 20.5161 27.7044 20.5138 27.5628C20.5116 27.4212 20.5314 27.2805 20.5722 27.1491C20.6129 27.0177 20.6738 26.8983 20.7511 26.7981C20.8283 26.6979 20.9204 26.6189 21.0218 26.5659C21.1233 26.5129 21.2319 26.487 21.3412 26.4897C21.4506 26.4924 21.5584 26.5237 21.6582 26.5816C21.758 26.6396 21.8477 26.723 21.9219 26.827C22.3375 27.3659 22.8311 27.7934 23.3744 28.0851C23.9177 28.3768 24.5001 28.5269 25.0882 28.5269C25.6764 28.5269 26.2588 28.3768 26.8021 28.0851C27.3454 27.7934 27.839 27.3659 28.2545 26.827C28.4088 26.6429 28.6121 26.5432 28.8218 26.5488C29.0316 26.5544 29.2315 26.6649 29.3797 26.8572C29.528 27.0494 29.613 27.3085 29.617 27.58C29.621 27.8516 29.5436 28.1147 29.4012 28.3141C28.8371 29.049 28.1661 29.6319 27.427 30.0289C26.6878 30.426 25.8952 30.6294 25.095 30.6274Z" fill="#111111"/>
<path d="M22.7749 22.7127C22.7754 22.4172 22.6882 22.1281 22.5243 21.8821C22.3605 21.6361 22.1273 21.4443 21.8544 21.3308C21.5814 21.2174 21.281 21.1875 20.991 21.2448C20.7011 21.3022 20.4347 21.4443 20.2255 21.6531C20.0163 21.862 19.8738 22.1281 19.816 22.418C19.7582 22.7079 19.7876 23.0084 19.9006 23.2815C20.0136 23.5546 20.2051 23.788 20.4508 23.9523C20.6965 24.1166 20.9854 24.2042 21.281 24.2042C21.4771 24.2046 21.6713 24.1662 21.8525 24.0914C22.0338 24.0166 22.1985 23.9068 22.3372 23.7682C22.476 23.6297 22.5861 23.4652 22.6612 23.2841C22.7363 23.103 22.7749 22.9088 22.7749 22.7127Z" fill="#111111"/>
<path d="M30.2446 22.7126C30.2451 22.4169 30.1579 22.1278 29.9939 21.8817C29.8299 21.6357 29.5966 21.4439 29.3235 21.3305C29.0505 21.2171 28.7499 21.1873 28.4599 21.2449C28.1699 21.3025 27.9035 21.4448 27.6944 21.6539C27.4853 21.8629 27.343 22.1293 27.2854 22.4194C27.2279 22.7094 27.2576 23.0099 27.371 23.283C27.4844 23.5561 27.6762 23.7894 27.9223 23.9534C28.1683 24.1173 28.4575 24.2046 28.7531 24.2041C29.1487 24.2041 29.5281 24.047 29.8078 23.7673C30.0875 23.4876 30.2446 23.1082 30.2446 22.7126Z" fill="#111111"/>
</g>
<defs>
<filter id="filter0_f_5372_2724" x="9.12335" y="9.1231" width="31.7533" height="31.7538" filterUnits="userSpaceOnUse" color-interpolation-filters="sRGB">
<feFlood flood-opacity="0" result="BackgroundImageFix"/>
<feBlend mode="normal" in="SourceGraphic" in2="BackgroundImageFix" result="shape"/>
<feGaussianBlur stdDeviation="1.38462" result="effect1_foregroundBlur_5372_2724"/>
</filter>
<filter id="filter1_d_5372_2724" x="8.20027" y="11.8923" width="33.5995" height="33.5999" filterUnits="userSpaceOnUse" color-interpolation-filters="sRGB">
<feFlood flood-opacity="0" result="BackgroundImageFix"/>
<feColorMatrix in="SourceAlpha" type="matrix" values="0 0 0 0 0 0 0 0 0 0 0 0 0 0 0 0 0 0 127 0" result="hardAlpha"/>
<feOffset dy="3.69231"/>
<feGaussianBlur stdDeviation="1.84615"/>
<feComposite in2="hardAlpha" operator="out"/>
<feColorMatrix type="matrix" values="0 0 0 0 0 0 0 0 0 0 0 0 0 0 0 0 0 0 0.25 0"/>
<feBlend mode="normal" in2="BackgroundImageFix" result="effect1_dropShadow_5372_2724"/>
<feBlend mode="normal" in="SourceGraphic" in2="effect1_dropShadow_5372_2724" result="shape"/>
</filter>
</defs>
</svg>
