<svg width="50" height="50" viewBox="0 0 50 50" fill="none" xmlns="http://www.w3.org/2000/svg">
<g clip-path="url(#clip0_5372_2694)">
<path fill-rule="evenodd" clip-rule="evenodd" d="M11 6.80006C9.88609 6.80006 8.8178 7.24256 8.03015 8.03021C7.2425 8.81787 6.8 9.88615 6.8 11.0001V17.0001H4V11.0001C4 9.14355 4.7375 7.36307 6.05025 6.05031C7.36301 4.73756 9.14348 4.00006 11 4.00006L17 4.00006V6.80006H11ZM39 6.80006H33V4.00006H39C40.8565 4.00006 42.637 4.73756 43.9497 6.05031C45.2625 7.36307 46 9.14355 46 11.0001V17.0001H43.2V11.0001C43.2 9.88615 42.7575 8.81787 41.9698 8.03021C41.1822 7.24256 40.1139 6.80006 39 6.80006ZM4 39.0001V33.0001H6.8V39.0001C6.8 40.114 7.2425 41.1823 8.03015 41.9699C8.8178 42.7576 9.88609 43.2001 11 43.2001H17V46.0001H11C9.14348 46.0001 7.36301 45.2626 6.05025 43.9498C4.7375 42.6371 4 40.8566 4 39.0001ZM46 33.0001V39.0001C46 40.8566 45.2625 42.6371 43.9497 43.9498C42.637 45.2626 40.8565 46.0001 39 46.0001H33V43.2001H39C40.1139 43.2001 41.1822 42.7576 41.9698 41.9699C42.7575 41.1823 43.2 40.114 43.2 39.0001V33.0001H46Z" fill="#828282"/>
<path d="M19.3184 29.8182C20.059 30.5741 20.943 31.1746 21.9187 31.5846C22.8943 31.9945 23.9419 32.2057 25.0002 32.2057C26.0585 32.2057 27.1061 31.9945 28.0818 31.5846C29.0574 31.1746 29.9414 30.5741 30.6821 29.8182" stroke="#EAEAEA" stroke-width="3" stroke-linecap="round" stroke-linejoin="round"/>
<path d="M18.1816 20.4544H18.2044M31.8181 20.4544H31.8408" stroke="#EAEAEA" stroke-width="4.1" stroke-linecap="round" stroke-linejoin="round"/>
</g>
<defs>
<clipPath id="clip0_5372_2694">
<rect width="42" height="42" fill="white" transform="translate(4 4.00006)"/>
</clipPath>
</defs>
</svg>
