<svg width="18" height="16" viewBox="0 0 18 16" fill="none" xmlns="http://www.w3.org/2000/svg">
<g clip-path="url(#clip0_4217_3525)">
<path d="M16.904 13.3971C16.9011 13.8036 16.7341 14.1926 16.439 14.4801C16.144 14.7676 15.7446 14.9303 15.3273 14.9331H2.67039C2.25224 14.9331 1.85122 14.7712 1.55554 14.4832C1.25986 14.1951 1.09375 13.8044 1.09375 13.3971V4.86374C1.11063 4.46657 1.28382 4.09097 1.57739 3.8149C1.87096 3.53883 2.26237 3.38347 2.67039 3.38107H5.0463L6.62295 1.06641H11.3638L12.9514 3.38107H15.3273C15.7455 3.38107 16.1465 3.5429 16.4422 3.83096C16.7379 4.11901 16.904 4.5097 16.904 4.91707V13.3971Z" stroke="white" stroke-width="1.5" stroke-linecap="round" stroke-linejoin="round"/>
<path d="M9.00017 11.8509C10.7477 11.8509 12.1644 10.4707 12.1644 8.76821C12.1644 7.0657 10.7477 5.68555 9.00017 5.68555C7.25261 5.68555 5.83594 7.0657 5.83594 8.76821C5.83594 10.4707 7.25261 11.8509 9.00017 11.8509Z" stroke="white" stroke-width="1.5" stroke-linecap="round" stroke-linejoin="round"/>
</g>
<defs>
<clipPath id="clip0_4217_3525">
<rect width="18" height="16" fill="white"/>
</clipPath>
</defs>
</svg>
