<svg width="18" height="18" viewBox="0 0 18 18" fill="none" xmlns="http://www.w3.org/2000/svg">
<path d="M11.409 3.36901C11.8344 2.94371 12.4114 2.70484 13.013 2.70496C13.6145 2.70507 14.1914 2.94415 14.6167 3.3696C15.042 3.79505 15.2809 4.37202 15.2808 4.97359C15.2807 5.57516 15.0416 6.15205 14.6161 6.57734L14.0474 7.14603L10.8403 3.93651L11.409 3.36901ZM10.0027 4.77532L13.2098 7.98247L6.12137 15.0709C5.69608 15.4962 5.11926 15.7351 4.5178 15.7351C3.91634 15.7351 3.33952 15.4962 2.91422 15.0709C2.48893 14.6456 2.25 14.0688 2.25 13.4673C2.25 12.8659 2.48893 12.289 2.91422 11.8638L10.0027 4.77532Z" fill="#616161"/>
<path d="M6.64079 2.59509C6.64079 2.98325 6.79499 3.35551 7.06946 3.62998C7.34392 3.90444 7.71618 4.05864 8.10434 4.05864C7.71618 4.05864 7.34392 4.21283 7.06946 4.4873C6.79499 4.76177 6.64079 5.13403 6.64079 5.52218C6.64079 5.13403 6.4866 4.76177 6.21213 4.4873C5.93766 4.21283 5.5654 4.05864 5.17725 4.05864C5.5654 4.05864 5.93766 3.90444 6.21213 3.62998C6.4866 3.35551 6.64079 2.98325 6.64079 2.59509Z" fill="#616161"/>
<path fill-rule="evenodd" clip-rule="evenodd" d="M6.6405 2.26587C6.82237 2.26587 6.9698 2.4133 6.9698 2.59517C6.9698 2.89599 7.0893 3.18449 7.30201 3.3972C7.51472 3.60991 7.80323 3.72942 8.10405 3.72942C8.28591 3.72942 8.43334 3.87685 8.43334 4.05871C8.43334 4.24058 8.28591 4.38801 8.10405 4.38801C7.80323 4.38801 7.51472 4.50751 7.30201 4.72022C7.0893 4.93294 6.9698 5.22144 6.9698 5.52226C6.9698 5.70413 6.82237 5.85156 6.6405 5.85156C6.45863 5.85156 6.3112 5.70413 6.3112 5.52226C6.3112 5.22144 6.1917 4.93294 5.97899 4.72022C5.76628 4.50751 5.47778 4.38801 5.17695 4.38801C4.99509 4.38801 4.84766 4.24058 4.84766 4.05871C4.84766 3.87685 4.99509 3.72942 5.17695 3.72942C5.47778 3.72942 5.76628 3.60991 5.97899 3.3972C6.1917 3.18449 6.3112 2.89599 6.3112 2.59517C6.3112 2.4133 6.45863 2.26587 6.6405 2.26587ZM6.6405 3.63071C6.5823 3.71297 6.51689 3.7907 6.44469 3.8629C6.37248 3.9351 6.29476 4.00051 6.2125 4.05871C6.29476 4.11692 6.37248 4.18232 6.44469 4.25453C6.51689 4.32673 6.5823 4.40446 6.6405 4.48672C6.6987 4.40446 6.76411 4.32673 6.83631 4.25453C6.90852 4.18232 6.98625 4.11692 7.0685 4.05871C6.98625 4.00051 6.90852 3.9351 6.83631 3.8629C6.76411 3.7907 6.6987 3.71297 6.6405 3.63071Z" fill="#616161"/>
<path d="M13.9582 9.91272C13.9582 10.3009 14.1124 10.6731 14.3868 10.9476C14.6613 11.2221 15.0336 11.3763 15.4217 11.3763C15.0336 11.3763 14.6613 11.5305 14.3868 11.8049C14.1124 12.0794 13.9582 12.4517 13.9582 12.8398C13.9582 12.4517 13.804 12.0794 13.5295 11.8049C13.255 11.5305 12.8828 11.3763 12.4946 11.3763C12.8828 11.3763 13.255 11.2221 13.5295 10.9476C13.804 10.6731 13.9582 10.3009 13.9582 9.91272Z" fill="#616161"/>
<path fill-rule="evenodd" clip-rule="evenodd" d="M13.9584 9.5835C14.1402 9.5835 14.2877 9.73093 14.2877 9.91279C14.2877 10.2136 14.4072 10.5021 14.6199 10.7148C14.8326 10.9275 15.1211 11.047 15.4219 11.047C15.6038 11.047 15.7512 11.1945 15.7512 11.3763C15.7512 11.5582 15.6038 11.7056 15.4219 11.7056C15.1211 11.7056 14.8326 11.8251 14.6199 12.0379C14.4072 12.2506 14.2877 12.5391 14.2877 12.8399C14.2877 13.0218 14.1402 13.1692 13.9584 13.1692C13.7765 13.1692 13.6291 13.0218 13.6291 12.8399C13.6291 12.5391 13.5096 12.2506 13.2969 12.0379C13.0841 11.8251 12.7956 11.7056 12.4948 11.7056C12.313 11.7056 12.1655 11.5582 12.1655 11.3763C12.1655 11.1945 12.313 11.047 12.4948 11.047C12.7956 11.047 13.0841 10.9275 13.2969 10.7148C13.5096 10.5021 13.6291 10.2136 13.6291 9.91279C13.6291 9.73093 13.7765 9.5835 13.9584 9.5835ZM13.9584 10.9483C13.9002 11.0306 13.8348 11.1083 13.7626 11.1805C13.6904 11.2527 13.6126 11.3181 13.5304 11.3763C13.6126 11.4345 13.6904 11.5 13.7626 11.5722C13.8348 11.6444 13.9002 11.7221 13.9584 11.8043C14.0166 11.7221 14.082 11.6444 14.1542 11.5722C14.2264 11.5 14.3041 11.4345 14.3864 11.3763C14.3041 11.3181 14.2264 11.2527 14.1542 11.1805C14.082 11.1083 14.0166 11.0306 13.9584 10.9483Z" fill="#616161"/>
</svg>
