<svg width="18" height="18" viewBox="0 0 18 18" fill="none" xmlns="http://www.w3.org/2000/svg">
<path d="M6.9085 15.3812H3.30054C3.14106 15.3812 2.98811 15.3179 2.87534 15.2051C2.76257 15.0923 2.69922 14.9394 2.69922 14.7799V11.421C2.69922 11.3421 2.71477 11.2639 2.74499 11.1909C2.77521 11.1179 2.81951 11.0517 2.87534 10.9958L11.8952 1.97593C12.008 1.86316 12.161 1.7998 12.3204 1.7998C12.4799 1.7998 12.6329 1.86316 12.7456 1.97593L16.1045 5.33481C16.2173 5.44758 16.2806 5.60053 16.2806 5.76001C16.2806 5.91949 16.2173 6.07244 16.1045 6.18521L6.9085 15.3812Z" stroke="white" stroke-width="1.5" stroke-linecap="round" stroke-linejoin="round"/>
<path d="M9.91406 3.95703L14.1233 8.16631" stroke="white" stroke-width="1.5" stroke-linecap="round" stroke-linejoin="round"/>
</svg>
