<svg width="16" height="16" viewBox="0 0 16 16" fill="none" xmlns="http://www.w3.org/2000/svg">
<path d="M6.14002 13.672H2.93295C2.79119 13.672 2.65523 13.6157 2.55499 13.5154C2.45475 13.4152 2.39844 13.2792 2.39844 13.1375V10.1518C2.39844 10.0816 2.41226 10.0121 2.43912 9.94725C2.46599 9.8824 2.50536 9.82348 2.55499 9.77384L10.5727 1.75616C10.6729 1.65592 10.8089 1.59961 10.9506 1.59961C11.0924 1.59961 11.2283 1.65592 11.3286 1.75616L14.3143 4.74183C14.4145 4.84207 14.4708 4.97803 14.4708 5.11979C14.4708 5.26155 14.4145 5.39751 14.3143 5.49775L6.14002 13.672Z" stroke="#9E9E9E" stroke-width="1.5" stroke-linecap="round" stroke-linejoin="round"/>
<path d="M8.8125 3.51758L12.5541 7.25916" stroke="#9E9E9E" stroke-width="1.5" stroke-linecap="round" stroke-linejoin="round"/>
</svg>
