<svg width="20" height="20" viewBox="0 0 20 20" fill="none" xmlns="http://www.w3.org/2000/svg">
<path d="M16.4116 4.6614H14.1904L13.0983 3.05681C13.0397 2.97089 12.9605 2.90044 12.8676 2.85169C12.7746 2.80294 12.6708 2.77741 12.5654 2.77734H7.4372C7.33177 2.77741 7.22799 2.80294 7.13504 2.85169C7.0421 2.90044 6.96286 2.97089 6.90435 3.05681L5.8114 4.6614H3.59105C3.08101 4.6614 2.59187 4.8599 2.23123 5.21323C1.87058 5.56656 1.66797 6.04578 1.66797 6.54546V15.3377C1.66797 15.8374 1.87058 16.3166 2.23123 16.67C2.59187 17.0233 3.08101 17.2218 3.59105 17.2218H16.4116C16.9216 17.2218 17.4107 17.0233 17.7714 16.67C18.132 16.3166 18.3346 15.8374 18.3346 15.3377V6.54546C18.3346 6.04578 18.132 5.56656 17.7714 5.21323C17.4107 4.8599 16.9216 4.6614 16.4116 4.6614ZM12.8859 10.6276C12.8859 11.1865 12.7167 11.7329 12.3998 12.1977C12.0828 12.6624 11.6323 13.0246 11.1052 13.2385C10.5781 13.4524 9.9981 13.5084 9.43854 13.3994C8.87898 13.2903 8.36499 13.0212 7.96157 12.6259C7.55815 12.2307 7.28342 11.7271 7.17211 11.1789C7.06081 10.6307 7.11794 10.0625 7.33627 9.54609C7.55459 9.02969 7.92432 8.58831 8.3987 8.27778C8.87307 7.96725 9.43078 7.8015 10.0013 7.8015C10.7663 7.8015 11.5001 8.09925 12.041 8.62924C12.582 9.15923 12.8859 9.87806 12.8859 10.6276Z" fill="#616161"/>
</svg>
