<svg width="20" height="20" viewBox="0 0 20 20" fill="none" xmlns="http://www.w3.org/2000/svg">
<path d="M10 19C14.9706 19 19 14.9706 19 10C19 5.02944 14.9706 1 10 1C5.02944 1 1 5.02944 1 10C1 14.9706 5.02944 19 10 19Z" fill="#FFE171" stroke="#FFE171" stroke-width="1.5"/>
<path d="M7.74656 7.24094C7.49627 6.99076 7.15686 6.85022 6.80297 6.85022C6.44907 6.85022 6.10967 6.99076 5.85938 7.24094" stroke="#222222" stroke-width="1.5" stroke-linecap="round" stroke-linejoin="round"/>
<path d="M14.1368 7.24082C13.8865 6.99064 13.547 6.8501 13.1931 6.8501C12.8392 6.8501 12.4998 6.99064 12.2495 7.24082" stroke="#222222" stroke-width="1.5" stroke-linecap="round" stroke-linejoin="round"/>
<path d="M11.612 10.5272C9.95843 10.3935 9.35357 12.7281 9.25784 13.9121C11.2789 14.6475 12.588 13.4663 12.9899 12.7838C13.1278 11.0788 12.1288 10.569 11.612 10.5272Z" fill="#EE7679" stroke="#EE7679" stroke-width="1.3" stroke-linecap="round" stroke-linejoin="bevel"/>
<path d="M11.4599 11.0627C11.4001 11.0591 11.3398 11.0674 11.2825 11.0869C11.2251 11.1064 11.1719 11.1368 11.1256 11.1764C11.0794 11.2161 11.0412 11.2641 11.0131 11.3178C10.9851 11.3715 10.9677 11.4298 10.9621 11.4894L10.4865 14.1386L11.3787 14.2936L11.8719 11.5433C11.8776 11.4838 11.8714 11.4241 11.8537 11.3677C11.8361 11.3113 11.8073 11.2592 11.769 11.2146C11.7308 11.17 11.6837 11.1336 11.6307 11.1075C11.5776 11.0814 11.5196 11.0662 11.4599 11.0627Z" fill="#D8575B"/>
<path d="M5.78363 13.0571C7.58682 14.1717 11.4292 15.2429 14.3106 12.7889" stroke="#222222" stroke-width="1.5" stroke-linecap="round" stroke-linejoin="bevel"/>
</svg>
