<svg width="20" height="20" viewBox="0 0 20 20" fill="none" xmlns="http://www.w3.org/2000/svg">
<g clip-path="url(#clip0_201_1553)">
<g clip-path="url(#clip1_201_1553)">
<path d="M17.6754 9.99996C17.6754 12.0356 16.8668 13.9879 15.4273 15.4273C13.9879 16.8667 12.0356 17.6754 9.99999 17.6754H2.32455L4.57236 15.4254C3.67984 14.5328 3.02123 13.4338 2.6549 12.2259C2.28856 11.0179 2.2258 9.73823 2.47217 8.50022C2.71855 7.26221 3.26645 6.10408 4.06734 5.12841C4.86824 4.15274 5.8974 3.38965 7.06367 2.90675C8.22993 2.42385 9.49729 2.23603 10.7535 2.35995C12.0097 2.48387 13.2159 2.91569 14.2653 3.61716C15.3148 4.31863 16.175 5.2681 16.7698 6.38145C17.3646 7.4948 17.6757 8.73767 17.6754 9.99996Z" stroke="#666666" stroke-width="1.3" stroke-linecap="round" stroke-linejoin="round"/>
<path d="M6.19076 10.4386C6.43299 10.4386 6.62936 10.2422 6.62936 10C6.62936 9.75777 6.43299 9.5614 6.19076 9.5614C5.94853 9.5614 5.75217 9.75777 5.75217 10C5.75217 10.2422 5.94853 10.4386 6.19076 10.4386Z" fill="#666666" stroke="#666666" stroke-width="1.25" stroke-linecap="round" stroke-linejoin="round"/>
<path d="M13.8092 10.4386C14.0515 10.4386 14.2478 10.2422 14.2478 10C14.2478 9.75777 14.0515 9.5614 13.8092 9.5614C13.567 9.5614 13.3706 9.75777 13.3706 10C13.3706 10.2422 13.567 10.4386 13.8092 10.4386Z" fill="#666666" stroke="#666666" stroke-width="1.25" stroke-linecap="round" stroke-linejoin="round"/>
<path d="M10 10.4386C10.2422 10.4386 10.4386 10.2422 10.4386 10C10.4386 9.75777 10.2422 9.5614 10 9.5614C9.75777 9.5614 9.5614 9.75777 9.5614 10C9.5614 10.2422 9.75777 10.4386 10 10.4386Z" fill="#666666" stroke="#666666" stroke-width="1.25" stroke-linecap="round" stroke-linejoin="round"/>
</g>
</g>
<defs>
<clipPath id="clip0_201_1553">
<rect width="16.6667" height="16.6667" fill="white" transform="translate(1.66667 1.66669)"/>
</clipPath>
<clipPath id="clip1_201_1553">
<rect width="16.6667" height="16.6667" fill="white" transform="translate(1.66667 1.66669)"/>
</clipPath>
</defs>
</svg>
