<svg width="20" height="20" viewBox="0 0 20 20" fill="none" xmlns="http://www.w3.org/2000/svg">
<path d="M12.6766 3.7432C13.1494 3.27065 13.7904 3.00525 14.4588 3.00537C15.1273 3.00549 15.7682 3.27114 16.2408 3.74386C16.7133 4.21659 16.9787 4.85767 16.9786 5.52608C16.9785 6.19449 16.7129 6.83547 16.2401 7.30802L15.6083 7.9399L12.0448 4.37376L12.6766 3.7432ZM11.1141 5.30577L14.6776 8.86928L6.80153 16.7453C6.32898 17.2179 5.68806 17.4833 5.01978 17.4833C4.35149 17.4833 3.71058 17.2179 3.23803 16.7453C2.76548 16.2728 2.5 15.6319 2.5 14.9636C2.5 14.2953 2.76548 13.6544 3.23803 13.1818L11.1141 5.30577Z" fill="white"/>
<path d="M7.3786 2.88342C7.3786 3.31471 7.54993 3.72833 7.8549 4.03329C8.15986 4.33826 8.57348 4.50959 9.00477 4.50959C8.57348 4.50959 8.15986 4.68091 7.8549 4.98588C7.54993 5.29084 7.3786 5.70446 7.3786 6.13575C7.3786 5.70446 7.20728 5.29084 6.90231 4.98588C6.59735 4.68091 6.18373 4.50959 5.75244 4.50959C6.18373 4.50959 6.59735 4.33826 6.90231 4.03329C7.20728 3.72833 7.3786 3.31471 7.3786 2.88342Z" fill="white"/>
<path fill-rule="evenodd" clip-rule="evenodd" d="M7.37877 2.51758C7.58084 2.51758 7.74465 2.68139 7.74465 2.88346C7.74465 3.21771 7.87743 3.53827 8.11378 3.77461C8.35013 4.01096 8.67068 4.14374 9.00493 4.14374C9.207 4.14374 9.37082 4.30755 9.37082 4.50963C9.37082 4.7117 9.207 4.87551 9.00493 4.87551C8.67068 4.87551 8.35013 5.00829 8.11378 5.24464C7.87743 5.48099 7.74465 5.80154 7.74465 6.13579C7.74465 6.33786 7.58084 6.50168 7.37877 6.50168C7.17669 6.50168 7.01288 6.33786 7.01288 6.13579C7.01288 5.80154 6.8801 5.48099 6.64375 5.24464C6.40741 5.00829 6.08685 4.87551 5.75261 4.87551C5.55053 4.87551 5.38672 4.7117 5.38672 4.50963C5.38672 4.30755 5.55053 4.14374 5.75261 4.14374C6.08685 4.14374 6.40741 4.01096 6.64375 3.77461C6.8801 3.53827 7.01288 3.21771 7.01288 2.88346C7.01288 2.68139 7.17669 2.51758 7.37877 2.51758ZM7.37877 4.03407C7.3141 4.12547 7.24142 4.21183 7.1612 4.29206C7.08097 4.37228 6.99461 4.44496 6.90321 4.50963C6.99461 4.5743 7.08097 4.64697 7.1612 4.7272C7.24142 4.80742 7.3141 4.89379 7.37877 4.98519C7.44344 4.89379 7.51611 4.80742 7.59634 4.7272C7.67656 4.64697 7.76293 4.5743 7.85433 4.50963C7.76293 4.44496 7.67656 4.37228 7.59634 4.29206C7.51611 4.21183 7.44344 4.12547 7.37877 4.03407Z" fill="white"/>
<path d="M15.509 11.0142C15.509 11.4454 15.6803 11.8591 15.9853 12.164C16.2902 12.469 16.7039 12.6403 17.1351 12.6403C16.7039 12.6403 16.2902 12.8116 15.9853 13.1166C15.6803 13.4216 15.509 13.8352 15.509 14.2665C15.509 13.8352 15.3376 13.4216 15.0327 13.1166C14.7277 12.8116 14.3141 12.6403 13.8828 12.6403C14.3141 12.6403 14.7277 12.469 15.0327 12.164C15.3376 11.8591 15.509 11.4454 15.509 11.0142Z" fill="white"/>
<path fill-rule="evenodd" clip-rule="evenodd" d="M15.5091 10.6484C15.7112 10.6484 15.875 10.8123 15.875 11.0143C15.875 11.3486 16.0078 11.6691 16.2442 11.9055C16.4805 12.1418 16.8011 12.2746 17.1353 12.2746C17.3374 12.2746 17.5012 12.4384 17.5012 12.6405C17.5012 12.8426 17.3374 13.0064 17.1353 13.0064C16.8011 13.0064 16.4805 13.1392 16.2442 13.3755C16.0078 13.6118 15.875 13.9324 15.875 14.2666C15.875 14.4687 15.7112 14.6325 15.5091 14.6325C15.3071 14.6325 15.1433 14.4687 15.1433 14.2666C15.1433 13.9324 15.0105 13.6118 14.7741 13.3755C14.5378 13.1392 14.2172 13.0064 13.883 13.0064C13.6809 13.0064 13.5171 12.8426 13.5171 12.6405C13.5171 12.4384 13.6809 12.2746 13.883 12.2746C14.2172 12.2746 14.5378 12.1418 14.7741 11.9055C15.0105 11.6691 15.1433 11.3486 15.1433 11.0143C15.1433 10.8123 15.3071 10.6484 15.5091 10.6484ZM15.5091 12.1649C15.4445 12.2563 15.3718 12.3427 15.2916 12.4229C15.2113 12.5031 15.125 12.5758 15.0336 12.6405C15.125 12.7052 15.2113 12.7778 15.2916 12.8581C15.3718 12.9383 15.4445 13.0246 15.5091 13.116C15.5738 13.0246 15.6465 12.9383 15.7267 12.8581C15.8069 12.7778 15.8933 12.7052 15.9847 12.6405C15.8933 12.5758 15.8069 12.5031 15.7267 12.4229C15.6465 12.3427 15.5738 12.2563 15.5091 12.1649Z" fill="white"/>
</svg>
