<svg width="598" height="97" viewBox="0 0 598 97" fill="none" xmlns="http://www.w3.org/2000/svg">
<path d="M482.211 11.4548C483.856 13.1846 484.99 15.3586 485.613 17.9769C486.236 15.3566 487.37 13.1816 489.015 11.4518C487.37 9.72134 486.237 7.5473 485.616 4.92969C484.993 7.5473 483.858 9.72235 482.211 11.4548Z" fill="white"/>
<path d="M0 49.4677C1.7239 51.2796 2.912 53.5574 3.56428 56.3011C4.21731 53.5559 5.4054 51.277 7.12856 49.4643C5.4054 47.6502 4.21842 45.3724 3.56761 42.6309C2.9131 45.3724 1.7239 47.6513 0 49.4677Z" fill="white"/>
<path d="M63.4062 55.8806C59.9556 53.6383 55.9438 52.4119 51.8292 52.3418L50.4902 56.727C54.6219 56.6841 58.6657 57.9201 62.0672 60.2658L63.4062 55.8806Z" fill="#58F975"/>
<path d="M589.121 62.5572C591.416 63.0505 593.784 63.1086 596.101 62.7283L597.875 59.0348C595.318 59.845 593.163 60.0091 591.41 59.527C591.084 60.0975 590.718 60.6435 590.314 61.1606C589.942 61.648 589.544 62.1143 589.121 62.5572ZM581.103 56.4037C581.723 58.2733 582.605 59.5716 583.75 60.2988C584.233 60.6104 584.738 60.8869 585.261 61.1262C586.126 60.3564 586.864 59.4556 587.449 58.4566C586.335 57.8489 585.375 56.9955 584.64 55.9612C583.571 54.4677 583.208 52.9695 583.55 51.4666C583.903 49.9691 584.857 48.9057 586.414 48.2764C586.515 48.2369 586.616 48.2005 586.717 48.1681C586.797 48.136 586.877 48.1083 586.959 48.085C587.079 48.0465 587.201 48.0128 587.324 47.9837C587.092 47.7355 586.839 47.5071 586.569 47.3011C586.597 47.3011 586.629 47.3011 586.67 47.291C585.961 47.3012 585.261 47.4458 584.606 47.7174C583.053 48.3466 581.92 49.4823 581.206 51.1243C580.507 52.771 580.472 54.5308 581.103 56.4037Z" fill="#0CBFE7"/>
<path d="M588.966 47.7985C588.865 47.7539 588.763 47.7154 588.673 47.684C588.036 47.4278 587.357 47.2938 586.67 47.2891C586.633 47.2891 586.6 47.2972 586.569 47.2992C586.839 47.5052 587.092 47.7335 587.324 47.9818C588.128 48.8953 588.651 50.068 588.891 51.5001C589.261 53.7322 588.843 55.9433 587.636 58.1336C587.576 58.245 587.513 58.3533 587.448 58.4566C586.863 59.4557 586.125 60.3565 585.26 61.1262C584.488 61.7871 583.616 62.3207 582.676 62.7071C581.811 63.0821 580.884 63.2946 579.941 63.334L583.783 66.1231C584.97 65.6568 586.091 65.0379 587.119 64.282C587.832 63.7637 588.502 63.1879 589.122 62.5603C589.545 62.1174 589.944 61.6511 590.315 61.1637C590.72 60.6466 591.086 60.1006 591.411 59.5302C591.734 58.9641 592.015 58.3752 592.252 57.768C592.853 56.2905 593.068 54.6847 592.878 53.1012C592.695 51.5693 592.202 50.409 591.4 49.6204C590.598 48.8318 590.013 48.342 589.645 48.1509C589.286 47.9544 589.059 47.838 588.966 47.7985Z" fill="#58F9F5"/>
<path d="M98.9297 35.3774C100.568 39.158 103.24 42.3995 106.638 44.729L110.176 41.8126C106.705 39.5638 104.012 36.2977 102.467 32.4609L98.9297 35.3774Z" fill="#EDF958"/>
<path d="M62.0192 6.23921C62.039 6.76344 62.0119 7.2884 61.9382 7.8078C61.8833 8.31718 61.7963 8.82256 61.6775 9.32093C63.6326 8.2035 65.4184 6.81322 66.9812 5.192L66.6407 2.0293C65.0957 4.03941 63.5553 5.44271 62.0192 6.23921ZM53.7225 2.24561C53.4257 2.2508 53.1295 2.27228 52.835 2.30996C52.342 2.72277 51.9122 3.20566 51.5593 3.74321C50.6718 5.03965 50.342 6.36419 50.5698 7.71684C50.785 9.068 51.5556 10.0745 52.8816 10.7364C54.1936 11.4102 55.4401 11.6028 56.6212 11.3144C57.2128 11.1665 57.7172 11.0186 58.1343 10.8707C58.4275 9.95587 58.5731 9.00025 58.5658 8.03965C57.5178 8.37258 56.4101 8.47476 55.3188 8.33917C53.8456 8.14171 52.8931 7.52197 52.4612 6.47993C52.0552 5.42977 52.2926 4.25276 53.1734 2.94893L53.3464 2.70821L53.4951 2.52073C53.5648 2.42241 53.6408 2.32866 53.7225 2.24007V2.24561Z" fill="#58F975"/>
<path d="M52.8398 2.30437C53.1343 2.2667 53.4305 2.24522 53.7273 2.24003C54.7372 2.26574 55.711 2.6206 56.5006 3.25063C57.7941 4.28601 58.4886 5.78287 58.584 7.74121C58.5738 7.83848 58.5697 7.93629 58.5718 8.03407C58.5807 8.99517 58.4366 9.95156 58.1447 10.8673C57.8483 11.7315 57.4379 12.5522 56.9244 13.3078C56.4341 14.0566 55.8415 14.7332 55.1639 15.3179L59.295 14.5414C59.961 13.5902 60.5226 12.57 60.9701 11.4985C61.2606 10.7918 61.4976 10.0642 61.679 9.322C61.7977 8.82363 61.8848 8.31825 61.9397 7.80888C62.0134 7.28947 62.0405 6.76451 62.0207 6.24028C62.0031 5.73624 61.9482 5.23419 61.8565 4.73825C61.6517 3.58209 61.0659 2.52771 60.1925 1.74305C59.3612 0.990923 58.4664 0.641486 57.5079 0.694734C56.5494 0.747982 55.8894 0.826374 55.5278 0.929912C55.172 1.04011 54.9524 1.11221 54.8688 1.14623C54.7656 1.18506 54.6725 1.22166 54.5893 1.25716C53.9838 1.50787 53.4175 1.84409 52.9075 2.25556L52.8398 2.30437Z" fill="#A8FFB8"/>
<path d="M27.8105 85.7798C29.4158 89.5743 32.0593 92.8389 35.4372 95.198L39.0004 92.3137C35.5488 90.0348 32.8852 86.7455 31.3737 82.8955L27.8105 85.7798Z" fill="#EDF958"/>
<path d="M497.778 52.3535C494.294 53.7594 491.276 56.1171 489.068 59.1572L491.643 62.4516C493.774 59.3394 496.817 56.9629 500.352 55.648L497.778 52.3535Z" fill="#58F975"/>
<path d="M126.128 8.37192C124.718 6.88541 123.747 5.0173 123.216 2.76758C122.677 5.0173 121.703 6.88541 120.293 8.37192C121.703 9.85842 122.678 11.7265 123.216 13.9763C123.747 11.7228 124.718 9.85472 126.128 8.37192Z" fill="#DDEA76"/>
<path d="M121.202 17.8427C120.229 16.817 119.559 15.5279 119.193 13.9756C118.823 15.5286 118.151 16.8177 117.176 17.8427C118.148 18.8692 118.82 20.1583 119.193 21.7098C119.559 20.1583 120.229 18.8692 121.202 17.8427Z" fill="#DDEA76"/>
<path d="M586.693 16.6755C588.338 18.4053 589.472 20.5793 590.095 23.1976C590.718 20.578 591.852 18.4029 593.497 16.6725C591.852 14.942 590.719 12.768 590.098 10.1504C589.474 12.7694 588.339 14.9444 586.693 16.6755Z" fill="white"/>
<path d="M533.518 31.3822C535.013 34.8337 537.453 37.793 540.555 39.9197L543.785 37.2572C540.616 35.2039 538.158 32.2223 536.747 28.7197L533.518 31.3822Z" fill="#EDF958"/>
<path d="M540.611 79.6884C544.287 78.9147 547.67 77.1163 550.367 74.5011L548.406 70.8086C545.77 73.5068 542.361 75.3192 538.65 75.9949L540.611 79.6884Z" fill="#4ADDFF"/>
<path d="M580.32 97.0009C581.927 97.0009 583.229 95.6982 583.229 94.0913C583.229 92.4843 581.927 91.1816 580.32 91.1816C578.713 91.1816 577.41 92.4843 577.41 94.0913C577.41 95.6982 578.713 97.0009 580.32 97.0009Z" fill="white"/>
</svg>
