<svg width="595" height="96" viewBox="0 0 595 96" fill="none" xmlns="http://www.w3.org/2000/svg">
<g opacity="0.5">
<path d="M5.17874 47H13.4364L9.30392 55.9403H15.9492L4.61952 70.0734L6.43518 60.8353H0.000488281L5.17874 47Z" fill="#FFF506"/>
<path d="M527.62 74H534.987L531.3 81.9761H537.229L527.121 94.5851L528.741 86.3433H523L527.62 74Z" fill="#A09C30"/>
</g>
<g opacity="0.5">
<path d="M96 23.1561C95.9997 21.3613 95.5472 19.5945 94.6831 18.0139C93.819 16.4333 92.5702 15.0882 91.0484 14.0989C89.5267 13.1097 87.7794 12.5073 85.9631 12.3455C84.1468 12.1837 82.318 12.4676 80.6405 13.1718C80.4177 9.53411 78.7639 6.12488 76.0298 3.66709C73.2957 1.2093 69.6963 -0.10374 65.9951 0.00641011C62.2938 0.11656 58.7817 1.64124 56.2035 4.25712C53.6253 6.873 52.1838 10.3743 52.1847 14.0187C52.1847 14.3235 52.1847 14.6115 52.1847 14.8655H52.0126C50.7119 14.8274 49.4167 15.0466 48.2037 15.5102C46.9907 15.9738 45.8846 16.6722 44.9509 17.5642C44.0172 18.4562 43.275 19.5235 42.7681 20.703C42.2612 21.8824 42 23.15 42 24.4306C42 25.7113 42.2612 26.9789 42.7681 28.1583C43.275 29.3378 44.0172 30.4051 44.9509 31.2971C45.8846 32.1891 46.9907 32.8875 48.2037 33.3511C49.4167 33.8146 50.7119 34.0339 52.0126 33.9958H85.0548C87.9632 33.9757 90.7458 32.825 92.7959 30.7946C94.8461 28.7642 95.9978 26.0186 96 23.1561Z" fill="#212336"/>
<path d="M68.6563 24.8145H77.0737L72.8687 33.9291H79.6447L68.0826 48.3454L69.9418 38.9257H63.3691L68.6563 24.8145Z" fill="#FFF506"/>
<path d="M50.3635 78H57.3258L53.8447 84.9467H59.4505L49.8953 95.9341L51.4258 88.7549H46L50.3635 78Z" fill="#706F45"/>
<path d="M595 34.3128C595.002 32.2124 594.461 30.1444 593.427 28.2942C592.393 26.444 590.898 24.8693 589.075 23.7112C587.253 22.5531 585.16 21.8479 582.985 21.6586C580.809 21.4693 578.618 21.802 576.609 22.6267C576.397 18.3298 574.438 14.2848 571.154 11.3633C567.87 8.44178 563.524 6.87751 559.052 7.0075C554.58 7.13748 550.34 8.95131 547.246 12.0582C544.151 15.1651 542.45 19.3165 542.508 23.6179C542.508 23.9648 542.508 24.3118 542.508 24.6091H542.302C539.274 24.6958 536.4 25.9133 534.29 28.0034C532.18 30.0935 531 32.8917 531 35.8046C531 38.7174 532.18 41.5157 534.29 43.6058C536.4 45.6959 539.274 46.9134 542.302 47H581.887C585.372 46.9765 588.705 45.6297 591.162 43.2532C593.618 40.8768 594.997 37.6632 595 34.3128Z" fill="#121429"/>
<path d="M571.853 41.4912H579.363L575.611 49.6229H581.656L571.341 62.4845L573 54.0807H567.143L571.853 41.4912Z" fill="#FFF506"/>
</g>
</svg>
