<svg width="680" height="140" viewBox="0 0 680 140" fill="none" xmlns="http://www.w3.org/2000/svg">
<path d="M29.0028 75.0915C29.0028 75.0915 34.2912 74.7754 35.7626 73.6631C35.7626 73.6631 35.6143 76.52 37.3784 77.6323C37.3784 77.6323 33.1164 78.5846 31.2079 80.4892C30.4853 79.7923 29.916 78.9523 29.5363 78.0229C29.1566 77.0935 28.9749 76.0951 29.0028 75.0915Z" fill="#EDF958"/>
<path d="M71.6483 49.4532C71.6483 49.4532 70.8287 54.7729 67 56.5448C67 56.5448 71.3751 57.138 73.2914 56.5448C75.2078 55.9515 76.0235 49.7499 76.0235 49.7499C76.0235 49.7499 73.8378 48.2824 71.6483 49.4532Z" fill="#FCD5D5"/>
<path d="M53.8352 5.71289C53.8352 5.71289 50.8768 9.03424 48.4844 9.15523C48.4844 9.15523 50.7598 9.76798 51.2164 12.8434C51.2164 12.8434 55.9974 9.27622 57.0239 5.70898C57.0239 5.71289 54.8617 6.45444 53.8352 5.71289Z" fill="#F0E7F7"/>
<path d="M113.807 10.2518C113.807 10.2518 115.618 7.80074 120.051 9.02625C120.051 9.02625 121.296 10.6186 120.957 11.8441C120.957 11.8441 117.444 10.4976 116.535 14.42C116.527 14.42 114.146 14.0532 113.807 10.2518Z" fill="#FFBFBA"/>
<path d="M133.57 97.3594C133.57 97.3594 138.114 95.4247 139.388 92.9726C139.934 94.1544 140.813 95.1513 141.918 95.8408C140.914 96.2663 140.013 96.8998 139.273 97.6994C138.533 98.4991 137.971 99.4467 137.624 100.48C137.624 100.48 135.45 98.1639 133.57 97.3594Z" fill="#D1F2FF"/>
<path d="M122.385 58C122.385 58 125.328 62.2151 127.962 63.0464C126.958 63.8278 126.221 64.9007 125.851 66.118C125.221 65.2016 124.412 64.4222 123.473 63.8266C122.534 63.231 121.484 62.8315 120.387 62.6522C120.387 62.6522 122.081 60.0373 122.385 58Z" fill="#EDF958"/>
<path d="M78.558 106.083C78.558 106.083 75.2825 108.764 75.683 111.887C75.683 111.887 73.0027 111.413 71.6518 111.877C71.6518 111.877 73.1321 105.929 74.7015 104.144C74.7015 104.144 77.7809 104.794 78.558 106.083Z" fill="#FF82A7"/>
<path d="M566.904 103.951L573.09 107.916L570.1 110.633L563.914 106.668L566.904 103.951Z" fill="#FAB79D"/>
<path d="M626.422 49.0029C626.422 49.0029 624.147 54.1743 624.35 56.1023C624.35 56.1023 622.098 54.5958 620.35 55.7354C620.35 55.7354 621.614 51.2354 620.978 48.5112C620.978 48.5112 623.78 47.2662 626.422 49.0029Z" fill="#FFCB8C"/>
<path d="M597.594 80.3565C597.594 80.3565 601.247 80.9302 602.835 84.2906C602.835 84.2906 602.78 80.3877 602.183 78.6861C601.586 76.9844 597.34 76.4458 597.34 76.4458C597.123 77.0823 597.034 77.7554 597.077 78.4264C597.121 79.0975 597.296 79.7533 597.594 80.3565Z" fill="#FF749E"/>
<path d="M596.689 19.5366C596.689 19.5366 593.73 22.858 591.342 22.979C591.342 22.979 593.617 23.5956 594.074 26.6711C594.074 26.6711 598.855 23.1039 599.881 19.5366C599.858 19.5366 597.696 20.2743 596.689 19.5366Z" fill="#F1FA80"/>
<path d="M651.828 17.4383C651.828 17.4383 653.643 14.9873 658.073 16.2128C658.073 16.2128 659.322 17.8051 658.982 19.0306C658.982 19.0306 655.47 17.6842 654.56 21.6065C654.552 21.6065 652.168 21.2358 651.828 17.4383Z" fill="#FF82A7"/>
<path d="M545.256 0C545.256 0 547.277 2.58761 548.62 3.04034C548.62 3.04034 548.194 7.93845 546.138 10.4831C545.214 9.47121 543.977 8.79907 542.625 8.57462C542.625 8.57462 545.697 6.51 545.256 0Z" fill="#58F975"/>
<path d="M661.631 79C661.631 79 663.652 81.5876 664.995 82.0442C664.995 82.0442 664.569 86.9424 662.513 89.4831C661.589 88.4712 660.352 87.7991 659 87.5746C659 87.5746 662.072 85.5217 661.631 79Z" fill="#EDF958"/>
<path d="M159.087 25C159.087 25 160.555 28.9692 163.642 29.6054C163.642 29.6054 162.319 31.9862 162.319 33.4146C162.319 33.4146 157.175 30.0815 156 28.0169C156 28.0169 157.616 25.3161 159.087 25Z" fill="#58F975"/>
<path d="M547.676 50.1797C547.676 50.1797 547.524 55.8701 545.904 58.0909C545.904 58.0909 548.55 58.0909 549.874 57.3103C549.874 57.3103 551.197 50.9564 552.664 49.688C552.664 49.6763 550.771 49.0986 547.676 50.1797Z" fill="#DBF5FF"/>
</svg>
