<svg width="64" height="62" viewBox="0 0 64 62" fill="none" xmlns="http://www.w3.org/2000/svg">
<path d="M25.2061 3.92699C28.3363 -1.10753 35.6637 -1.10752 38.7939 3.927L43.6838 11.7917C44.7852 13.5631 46.5348 14.8343 48.5597 15.3343L57.5507 17.5546C63.3061 18.9758 65.5703 25.9445 61.7495 30.4773L55.7807 37.5583C54.4364 39.1531 53.7681 41.2099 53.9183 43.2903L54.5851 52.5272C55.0119 58.4401 49.0839 62.747 43.5923 60.5139L35.0135 57.0254C33.0813 56.2397 30.9187 56.2397 28.9865 57.0254L20.4077 60.5139C14.9161 62.747 8.98814 58.4401 9.41495 52.5272L10.0817 43.2903C10.2319 41.2099 9.56358 39.1531 8.21926 37.5583L2.2505 30.4773C-1.57032 25.9445 0.693959 18.9758 6.44936 17.5546L15.4403 15.3343C17.4652 14.8343 19.2148 13.5631 20.3162 11.7917L25.2061 3.92699Z" fill="#3987F8"/>
</svg>
