<svg width="20" height="20" viewBox="0 0 20 20" fill="none" xmlns="http://www.w3.org/2000/svg">
<g id="ic_ regist_circle_fill_20">
<g id="Group">
<path id="Subtract" fill-rule="evenodd" clip-rule="evenodd" d="M10.0046 18.3325C14.6067 18.3325 18.3374 14.6018 18.3374 9.99977C18.3374 5.3977 14.6067 1.66699 10.0046 1.66699C5.40259 1.66699 1.67188 5.3977 1.67188 9.99977C1.67188 14.6018 5.40259 18.3325 10.0046 18.3325ZM12.343 10.7227L9.27737 7.657L6.21175 10.7227C6.07621 10.8581 6.00004 11.0419 6 11.2335V13.2775C6 13.4691 6.07614 13.6529 6.21167 13.7884C6.3472 13.9239 6.53102 14 6.72268 14H8.76571C8.95736 14 9.14115 13.9238 9.27665 13.7883L12.343 10.7227ZM13.8349 7.33861C13.726 7.0756 13.5662 6.83664 13.3649 6.63535L13.3656 6.63463C12.959 6.22828 12.4077 6 11.8328 6C11.2579 6 10.7065 6.22828 10.3 6.63463L13.3649 9.70101C13.5662 9.49973 13.726 9.26076 13.8349 8.99775C13.9439 8.73475 14 8.45286 14 8.16818C14 7.8835 13.9439 7.60161 13.8349 7.33861Z" fill="white"/>
</g>
</g>
</svg>
