<svg width="20" height="20" viewBox="0 0 20 20" fill="none" xmlns="http://www.w3.org/2000/svg">
<path d="M17.4275 7.71422C17.4275 7.41111 17.307 7.12042 17.0927 6.90609C16.8784 6.69177 16.5877 6.57136 16.2846 6.57136H13.9989L12.2846 4.28564H7.71317L5.99888 6.57136H3.71317C3.41007 6.57136 3.11937 6.69177 2.90505 6.90609C2.69072 7.12042 2.57031 7.41111 2.57031 7.71422V14.5714C2.57031 14.8745 2.69072 15.1652 2.90505 15.3795C3.11937 15.5938 3.41007 15.7142 3.71317 15.7142H16.2846C16.5877 15.7142 16.8784 15.5938 17.0927 15.3795C17.307 15.1652 17.4275 14.8745 17.4275 14.5714V7.71422Z" stroke="#9E9E9E" stroke-width="1.4" stroke-linecap="round" stroke-linejoin="round"/>
<path d="M10.0011 13.1429C10.6831 13.1429 11.3372 12.8719 11.8194 12.3897C12.3016 11.9075 12.5725 11.2534 12.5725 10.5714C12.5725 9.88944 12.3016 9.23539 11.8194 8.75315C11.3372 8.27092 10.6831 8 10.0011 8C9.31913 8 8.66508 8.27092 8.18284 8.75315C7.70061 9.23539 7.42969 9.88944 7.42969 10.5714C7.42969 11.2534 7.70061 11.9075 8.18284 12.3897C8.66508 12.8719 9.31913 13.1429 10.0011 13.1429Z" stroke="#9E9E9E" stroke-width="1.4" stroke-linecap="round" stroke-linejoin="round"/>
</svg>
