<svg width="20" height="20" viewBox="0 0 20 20" fill="none" xmlns="http://www.w3.org/2000/svg">
<g id="ic_delete_20">
<g id="Group">
<path id="Vector" d="M3.33594 5.47656H16.6693" stroke="#9E9E9E" stroke-width="1.7" stroke-linecap="round" stroke-linejoin="round"/>
<path id="Vector_2" d="M8.33594 8.80859V13.8086" stroke="#9E9E9E" stroke-width="1.7" stroke-linecap="round" stroke-linejoin="round"/>
<path id="Vector_3" d="M11.6719 8.80859V13.8086" stroke="#9E9E9E" stroke-width="1.7" stroke-linecap="round" stroke-linejoin="round"/>
<path id="Vector_4" d="M4.17188 5.47656L5.00521 15.4766C5.00521 15.9186 5.1808 16.3425 5.49336 16.6551C5.80592 16.9676 6.22985 17.1432 6.67188 17.1432H13.3385C13.7806 17.1432 14.2045 16.9676 14.5171 16.6551C14.8296 16.3425 15.0052 15.9186 15.0052 15.4766L15.8385 5.47656" stroke="#9E9E9E" stroke-width="1.7" stroke-linecap="round" stroke-linejoin="round"/>
<path id="Vector_5" d="M7.5 5.47591V2.97591C7.5 2.7549 7.5878 2.54294 7.74408 2.38666C7.90036 2.23038 8.11232 2.14258 8.33333 2.14258H11.6667C11.8877 2.14258 12.0996 2.23038 12.2559 2.38666C12.4122 2.54294 12.5 2.7549 12.5 2.97591V5.47591" stroke="#9E9E9E" stroke-width="1.7" stroke-linecap="round" stroke-linejoin="round"/>
</g>
</g>
</svg>
