<svg width="16" height="17" viewBox="0 0 16 17" fill="none" xmlns="http://www.w3.org/2000/svg">
    <path d="M8 15.5C11.866 15.5 15 12.366 15 8.5C15 4.63401 11.866 1.5 8 1.5C4.13401 1.5 1 4.63401 1 8.5C1 12.366 4.13401 15.5 8 15.5Z" stroke="#9E9E9E" fill="#9E9E9E" stroke-linecap="round" stroke-linejoin="round"/>
    <path d="M7.41797 7.91602H8.0013V11.9993H8.58464" fill="white"/>
    <path d="M7.41797 7.91602H8.0013V11.9993H8.58464" stroke="white" stroke-linecap="round" stroke-linejoin="round"/>
    <path d="M8 6.16699C8.48325 6.16699 8.875 5.77524 8.875 5.29199C8.875 4.80874 8.48325 4.41699 8 4.41699C7.51675 4.41699 7.125 4.80874 7.125 5.29199C7.125 5.77524 7.51675 6.16699 8 6.16699Z" fill="white"/>
</svg>
