<svg width="20" height="20" viewBox="0 0 20 20" fill="none" xmlns="http://www.w3.org/2000/svg">
<path fill-rule="evenodd" clip-rule="evenodd" d="M16.4874 7.64088C16.1592 7.33724 15.7141 7.16667 15.25 7.16667H14.375V5.54762C14.375 5.01608 14.2618 4.48974 14.042 3.99866C13.8221 3.50758 13.4998 3.06138 13.0936 2.68552C12.6873 2.30966 12.205 2.01152 11.6742 1.80811C11.1434 1.60469 10.5745 1.5 10 1.5C8.83968 1.5 7.72688 1.92644 6.90641 2.68552C6.08594 3.4446 5.625 4.47412 5.625 5.54762L5.63 6.16667L5.63 7.16667H4.75C4.28587 7.16667 3.84075 7.33724 3.51256 7.64088C3.18437 7.94451 3 8.35632 3 8.78571V16.881C3 17.3104 3.18437 17.7222 3.51256 18.0258C3.84075 18.3294 4.28587 18.5 4.75 18.5H15.25C15.7141 18.5 16.1592 18.3294 16.4874 18.0258C16.8156 17.7222 17 17.3104 17 16.881V8.78571C17 8.35632 16.8156 7.94451 16.4874 7.64088ZM7.38 7.16667H12.625V5.54762C12.625 4.90352 12.3484 4.28581 11.8562 3.83036C11.3639 3.37491 10.6962 3.11905 10 3.11905C9.30381 3.11905 8.63613 3.37491 8.14384 3.83036C7.65156 4.28581 7.375 4.90352 7.375 5.54762L7.38 6V7.16667ZM11.2374 13.9782C10.9092 14.2818 10.4641 14.4524 10 14.4524C9.53587 14.4524 9.09075 14.2818 8.76256 13.9782C8.43437 13.6745 8.25 13.2627 8.25 12.8333C8.25 12.4039 8.43437 11.9921 8.76256 11.6885C9.09075 11.3849 9.53587 11.2143 10 11.2143C10.4641 11.2143 10.9092 11.3849 11.2374 11.6885C11.5656 11.9921 11.75 12.4039 11.75 12.8333C11.75 13.2627 11.5656 13.6745 11.2374 13.9782Z" fill="#616161"/>
</svg>
