<svg width="70" height="32" viewBox="0 0 70 32" fill="none" xmlns="http://www.w3.org/2000/svg">
<circle cx="50.2263" cy="17.6362" r="11.9388" fill="#FCE4D2" stroke="#222222" stroke-width="1.2"/>
<path d="M50.233 20.5478C49.9544 20.5478 49.7283 20.3217 49.7283 20.043V18.3268C49.7283 18.0481 49.9544 17.822 50.233 17.822C51.2345 17.822 52.0503 17.0063 52.0503 16.0048C52.0503 15.0033 51.2345 14.1875 50.233 14.1875C49.2315 14.1875 48.4158 15.0033 48.4158 16.0048C48.4158 16.2834 48.1897 16.5096 47.911 16.5096C47.6324 16.5096 47.4062 16.2834 47.4062 16.0048C47.4062 14.446 48.6743 13.178 50.233 13.178C51.7918 13.178 53.0598 14.446 53.0598 16.0048C53.0598 17.3919 52.0563 18.5469 50.7378 18.7871V20.043C50.7378 20.3217 50.5117 20.5478 50.233 20.5478Z" fill="#222222" stroke="#222222" stroke-width="0.278641"/>
<path d="M50.2307 22.4659C50.5653 22.4659 50.8365 22.1947 50.8365 21.8601C50.8365 21.5256 50.5653 21.2544 50.2307 21.2544C49.8962 21.2544 49.625 21.5256 49.625 21.8601C49.625 22.1947 49.8962 22.4659 50.2307 22.4659Z" fill="#222222" stroke="#222222" stroke-width="0.278641"/>
<circle cx="19.5779" cy="17.6362" r="11.9388" fill="#FCE4D2" stroke="#222222" stroke-width="1.2"/>
<path d="M19.5768 20.5478C19.2981 20.5478 19.072 20.3217 19.072 20.043V18.3268C19.072 18.0481 19.2981 17.822 19.5768 17.822C20.5783 17.822 21.394 17.0063 21.394 16.0048C21.394 15.0033 20.5783 14.1875 19.5768 14.1875C18.5753 14.1875 17.7596 15.0033 17.7596 16.0048C17.7596 16.2834 17.5334 16.5096 17.2548 16.5096C16.9761 16.5096 16.75 16.2834 16.75 16.0048C16.75 14.446 18.018 13.178 19.5768 13.178C21.1356 13.178 22.4036 14.446 22.4036 16.0048C22.4036 17.3919 21.4001 18.5469 20.0816 18.7871V20.043C20.0816 20.3217 19.8554 20.5478 19.5768 20.5478Z" fill="#222222" stroke="#222222" stroke-width="0.278641"/>
<path d="M19.5745 22.4659C19.909 22.4659 20.1802 22.1947 20.1802 21.8601C20.1802 21.5256 19.909 21.2544 19.5745 21.2544C19.2399 21.2544 18.9688 21.5256 18.9688 21.8601C18.9688 22.1947 19.2399 22.4659 19.5745 22.4659Z" fill="#222222" stroke="#222222" stroke-width="0.278641"/>
</svg>
