<svg width="70" height="32" viewBox="0 0 70 32" fill="none" xmlns="http://www.w3.org/2000/svg">
<path d="M41.508 15.3507C41.5531 15.3507 41.597 15.3542 41.641 15.3571C41.641 15.3571 41.6676 15.3594 41.6681 15.3594C41.9283 15.3762 42.1659 15.2004 42.2226 14.9437C43.3945 9.61426 47.8712 5.89209 53.1081 5.89209C58.345 5.89209 62.8217 9.61426 63.9948 14.9437C64.0514 15.2016 64.2902 15.3825 64.551 15.3594C64.6157 15.3548 64.673 15.3507 64.7308 15.3507C65.9992 15.3507 67.0312 16.3469 67.0312 17.5714C67.0312 18.7959 65.9992 19.7921 64.7308 19.7921C64.673 19.7921 64.6157 19.7875 64.5591 19.7834C64.5463 19.7823 64.533 19.7817 64.5203 19.7817C64.2723 19.7817 64.048 19.9528 63.9942 20.198C62.8217 25.528 58.3445 29.2496 53.1075 29.2496C47.8706 29.2496 43.3939 25.528 42.2214 20.1991C42.1648 19.9424 41.9272 19.7626 41.667 19.7834C41.667 19.7834 41.6404 19.7852 41.6398 19.7852C41.5959 19.7881 41.5519 19.7915 41.5068 19.7915C40.2384 19.7915 39.2063 18.7954 39.2063 17.5708C39.2075 16.3469 40.2395 15.3507 41.508 15.3507ZM58.1294 11.192C58.1051 11.1897 57.0743 11.0712 55.8457 10.3751C55.7295 10.3092 55.6121 10.2392 55.493 10.1629C54.8773 9.76747 54.2326 9.22342 53.6533 8.47587C53.4735 8.24403 53.1399 8.20182 52.9086 8.38105C52.6768 8.56086 52.6346 8.89445 52.8144 9.12571C54.9871 11.9292 57.9045 12.2368 58.0276 12.2489C58.045 12.2506 58.0617 12.2512 58.0785 12.2512C58.3491 12.2512 58.5803 12.0454 58.6064 11.7702C58.6335 11.4794 58.4202 11.221 58.1294 11.192ZM61.9672 15.1825C62.2545 15.1229 62.439 14.8419 62.3794 14.5552C62.3199 14.2678 62.0395 14.0834 61.7521 14.1429C61.6943 14.1545 61.3653 14.2181 60.8496 14.258C59.088 14.3944 55.1421 14.254 52.334 10.8446C52.1553 10.6278 51.9801 10.4023 51.8119 10.1589C51.6454 9.91779 51.3147 9.85708 51.0736 10.0236C50.8325 10.1907 50.7718 10.5214 50.9383 10.7619C53.6516 14.6916 57.7229 15.3316 60.0853 15.3316C61.2081 15.3311 61.9446 15.1871 61.9672 15.1825ZM52.1374 20.2257C51.8443 20.2257 51.6066 20.4633 51.6066 20.7565C51.6066 21.0496 51.8443 21.2872 52.1374 21.2872H53.4642C53.7574 21.2872 53.995 21.0496 53.995 20.7565V18.8983C53.995 18.6052 53.7574 18.3675 53.4642 18.3675C53.1711 18.3675 52.9335 18.6052 52.9335 18.8983V20.2251H52.1374V20.2257ZM57.2448 19.0093C57.7582 19.0093 58.1739 18.593 58.1739 18.0802C58.1739 17.5674 57.7582 17.1511 57.2448 17.1511C56.7314 17.1511 56.3157 17.5674 56.3157 18.0802C56.3157 18.593 56.7314 19.0093 57.2448 19.0093ZM50.6324 23.8964C51.3181 24.5821 52.2189 24.925 53.1191 24.925C54.0199 24.925 54.9206 24.5816 55.6057 23.8964C55.8133 23.6889 55.8133 23.353 55.6057 23.1454C55.3988 22.9384 55.0623 22.9384 54.8553 23.1454C54.7061 23.2946 54.5408 23.4183 54.3667 23.5212C53.5995 23.9739 52.6392 23.9739 51.872 23.5212C51.698 23.4183 51.5326 23.2952 51.3835 23.1454C51.1765 22.9384 50.84 22.9384 50.633 23.1454C50.4255 23.353 50.4255 23.6889 50.6324 23.8964ZM48.9945 19.0093C49.5079 19.0093 49.9236 18.593 49.9236 18.0802C49.9236 17.5674 49.5079 17.1511 48.9945 17.1511C48.4811 17.1511 48.0654 17.5674 48.0654 18.0802C48.0654 18.593 48.4811 19.0093 48.9945 19.0093ZM44.5404 14.972C44.5526 14.972 44.5647 14.972 44.5768 14.9709C47.7798 14.7523 49.2772 11.4343 49.3397 11.2932C49.4576 11.025 49.3362 10.7116 49.068 10.5937C48.8003 10.4751 48.4869 10.5965 48.369 10.8642C48.3632 10.8769 48.1221 11.4048 47.6486 12.0188C47.1687 12.6403 46.4501 13.348 45.4932 13.6983C45.188 13.8105 44.8584 13.8874 44.5046 13.9117C44.212 13.9319 43.9912 14.1852 44.0108 14.4777C44.0305 14.7575 44.2635 14.972 44.5404 14.972Z" fill="#FCE4D2"/>
<path d="M41.7589 14.9651C42.9828 9.39915 47.6578 5.51221 53.1254 5.51221C58.5936 5.51221 63.2686 9.39973 64.4931 14.9662C64.5047 15.0182 64.5243 15.0668 64.5469 15.1136C62.0845 15.3426 56.4406 15.5993 53.9556 13.4925C53.2087 12.8588 52.4883 12.1928 51.8188 11.4776C51.284 10.907 51.0793 10.1513 50.1629 10.1525C49.3703 10.1536 49.0124 10.9503 48.6834 11.5331C48.3637 12.0997 47.8596 12.6183 47.4312 13.1069C46.4685 14.2048 45.1127 15.0119 43.6772 15.2721C42.9909 15.3964 42.2948 15.3703 41.6155 15.2356C41.6843 15.1582 41.7363 15.0674 41.7589 14.9651Z" fill="#D1A88C"/>
<path d="M41.2847 14.2956C42.704 8.70074 47.5079 4.83057 53.1085 4.83057C58.7085 4.83057 63.5119 8.70016 64.9318 14.2944C66.6929 14.3956 68.0938 15.8265 68.0938 17.5708C68.0938 19.3151 66.6929 20.746 64.9318 20.8472C63.5119 26.4409 58.708 30.311 53.1085 30.311C47.5079 30.311 42.704 26.4409 41.2847 20.8455C39.5346 20.7327 38.1459 19.307 38.1459 17.5702C38.1464 15.8346 39.5346 14.4089 41.2847 14.2956ZM41.5084 19.7915C41.5535 19.7915 41.5975 19.788 41.6414 19.7851C41.6414 19.7851 41.668 19.7834 41.6686 19.7834C41.9287 19.7626 42.1664 19.9424 42.223 20.1991C43.3955 25.528 47.8722 29.2495 53.1091 29.2495C58.346 29.2495 62.8227 25.5274 63.9958 20.1979C64.0496 19.9528 64.2739 19.7817 64.5219 19.7817C64.5346 19.7817 64.5479 19.7823 64.5606 19.7834C64.6173 19.7869 64.6745 19.7921 64.7324 19.7921C66.0008 19.7921 67.0328 18.7959 67.0328 17.5714C67.0328 16.3468 66.0008 15.3507 64.7324 15.3507C64.6745 15.3507 64.6173 15.3553 64.5525 15.3594C64.2912 15.3831 64.0524 15.2015 63.9964 14.9437C62.8239 9.61423 58.3466 5.89206 53.1097 5.89206C47.8728 5.89206 43.3961 9.61423 42.2236 14.9425C42.1669 15.1998 41.9293 15.375 41.6691 15.3582C41.6691 15.3582 41.6425 15.3559 41.642 15.3559C41.598 15.353 41.5541 15.3495 41.509 15.3495C40.2405 15.3495 39.2085 16.3457 39.2085 17.5702C39.2079 18.7953 40.2399 19.7915 41.5084 19.7915Z" fill="#222222"/>
<path d="M57.2428 17.1511C57.7562 17.1511 58.1719 17.5674 58.1719 18.0802C58.1719 18.593 57.7562 19.0093 57.2428 19.0093C56.7294 19.0093 56.3137 18.593 56.3137 18.0802C56.3137 17.5674 56.7294 17.1511 57.2428 17.1511Z" fill="#222222"/>
<path d="M48.9928 17.1511C49.5062 17.1511 49.9219 17.5674 49.9219 18.0802C49.9219 18.593 49.5062 19.0093 48.9928 19.0093C48.4794 19.0093 48.0637 18.593 48.0637 18.0802C48.0637 17.5674 48.4794 17.1511 48.9928 17.1511Z" fill="#222222"/>
<path d="M51.3877 23.1452C51.5374 23.2944 51.7022 23.4181 51.8762 23.521C52.6434 23.9737 53.6038 23.9737 54.371 23.521C54.545 23.4181 54.7103 23.295 54.8595 23.1452C55.0665 22.9382 55.403 22.9382 55.61 23.1452C55.8175 23.3528 55.8175 23.6887 55.61 23.8963C54.9243 24.5819 54.0235 24.9248 53.1233 24.9248C52.2225 24.9248 51.3224 24.5814 50.6367 23.8963C50.4291 23.6887 50.4291 23.3528 50.6367 23.1452C50.8442 22.9382 51.1801 22.9382 51.3877 23.1452Z" fill="#222222"/>
<path d="M53.4693 18.3677C53.7624 18.3677 54 18.6053 54 18.8984V20.7566C54 21.0497 53.7624 21.2874 53.4693 21.2874H52.1424C51.8493 21.2874 51.6116 21.0497 51.6116 20.7566C51.6116 20.4635 51.8493 20.2259 52.1424 20.2259H52.9385V18.899C52.9385 18.6053 53.1761 18.3677 53.4693 18.3677Z" fill="#222222"/>
<path d="M50.9384 10.7612C50.7718 10.5201 50.8326 10.19 51.0736 10.0229C51.3153 9.85641 51.6454 9.91711 51.8119 10.1582C51.9802 10.4022 52.1554 10.6271 52.334 10.8439C55.1421 14.2527 59.088 14.3938 60.8497 14.2573C61.3648 14.2169 61.6944 14.1538 61.7522 14.1423C62.0395 14.0827 62.3199 14.2677 62.3795 14.5545C62.439 14.8413 62.254 15.1222 61.9673 15.1818C61.9447 15.1864 61.2081 15.3304 60.0859 15.3304C57.7224 15.331 53.6511 14.6909 50.9384 10.7612Z" fill="#222222"/>
<path d="M44.5102 13.9116C44.864 13.8879 45.1936 13.811 45.4988 13.6982C46.4551 13.3479 47.1743 12.6402 47.6542 12.0187C48.1277 11.4047 48.3688 10.8768 48.3746 10.8641C48.4931 10.5964 48.8065 10.4744 49.0736 10.5935C49.3418 10.7115 49.4638 11.0248 49.3453 11.2931C49.2834 11.4342 47.7854 14.7522 44.5825 14.9707C44.5703 14.9713 44.5582 14.9719 44.546 14.9719C44.2691 14.9719 44.0361 14.7574 44.017 14.4776C43.9968 14.1845 44.2176 13.9312 44.5102 13.9116Z" fill="#222222"/>
<path d="M58.0791 12.2521C58.0623 12.2521 58.0456 12.2515 58.0282 12.2498C57.9051 12.2382 54.9877 11.9301 52.815 9.1266C52.6352 8.89476 52.6774 8.56174 52.9092 8.38193C53.1411 8.20271 53.4741 8.24433 53.6539 8.47675C54.2332 9.22431 54.8778 9.76777 55.4936 10.1638C55.6121 10.2401 55.73 10.3107 55.8463 10.376C57.0748 11.0721 58.1057 11.1906 58.13 11.1929C58.4214 11.2218 58.6347 11.4803 58.6069 11.7717C58.5809 12.0463 58.3497 12.2521 58.0791 12.2521Z" fill="#222222"/>
<path d="M5.27361 15.3507C5.31871 15.3507 5.36265 15.3542 5.40659 15.3571C5.40659 15.3571 5.43318 15.3594 5.43376 15.3594C5.69393 15.3762 5.93155 15.2004 5.98821 14.9437C7.16014 9.61426 11.6368 5.89209 16.8737 5.89209C22.1107 5.89209 26.5873 9.61426 27.7604 14.9437C27.8171 15.2016 28.0558 15.3825 28.3166 15.3594C28.3813 15.3548 28.4386 15.3507 28.4964 15.3507C29.7649 15.3507 30.7969 16.3469 30.7969 17.5714C30.7969 18.7959 29.7649 19.7921 28.4964 19.7921C28.4386 19.7921 28.3813 19.7875 28.3247 19.7834C28.312 19.7823 28.2987 19.7817 28.2859 19.7817C28.0379 19.7817 27.8136 19.9528 27.7598 20.198C26.5873 25.528 22.1101 29.2496 16.8731 29.2496C11.6362 29.2496 7.15956 25.528 5.98706 20.1991C5.9304 19.9424 5.69278 19.7626 5.43261 19.7834C5.43261 19.7834 5.40601 19.7852 5.40543 19.7852C5.36149 19.7881 5.31755 19.7915 5.27246 19.7915C4.00398 19.7915 2.97197 18.7954 2.97197 17.5708C2.97313 16.3469 4.00514 15.3507 5.27361 15.3507ZM21.895 11.192C21.8707 11.1897 20.8399 11.0712 19.6113 10.3751C19.4951 10.3092 19.3777 10.2392 19.2586 10.1629C18.6429 9.76747 17.9982 9.22342 17.4189 8.47587C17.2391 8.24403 16.9055 8.20182 16.6743 8.38105C16.4424 8.56086 16.4002 8.89445 16.58 9.12571C18.7527 11.9292 21.6701 12.2368 21.7933 12.2489C21.8106 12.2506 21.8274 12.2512 21.8441 12.2512C22.1147 12.2512 22.346 12.0454 22.372 11.7702C22.3992 11.4794 22.1858 11.221 21.895 11.192ZM25.7328 15.1825C26.0202 15.1229 26.2046 14.8419 26.145 14.5552C26.0855 14.2678 25.8051 14.0834 25.5177 14.1429C25.4599 14.1545 25.1309 14.2181 24.6152 14.258C22.8536 14.3944 18.9077 14.254 16.0996 10.8446C15.9209 10.6278 15.7457 10.4023 15.5775 10.1589C15.411 9.91779 15.0803 9.85708 14.8392 10.0236C14.5981 10.1907 14.5374 10.5214 14.7039 10.7619C17.4172 14.6916 21.4886 15.3316 23.8509 15.3316C24.9737 15.3311 25.7103 15.1871 25.7328 15.1825ZM15.903 20.2257C15.6099 20.2257 15.3723 20.4633 15.3723 20.7565C15.3723 21.0496 15.6099 21.2872 15.903 21.2872H17.2299C17.523 21.2872 17.7606 21.0496 17.7606 20.7565V18.8983C17.7606 18.6052 17.523 18.3675 17.2299 18.3675C16.9367 18.3675 16.6991 18.6052 16.6991 18.8983V20.2251H15.903V20.2257ZM21.0104 19.0093C21.5238 19.0093 21.9395 18.593 21.9395 18.0802C21.9395 17.5674 21.5238 17.1511 21.0104 17.1511C20.497 17.1511 20.0813 17.5674 20.0813 18.0802C20.0813 18.593 20.497 19.0093 21.0104 19.0093ZM14.3981 23.8964C15.0838 24.5821 15.9845 24.925 16.8847 24.925C17.7855 24.925 18.6862 24.5816 19.3714 23.8964C19.5789 23.6889 19.5789 23.353 19.3714 23.1454C19.1644 22.9384 18.8279 22.9384 18.6209 23.1454C18.4718 23.2946 18.3064 23.4183 18.1324 23.5212C17.3652 23.9739 16.4048 23.9739 15.6376 23.5212C15.4636 23.4183 15.2983 23.2952 15.1491 23.1454C14.9421 22.9384 14.6056 22.9384 14.3986 23.1454C14.1911 23.353 14.1911 23.6889 14.3981 23.8964ZM12.7602 19.0093C13.2736 19.0093 13.6892 18.593 13.6892 18.0802C13.6892 17.5674 13.2736 17.1511 12.7602 17.1511C12.2467 17.1511 11.8311 17.5674 11.8311 18.0802C11.8311 18.593 12.2467 19.0093 12.7602 19.0093ZM8.30604 14.972C8.31818 14.972 8.33032 14.972 8.34246 14.9709C11.5454 14.7523 13.0429 11.4343 13.1053 11.2932C13.2233 11.025 13.1018 10.7116 12.8336 10.5937C12.5659 10.4751 12.2525 10.5965 12.1346 10.8642C12.1288 10.8769 11.8877 11.4048 11.4142 12.0188C10.9343 12.6403 10.2157 13.348 9.25884 13.6983C8.95358 13.8105 8.62403 13.8874 8.27019 13.9117C7.97765 13.9319 7.75679 14.1852 7.77645 14.4777C7.79611 14.7575 8.0291 14.972 8.30604 14.972Z" fill="#FCE4D2"/>
<path d="M5.52449 14.9651C6.74845 9.39915 11.4234 5.51221 16.891 5.51221C22.3592 5.51221 27.0342 9.39973 28.2587 14.9662C28.2703 15.0182 28.29 15.0668 28.3125 15.1136C25.8501 15.3426 20.2062 15.5993 17.7213 13.4925C16.9743 12.8588 16.2539 12.1928 15.5844 11.4776C15.0496 10.907 14.8449 10.1513 13.9286 10.1525C13.1359 10.1536 12.778 10.9503 12.4491 11.5331C12.1293 12.0997 11.6252 12.6183 11.1968 13.1069C10.2342 14.2048 8.87837 15.0119 7.44281 15.2721C6.75654 15.3964 6.06044 15.3703 5.38111 15.2356C5.44991 15.1582 5.50195 15.0674 5.52449 14.9651Z" fill="#D1A88C"/>
<path d="M5.05029 14.2956C6.46967 8.70074 11.2736 4.83057 16.8742 4.83057C22.4742 4.83057 27.2775 8.70016 28.6974 14.2944C30.4585 14.3956 31.8594 15.8265 31.8594 17.5708C31.8594 19.3151 30.4585 20.746 28.6974 20.8472C27.2775 26.4409 22.4736 30.311 16.8742 30.311C11.2736 30.311 6.46967 26.4409 5.05029 20.8455C3.30021 20.7327 1.91149 19.307 1.91149 17.5702C1.91206 15.8346 3.30021 14.4089 5.05029 14.2956ZM5.27404 19.7915C5.31914 19.7915 5.36308 19.788 5.40701 19.7851C5.40701 19.7851 5.43361 19.7834 5.43419 19.7834C5.69436 19.7626 5.93198 19.9424 5.98864 20.1991C7.16114 25.528 11.6378 29.2495 16.8747 29.2495C22.1117 29.2495 26.5883 25.5274 27.7614 20.1979C27.8152 19.9528 28.0395 19.7817 28.2875 19.7817C28.3002 19.7817 28.3135 19.7823 28.3263 19.7834C28.3829 19.7869 28.4402 19.7921 28.498 19.7921C29.7665 19.7921 30.7985 18.7959 30.7985 17.5714C30.7985 16.3468 29.7665 15.3507 28.498 15.3507C28.4402 15.3507 28.3829 15.3553 28.3182 15.3594C28.0568 15.3831 27.8181 15.2015 27.762 14.9437C26.5895 9.61423 22.1122 5.89206 16.8753 5.89206C11.6384 5.89206 7.16172 9.61423 5.98922 14.9425C5.93256 15.1998 5.69494 15.375 5.43477 15.3582C5.43477 15.3582 5.40817 15.3559 5.40759 15.3559C5.36366 15.353 5.31971 15.3495 5.27462 15.3495C4.00614 15.3495 2.97414 16.3457 2.97414 17.5702C2.97356 18.7953 4.00557 19.7915 5.27404 19.7915Z" fill="#222222"/>
<path d="M21.0084 17.1511C21.5218 17.1511 21.9375 17.5674 21.9375 18.0802C21.9375 18.593 21.5218 19.0093 21.0084 19.0093C20.495 19.0093 20.0793 18.593 20.0793 18.0802C20.0793 17.5674 20.495 17.1511 21.0084 17.1511Z" fill="#222222"/>
<path d="M12.7584 17.1511C13.2718 17.1511 13.6875 17.5674 13.6875 18.0802C13.6875 18.593 13.2718 19.0093 12.7584 19.0093C12.245 19.0093 11.8293 18.593 11.8293 18.0802C11.8293 17.5674 12.245 17.1511 12.7584 17.1511Z" fill="#222222"/>
<path d="M15.1533 23.1452C15.3031 23.2944 15.4678 23.4181 15.6419 23.521C16.4091 23.9737 17.3694 23.9737 18.1366 23.521C18.3106 23.4181 18.476 23.295 18.6251 23.1452C18.8321 22.9382 19.1686 22.9382 19.3756 23.1452C19.5831 23.3528 19.5831 23.6887 19.3756 23.8963C18.6899 24.5819 17.7891 24.9248 16.8889 24.9248C15.9882 24.9248 15.088 24.5814 14.4023 23.8963C14.1947 23.6887 14.1947 23.3528 14.4023 23.1452C14.6098 22.9382 14.9458 22.9382 15.1533 23.1452Z" fill="#222222"/>
<path d="M17.2349 18.3677C17.528 18.3677 17.7656 18.6053 17.7656 18.8984V20.7566C17.7656 21.0497 17.528 21.2874 17.2349 21.2874H15.908C15.6149 21.2874 15.3773 21.0497 15.3773 20.7566C15.3773 20.4635 15.6149 20.2259 15.908 20.2259H16.7041V18.899C16.7041 18.6053 16.9418 18.3677 17.2349 18.3677Z" fill="#222222"/>
<path d="M14.704 10.7612C14.5375 10.5201 14.5982 10.19 14.8393 10.0229C15.0809 9.85641 15.4111 9.91711 15.5776 10.1582C15.7458 10.4022 15.921 10.6271 16.0996 10.8439C18.9077 14.2527 22.8537 14.3938 24.6153 14.2573C25.1304 14.2169 25.46 14.1538 25.5178 14.1423C25.8051 14.0827 26.0856 14.2677 26.1451 14.5545C26.2047 14.8413 26.0196 15.1222 25.7329 15.1818C25.7103 15.1864 24.9738 15.3304 23.8516 15.3304C21.4881 15.331 17.4167 14.6909 14.704 10.7612Z" fill="#222222"/>
<path d="M8.27581 13.9116C8.62964 13.8879 8.95919 13.811 9.26445 13.6982C10.2207 13.3479 10.9399 12.6402 11.4198 12.0187C11.8933 11.4047 12.1344 10.8768 12.1402 10.8641C12.2587 10.5964 12.5721 10.4744 12.8392 10.5935C13.1075 10.7115 13.2294 11.0248 13.1109 11.2931C13.0491 11.4342 11.5511 14.7522 8.34808 14.9707C8.33593 14.9713 8.32379 14.9719 8.31165 14.9719C8.03471 14.9719 7.80172 14.7574 7.78264 14.4776C7.7624 14.1845 7.98326 13.9312 8.27581 13.9116Z" fill="#222222"/>
<path d="M21.8447 12.2521C21.828 12.2521 21.8112 12.2515 21.7938 12.2498C21.6707 12.2382 18.7533 11.9301 16.5806 9.1266C16.4008 8.89476 16.443 8.56174 16.6748 8.38193C16.9067 8.20271 17.2397 8.24433 17.4195 8.47675C17.9988 9.22431 18.6435 9.76777 19.2592 10.1638C19.3777 10.2401 19.4957 10.3107 19.6119 10.376C20.8405 11.0721 21.8713 11.1906 21.8956 11.1929C22.187 11.2218 22.4003 11.4803 22.3726 11.7717C22.3466 12.0463 22.1153 12.2521 21.8447 12.2521Z" fill="#222222"/>
</svg>
