<svg width="70" height="32" viewBox="0 0 70 32" fill="none" xmlns="http://www.w3.org/2000/svg">
<path d="M40.8986 15.3507C40.9437 15.3507 40.9876 15.3542 41.0316 15.3571C41.0316 15.3571 41.0582 15.3594 41.0588 15.3594C41.3189 15.3762 41.5566 15.2004 41.6132 14.9437C42.7851 9.61426 47.2618 5.89209 52.4987 5.89209C57.7357 5.89209 62.2123 9.61426 63.3854 14.9437C63.4421 15.2016 63.6808 15.3825 63.9416 15.3594C64.0063 15.3548 64.0636 15.3507 64.1214 15.3507C65.3899 15.3507 66.4219 16.3469 66.4219 17.5714C66.4219 18.7959 65.3899 19.7921 64.1214 19.7921C64.0636 19.7921 64.0063 19.7875 63.9497 19.7834C63.937 19.7823 63.9237 19.7817 63.9109 19.7817C63.6629 19.7817 63.4386 19.9528 63.3848 20.198C62.2123 25.528 57.7351 29.2496 52.4981 29.2496C47.2612 29.2496 42.7846 25.528 41.6121 20.1991C41.5554 19.9424 41.3178 19.7626 41.0576 19.7834C41.0576 19.7834 41.031 19.7852 41.0304 19.7852C40.9865 19.7881 40.9426 19.7915 40.8975 19.7915C39.629 19.7915 38.597 18.7954 38.597 17.5708C38.5981 16.3469 39.6301 15.3507 40.8986 15.3507ZM57.52 11.192C57.4957 11.1897 56.4649 11.0712 55.2363 10.3751C55.1201 10.3092 55.0027 10.2392 54.8836 10.1629C54.2679 9.76747 53.6232 9.22342 53.0439 8.47587C52.8641 8.24403 52.5305 8.20182 52.2993 8.38105C52.0674 8.56086 52.0252 8.89445 52.205 9.12571C54.3777 11.9292 57.2951 12.2368 57.4183 12.2489C57.4356 12.2506 57.4524 12.2512 57.4691 12.2512C57.7397 12.2512 57.971 12.0454 57.997 11.7702C58.0242 11.4794 57.8108 11.221 57.52 11.192ZM61.3578 15.1825C61.6452 15.1229 61.8296 14.8419 61.77 14.5552C61.7105 14.2678 61.4301 14.0834 61.1427 14.1429C61.0849 14.1545 60.7559 14.2181 60.2402 14.258C58.4786 14.3944 54.5327 14.254 51.7246 10.8446C51.5459 10.6278 51.3707 10.4023 51.2025 10.1589C51.036 9.91779 50.7053 9.85708 50.4642 10.0236C50.2231 10.1907 50.1624 10.5214 50.3289 10.7619C53.0422 14.6916 57.1136 15.3316 59.4759 15.3316C60.5987 15.3311 61.3353 15.1871 61.3578 15.1825ZM51.528 20.2257C51.2349 20.2257 50.9973 20.4633 50.9973 20.7565C50.9973 21.0496 51.2349 21.2872 51.528 21.2872H52.8549C53.148 21.2872 53.3856 21.0496 53.3856 20.7565V18.8983C53.3856 18.6052 53.148 18.3675 52.8549 18.3675C52.5617 18.3675 52.3241 18.6052 52.3241 18.8983V20.2251H51.528V20.2257ZM56.6354 19.0093C57.1488 19.0093 57.5645 18.593 57.5645 18.0802C57.5645 17.5674 57.1488 17.1511 56.6354 17.1511C56.122 17.1511 55.7063 17.5674 55.7063 18.0802C55.7063 18.593 56.122 19.0093 56.6354 19.0093ZM50.0231 23.8964C50.7088 24.5821 51.6095 24.925 52.5097 24.925C53.4105 24.925 54.3112 24.5816 54.9964 23.8964C55.2039 23.6889 55.2039 23.353 54.9964 23.1454C54.7894 22.9384 54.4529 22.9384 54.2459 23.1454C54.0968 23.2946 53.9314 23.4183 53.7574 23.5212C52.9902 23.9739 52.0298 23.9739 51.2626 23.5212C51.0886 23.4183 50.9233 23.2952 50.7741 23.1454C50.5671 22.9384 50.2306 22.9384 50.0236 23.1454C49.8161 23.353 49.8161 23.6889 50.0231 23.8964ZM48.3852 19.0093C48.8986 19.0093 49.3142 18.593 49.3142 18.0802C49.3142 17.5674 48.8986 17.1511 48.3852 17.1511C47.8717 17.1511 47.4561 17.5674 47.4561 18.0802C47.4561 18.593 47.8717 19.0093 48.3852 19.0093ZM43.931 14.972C43.9432 14.972 43.9553 14.972 43.9675 14.9709C47.1704 14.7523 48.6679 11.4343 48.7303 11.2932C48.8483 11.025 48.7268 10.7116 48.4586 10.5937C48.1909 10.4751 47.8775 10.5965 47.7596 10.8642C47.7538 10.8769 47.5127 11.4048 47.0392 12.0188C46.5593 12.6403 45.8407 13.348 44.8838 13.6983C44.5786 13.8105 44.249 13.8874 43.8952 13.9117C43.6026 13.9319 43.3818 14.1852 43.4014 14.4777C43.4211 14.7575 43.6541 14.972 43.931 14.972Z" fill="#FCE4D2"/>
<path d="M41.1495 14.9651C42.3734 9.39915 47.0484 5.51221 52.516 5.51221C57.9842 5.51221 62.6592 9.39973 63.8837 14.9662C63.8953 15.0182 63.915 15.0668 63.9375 15.1136C61.4751 15.3426 55.8312 15.5993 53.3463 13.4925C52.5993 12.8588 51.8789 12.1928 51.2094 11.4776C50.6746 10.907 50.4699 10.1513 49.5536 10.1525C48.7609 10.1536 48.403 10.9503 48.0741 11.5331C47.7543 12.0997 47.2502 12.6183 46.8218 13.1069C45.8592 14.2048 44.5034 15.0119 43.0678 15.2721C42.3815 15.3964 41.6854 15.3703 41.0061 15.2356C41.0749 15.1582 41.1269 15.0674 41.1495 14.9651Z" fill="#D1A88C"/>
<path d="M40.6753 14.2956C42.0947 8.70074 46.8986 4.83057 52.4992 4.83057C58.0992 4.83057 62.9025 8.70016 64.3224 14.2944C66.0835 14.3956 67.4844 15.8265 67.4844 17.5708C67.4844 19.3151 66.0835 20.746 64.3224 20.8472C62.9025 26.4409 58.0986 30.311 52.4992 30.311C46.8986 30.311 42.0947 26.4409 40.6753 20.8455C38.9252 20.7327 37.5365 19.307 37.5365 17.5702C37.5371 15.8346 38.9252 14.4089 40.6753 14.2956ZM40.899 19.7915C40.9441 19.7915 40.9881 19.788 41.032 19.7851C41.032 19.7851 41.0586 19.7834 41.0592 19.7834C41.3194 19.7626 41.557 19.9424 41.6136 20.1991C42.7861 25.528 47.2628 29.2495 52.4997 29.2495C57.7367 29.2495 62.2133 25.5274 63.3864 20.1979C63.4402 19.9528 63.6645 19.7817 63.9125 19.7817C63.9252 19.7817 63.9385 19.7823 63.9513 19.7834C64.0079 19.7869 64.0652 19.7921 64.123 19.7921C65.3915 19.7921 66.4235 18.7959 66.4235 17.5714C66.4235 16.3468 65.3915 15.3507 64.123 15.3507C64.0652 15.3507 64.0079 15.3553 63.9432 15.3594C63.6818 15.3831 63.4431 15.2015 63.387 14.9437C62.2145 9.61423 57.7372 5.89206 52.5003 5.89206C47.2634 5.89206 42.7867 9.61423 41.6142 14.9425C41.5576 15.1998 41.3199 15.375 41.0598 15.3582C41.0598 15.3582 41.0332 15.3559 41.0326 15.3559C40.9887 15.353 40.9447 15.3495 40.8996 15.3495C39.6311 15.3495 38.5991 16.3457 38.5991 17.5702C38.5986 18.7953 39.6306 19.7915 40.899 19.7915Z" fill="#222222"/>
<path d="M56.6334 17.1511C57.1468 17.1511 57.5625 17.5674 57.5625 18.0802C57.5625 18.593 57.1468 19.0093 56.6334 19.0093C56.12 19.0093 55.7043 18.593 55.7043 18.0802C55.7043 17.5674 56.12 17.1511 56.6334 17.1511Z" fill="#222222"/>
<path d="M48.3834 17.1511C48.8968 17.1511 49.3125 17.5674 49.3125 18.0802C49.3125 18.593 48.8968 19.0093 48.3834 19.0093C47.87 19.0093 47.4543 18.593 47.4543 18.0802C47.4543 17.5674 47.87 17.1511 48.3834 17.1511Z" fill="#222222"/>
<path d="M50.7783 23.1452C50.9281 23.2944 51.0928 23.4181 51.2669 23.521C52.0341 23.9737 52.9944 23.9737 53.7616 23.521C53.9356 23.4181 54.101 23.295 54.2501 23.1452C54.4571 22.9382 54.7936 22.9382 55.0006 23.1452C55.2081 23.3528 55.2081 23.6887 55.0006 23.8963C54.3149 24.5819 53.4141 24.9248 52.5139 24.9248C51.6132 24.9248 50.713 24.5814 50.0273 23.8963C49.8197 23.6887 49.8197 23.3528 50.0273 23.1452C50.2348 22.9382 50.5708 22.9382 50.7783 23.1452Z" fill="#222222"/>
<path d="M52.8599 18.3677C53.153 18.3677 53.3906 18.6053 53.3906 18.8984V20.7566C53.3906 21.0497 53.153 21.2874 52.8599 21.2874H51.533C51.2399 21.2874 51.0023 21.0497 51.0023 20.7566C51.0023 20.4635 51.2399 20.2259 51.533 20.2259H52.3291V18.899C52.3291 18.6053 52.5668 18.3677 52.8599 18.3677Z" fill="#222222"/>
<path d="M50.329 10.7612C50.1625 10.5201 50.2232 10.19 50.4643 10.0229C50.7059 9.85641 51.0361 9.91711 51.2026 10.1582C51.3708 10.4022 51.546 10.6271 51.7246 10.8439C54.5327 14.2527 58.4787 14.3938 60.2403 14.2573C60.7554 14.2169 61.085 14.1538 61.1428 14.1423C61.4301 14.0827 61.7106 14.2677 61.7701 14.5545C61.8297 14.8413 61.6446 15.1222 61.3579 15.1818C61.3353 15.1864 60.5988 15.3304 59.4766 15.3304C57.1131 15.331 53.0417 14.6909 50.329 10.7612Z" fill="#222222"/>
<path d="M43.9008 13.9116C44.2546 13.8879 44.5842 13.811 44.8895 13.6982C45.8457 13.3479 46.5649 12.6402 47.0448 12.0187C47.5183 11.4047 47.7594 10.8768 47.7652 10.8641C47.8837 10.5964 48.1971 10.4744 48.4642 10.5935C48.7325 10.7115 48.8544 11.0248 48.7359 11.2931C48.6741 11.4342 47.1761 14.7522 43.9731 14.9707C43.9609 14.9713 43.9488 14.9719 43.9367 14.9719C43.6597 14.9719 43.4267 14.7574 43.4076 14.4776C43.3874 14.1845 43.6083 13.9312 43.9008 13.9116Z" fill="#222222"/>
<path d="M57.4697 12.2521C57.453 12.2521 57.4362 12.2515 57.4188 12.2498C57.2957 12.2382 54.3783 11.9301 52.2056 9.1266C52.0258 8.89476 52.068 8.56174 52.2998 8.38193C52.5317 8.20271 52.8647 8.24433 53.0445 8.47675C53.6238 9.22431 54.2685 9.76777 54.8842 10.1638C55.0027 10.2401 55.1207 10.3107 55.2369 10.376C56.4655 11.0721 57.4963 11.1906 57.5206 11.1929C57.812 11.2218 58.0253 11.4803 57.9976 11.7717C57.9716 12.0463 57.7403 12.2521 57.4697 12.2521Z" fill="#222222"/>
<path d="M4.45938 15.3506C4.50447 15.3506 4.54842 15.3541 4.59236 15.357C4.59236 15.357 4.61895 15.3593 4.61953 15.3593C4.87912 15.3761 5.11732 15.2003 5.17398 14.9436C5.82151 12.0002 7.47851 9.54941 9.71308 7.94272C9.85878 7.83807 10.0068 7.73574 10.1577 7.63861C10.3126 7.53859 10.4693 7.44088 10.6289 7.34837C12.0731 6.51352 13.7099 6.00994 15.4432 5.91224C15.4975 5.90934 15.5513 5.9053 15.6056 5.90298C15.7351 5.89778 15.8652 5.89489 15.9959 5.89431C16.0173 5.89431 16.0381 5.89258 16.0595 5.89258C16.089 5.89258 16.1173 5.89431 16.1468 5.89431C16.2775 5.89547 16.4075 5.8972 16.5371 5.90298C16.5914 5.9053 16.6457 5.90992 16.7001 5.91339C18.4305 6.01399 20.0638 6.51988 21.5051 7.35589C21.6647 7.44839 21.8214 7.5461 21.9758 7.6467C22.1267 7.74499 22.2747 7.84674 22.4209 7.95255C24.6486 9.55924 26.3004 12.0072 26.9467 14.9442C27.0034 15.202 27.2433 15.383 27.5035 15.3599C27.5688 15.3553 27.6255 15.3512 27.6839 15.3512C28.9524 15.3512 29.9844 16.3474 29.9844 17.5719C29.9844 18.7964 28.9524 19.7926 27.6839 19.7926C27.6261 19.7926 27.5688 19.788 27.5122 19.7839C27.4995 19.7828 27.4862 19.7822 27.4734 19.7822C27.226 19.7822 27.0011 19.9533 26.9473 20.1985C25.7748 25.5285 21.2982 29.2501 16.0606 29.2501C10.8237 29.2501 6.34764 25.5285 5.17456 20.1996C5.1179 19.9429 4.88028 19.7631 4.62011 19.7839C4.62011 19.7839 4.59352 19.7857 4.59294 19.7857C4.549 19.7885 4.50505 19.792 4.45996 19.792C3.19148 19.792 2.15947 18.7959 2.15947 17.5713C2.1589 16.3468 3.19091 15.3506 4.45938 15.3506ZM21.0808 11.192C21.0565 11.1896 20.0256 11.0711 18.7971 10.375C18.6809 10.3091 18.5635 10.2392 18.4444 10.1628C17.8287 9.76738 17.184 9.22333 16.6047 8.47578C16.4249 8.24394 16.0919 8.20173 15.86 8.38096C15.6282 8.56077 15.586 8.89436 15.7652 9.12562C17.9379 11.9291 20.8553 12.2367 20.9784 12.2488C20.9958 12.2506 21.0126 12.2511 21.0293 12.2511C21.2999 12.2511 21.5312 12.0453 21.5572 11.7701C21.5849 11.4793 21.3716 11.2209 21.0808 11.192ZM24.9186 15.1824C25.2059 15.1228 25.3904 14.8418 25.3308 14.5551C25.2718 14.2677 24.9908 14.0833 24.7041 14.1423C24.6468 14.1544 24.3173 14.2174 23.8016 14.2579C22.0399 14.3944 18.0946 14.2539 15.2865 10.8445C15.1079 10.6277 14.9327 10.4022 14.7644 10.1588C14.5979 9.9177 14.2672 9.85699 14.0261 10.0235C13.785 10.1906 13.7243 10.5213 13.8908 10.7618C16.6041 14.6915 20.6755 15.3315 23.0378 15.3315C24.1595 15.331 24.896 15.187 24.9186 15.1824ZM15.0888 20.2256C14.7956 20.2256 14.558 20.4633 14.558 20.7564C14.558 21.0495 14.7956 21.2871 15.0888 21.2871H16.4162C16.7093 21.2871 16.947 21.0495 16.947 20.7564V18.8982C16.947 18.6051 16.7093 18.3674 16.4162 18.3674C16.1231 18.3674 15.8855 18.6051 15.8855 18.8982V20.2251H15.0888V20.2256ZM20.1962 19.0092C20.7096 19.0092 21.1253 18.5929 21.1253 18.0801C21.1253 17.5673 20.7096 17.151 20.1962 17.151C19.6828 17.151 19.2671 17.5673 19.2671 18.0801C19.2671 18.5929 19.6828 19.0092 20.1962 19.0092ZM13.5838 23.8963C14.2695 24.582 15.1703 24.9249 16.0705 24.9249C16.9712 24.9249 17.8714 24.5815 18.5571 23.8963C18.7647 23.6888 18.7647 23.3529 18.5571 23.1453C18.3502 22.9383 18.0137 22.9383 17.8061 23.1453C17.6569 23.2945 17.4916 23.4182 17.3176 23.5211C16.5504 23.9738 15.59 23.9738 14.8228 23.5211C14.6488 23.4182 14.4834 23.2951 14.3337 23.1453C14.1267 22.9383 13.7902 22.9383 13.5833 23.1453C13.3769 23.3529 13.3769 23.6888 13.5838 23.8963ZM11.9459 19.0092C12.4593 19.0092 12.875 18.5929 12.875 18.0801C12.875 17.5673 12.4593 17.151 11.9459 17.151C11.4325 17.151 11.0168 17.5673 11.0168 18.0801C11.0168 18.5929 11.4325 19.0092 11.9459 19.0092ZM7.4918 14.9719C7.50394 14.9719 7.51609 14.9719 7.52823 14.9708C10.7312 14.7522 12.2286 11.4342 12.2911 11.2931C12.4096 11.0249 12.2876 10.7115 12.0193 10.5936C11.7517 10.475 11.4383 10.5965 11.3198 10.8641C11.3146 10.8769 11.0735 11.4047 10.6 12.0187C10.1201 12.6402 9.40146 13.3479 8.44461 13.6983C8.13934 13.8104 7.80979 13.8873 7.45596 13.9116C7.16341 13.9318 6.94256 14.1851 6.96222 14.4776C6.98187 14.7574 7.21487 14.9719 7.4918 14.9719Z" fill="#FCE4D2"/>
<path d="M4.8286 14.6331C6.05313 9.06663 10.7275 5.17969 16.1957 5.17969C21.6639 5.17969 26.3389 9.06721 27.5634 14.6337C27.575 14.6857 27.5946 14.7343 27.6172 14.7811C25.1548 15.0101 19.5109 15.2668 17.026 13.16C16.279 12.5263 15.5586 11.8603 14.8891 11.1451C14.3543 10.5745 14.1496 9.81881 13.2333 9.81997C12.4406 9.82112 12.0827 10.6178 11.7538 11.2006C11.434 11.7672 10.9299 12.2858 10.5015 12.7743C9.53884 13.8723 8.18307 14.6794 6.7475 14.9395C6.06123 15.0638 5.36513 15.0378 4.6858 14.9031C4.75402 14.8262 4.80605 14.7354 4.8286 14.6331Z" fill="#D1A88C"/>
<path d="M9.61787 5.12924C9.61787 3.4948 10.9476 2.16504 12.5821 2.16504C14.1194 2.16504 15.3861 3.34159 15.5312 4.84132C13.5164 4.92862 11.6189 5.51892 9.95956 6.50583C9.74218 6.09476 9.61787 5.62646 9.61787 5.12924Z" fill="#FF766D"/>
<path d="M16.6028 4.84306C16.7468 3.34274 18.0141 2.16504 19.552 2.16504C21.1859 2.16504 22.5156 3.4948 22.5156 5.12924C22.5156 5.6305 22.3896 6.10228 22.1687 6.5174C20.5117 5.52759 18.616 4.9344 16.6028 4.84306Z" fill="#FF766D"/>
<path d="M4.22998 14.2954C4.99488 11.2803 6.7438 8.76764 9.06914 7.08983C8.74364 6.50878 8.55632 5.84044 8.55632 5.12873C8.55632 2.90861 10.3619 1.10303 12.582 1.10303C14.0702 1.10303 15.3693 1.91707 16.0654 3.12021C16.7621 1.91765 18.0612 1.10361 19.5488 1.10361C21.7683 1.10361 23.5745 2.90919 23.5745 5.1293C23.5745 5.84564 23.3837 6.51803 23.0542 7.10139C25.3714 8.7792 27.114 11.2867 27.8771 14.2942C29.6382 14.3954 31.0391 15.8263 31.0391 17.5706C31.0391 19.3149 29.6382 20.7459 27.8771 20.847C26.4572 26.4407 21.6533 30.3109 16.0538 30.3109C10.4533 30.3109 5.64935 26.4407 4.22998 20.8453C2.4799 20.7326 1.09175 19.3068 1.09175 17.5701C1.09175 15.8344 2.4799 14.4087 4.22998 14.2954ZM12.5814 2.16568C10.947 2.16568 9.61724 3.49544 9.61724 5.12988C9.61724 5.6271 9.74154 6.0954 9.95893 6.50705C11.6182 5.52014 13.5157 4.92926 15.5306 4.84254C15.3861 3.34222 14.1188 2.16568 12.5814 2.16568ZM19.5488 2.16568C18.0109 2.16568 16.7436 3.34338 16.5996 4.84369C18.6128 4.93447 20.5085 5.52765 22.1661 6.51746C22.387 6.10292 22.513 5.63056 22.513 5.1293C22.513 3.49486 21.1832 2.16568 19.5488 2.16568ZM4.45373 19.7913C4.49882 19.7913 4.54277 19.7879 4.58671 19.785C4.58671 19.785 4.6133 19.7832 4.61388 19.7832C4.87347 19.7624 5.11167 19.9422 5.16833 20.1989C6.34083 25.5278 10.8175 29.2494 16.0544 29.2494C21.2919 29.2494 25.7686 25.5272 26.9411 20.1978C26.9949 19.9526 27.2192 19.7815 27.4672 19.7815C27.4805 19.7815 27.4932 19.7821 27.506 19.7832C27.5626 19.7867 27.6198 19.7919 27.6777 19.7919C28.9461 19.7919 29.9781 18.7957 29.9781 17.5712C29.9781 16.3467 28.9461 15.3505 27.6777 15.3505C27.6198 15.3505 27.5626 15.3551 27.4973 15.3592C27.2371 15.3829 26.9972 15.2014 26.9405 14.9435C26.2941 12.0065 24.6429 9.55855 22.4147 7.95186C22.2684 7.84664 22.1204 7.7443 21.9695 7.64602C21.8152 7.54542 21.6585 7.44829 21.4989 7.3552C20.0576 6.51919 18.4243 6.0133 16.6939 5.9127C16.6395 5.90924 16.5852 5.90461 16.5308 5.9023C16.4013 5.89652 16.2712 5.89478 16.1406 5.89363C16.1117 5.89363 16.0828 5.89189 16.0533 5.89189C16.0319 5.89189 16.0111 5.89363 15.9897 5.89363C15.859 5.8942 15.7289 5.89709 15.5994 5.9023C15.5451 5.90461 15.4913 5.90866 15.4369 5.91155C13.7036 6.00926 12.0669 6.51341 10.6226 7.34769C10.4631 7.44019 10.3064 7.53732 10.1515 7.63792C10.0006 7.73563 9.85312 7.83739 9.70685 7.94203C7.4717 9.54815 5.81528 11.9995 5.16775 14.9429C5.11109 15.2002 4.87347 15.3754 4.6133 15.3586C4.6133 15.3586 4.58671 15.3563 4.58613 15.3563C4.54219 15.3534 4.49825 15.3499 4.45315 15.3499C3.18468 15.3499 2.15267 16.3461 2.15267 17.5706C2.15324 18.7952 3.18526 19.7913 4.45373 19.7913Z" fill="#222222"/>
<path d="M20.1959 17.1509C20.7093 17.1509 21.125 17.5672 21.125 18.08C21.125 18.5928 20.7093 19.0091 20.1959 19.0091C19.6825 19.0091 19.2668 18.5928 19.2668 18.08C19.2668 17.5672 19.6825 17.1509 20.1959 17.1509Z" fill="#222222"/>
<path d="M11.9459 17.1509C12.4593 17.1509 12.875 17.5672 12.875 18.08C12.875 18.5928 12.4593 19.0091 11.9459 19.0091C11.4325 19.0091 11.0168 18.5928 11.0168 18.08C11.0168 17.5672 11.4325 17.1509 11.9459 17.1509Z" fill="#222222"/>
<path d="M14.3318 23.1452C14.4816 23.2944 14.6464 23.4181 14.821 23.521C15.5882 23.9737 16.5485 23.9737 17.3157 23.521C17.4897 23.4181 17.6551 23.295 17.8042 23.1452C18.0112 22.9382 18.3477 22.9382 18.5553 23.1452C18.7628 23.3528 18.7628 23.6887 18.5553 23.8963C17.8696 24.5819 16.9694 24.9248 16.0686 24.9248C15.1684 24.9248 14.2677 24.5814 13.582 23.8963C13.3744 23.6887 13.3744 23.3528 13.582 23.1452C13.7884 22.9382 14.1243 22.9382 14.3318 23.1452Z" fill="#222222"/>
<path d="M16.4068 18.3674C16.6999 18.3674 16.9375 18.6051 16.9375 18.8982V20.7564C16.9375 21.0495 16.6999 21.2871 16.4068 21.2871H15.0793C14.7862 21.2871 14.5486 21.0495 14.5486 20.7564C14.5486 20.4632 14.7862 20.2256 15.0793 20.2256H15.8754V18.8988C15.876 18.6051 16.1136 18.3674 16.4068 18.3674Z" fill="#222222"/>
<path d="M13.8848 10.761C13.7183 10.5199 13.779 10.1898 14.0201 10.0227C14.2618 9.85616 14.5919 9.91687 14.7584 10.158C14.9266 10.4019 15.1024 10.6268 15.2805 10.8437C18.088 14.2525 22.0339 14.3935 23.7955 14.2571C24.3113 14.2166 24.6408 14.1536 24.698 14.1415C24.9848 14.0825 25.2658 14.2669 25.3248 14.5543C25.3843 14.841 25.1999 15.122 24.9125 15.1816C24.89 15.1862 24.1534 15.3301 23.0312 15.3301C20.6695 15.3307 16.5987 14.6907 13.8848 10.761Z" fill="#222222"/>
<path d="M7.44768 13.9113C7.80209 13.8876 8.13106 13.8107 8.43633 13.698C9.3926 13.3476 10.1118 12.64 10.5917 12.0184C11.0652 11.4044 11.3063 10.8766 11.3115 10.8639C11.43 10.5962 11.7434 10.4742 12.0111 10.5933C12.2793 10.7112 12.4013 11.0246 12.2828 11.2929C12.2209 11.4339 10.7235 14.752 7.51995 14.9705C7.50781 14.9711 7.49566 14.9717 7.48352 14.9717C7.20659 14.9717 6.97359 14.7572 6.95452 14.4773C6.93428 14.1842 7.15513 13.931 7.44768 13.9113Z" fill="#222222"/>
<path d="M21.0161 12.2519C20.9993 12.2519 20.9826 12.2513 20.9652 12.2496C20.8421 12.238 17.9247 11.9298 15.752 9.12635C15.5728 8.89451 15.615 8.5615 15.8468 8.38169C16.0787 8.20246 16.4117 8.24409 16.5915 8.47651C17.1708 9.22406 17.8154 9.76753 18.4312 10.1636C18.5503 10.2399 18.6676 10.3104 18.7838 10.3757C20.0124 11.0718 21.0433 11.1904 21.0676 11.1927C21.3584 11.2216 21.5717 11.48 21.5445 11.7714C21.5179 12.046 21.2867 12.2519 21.0161 12.2519Z" fill="#222222"/>
</svg>
