<svg xmlns="http://www.w3.org/2000/svg" width="18" height="18" viewBox="0 0 18 18" fill="none">
    <path d="M4.125 4.5C4.125 3.87868 4.62868 3.375 5.25 3.375H6.74997C7.37129 3.375 7.87497 3.87868 7.87497 4.5V13.4999C7.87497 14.1212 7.37129 14.6249 6.74997 14.6249H5.25C4.62868 14.6249 4.125 14.1212 4.125 13.4999V4.5Z" fill="white"/>
    <path d="M10.126 4.5C10.126 3.87868 10.6297 3.375 11.251 3.375H12.7509C13.3723 3.375 13.8759 3.87868 13.8759 4.5V13.4999C13.8759 14.1212 13.3723 14.6249 12.7509 14.6249H11.251C10.6297 14.6249 10.126 14.1212 10.126 13.4999V4.5Z" fill="white"/>
</svg>