<svg width="16" height="16" viewBox="0 0 16 16" fill="none" xmlns="http://www.w3.org/2000/svg">
<path fill-rule="evenodd" clip-rule="evenodd" d="M7.83464 2.66669C7.55849 2.66669 7.33464 2.89055 7.33464 3.16669V7.33335H3.16797C2.89183 7.33335 2.66797 7.55721 2.66797 7.83335C2.66797 8.1095 2.89183 8.33335 3.16797 8.33335H7.33464V12.8334C7.33464 13.1095 7.55849 13.3334 7.83464 13.3334C8.11078 13.3334 8.33464 13.1095 8.33464 12.8334V8.33335H12.8346C13.1108 8.33335 13.3346 8.1095 13.3346 7.83335C13.3346 7.55721 13.1108 7.33335 12.8346 7.33335H8.33464V3.16669C8.33464 2.89054 8.11078 2.66669 7.83464 2.66669Z" fill="#616161"/>
</svg>
