<svg width="20" height="20" viewBox="0 0 20 20" fill="none" xmlns="http://www.w3.org/2000/svg">
<path fill-rule="evenodd" clip-rule="evenodd" d="M16.4962 7.5252L12.4748 3.50375C12.4747 3.50375 12.4748 3.50376 12.4748 3.50375C12.0926 3.12167 11.4485 3.22616 11.2068 3.70953L9.1773 7.76853C9.1773 7.76853 9.17731 7.76852 9.1773 7.76853C8.92886 8.26544 8.49566 8.64534 7.97048 8.82676C7.97046 8.82677 7.9705 8.82675 7.97048 8.82676L5.19107 9.7869L7.08328 11.6791L10.213 14.8088L11.1732 12.0295C11.1732 12.0294 11.1732 12.0295 11.1732 12.0295C11.3546 11.5043 11.7345 11.0712 12.231 10.8228L16.2904 8.79313C16.2904 8.79312 16.2904 8.79314 16.2904 8.79313C16.7738 8.55139 16.8782 7.90725 16.4962 7.5252ZM16.9612 10.1348L12.9021 12.1643C12.7561 12.2373 12.6443 12.3648 12.591 12.5192L11.3916 15.9911C11.1403 16.7183 10.2145 16.9316 9.67039 16.3876L7.08332 13.8004L3.38392 17.4999L3.125 17.4999C2.7798 17.4999 2.49997 17.2201 2.5 16.8749L2.50002 16.6161L6.19943 12.9166L3.61235 10.3295C3.06829 9.78542 3.28155 8.85959 4.0088 8.60834L7.4807 7.40897C7.63516 7.35562 7.76257 7.2439 7.83564 7.09774L9.86514 3.03867C10.5647 1.6396 12.4293 1.33702 13.5354 2.44308L17.5568 6.46455C18.6629 7.5706 18.3603 9.43517 16.9612 10.1348Z" fill="#CCA184"/>
</svg>
