<svg width="20" height="20" viewBox="0 0 20 20" fill="none" xmlns="http://www.w3.org/2000/svg">
<g clip-path="url(#clip0_5046_1703)">
<path d="M17.5568 6.46455L13.5354 2.44308C12.4293 1.33702 10.5647 1.6396 9.86517 3.03867L7.83567 7.09774C7.7626 7.2439 7.63519 7.35562 7.48073 7.40897L4.00884 8.60834C3.28159 8.85959 3.06833 9.78542 3.61239 10.3295L6.19947 12.9166L2.50007 16.616L2.50005 16.8749C2.50002 17.2201 2.77985 17.4999 3.12505 17.4999H3.38395L7.08335 13.8004L9.67042 16.3876C10.2145 16.9316 11.1403 16.7183 11.3916 15.9911L12.591 12.5192C12.6443 12.3648 12.7561 12.2373 12.9022 12.1643L16.9612 10.1348C18.3603 9.43517 18.6629 7.5706 17.5568 6.46455Z" fill="#CCA184"/>
</g>
<defs>
<clipPath id="clip0_5046_1703">
<rect width="20" height="20" fill="white"/>
</clipPath>
</defs>
</svg>
