<svg width="14" height="14" viewBox="0 0 14 14" fill="none" xmlns="http://www.w3.org/2000/svg">
<path d="M6.97825 10.3599C7.17425 10.3599 7.34001 10.2921 7.47553 10.1566C7.61105 10.0211 7.67862 9.85553 7.67825 9.6599C7.67825 9.4639 7.61068 9.29814 7.47553 9.16262C7.34038 9.0271 7.17462 8.95953 6.97825 8.9599C6.78225 8.9599 6.61668 9.02766 6.48153 9.16318C6.34638 9.2987 6.27862 9.46427 6.27825 9.6599C6.27825 9.8559 6.34601 10.0217 6.48153 10.1572C6.61705 10.2927 6.78262 10.3603 6.97825 10.3599ZM6.47425 8.2039H7.51025C7.51025 7.8959 7.54534 7.65324 7.61553 7.4759C7.68572 7.29857 7.88396 7.0559 8.21025 6.7479C8.45292 6.50524 8.64425 6.27414 8.78425 6.05462C8.92425 5.8351 8.99425 5.57153 8.99425 5.2639C8.99425 4.74124 8.80292 4.3399 8.42025 4.0599C8.03758 3.7799 7.58492 3.6399 7.06225 3.6399C6.53025 3.6399 6.09868 3.7799 5.76753 4.0599C5.43638 4.3399 5.20529 4.6759 5.07425 5.0679L5.99825 5.4319C6.04492 5.2639 6.15001 5.0819 6.31353 4.8859C6.47705 4.6899 6.72662 4.5919 7.06225 4.5919C7.36092 4.5919 7.58492 4.67366 7.73425 4.83718C7.88358 5.0007 7.95825 5.18028 7.95825 5.3759C7.95825 5.56257 7.90225 5.73766 7.79025 5.90118C7.67825 6.0647 7.53825 6.21628 7.37025 6.3559C6.95958 6.7199 6.70758 6.99523 6.61425 7.1819C6.52092 7.36857 6.47425 7.70923 6.47425 8.2039ZM7.00625 12.5999C6.23158 12.5999 5.50358 12.453 4.82225 12.1592C4.14092 11.8654 3.54825 11.4663 3.04425 10.9619C2.54025 10.4579 2.14134 9.86523 1.84753 9.1839C1.55372 8.50257 1.40662 7.77457 1.40625 6.9999C1.40625 6.22523 1.55334 5.49724 1.84753 4.8159C2.14172 4.13457 2.54062 3.5419 3.04425 3.0379C3.54825 2.5339 4.14092 2.135 4.82225 1.84118C5.50358 1.54737 6.23158 1.40028 7.00625 1.3999C7.78092 1.3999 8.50892 1.547 9.19025 1.84118C9.87158 2.13537 10.4642 2.53428 10.9682 3.0379C11.4722 3.5419 11.8713 4.13457 12.1655 4.8159C12.4597 5.49724 12.6066 6.22523 12.6062 6.9999C12.6062 7.77457 12.4592 8.50257 12.165 9.1839C11.8708 9.86523 11.4719 10.4579 10.9682 10.9619C10.4642 11.4659 9.87158 11.865 9.19025 12.1592C8.50892 12.4534 7.78092 12.6003 7.00625 12.5999Z" fill="#616161"/>
</svg>
