<svg width="50" height="50" viewBox="0 0 50 50" fill="none" xmlns="http://www.w3.org/2000/svg">
<path fill-rule="evenodd" clip-rule="evenodd" d="M24.9912 45.834C36.4981 45.834 45.8262 36.5059 45.8262 24.999C45.8262 13.4922 36.4981 4.16402 24.9912 4.16402C13.4844 4.16402 4.15625 13.4922 4.15625 24.999C4.15625 36.5059 13.4844 45.834 24.9912 45.834ZM26.7143 13.1018C26.0373 11.6341 23.9514 11.6341 23.2744 13.1018L21.0294 17.9688C20.7535 18.567 20.1866 18.9789 19.5325 19.0564L14.2099 19.6875C12.6049 19.8778 11.9603 21.8617 13.1469 22.9591L17.082 26.5982C17.5657 27.0454 17.7822 27.7118 17.6538 28.3579L16.6092 33.615C16.2942 35.2003 17.9818 36.4264 19.3922 35.637L24.0692 33.019C24.644 32.6972 25.3447 32.6972 25.9195 33.019L30.5965 35.637C32.0069 36.4264 33.6945 35.2003 33.3795 33.615L32.3349 28.3579C32.2065 27.7118 32.423 27.0454 32.9067 26.5982L36.8418 22.9591C38.0285 21.8617 37.3839 19.8778 35.7788 19.6875L30.4562 19.0564C29.8021 18.9789 29.2352 18.567 28.9593 17.9688L26.7143 13.1018Z" fill="#F95F6E"/>
</svg>
