<svg width="15" height="15" viewBox="0 0 15 15" fill="none" xmlns="http://www.w3.org/2000/svg">
<g id="ic_reward_fill_bad_15">
<g id="Group">
<path id="Subtract" fill-rule="evenodd" clip-rule="evenodd" d="M7.49222 13.7503C10.944 13.7503 13.7423 10.9521 13.7423 7.50028C13.7423 4.04848 10.944 1.25024 7.49222 1.25024C4.04042 1.25024 1.24219 4.04848 1.24219 7.50028C1.24219 10.9521 4.04042 13.7503 7.49222 13.7503ZM8.00844 3.93138C7.80536 3.4911 7.17962 3.4911 6.97653 3.93138L6.3031 5.39138C6.22033 5.57082 6.05028 5.69437 5.85405 5.71764L4.2574 5.90695C3.77592 5.96403 3.58255 6.55915 3.93852 6.88835L5.11897 7.97999C5.26405 8.11415 5.329 8.31406 5.29049 8.50788L4.97714 10.0849C4.88265 10.5604 5.38889 10.9282 5.81197 10.6914L7.21496 9.90609C7.38739 9.80957 7.59759 9.80957 7.77002 9.90609L9.17301 10.6914C9.59609 10.9282 10.1023 10.5604 10.0078 10.0849L9.69449 8.50788C9.65598 8.31406 9.72093 8.11415 9.86601 7.97999L11.0465 6.88835C11.4024 6.55915 11.2091 5.96403 10.7276 5.90695L9.13093 5.71764C8.93469 5.69437 8.76464 5.57082 8.68187 5.39138L8.00844 3.93138Z" fill="#F95F6E"/>
</g>
</g>
</svg>
