<svg width="18" height="18" viewBox="0 0 18 18" fill="none" xmlns="http://www.w3.org/2000/svg">
<g clip-path="url(#clip0_2721_20143)">
<path d="M9.78111 1.79981C9.99279 1.79981 10.1822 1.93157 10.2534 2.12885L10.7618 3.53789C10.9439 3.58325 11.1002 3.62861 11.2326 3.67613C11.3774 3.72797 11.5638 3.80645 11.7942 3.91373L12.9779 3.28733C13.0745 3.23614 13.1851 3.21766 13.2931 3.23467C13.4012 3.25167 13.5007 3.30325 13.577 3.38165L14.6181 4.45805C14.7563 4.60133 14.7952 4.81085 14.7174 4.99373L14.1623 6.29477C14.2545 6.46397 14.3279 6.60869 14.3841 6.72965C14.4446 6.86141 14.5194 7.04285 14.6087 7.27685L15.9026 7.83125C16.097 7.91405 16.2172 8.10845 16.2042 8.31653L16.1092 9.81053C16.1027 9.90759 16.0678 10.0006 16.009 10.078C15.9501 10.1555 15.8698 10.2139 15.778 10.2461L14.5526 10.6817C14.5173 10.8509 14.4806 10.9956 14.4417 11.118C14.379 11.3071 14.3074 11.493 14.2271 11.6753L14.8427 13.0361C14.8862 13.1317 14.8979 13.2387 14.8761 13.3415C14.8543 13.4442 14.8002 13.5373 14.7218 13.6071L13.551 14.6525C13.4739 14.7211 13.3777 14.7644 13.2753 14.7768C13.1729 14.7892 13.0691 14.7699 12.9779 14.7216L11.7712 14.0823C11.5824 14.1823 11.3876 14.2705 11.188 14.3465L10.661 14.5438L10.193 15.8398C10.1583 15.9347 10.0957 16.0169 10.0135 16.0756C9.93124 16.1344 9.83318 16.1669 9.73215 16.1688L8.36415 16.1998C8.26045 16.2025 8.15844 16.173 8.07218 16.1154C7.98593 16.0578 7.91965 15.9748 7.88247 15.878L7.33095 14.4185C7.14278 14.3542 6.95646 14.2846 6.77223 14.2097C6.62155 14.1445 6.47314 14.0741 6.32727 13.9988L4.95927 14.5834C4.86913 14.6219 4.76976 14.6333 4.67325 14.6163C4.57673 14.5993 4.48724 14.5546 4.41567 14.4876L3.40335 13.538C3.32798 13.4676 3.27666 13.3753 3.25663 13.2741C3.2366 13.1729 3.24889 13.068 3.29175 12.9742L3.87999 11.6926C3.80176 11.5408 3.72923 11.3861 3.66255 11.2289C3.58472 11.0365 3.51269 10.8418 3.44655 10.645L2.15775 10.2526C2.05299 10.2209 1.96162 10.1556 1.89782 10.0667C1.83403 9.97773 1.80138 9.87023 1.80495 9.76085L1.85535 8.37773C1.85894 8.28748 1.88713 8.19994 1.93688 8.12456C1.98662 8.04918 2.05603 7.98883 2.13759 7.95005L3.48975 7.30061C3.55239 7.07093 3.60711 6.89237 3.65535 6.76205C3.72328 6.58798 3.79871 6.41694 3.88143 6.24941L3.29535 5.01101C3.25087 4.91696 3.23737 4.81123 3.25677 4.70903C3.27618 4.60682 3.3275 4.5134 3.40335 4.44221L4.41423 3.48749C4.4851 3.42065 4.57376 3.37572 4.66956 3.35809C4.76537 3.34046 4.86422 3.35089 4.95423 3.38813L6.32079 3.95261C6.47199 3.85181 6.60879 3.77045 6.73263 3.70493C6.88023 3.62645 7.07751 3.54437 7.32591 3.45581L7.80111 2.13029C7.83624 2.03328 7.90046 1.94948 7.985 1.89033C8.06953 1.83118 8.17026 1.79957 8.27343 1.79981H9.78111ZM9.02223 6.85349C7.82199 6.85349 6.84927 7.81469 6.84927 9.00125C6.84927 10.1878 7.82199 11.1497 9.02223 11.1497C10.2218 11.1497 11.1945 10.1878 11.1945 9.00125C11.1945 7.81469 10.2225 6.85349 9.02223 6.85349Z" fill="#BDBDBD"/>
</g>
<defs>
<clipPath id="clip0_2721_20143">
<rect width="14.4" height="14.4" fill="white" transform="translate(1.80469 1.7998)"/>
</clipPath>
</defs>
</svg>
