<svg width="32" height="32" viewBox="0 0 32 32" fill="none" xmlns="http://www.w3.org/2000/svg">
<g id="ic_user_fill_32">
<g id="bk">
<path id="Stroke 3" fill-rule="evenodd" clip-rule="evenodd" d="M16.6588 27.9992H24.4526C25.9608 27.9992 27.1824 26.7867 27.1824 25.2897V21.4261C27.1838 20.3383 26.5259 19.3561 25.5145 18.9361L18.6611 16.6114C17.8108 16.3107 16.9208 16.1657 16.0309 16.1617V16.1562C16.02 16.1562 16.0091 16.159 15.9968 16.159C15.9859 16.159 15.9749 16.1562 15.964 16.1562V16.1617C15.0741 16.1657 14.1842 16.3107 13.3338 16.6114L6.48045 18.9361C5.46904 19.3561 4.81114 20.3383 4.8125 21.4261V25.2897C4.8125 26.7867 6.03412 27.9992 7.54237 27.9992H15.964H16.6588Z" fill="white"/>
<path id="Stroke 5" fill-rule="evenodd" clip-rule="evenodd" d="M16.0416 14.8429C19.3127 14.8429 21.963 12.1911 21.963 8.92146C21.963 5.6503 19.3127 3 16.0416 3C12.7719 3 10.1201 5.6503 10.1201 8.92146C10.1201 12.1911 12.7719 14.8429 16.0416 14.8429Z" fill="white"/>
</g>
</g>
</svg>
