<svg width="20" height="20" viewBox="0 0 20 20" fill="none" xmlns="http://www.w3.org/2000/svg">
<path d="M9.16164 14.5971L12.4239 11.2836H3.89863C3.64927 11.2834 3.40233 11.3333 3.17193 11.4302C2.94152 11.5271 2.73218 11.6691 2.55585 11.8483C2.37952 12.0274 2.23968 12.2401 2.1443 12.4742C2.04892 12.7083 1.99989 12.9592 2 13.2125V14.0004C2 14.4908 2.15189 14.9692 2.4312 15.3687C3.60245 17.0379 5.4437 17.9492 7.90432 18.1155C7.90095 17.9586 7.91782 17.7983 7.95833 17.6346L8.34396 16.0657C8.48066 15.5093 8.76335 15.0026 9.16248 14.5971M8.74816 1C9.30223 1 9.85087 1.11088 10.3628 1.3263C10.8747 1.54172 11.3398 1.85747 11.7316 2.25552C12.1234 2.65356 12.4341 3.12611 12.6462 3.64619C12.8582 4.16626 12.9673 4.72368 12.9673 5.2866C12.9673 5.84952 12.8582 6.40694 12.6462 6.92701C12.4341 7.44708 12.1234 7.91964 11.7316 8.31768C11.3398 8.71573 10.8747 9.03148 10.3628 9.2469C9.85087 9.46232 9.30223 9.5732 8.74816 9.5732C7.62916 9.5732 6.556 9.12158 5.76475 8.31768C4.9735 7.51379 4.52898 6.42348 4.52898 5.2866C4.52898 4.14972 4.9735 3.05941 5.76475 2.25552C6.556 1.45162 7.62916 1 8.74816 1ZM14.7394 10.1433L9.75823 15.2032C9.46802 15.4982 9.26211 15.8677 9.16248 16.2723L8.776 17.8421C8.73757 17.9982 8.73961 18.1619 8.78194 18.317C8.82426 18.4722 8.90543 18.6135 9.01752 18.7273C9.1296 18.8411 9.2688 18.9234 9.42153 18.9663C9.57427 19.0092 9.73533 19.0112 9.88902 18.972L11.4332 18.5802C11.8319 18.4789 12.1959 18.2694 12.4864 17.9741L17.4667 12.9142C17.8144 12.5439 18.0058 12.0501 17.9999 11.5383C17.9939 11.0265 17.7912 10.5374 17.435 10.1755C17.0788 9.81359 16.5974 9.60762 16.0936 9.6016C15.5899 9.59559 15.1039 9.79002 14.7394 10.1433Z" fill="#32C3D7"/>
</svg>
