<svg width="38" height="38" viewBox="0 0 38 38" fill="none" xmlns="http://www.w3.org/2000/svg">
<g clip-path="url(#clip0_1872_78)">
<path d="M32.0828 30.4819L26.1899 24.5471C27.9655 22.3567 28.9341 19.6153 28.9315 16.7879C28.9315 9.99554 23.4447 4.47049 16.7011 4.47049C9.95755 4.47049 4.4707 9.99554 4.4707 16.7879C4.4707 23.5802 9.95755 29.1043 16.7011 29.1043C19.604 29.1061 22.412 28.0635 24.6188 26.1645L30.4946 32.0812C30.7063 32.2872 30.9899 32.4013 31.2843 32.3988C31.5788 32.3963 31.8604 32.2775 32.0687 32.0679C32.2769 31.8583 32.3951 31.5747 32.3977 31.2783C32.4004 30.9818 32.2873 30.6961 32.0828 30.4828V30.4819ZM16.7011 26.8429C14.726 26.8438 12.7949 26.2548 11.1522 25.1505C9.50951 24.0462 8.22894 22.4761 7.47247 20.6389C6.716 18.8017 6.51761 16.7798 6.9024 14.829C7.28719 12.8782 8.23786 11.0861 9.63419 9.67944C11.0305 8.27277 12.8098 7.31467 14.7469 6.92633C16.684 6.53799 18.692 6.73684 20.5169 7.49775C22.3418 8.25866 23.9016 9.54745 24.999 11.2011C26.0964 12.8547 26.6822 14.799 26.6822 16.7879C26.6796 19.453 25.6273 22.0083 23.7562 23.8933C21.8851 25.7783 19.3479 26.8391 16.7011 26.8429Z" fill="#9E9E9E" stroke="#9E9E9E" stroke-width="0.894118"/>
</g>
<defs>
<clipPath id="clip0_1872_78">
<rect width="38" height="38" fill="white"/>
</clipPath>
</defs>
</svg>
