<svg width="30" height="30" viewBox="0 0 30 30" fill="none" xmlns="http://www.w3.org/2000/svg">
    <circle cx="15" cy="15" r="15" fill="#FF6A6A"/>
    <g clip-path="url(#rhraz6752a)">
        <path d="M22.955 8.636c-1.193 0-2.118 1.34-1.271 2.541.425.604.322.967.035 1.391-.608.897-1.489 1.637-2.742 1.637-2.005 0-3.065-1.657-3.286-3.061-.076-.489-.119-.855.347-1.308.32-.31.553-.72.553-1.2a1.591 1.591 0 0 0-3.182 0c0 .48.233.89.553 1.2.466.453.422.82.347 1.308-.22 1.404-1.28 3.06-3.286 3.06-1.253 0-2.134-.74-2.742-1.636-.288-.424-.39-.787.036-1.39.846-1.201-.078-2.542-1.271-2.542a1.591 1.591 0 0 0-.681 3.03c.656.302.68 1.047.68 1.726v9.563h15.91v-9.562c0-.68.024-1.426.68-1.727a1.592 1.592 0 0 0-.681-3.03zM15 13.646c1.573 2.354 4.439 2.667 6.364 1.472v3.064H8.636v-3.064c1.908 1.185 4.781.9 6.364-1.473zm-6.364 7.718v-1.591h12.728v1.59H8.636z" fill="#fff"/>
    </g>
    <defs>
        <clipPath id="rhraz6752a">
            <path fill="#fff" transform="translate(5.455 5.455)" d="M0 0h19.091v19.091H0z"/>
        </clipPath>
    </defs>
</svg>
