<svg width="20" height="20" viewBox="0 0 20 20" fill="none" xmlns="http://www.w3.org/2000/svg">
<path fill-rule="evenodd" clip-rule="evenodd" d="M9.99879 18.3316C14.6009 18.3316 18.3316 14.6009 18.3316 9.99879C18.3316 5.39673 14.6009 1.66602 9.99879 1.66602C5.39673 1.66602 1.66602 5.39673 1.66602 9.99879C1.66602 14.6009 5.39673 18.3316 9.99879 18.3316ZM10.6867 5.24034C10.416 4.65335 9.58174 4.65335 9.31099 5.24034L8.41316 7.18683C8.30281 7.42606 8.0761 7.59078 7.81447 7.6218L5.6858 7.87419C5.04388 7.9503 4.78608 8.74372 5.26067 9.18261L6.83445 10.638C7.02788 10.8169 7.11447 11.0834 7.06313 11.3418L6.64537 13.4443C6.51939 14.0783 7.19431 14.5687 7.75838 14.2529L9.62886 13.2059C9.85875 13.0772 10.139 13.0772 10.3689 13.2059L12.2394 14.2529C12.8034 14.5687 13.4783 14.0783 13.3524 13.4443L12.9346 11.3418C12.8833 11.0834 12.9699 10.8169 13.1633 10.638L14.7371 9.18261C15.2117 8.74372 14.9539 7.9503 14.3119 7.87419L12.1833 7.6218C11.9216 7.59078 11.6949 7.42606 11.5846 7.18683L10.6867 5.24034Z" fill="white"/>
</svg>
