<svg width="28" height="29" viewBox="0 0 28 29" fill="none" xmlns="http://www.w3.org/2000/svg">
<g clip-path="url(#clip0_4421_4496)">
<path d="M3.33301 14.5C3.33301 8.60894 8.10864 3.83331 13.9997 3.83331C19.8907 3.83331 24.6663 8.60894 24.6663 14.5C24.6663 15.616 24.4949 16.692 24.177 17.7031C24.4487 18.0552 24.7463 18.3881 25.0681 18.6988C25.281 18.9042 25.5029 19.0985 25.733 19.2809C26.3348 17.8057 26.6663 16.1916 26.6663 14.5C26.6663 7.50437 20.9953 1.83331 13.9997 1.83331C7.00407 1.83331 1.33301 7.50437 1.33301 14.5C1.33301 21.4956 7.00407 27.1666 13.9997 27.1666C15.6848 27.1666 17.293 26.8376 18.7637 26.2402C18.5086 25.9127 18.2309 25.6021 17.9318 25.3109C17.7006 25.0857 17.4584 24.8739 17.2065 24.6762C16.1944 24.9948 15.1171 25.1666 13.9997 25.1666C8.10864 25.1666 3.33301 20.391 3.33301 14.5Z" fill="#739EEB"/>
<path fill-rule="evenodd" clip-rule="evenodd" d="M9.09985 11.3C9.09985 10.5268 9.72665 9.89996 10.4999 9.89996H10.5115C11.2847 9.89996 11.9115 10.5268 11.9115 11.3C11.9115 12.0732 11.2847 12.7 10.5115 12.7H10.4999C9.72665 12.7 9.09985 12.0732 9.09985 11.3ZM16.0999 11.3C16.0999 10.5268 16.7267 9.89996 17.4999 9.89996H17.5115C18.2847 9.89996 18.9115 10.5268 18.9115 11.3C18.9115 12.0732 18.2847 12.7 17.5115 12.7H17.4999C16.7267 12.7 16.0999 12.0732 16.0999 11.3Z" fill="#739EEB"/>
<path d="M9.33325 16.73C9.33325 16.73 11.0833 19.0633 13.9999 19.0633C16.9166 19.0633 18.6666 16.73 18.6666 16.73" stroke="#739EEB" stroke-width="2" stroke-linecap="round" stroke-linejoin="round"/>
<path d="M18.0432 23.1212C17.5455 23.0333 17.5455 22.3067 18.0432 22.2187C18.9245 22.0628 19.7401 21.6436 20.3861 21.0145C21.0321 20.3855 21.4792 19.5751 21.6704 18.6866L21.7002 18.5468C21.808 18.0465 22.5085 18.0437 22.6205 18.5425L22.6574 18.7054C22.8559 19.5898 23.3071 20.3948 23.9542 21.0194C24.6013 21.6439 25.4155 22.0602 26.2945 22.2159C26.7951 22.3052 26.7951 23.0347 26.2945 23.1241C25.4154 23.2796 24.6011 23.6958 23.954 24.3204C23.3069 24.945 22.8558 25.7501 22.6574 26.6346L22.6205 26.7975C22.5085 27.2963 21.808 27.2934 21.7002 26.7932L21.6704 26.6533C21.4792 25.7649 21.0321 24.9545 20.3861 24.3254C19.7401 23.6964 18.9245 23.2772 18.0432 23.1212Z" stroke="#739EEB" stroke-width="1.8" stroke-linecap="round" stroke-linejoin="round"/>
</g>
<defs>
<clipPath id="clip0_4421_4496">
<rect width="28" height="28" fill="white" transform="translate(0 0.5)"/>
</clipPath>
</defs>
</svg>
