<svg width="32" height="32" viewBox="0 0 32 32" fill="none" xmlns="http://www.w3.org/2000/svg">
<path d="M10.3426 16.7717L12.1306 18.0704L11.4485 20.1721C11.3944 20.3401 11.3948 20.5208 11.4496 20.6885C11.5044 20.8562 11.6108 21.0023 11.7536 21.1061C11.8964 21.2099 12.0684 21.266 12.245 21.2664C12.4217 21.2668 12.5939 21.2116 12.7372 21.1085L14.5252 19.8098L16.3161 21.1085C16.4592 21.212 16.6314 21.2677 16.8081 21.2677C16.9848 21.2677 17.157 21.212 17.3001 21.1085C17.4434 21.0045 17.55 20.8579 17.6048 20.6897C17.6595 20.5215 17.6595 20.3404 17.6049 20.1721L16.9228 18.0704L18.7108 16.7717C18.8531 16.6674 18.9589 16.5209 19.013 16.353C19.0671 16.1851 19.0668 16.0045 19.0121 15.8369C18.9575 15.6692 18.8512 15.523 18.7085 15.4192C18.5658 15.3153 18.3939 15.2591 18.2173 15.2585H16.0056L15.3235 13.1568C15.2682 12.9893 15.1615 12.8435 15.0184 12.7401C14.8753 12.6367 14.7033 12.5811 14.5267 12.5811C14.3501 12.5811 14.178 12.6367 14.035 12.7401C13.8919 12.8435 13.7852 12.9893 13.7299 13.1568L13.0449 15.2585H10.8331C10.6568 15.2597 10.4854 15.3164 10.3431 15.4204C10.2009 15.5245 10.0951 15.6707 10.0408 15.8382C9.98647 16.0058 9.9864 16.1861 10.0406 16.3537C10.0948 16.5213 10.2004 16.6675 10.3426 16.7717Z" fill="white"/>
<path d="M28.126 20.6916L23.9286 16.6318L23.4566 17.1017L22.7285 17.8299L15.9678 24.5905C15.8393 24.7188 15.7555 24.885 15.7287 25.0646L15.2101 28.5275C15.1904 28.6585 15.2017 28.7923 15.2432 28.9181C15.2846 29.044 15.355 29.1583 15.4487 29.252C15.5423 29.3457 15.6567 29.4161 15.7825 29.4575C15.9084 29.4989 16.0422 29.5103 16.1732 29.4906L19.636 28.9699C19.8146 28.9432 19.98 28.8601 20.108 28.7328L26.8814 21.9701" fill="white"/>
<path fill-rule="evenodd" clip-rule="evenodd" d="M24.9652 5.32783H21.5915V4.02687C21.5763 3.74947 21.4552 3.48843 21.2532 3.29743C21.0512 3.10643 20.7836 3 20.5054 3C20.2273 3 19.9597 3.10643 19.7577 3.29743C19.5557 3.48843 19.4346 3.74947 19.4194 4.02687V5.32783H9.64982V4.02687C9.6346 3.74947 9.51355 3.48843 9.31154 3.29743C9.10954 3.10643 8.84194 3 8.56377 3C8.2856 3 8.018 3.10643 7.81599 3.29743C7.61399 3.48843 7.49293 3.74947 7.47772 4.02687V5.32783H4.08768C3.79977 5.32783 3.52361 5.44183 3.31972 5.64485C3.11584 5.84786 3.00086 6.12334 3 6.41088V24.917C3.00086 25.2045 3.11584 25.48 3.31972 25.683C3.52361 25.886 3.79977 26 4.08768 26H13.7426L13.923 24.7956C13.9743 24.4529 14.0913 24.1255 14.2655 23.8307H5.17536V10.5512H23.8776V14.0989L24.5182 13.4582C24.7663 13.2101 25.0614 13.0125 25.3855 12.8782C25.5997 12.7894 25.8241 12.729 26.0529 12.6983V6.41088C26.0521 6.12334 25.9371 5.84786 25.7332 5.64485C25.5293 5.44183 25.2532 5.32783 24.9652 5.32783ZM23.8776 17.0233L26.0529 19.1986V22.7975L22.8454 26H15.5885L15.7285 25.0651C15.7553 24.8855 15.8391 24.7193 15.9676 24.591L16.728 23.8307H23.8776V17.0233ZM26.0529 14.5784C25.963 14.62 25.881 14.6772 25.8107 14.7474L25.218 15.34L26.0529 16.1476V14.5784Z" fill="white"/>
<path d="M25.8104 14.7483L24.9976 15.5611L29.1378 19.7013L29.9527 18.8885C30.0314 18.8099 30.0938 18.7165 30.1364 18.6137C30.1791 18.5109 30.201 18.4008 30.201 18.2895C30.201 18.1782 30.1791 18.0681 30.1364 17.9653C30.0938 17.8625 30.0314 17.7691 29.9527 17.6905L27.0084 14.7483C26.9298 14.6696 26.8364 14.6071 26.7336 14.5645C26.6308 14.5219 26.5206 14.5 26.4094 14.5C26.2981 14.5 26.1879 14.5219 26.0852 14.5645C25.9824 14.6071 25.889 14.6696 25.8104 14.7483Z" fill="white"/>
</svg>
