<svg width="24" height="24" viewBox="0 0 24 24" fill="none" xmlns="http://www.w3.org/2000/svg">
<path d="M5.92928 20.6017C5.48937 20.7903 5 20.4676 5 19.989V5C5 4.45 5.196 3.979 5.588 3.587C5.98 3.195 6.45067 2.99934 7 3H14C13.6667 3.5 13.4167 3.97934 13.25 4.438C13.0833 4.89667 13 5.41734 13 6C13 7.2 13.379 8.25834 14.137 9.175C14.895 10.0917 15.8493 10.6667 17 10.9C17.3833 10.95 17.7167 10.975 18 10.975C18.2833 10.975 18.6167 10.95 19 10.9V19.989C19 20.4676 18.5106 20.7903 18.0707 20.6017L12 18L5.92928 20.6017ZM17 9V7H15V5H17V3H19V5H21V7H19V9H17Z" fill="#FF8737"/>
</svg>
