<svg width="20" height="20" viewBox="0 0 20 20" fill="none" xmlns="http://www.w3.org/2000/svg">
<g clip-path="url(#clip0_9406_7325)">
<path d="M6.66602 7.5H13.3327" stroke="#888888" stroke-width="1.25" stroke-linecap="round" stroke-linejoin="round"/>
<path d="M6.66602 10.833H11.666" stroke="#888888" stroke-width="1.25" stroke-linecap="round" stroke-linejoin="round"/>
<path d="M7.5 15H5C4.33696 15 3.70107 14.7366 3.23223 14.2678C2.76339 13.7989 2.5 13.163 2.5 12.5V5.83333C2.5 5.17029 2.76339 4.53441 3.23223 4.06557C3.70107 3.59672 4.33696 3.33333 5 3.33333H15C15.663 3.33333 16.2989 3.59672 16.7678 4.06557C17.2366 4.53441 17.5 5.17029 17.5 5.83333V12.5C17.5 13.163 17.2366 13.7989 16.7678 14.2678C16.2989 14.7366 15.663 15 15 15H12.5L10 17.5L7.5 15Z" stroke="#888888" stroke-width="1.25" stroke-linecap="round" stroke-linejoin="round"/>
</g>
<defs>
<clipPath id="clip0_9406_7325">
<rect width="20" height="20" fill="white"/>
</clipPath>
</defs>
</svg>
