<svg width="20" height="20" viewBox="0 0 20 20" fill="none" xmlns="http://www.w3.org/2000/svg">
    <rect x="3" y="2" width="14" height="16" rx="2" fill="#F75C60"/>
    <path d="M13.982 11.389s.383-.87-2.378-.473c0 0-1.082-.346-1.798-2.205 0 0 .167-1.047.159-1.529 0 0-.233.895-.292 1.056 0 0-.465-1.74-.066-2.128 0 0 .272.059.394.92 0 0 .18-.994-.42-1.03 0 0-.457.025-.49.464 0 0-.067 1.283.34 2.424 0 0-2.004 4.789-3.143 4.949 0 0-.109-.456 1.347-1.706 0 0-2.229 1.267-1.482 1.748 0 0 .366.355.94-.152 0 0 .54-.414 1.23-1.773 0 0 1.448-.498 3.07-.744 0 0 2.237 1.284 2.586.39v-.102s-.183.574-1.971-.364c.003.001 1.699-.202 1.974.255zm-5.555.345c.631-.955 1.19-2.416 1.19-2.416a4.533 4.533 0 0 0 1.43 1.68c-1.232.23-2.62.737-2.62.737v-.001z" fill="#fff" stroke="#fff" stroke-width=".4"/>
</svg>
