<svg width="16" height="16" viewBox="0 0 16 16" fill="none" xmlns="http://www.w3.org/2000/svg">
<path d="M10.1413 2.99456C10.5195 2.61652 11.0324 2.4042 11.5671 2.4043C12.1018 2.4044 12.6146 2.61691 12.9926 2.99509C13.3707 3.37327 13.583 3.88613 13.5829 4.42086C13.5828 4.95559 13.3703 5.46838 12.9921 5.84642L12.4866 6.35192L9.63581 3.49901L10.1413 2.99456ZM8.89125 4.24462L11.7421 7.09542L5.44122 13.3963C5.06318 13.7743 4.55045 13.9867 4.01582 13.9867C3.48119 13.9867 2.96846 13.7743 2.59042 13.3963C2.21238 13.0182 2 12.5055 2 11.9708C2 11.4362 2.21238 10.9235 2.59042 10.5454L8.89125 4.24462Z" fill="white"/>
<path d="M5.90298 2.30664C5.90298 2.65167 6.04004 2.98257 6.28401 3.22654C6.52799 3.47051 6.85888 3.60757 7.20391 3.60757C6.85888 3.60757 6.52799 3.74463 6.28401 3.9886C6.04004 4.23258 5.90298 4.56347 5.90298 4.9085C5.90298 4.56347 5.76592 4.23258 5.52195 3.9886C5.27798 3.74463 4.94708 3.60757 4.60205 3.60757C4.94708 3.60757 5.27798 3.47051 5.52195 3.22654C5.76592 2.98257 5.90298 2.65167 5.90298 2.30664Z" fill="white"/>
<path fill-rule="evenodd" clip-rule="evenodd" d="M5.90272 2.01404C6.06438 2.01404 6.19543 2.14509 6.19543 2.30675C6.19543 2.57414 6.30165 2.83059 6.49073 3.01967C6.67981 3.20875 6.93625 3.31497 7.20365 3.31497C7.36531 3.31497 7.49636 3.44602 7.49636 3.60768C7.49636 3.76934 7.36531 3.90039 7.20365 3.90039C6.93625 3.90039 6.67981 4.00661 6.49073 4.19569C6.30165 4.38477 6.19543 4.64121 6.19543 4.90861C6.19543 5.07027 6.06438 5.20132 5.90272 5.20132C5.74106 5.20132 5.61001 5.07027 5.61001 4.90861C5.61001 4.64121 5.50379 4.38477 5.31471 4.19569C5.12563 4.00661 4.86919 3.90039 4.60179 3.90039C4.44013 3.90039 4.30908 3.76934 4.30908 3.60768C4.30908 3.44602 4.44013 3.31497 4.60179 3.31497C4.86919 3.31497 5.12563 3.20875 5.31471 3.01967C5.50379 2.83059 5.61001 2.57414 5.61001 2.30675C5.61001 2.14509 5.74106 2.01404 5.90272 2.01404ZM5.90272 3.22723C5.85099 3.30035 5.79284 3.36944 5.72866 3.43362C5.66448 3.4978 5.59539 3.55594 5.52227 3.60768C5.59539 3.65941 5.66448 3.71755 5.72866 3.78173C5.79284 3.84591 5.85099 3.91501 5.90272 3.98812C5.95446 3.91501 6.0126 3.84591 6.07678 3.78173C6.14096 3.71755 6.21005 3.65941 6.28317 3.60768C6.21005 3.55594 6.14096 3.4978 6.07678 3.43362C6.0126 3.36944 5.95446 3.30035 5.90272 3.22723Z" fill="white"/>
<path d="M12.4074 8.81128C12.4074 9.15631 12.5444 9.4872 12.7884 9.73118C13.0324 9.97515 13.3633 10.1122 13.7083 10.1122C13.3633 10.1122 13.0324 10.2493 12.7884 10.4932C12.5444 10.7372 12.4074 11.0681 12.4074 11.4131C12.4074 11.0681 12.2703 10.7372 12.0263 10.4932C11.7824 10.2493 11.4515 10.1122 11.1064 10.1122C11.4515 10.1122 11.7824 9.97515 12.0263 9.73118C12.2703 9.4872 12.4074 9.15631 12.4074 8.81128Z" fill="white"/>
<path fill-rule="evenodd" clip-rule="evenodd" d="M12.4071 8.51868C12.5688 8.51868 12.6998 8.64973 12.6998 8.81139C12.6998 9.07878 12.806 9.33523 12.9951 9.52431C13.1842 9.71338 13.4406 9.81961 13.708 9.81961C13.8697 9.81961 14.0008 9.95066 14.0008 10.1123C14.0008 10.274 13.8697 10.405 13.708 10.405C13.4406 10.405 13.1842 10.5112 12.9951 10.7003C12.806 10.8894 12.6998 11.1458 12.6998 11.4132C12.6998 11.5749 12.5688 11.706 12.4071 11.706C12.2455 11.706 12.1144 11.5749 12.1144 11.4132C12.1144 11.1458 12.0082 10.8894 11.8191 10.7003C11.63 10.5112 11.3736 10.405 11.1062 10.405C10.9445 10.405 10.8135 10.274 10.8135 10.1123C10.8135 9.95066 10.9445 9.81961 11.1062 9.81961C11.3736 9.81961 11.63 9.71338 11.8191 9.52431C12.0082 9.33523 12.1144 9.07878 12.1144 8.81139C12.1144 8.64973 12.2455 8.51868 12.4071 8.51868ZM12.4071 9.73187C12.3554 9.80499 12.2972 9.87408 12.2331 9.93826C12.1689 10.0024 12.0998 10.0606 12.0267 10.1123C12.0998 10.1641 12.1689 10.2222 12.2331 10.2864C12.2972 10.3506 12.3554 10.4196 12.4071 10.4928C12.4589 10.4196 12.517 10.3506 12.5812 10.2864C12.6454 10.2222 12.7144 10.1641 12.7876 10.1123C12.7144 10.0606 12.6454 10.0024 12.5812 9.93826C12.517 9.87408 12.4589 9.80499 12.4071 9.73187Z" fill="white"/>
</svg>
