<svg width="32" height="32" viewBox="0 0 32 32" fill="none" xmlns="http://www.w3.org/2000/svg">
<path fill-rule="evenodd" clip-rule="evenodd" d="M10.1976 3.79934C11.6319 3.20521 13.1692 2.89941 14.7218 2.89941C16.2743 2.89941 17.8117 3.20521 19.246 3.79934C20.6804 4.39347 21.9837 5.2643 23.0815 6.36211C24.1793 7.45991 25.0501 8.7632 25.6442 10.1976C26.2384 11.6319 26.5442 13.1692 26.5442 14.7218C26.5442 16.2743 26.2384 17.8117 25.6442 19.246C25.2554 20.1848 24.7479 21.0675 24.1359 21.8732L28.6308 26.368C29.2556 26.9929 29.2556 28.0059 28.6308 28.6308C28.0059 29.2556 26.9929 29.2556 26.368 28.6308L21.8732 24.136C19.8282 25.6895 17.319 26.5442 14.7218 26.5442C11.5863 26.5442 8.57923 25.2986 6.36211 23.0815C4.14498 20.8643 2.89941 17.8573 2.89941 14.7218C2.89941 11.5863 4.14498 8.57923 6.36211 6.36211C7.45991 5.2643 8.7632 4.39347 10.1976 3.79934ZM14.7218 6.09941C13.5895 6.09941 12.4683 6.32244 11.4221 6.75575C10.376 7.18907 9.42551 7.82419 8.62485 8.62485C7.00784 10.2419 6.09941 12.435 6.09941 14.7218C6.09941 17.0086 7.00784 19.2017 8.62485 20.8187C10.2419 22.4357 12.435 23.3442 14.7218 23.3442C17.0086 23.3442 19.2017 22.4357 20.8187 20.8187C21.6194 20.0181 22.2545 19.0675 22.6878 18.0214C23.1211 16.9753 23.3442 15.8541 23.3442 14.7218C23.3442 13.5895 23.1211 12.4683 22.6878 11.4221C22.2545 10.376 21.6194 9.42551 20.8187 8.62485C20.0181 7.82419 19.0675 7.18907 18.0214 6.75575C16.9753 6.32244 15.8541 6.09941 14.7218 6.09941Z" fill="white"/>
</svg>
