<svg width="32" height="32" viewBox="0 0 32 32" fill="none" xmlns="http://www.w3.org/2000/svg">
<path d="M8.93945 14.1531C8.93945 14.453 9.05857 14.7406 9.27063 14.9527C9.48269 15.1647 9.77031 15.2839 10.0702 15.2839H18.26C18.414 15.2932 18.5682 15.2709 18.7132 15.2185C18.8583 15.166 18.9911 15.0843 19.1034 14.9786C19.2158 14.8729 19.3053 14.7453 19.3665 14.6037C19.4277 14.4621 19.4592 14.3094 19.4592 14.1552C19.4592 14.0009 19.4277 13.8483 19.3665 13.7067C19.3053 13.565 19.2158 13.4374 19.1034 13.3317C18.9911 13.226 18.8583 13.1444 18.7132 13.0919C18.5682 13.0394 18.414 13.0171 18.26 13.0265H10.0702C9.92191 13.0259 9.77495 13.0547 9.63779 13.111C9.50062 13.1674 9.37594 13.2503 9.27088 13.355C9.16583 13.4597 9.0825 13.584 9.02562 13.721C8.96875 13.858 8.93945 14.0048 8.93945 14.1531Z" fill="#616161"/>
<path d="M16.4901 17.6362H9.85549C9.61254 17.6362 9.37953 17.7554 9.20774 17.9674C9.03595 18.1795 8.93945 18.4671 8.93945 18.767C8.93945 19.0669 9.03595 19.3545 9.20774 19.5666C9.37953 19.7786 9.61254 19.8978 9.85549 19.8978H16.4901C16.733 19.8978 16.966 19.7786 17.1378 19.5666C17.3096 19.3545 17.4061 19.0669 17.4061 18.767C17.4061 18.4671 17.3096 18.1795 17.1378 17.9674C16.966 17.7554 16.733 17.6362 16.4901 17.6362Z" fill="#616161"/>
<path fill-rule="evenodd" clip-rule="evenodd" d="M23.615 8.55265L24.2677 9.20947C24.4799 9.42097 24.5995 9.70806 24.6003 10.0077V15.0151C23.9132 14.7022 23.1492 14.5308 22.3468 14.5373L22.3429 10.4816H17.9154C17.7669 10.4816 17.6199 10.4523 17.4827 10.3955C17.3455 10.3387 17.2209 10.2554 17.1159 10.1504C17.0108 10.0454 16.9276 9.92074 16.8707 9.78355C16.8139 9.64636 16.7847 9.49932 16.7847 9.35083V4.92754H5.97588V23.4854H16.9169C16.4338 23.9811 16.0261 24.5429 15.7081 25.1544C15.6094 25.3442 15.5199 25.5377 15.4397 25.7344H4.83681C4.53691 25.7344 4.24929 25.6153 4.03723 25.4033C3.82517 25.1912 3.70605 24.9036 3.70605 24.6037V3.79678C3.70605 3.49688 3.82517 3.20927 4.03723 2.99721C4.24929 2.78515 4.53691 2.66602 4.83681 2.66602H17.2586C17.407 2.66592 17.554 2.69526 17.691 2.75235C17.828 2.80944 17.9524 2.89313 18.0568 2.99859L18.7136 3.65543L23.615 8.55265Z" fill="#616161"/>
<path fill-rule="evenodd" clip-rule="evenodd" d="M26.4471 19.6997C26.5057 21.9379 24.7388 23.7997 22.5007 23.8583C20.2626 23.9169 18.4007 22.1501 18.3421 19.912C18.2835 17.6738 20.0504 15.812 22.2885 15.7534C24.5266 15.6948 26.3885 17.4616 26.4471 19.6997ZM22.4212 24.9813C23.7273 24.9813 24.9858 24.4908 25.9474 23.6069C26.6748 24.1551 27.2647 24.8649 27.6706 25.6803C28.0766 26.4957 28.2874 27.3943 28.2864 28.3051C28.2864 28.5303 28.1973 28.7463 28.0385 28.906C27.8798 29.0657 27.6643 29.1561 27.4391 29.1575H17.3982C17.2863 29.1575 17.1755 29.1355 17.0721 29.0926C16.9687 29.0498 16.8747 28.987 16.7956 28.9078C16.7164 28.8287 16.6536 28.7347 16.6107 28.6313C16.5679 28.5279 16.5459 28.4171 16.5459 28.3051C16.5461 27.3934 16.7585 26.4943 17.1662 25.6788C17.5739 24.8634 18.1658 24.1541 18.895 23.6069C19.8566 24.4908 21.1151 24.9813 22.4212 24.9813Z" fill="#616161"/>
</svg>
