<svg width="16" height="16" viewBox="0 0 16 16" fill="none" xmlns="http://www.w3.org/2000/svg">
    <path d="M9.648 5.099 5.655 8.825a1.176 1.176 0 0 0-.382.86c0 .323.138.632.382.86.244.228.576.356.921.356.346 0 .677-.128.922-.356l3.993-3.726a2.353 2.353 0 0 0 .763-1.72c0-.645-.274-1.264-.763-1.72a2.704 2.704 0 0 0-1.843-.712c-.691 0-1.354.256-1.843.712L3.812 7.105a3.53 3.53 0 0 0-1.145 2.58 3.53 3.53 0 0 0 1.145 2.58 4.056 4.056 0 0 0 2.764 1.068 4.056 4.056 0 0 0 2.765-1.068l3.993-3.726" stroke="#4778DE" stroke-width="1.2" stroke-linecap="round" stroke-linejoin="round"/>
</svg>
