<svg width="28" height="28" viewBox="0 0 28 28" fill="none" xmlns="http://www.w3.org/2000/svg">
<path d="M9.41897 6.25564C9.41895 6.26082 9.41895 6.26601 9.41895 6.2712L9.41897 12.4739C9.41897 14.8921 11.4402 16.8458 13.9584 16.8458C16.4765 16.8458 18.5723 14.8921 18.5723 12.4739V5.87606H18.5537C18.3416 3.62902 16.3387 1.8833 13.9583 1.8833C11.578 1.8833 9.64169 3.62902 9.43686 5.87606H9.41897V6.25564Z" fill="#F04F59"/>
<path d="M21.891 13.3092V11.4951C21.891 11.1886 21.601 10.998 21.2946 10.998H20.3834C20.0934 10.998 19.8864 11.1886 19.8864 11.4951V13.3092C19.8864 16.6226 17.277 19.2402 13.9553 19.2402C10.6336 19.2402 8.12372 16.6309 8.12372 13.3092V11.4951C8.12372 11.1886 7.81723 10.998 7.61014 10.998H6.61612C6.40903 10.998 6.10254 11.1886 6.10254 11.4951V13.3092C6.10254 17.219 9.13432 20.6318 13.0441 21.1454V23.2743H8.92723C8.62074 23.2743 8.43021 23.4813 8.43021 23.7713V24.6825C8.43021 24.989 8.62074 25.2954 8.92723 25.2954H19.0911C19.2817 25.2954 19.5881 24.989 19.5881 24.6825V23.7713C19.5881 23.4813 19.2817 23.2743 19.0911 23.2743H14.9576V21.1454C18.884 20.6318 21.8993 17.219 21.8993 13.3092H21.891Z" fill="#F04F59"/>
</svg>
