<svg width="24" height="24" viewBox="0 0 24 24" fill="none" xmlns="http://www.w3.org/2000/svg">
    <path d="M17.517 4H3.057a.657.657 0 0 0-.657.657v11.83c0 .363.295.658.658.658h14.459a.657.657 0 0 0 .657-.658V4.657A.657.657 0 0 0 17.517 4z" stroke="#fff" stroke-width="1.5" stroke-linecap="round" stroke-linejoin="round"/>
    <path d="m2.4 13.858 4.136-4.135a.657.657 0 0 1 .93 0l3.67 3.67a.657.657 0 0 0 .93 0l1.7-1.699a.659.659 0 0 1 .93 0l3.478 3.479" stroke="#fff" stroke-width="1.5" stroke-linecap="round" stroke-linejoin="round"/>
    <path d="M12.587 9.258a.986.986 0 1 0 0-1.972.986.986 0 0 0 0 1.972zM5 19.25a.75.75 0 0 0 0 1.5v-1.5zM21.75 6a.75.75 0 0 0-1.5 0h1.5zM5 20.75h14.8v-1.5H5v1.5zm16.75-1.95V6h-1.5v12.8h1.5zm-1.95 1.95a1.95 1.95 0 0 0 1.95-1.95h-1.5a.45.45 0 0 1-.45.45v1.5z" fill="#fff"/>
</svg>
