<svg width="20" height="20" viewBox="0 0 20 20" fill="none" xmlns="http://www.w3.org/2000/svg">
<path fill-rule="evenodd" clip-rule="evenodd" d="M9.98962 18.3328C14.592 18.3328 18.323 14.6018 18.323 9.99939C18.323 5.39699 14.592 1.66602 9.98962 1.66602C5.38723 1.66602 1.65625 5.39699 1.65625 9.99939C1.65625 14.6018 5.38723 18.3328 9.98962 18.3328ZM10.6779 5.24079C10.4071 4.65376 9.57282 4.65376 9.30205 5.24079L8.40413 7.18747C8.29378 7.42672 8.06704 7.59145 7.8054 7.62247L5.67653 7.87488C5.03455 7.951 4.77673 8.74449 5.25136 9.18342L6.82529 10.6389C7.01873 10.8178 7.10533 11.0844 7.05399 11.3428L6.63619 13.4455C6.5102 14.0795 7.18518 14.57 7.74929 14.2542L9.61994 13.2071C9.84985 13.0784 10.1301 13.0784 10.36 13.2071L12.2307 14.2542C12.7948 14.57 13.4698 14.0795 13.3438 13.4455L12.926 11.3428C12.8746 11.0844 12.9612 10.8178 13.1547 10.6389L14.7286 9.18342C15.2032 8.74449 14.9454 7.951 14.3034 7.87488L12.1746 7.62247C11.9129 7.59145 11.6862 7.42672 11.5758 7.18746L10.6779 5.24079Z" fill="#3987F8"/>
</svg>
