<svg width="32" height="32" viewBox="0 0 32 32" fill="none" xmlns="http://www.w3.org/2000/svg">
<path d="M25.3763 8.11561H22.1271L20.5294 5.74576C20.4438 5.61886 20.3279 5.51481 20.192 5.44281C20.056 5.37081 19.9042 5.3331 19.75 5.33301H12.2481C12.0939 5.3331 11.9421 5.37081 11.8061 5.44281C11.6702 5.51481 11.5542 5.61886 11.4687 5.74576L9.86983 8.11561H6.62177C5.87567 8.11561 5.16013 8.40878 4.63256 8.93062C4.10498 9.45246 3.80859 10.1602 3.80859 10.8982V23.8837C3.80859 24.6217 4.10498 25.3295 4.63256 25.8513C5.16013 26.3731 5.87567 26.6663 6.62177 26.6663H25.3763C26.1224 26.6663 26.838 26.3731 27.3655 25.8513C27.8931 25.3295 28.1895 24.6217 28.1895 23.8837V10.8982C28.1895 10.1602 27.8931 9.45246 27.3655 8.93062C26.838 8.40878 26.1224 8.11561 25.3763 8.11561ZM20.2188 16.9272C20.2188 17.7527 19.9713 18.5597 19.5077 19.2461C19.044 19.9325 18.3849 20.4675 17.6139 20.7834C16.8428 21.0993 15.9944 21.1819 15.1758 21.0209C14.3573 20.8598 13.6054 20.4623 13.0152 19.8786C12.4251 19.2949 12.0232 18.5511 11.8604 17.7415C11.6975 16.9318 11.7811 16.0926 12.1005 15.3299C12.4199 14.5672 12.9607 13.9153 13.6547 13.4567C14.3486 12.9981 15.1645 12.7533 15.999 12.7533C17.1182 12.7533 18.1915 13.193 18.9829 13.9758C19.7742 14.7585 20.2188 15.8202 20.2188 16.9272Z" fill="white"/>
</svg>
