<svg width="28" height="28" viewBox="0 0 28 28" fill="none" xmlns="http://www.w3.org/2000/svg">
<path d="M12.6237 3C11.1652 3 9.76645 3.57015 8.73514 4.58503C7.70383 5.59991 7.12445 6.97638 7.12445 8.41163C7.12445 9.84689 7.70383 11.2234 8.73514 12.2382C9.76645 13.2531 11.1652 13.8233 12.6237 13.8233C14.0822 13.8233 15.481 13.2531 16.5123 12.2382C17.5436 11.2234 18.123 9.84689 18.123 8.41163C18.123 6.97638 17.5436 5.59991 16.5123 4.58503C15.481 3.57015 14.0822 3 12.6237 3ZM5.762 15.1762C5.39993 15.1747 5.04113 15.2437 4.70618 15.379C4.37123 15.5143 4.06672 15.7134 3.81012 15.9648C3.55352 16.2162 3.34987 16.5149 3.21085 16.8439C3.07183 17.1729 3.00018 17.5257 3 17.882C3 20.1698 4.14522 21.8947 5.93523 23.019C7.37879 23.9241 9.23204 24.4382 11.2558 24.5951C11.2695 24.4571 11.2915 24.3178 11.3273 24.1771L11.8428 22.1504C12.0353 21.39 12.4345 20.6954 12.9977 20.1413L18.0432 15.1762H5.762ZM13.9697 21.0979L20.61 14.5633C21.0924 14.0888 21.7466 13.8223 22.4287 13.8224C23.1108 13.8225 23.7649 14.0893 24.2471 14.564C24.7293 15.0387 25.0001 15.6825 25 16.3537C24.9999 17.0249 24.7288 17.6686 24.2464 18.1431L17.606 24.6763C17.2192 25.0571 16.7345 25.3274 16.2037 25.4583L14.1443 25.9643C13.9395 26.0145 13.725 26.0117 13.5216 25.9563C13.3182 25.9008 13.1329 25.7945 12.9836 25.6477C12.8343 25.5009 12.7261 25.3186 12.6695 25.1186C12.613 24.9185 12.61 24.7074 12.6608 24.5058L13.1764 22.4792C13.3082 21.9564 13.5831 21.4792 13.971 21.0992" fill="#32C3D7"/>
</svg>
