<svg width="52" height="52" viewBox="0 0 52 52" fill="none" xmlns="http://www.w3.org/2000/svg">
<path d="M23.2835 6.04199C20.7399 6.04199 18.3005 7.05243 16.5019 8.85101C14.7034 10.6496 13.6929 13.089 13.6929 15.6326C13.6929 18.1761 14.7034 20.6155 16.5019 22.4141C18.3005 24.2127 20.7399 25.2231 23.2835 25.2231C25.8271 25.2231 28.2665 24.2127 30.0651 22.4141C31.8637 20.6155 32.8741 18.1761 32.8741 15.6326C32.8741 13.089 31.8637 10.6496 30.0651 8.85101C28.2665 7.05243 25.8271 6.04199 23.2835 6.04199ZM11.3169 27.6208C10.6854 27.6183 10.0597 27.7404 9.47553 27.9802C8.89139 28.2201 8.36034 28.5728 7.91283 29.0184C7.46533 29.4639 7.11016 29.9933 6.86772 30.5764C6.62527 31.1594 6.50031 31.7846 6.5 32.4161C6.5 36.4705 8.49724 39.5275 11.619 41.5199C14.1365 43.124 17.3685 44.0351 20.8979 44.3132C20.9218 44.0686 20.9602 43.8217 21.0225 43.5723L21.9216 39.9806C22.2573 38.633 22.9535 37.4021 23.9357 36.4201L32.735 27.6208H11.3169ZM25.6308 38.1153L37.2114 26.5347C38.0527 25.6937 39.1936 25.2214 40.3832 25.2216C41.5727 25.2218 42.7134 25.6946 43.5544 26.5359C44.3954 27.3771 44.8677 28.518 44.8675 29.7076C44.8672 30.8971 44.3945 32.0379 43.5532 32.8788L31.9726 44.457C31.2979 45.132 30.4527 45.611 29.527 45.8429L25.9353 46.7396C25.5782 46.8286 25.2041 46.8237 24.8494 46.7254C24.4947 46.6271 24.1715 46.4388 23.9111 46.1786C23.6507 45.9185 23.4621 45.5954 23.3634 45.2408C23.2648 44.8862 23.2596 44.5122 23.3482 44.1549L24.2474 40.5633C24.4773 39.6368 24.9566 38.791 25.6332 38.1177" fill="#32C3D7"/>
</svg>
