<svg width="20" height="20" viewBox="0 0 20 20" fill="none" xmlns="http://www.w3.org/2000/svg">
    <path d="M13.807 2.123a.524.524 0 0 0-.438-.11L3.837 3.61a.533.533 0 0 0-.435.524v11.733a.532.532 0 0 0 .435.523l9.532 1.6a.53.53 0 0 0 .631-.524V2.534a.532.532 0 0 0-.193-.41z" fill="#477ED4"/>
    <rect x="15" y="2.997" width="1.5" height="13.964" rx=".5" fill="#477ED4"/>
    <g clip-path="url(#0d1sp98xia)">
        <path d="M10.056 13.37a.383.383 0 0 1-.233-.081.399.399 0 0 1-.14-.208L8.502 8.846 7.32 13.082a.412.412 0 0 1-.149.186.397.397 0 0 1-.598-.186L5.018 7.507a.407.407 0 0 1 .03-.3.391.391 0 0 1 .225-.192.38.38 0 0 1 .293.023.396.396 0 0 1 .2.25l1.18 4.235L8.13 7.286a.412.412 0 0 1 .148-.186.397.397 0 0 1 .598.186l1.181 4.237 1.182-4.236a.398.398 0 0 1 .18-.239.377.377 0 0 1 .293-.036l.009.002a.39.39 0 0 1 .231.19c.05.093.062.201.034.303l-1.555 5.575a.398.398 0 0 1-.14.208.382.382 0 0 1-.234.08z" fill="#fff"/>
    </g>
    <defs>
        <clipPath id="0d1sp98xia">
            <path fill="#fff" transform="translate(5 6.987)" d="M0 0h7v6.384H0z"/>
        </clipPath>
    </defs>
</svg>
