<svg width="20" height="20" viewBox="0 0 20 20" fill="none" xmlns="http://www.w3.org/2000/svg">
    <path d="M13.807 2.123a.524.524 0 0 0-.438-.11L3.837 3.61a.533.533 0 0 0-.435.524v11.733a.532.532 0 0 0 .435.523l9.532 1.6a.53.53 0 0 0 .631-.524V2.534a.532.532 0 0 0-.193-.41z" fill="#30A364"/>
    <rect x="15" y="2.997" width="1.5" height="13.964" rx=".5" fill="#30A364"/>
    <g clip-path="url(#tubpmzowoa)" fill="#fff">
        <path d="M10.851 13.97a.408.408 0 0 1-.365-.208L6.142 6.829a.415.415 0 0 1 .14-.59.426.426 0 0 1 .59.13l4.344 6.934a.442.442 0 0 1-.365.667z"/>
        <path d="M6.508 13.97a.366.366 0 0 1-.226-.07.426.426 0 0 1-.14-.598l4.345-6.933a.435.435 0 0 1 .788.138.423.423 0 0 1-.058.322l-4.344 6.933a.408.408 0 0 1-.365.208z"/>
    </g>
    <defs>
        <clipPath id="tubpmzowoa">
            <path fill="#fff" transform="translate(6.074 6.17)" d="M0 0h5.213v7.799H0z"/>
        </clipPath>
    </defs>
</svg>
