<svg width="24" height="24" viewBox="0 0 24 24" fill="none" xmlns="http://www.w3.org/2000/svg">
<path d="M3.64491 5.95193L4.38945 1.85503L7.74112 5.5791L3.64491 5.95193Z" fill="black" stroke="black" stroke-width="0.857143"/>
<path d="M1.72266 12.0631C1.72266 17.7437 6.32773 22.3488 12.0084 22.3488C17.689 22.3488 22.2941 17.7437 22.2941 12.0631C22.2941 6.38241 17.689 1.77734 12.0084 1.77734C9.7692 1.77734 7.69715 2.49285 6.00837 3.70771" stroke="black" stroke-width="1.3" stroke-linecap="round"/>
<path d="M13.9078 8.19727C14.0765 8.19727 14.2012 8.25593 14.2818 8.37327C14.3625 8.4906 14.4028 8.62993 14.4028 8.79127C14.4028 8.95993 14.3625 9.10293 14.2818 9.22027C14.2012 9.33027 14.0765 9.38527 13.9078 9.38527H11.1138L11.0258 11.3763C11.2092 11.2663 11.4182 11.1709 11.6528 11.0903C11.8875 11.0096 12.1698 10.9693 12.4998 10.9693C12.8812 10.9693 13.2185 11.0353 13.5118 11.1673C13.8052 11.2993 14.0508 11.4789 14.2488 11.7063C14.4542 11.9263 14.6082 12.1829 14.7108 12.4763C14.8135 12.7696 14.8648 13.0739 14.8648 13.3893V13.4993C14.8648 13.8146 14.8098 14.1299 14.6998 14.4453C14.5972 14.7606 14.4285 15.0429 14.1938 15.2923C13.9665 15.5416 13.6732 15.7469 13.3138 15.9083C12.9618 16.0623 12.5328 16.1393 12.0268 16.1393C11.5062 16.1393 11.0552 16.0916 10.6738 15.9963C10.2925 15.8936 9.95151 15.7469 9.65084 15.5563C9.48218 15.4463 9.38318 15.3069 9.35384 15.1383C9.33184 14.9623 9.36851 14.7973 9.46384 14.6433C9.56651 14.4746 9.69118 14.3719 9.83784 14.3353C9.98451 14.2986 10.1422 14.3316 10.3108 14.4343C10.5455 14.5736 10.7912 14.6799 11.0478 14.7533C11.3118 14.8266 11.6345 14.8633 12.0158 14.8633C12.4998 14.8633 12.8592 14.7386 13.0938 14.4893C13.3285 14.2326 13.4458 13.8989 13.4458 13.4883V13.4223C13.4458 12.9969 13.3212 12.6706 13.0718 12.4433C12.8298 12.2159 12.4888 12.1023 12.0488 12.1023C11.7922 12.1023 11.5538 12.1426 11.3338 12.2233C11.1138 12.3039 10.9195 12.4139 10.7508 12.5533C10.6408 12.6413 10.5455 12.7036 10.4648 12.7403C10.3915 12.7769 10.2925 12.7953 10.1678 12.7953C9.99918 12.7953 9.86351 12.7549 9.76084 12.6743C9.65818 12.5863 9.61051 12.4689 9.61784 12.3223L9.79384 9.15427C9.80118 8.9636 9.81951 8.80593 9.84884 8.68127C9.88551 8.5566 9.93684 8.46127 10.0028 8.39527C10.0762 8.32193 10.1715 8.2706 10.2888 8.24127C10.4062 8.21193 10.5528 8.19727 10.7288 8.19727H13.9078Z" fill="black"/>
</svg>
