<svg width="28" height="28" viewBox="0 0 28 28" fill="none" xmlns="http://www.w3.org/2000/svg">
<path d="M25.4482 17.9921C25.4482 17.9921 26.5479 15.4907 18.6101 16.6322C18.6101 16.6322 15.5018 15.6395 13.4435 10.295C13.4435 10.295 13.9217 7.28447 13.898 5.89904C13.898 5.89904 13.2284 8.47278 13.0602 8.93364C13.0602 8.93364 11.7217 3.93222 12.8689 2.81552C12.8689 2.81552 13.6508 2.98568 14.0013 5.46157C14.0013 5.46157 14.5187 2.60423 12.7976 2.5C12.7976 2.5 11.4822 2.57091 11.3866 3.83509C11.3866 3.83509 11.1953 7.52198 12.3641 10.8033C12.3641 10.8033 6.60187 24.5704 3.32664 25.0312C3.32664 25.0312 3.01594 23.7202 7.19952 20.1269C7.19952 20.1269 0.792191 23.7692 2.94054 25.1532C2.94054 25.1532 3.99272 26.1727 5.64255 24.7157C5.64255 24.7157 7.19603 23.526 9.181 19.6171C9.181 19.6171 13.3408 18.1849 18.0034 17.4802C18.0034 17.4802 24.4352 21.1713 25.4392 18.5976V18.3062C25.4392 18.3062 24.9127 19.9568 19.7726 17.2618C19.7817 17.2632 24.6565 16.6804 25.4482 17.9921ZM9.47703 18.9847C11.2923 16.2408 12.8982 12.0406 12.8982 12.0406C14.3805 15.1482 17.0106 16.8718 17.0106 16.8718C13.4693 17.5305 9.47703 18.9875 9.47703 18.9875V18.9847Z" fill="#F65C60" stroke="#F65C60"/>
</svg>
