<svg width="28" height="29" viewBox="0 0 28 29" fill="none" xmlns="http://www.w3.org/2000/svg">
<g clip-path="url(#clip0_4421_2379)">
<path d="M3.33301 14.4999C3.33301 8.60888 8.10864 3.83325 13.9997 3.83325C19.8907 3.83325 24.6663 8.60888 24.6663 14.4999C24.6663 15.6159 24.4949 16.6919 24.177 17.703C24.4487 18.0551 24.7463 18.3881 25.0681 18.6987C25.281 18.9042 25.5029 19.0984 25.733 19.2809C26.3348 17.8056 26.6663 16.1915 26.6663 14.4999C26.6663 7.50431 20.9953 1.83325 13.9997 1.83325C7.00407 1.83325 1.33301 7.50431 1.33301 14.4999C1.33301 21.4955 7.00407 27.1666 13.9997 27.1666C15.6848 27.1666 17.293 26.8375 18.7637 26.2402C18.5086 25.9127 18.2309 25.602 17.9318 25.3108C17.7006 25.0856 17.4584 24.8738 17.2065 24.6761C16.1944 24.9948 15.1171 25.1666 13.9997 25.1666C8.10864 25.1666 3.33301 20.391 3.33301 14.4999Z" fill="#D6D6D6"/>
<path fill-rule="evenodd" clip-rule="evenodd" d="M9.09985 11.2999C9.09985 10.5267 9.72665 9.8999 10.4999 9.8999H10.5115C11.2847 9.8999 11.9115 10.5267 11.9115 11.2999C11.9115 12.0731 11.2847 12.6999 10.5115 12.6999H10.4999C9.72665 12.6999 9.09985 12.0731 9.09985 11.2999ZM16.0999 11.2999C16.0999 10.5267 16.7267 9.8999 17.4999 9.8999H17.5115C18.2847 9.8999 18.9115 10.5267 18.9115 11.2999C18.9115 12.0731 18.2847 12.6999 17.5115 12.6999H17.4999C16.7267 12.6999 16.0999 12.0731 16.0999 11.2999Z" fill="#D6D6D6"/>
<path d="M9.33325 16.73C9.33325 16.73 11.0833 19.0633 13.9999 19.0633C16.9166 19.0633 18.6666 16.73 18.6666 16.73" stroke="#D6D6D6" stroke-width="2" stroke-linecap="round" stroke-linejoin="round"/>
<path d="M18.0432 23.1212C17.5455 23.0332 17.5455 22.3066 18.0432 22.2187C18.9245 22.0627 19.7401 21.6435 20.3861 21.0145C21.0321 20.3854 21.4792 19.575 21.6704 18.6866L21.7002 18.5467C21.808 18.0465 22.5085 18.0436 22.6205 18.5424L22.6574 18.7053C22.8559 19.5897 23.3071 20.3948 23.9542 21.0193C24.6013 21.6439 25.4155 22.0601 26.2945 22.2158C26.7951 22.3052 26.7951 23.0347 26.2945 23.124C25.4154 23.2795 24.6011 23.6957 23.954 24.3203C23.3069 24.9449 22.8558 25.75 22.6574 26.6345L22.6205 26.7974C22.5085 27.2962 21.808 27.2934 21.7002 26.7931L21.6704 26.6533C21.4792 25.7648 21.0321 24.9544 20.3861 24.3254C19.7401 23.6963 18.9245 23.2771 18.0432 23.1212Z" stroke="#D6D6D6" stroke-width="1.8" stroke-linecap="round" stroke-linejoin="round"/>
</g>
<defs>
<clipPath id="clip0_4421_2379">
<rect width="28" height="28" fill="white" transform="translate(0 0.5)"/>
</clipPath>
</defs>
</svg>
