<svg width="16" height="16" viewBox="0 0 16 16" fill="none" xmlns="http://www.w3.org/2000/svg">
<path d="M4.25 3.79401C4.05109 3.79401 3.86032 3.86218 3.71967 3.98351C3.57902 4.10485 3.5 4.26942 3.5 4.44102V9.61706C3.5 9.78865 3.57902 9.95322 3.71967 10.0746C3.86032 10.1959 4.05109 10.2641 4.25 10.2641H5.75C5.94891 10.2641 6.13968 10.3322 6.28033 10.4536C6.42098 10.5749 6.5 10.7395 6.5 10.9111V11.7095L9.1145 10.3546C9.23114 10.2949 9.36437 10.2636 9.5 10.2641H11.75C11.9489 10.2641 12.1397 10.1959 12.2803 10.0746C12.421 9.95322 12.5 9.78865 12.5 9.61706V4.44102C12.5 4.26942 12.421 4.10485 12.2803 3.98351C12.1397 3.86218 11.9489 3.79401 11.75 3.79401H4.25ZM2 4.44102C2 3.92623 2.23705 3.43252 2.65901 3.06851C3.08097 2.7045 3.65326 2.5 4.25 2.5H11.75C12.3467 2.5 12.919 2.7045 13.341 3.06851C13.7629 3.43252 14 3.92623 14 4.44102V9.61706C14 10.1318 13.7629 10.6256 13.341 10.9896C12.919 11.3536 12.3467 11.5581 11.75 11.5581H9.707L6.137 13.4072C6.02314 13.4664 5.8931 13.4984 5.76018 13.4999C5.62727 13.5015 5.49627 13.4726 5.38059 13.4161C5.26491 13.3596 5.1687 13.2776 5.10183 13.1785C5.03495 13.0794 4.99981 12.9668 5 12.8521V11.5581H4.25C3.65326 11.5581 3.08097 11.3536 2.65901 10.9896C2.23705 10.6256 2 10.1318 2 9.61706V4.44102Z" fill="#3987F8"/>
</svg>
