<svg width="20" height="20" viewBox="0 0 20 20" fill="none" xmlns="http://www.w3.org/2000/svg">
    <rect x="3" y="2" width="14" height="16" rx="2" fill="#43A6DD"/>
    <g clip-path="url(#rh40x1elba)" fill="#fff">
        <path d="M8.729 6.111s1.456-.016 2.722 1.378c0 0-.593-2.017-1.84-1.985-.002 0-.739-.08-.882.607zM11.61 8.127S10.211 6.48 8.345 6.64c0 0-1.52-.08-1.328 1.456 0 0 1.921-.464 2.905.112 0 0-2.825.369-2.665 2.657 0 0-.048 1.92 2.417 1.76 0 0 2.656-.224 2.353-3.409 0 0 .518.048.928.304 0 0 .426-1.427-1.345-1.392zm-1.52 3.33c-1.393.432-1.36-.753-1.36-.753.096-1.52 1.967-1.568 1.967-1.568.961 1.664-.607 2.32-.607 2.32zM9.736 14.85a.656.656 0 1 0 0-1.313.656.656 0 0 0 0 1.313z"/>
    </g>
    <defs>
        <clipPath id="rh40x1elba">
            <path fill="#fff" transform="translate(7 5.5)" d="M0 0h6v9.35H0z"/>
        </clipPath>
    </defs>
</svg>
