<svg width="32" height="32" viewBox="0 0 32 32" fill="none" xmlns="http://www.w3.org/2000/svg">
<path d="M5.45329 19.9064L4.03548 26.0253C3.98657 26.249 3.98825 26.4808 4.04039 26.7037C4.09253 26.9267 4.19381 27.1352 4.33685 27.314C4.47988 27.4928 4.66105 27.6374 4.86712 27.7372C5.07318 27.837 5.29895 27.8895 5.52791 27.8909C5.63459 27.9016 5.74209 27.9016 5.84878 27.8909L12.005 26.4731L23.8251 14.6978L17.2285 8.11621L5.45329 19.9064Z" fill="white"/>
<path d="M27.5419 8.80154L23.1392 4.39888C22.8498 4.11089 22.4581 3.94922 22.0497 3.94922C21.6414 3.94922 21.2497 4.11089 20.9603 4.39888L18.5127 6.84646L25.1018 13.4355L27.5493 10.9879C27.6926 10.844 27.806 10.6732 27.8832 10.4853C27.9603 10.2975 27.9997 10.0963 27.999 9.89319C27.9983 9.69011 27.9576 9.48917 27.8791 9.30185C27.8007 9.11453 27.6861 8.94452 27.5419 8.80154Z" fill="white"/>
</svg>
