<svg width="24" height="24" viewBox="0 0 24 24" fill="none" xmlns="http://www.w3.org/2000/svg">
<path d="M20.359 5.95193L19.6145 1.85503L16.2628 5.5791L20.359 5.95193Z" fill="black" stroke="black" stroke-width="0.857143"/>
<path d="M22.2852 12.0631C22.2852 17.7437 17.6801 22.3488 11.9994 22.3488C6.3188 22.3488 1.71373 17.7437 1.71373 12.0631C1.71373 6.38241 6.3188 1.77734 11.9994 1.77734C14.2386 1.77734 16.3107 2.49285 17.9994 3.70771" stroke="black" stroke-width="1.3" stroke-linecap="round"/>
<path d="M13.9039 8.19727C14.0726 8.19727 14.1973 8.25593 14.2779 8.37327C14.3586 8.4906 14.3989 8.62993 14.3989 8.79127C14.3989 8.95993 14.3586 9.10293 14.2779 9.22027C14.1973 9.33027 14.0726 9.38527 13.9039 9.38527H11.1099L11.0219 11.3763C11.2053 11.2663 11.4143 11.1709 11.6489 11.0903C11.8836 11.0096 12.1659 10.9693 12.4959 10.9693C12.8773 10.9693 13.2146 11.0353 13.5079 11.1673C13.8013 11.2993 14.0469 11.4789 14.2449 11.7063C14.4503 11.9263 14.6043 12.1829 14.7069 12.4763C14.8096 12.7696 14.8609 13.0739 14.8609 13.3893V13.4993C14.8609 13.8146 14.8059 14.1299 14.6959 14.4453C14.5933 14.7606 14.4246 15.0429 14.1899 15.2923C13.9626 15.5416 13.6693 15.7469 13.3099 15.9083C12.9579 16.0623 12.5289 16.1393 12.0229 16.1393C11.5023 16.1393 11.0513 16.0916 10.6699 15.9963C10.2886 15.8936 9.9476 15.7469 9.64694 15.5563C9.47827 15.4463 9.37927 15.3069 9.34994 15.1383C9.32794 14.9623 9.3646 14.7973 9.45994 14.6433C9.5626 14.4746 9.68727 14.3719 9.83394 14.3353C9.9806 14.2986 10.1383 14.3316 10.3069 14.4343C10.5416 14.5736 10.7873 14.6799 11.0439 14.7533C11.3079 14.8266 11.6306 14.8633 12.0119 14.8633C12.4959 14.8633 12.8553 14.7386 13.0899 14.4893C13.3246 14.2326 13.4419 13.8989 13.4419 13.4883V13.4223C13.4419 12.9969 13.3173 12.6706 13.0679 12.4433C12.8259 12.2159 12.4849 12.1023 12.0449 12.1023C11.7883 12.1023 11.5499 12.1426 11.3299 12.2233C11.1099 12.3039 10.9156 12.4139 10.7469 12.5533C10.6369 12.6413 10.5416 12.7036 10.4609 12.7403C10.3876 12.7769 10.2886 12.7953 10.1639 12.7953C9.99527 12.7953 9.8596 12.7549 9.75694 12.6743C9.65427 12.5863 9.6066 12.4689 9.61394 12.3223L9.78994 9.15427C9.79727 8.9636 9.8156 8.80593 9.84494 8.68127C9.8816 8.5566 9.93294 8.46127 9.99894 8.39527C10.0723 8.32193 10.1676 8.2706 10.2849 8.24127C10.4023 8.21193 10.5489 8.19727 10.7249 8.19727H13.9039Z" fill="black"/>
</svg>
