<svg width="32" height="32" viewBox="0 0 32 32" fill="none" xmlns="http://www.w3.org/2000/svg">
<path d="M15.0503 3.229C13.4064 3.229 11.8298 3.88205 10.6674 5.04447C9.50496 6.20689 8.85191 7.78347 8.85191 9.42739C8.85191 11.0713 9.50496 12.6479 10.6674 13.8103C11.8298 14.9727 13.4064 15.6258 15.0503 15.6258C16.6942 15.6258 18.2708 14.9727 19.4332 13.8103C20.5956 12.6479 21.2487 11.0713 21.2487 9.42739C21.2487 7.78347 20.5956 6.20689 19.4332 5.04447C18.2708 3.88205 16.6942 3.229 15.0503 3.229ZM7.31626 17.1754C6.90816 17.1737 6.50374 17.2527 6.12621 17.4077C5.74868 17.5627 5.40546 17.7907 5.11624 18.0786C4.82701 18.3665 4.59747 18.7087 4.44078 19.0856C4.28409 19.4624 4.20333 19.8665 4.20312 20.2746C4.20312 22.8949 5.49394 24.8707 7.51151 26.1584C9.13859 27.1951 11.2274 27.7839 13.5085 27.9637C13.5239 27.8056 13.5487 27.646 13.589 27.4848L14.1701 25.1635C14.387 24.2925 14.837 23.497 15.4718 22.8624L21.1588 17.1754H7.31626ZM16.5674 23.958L24.0519 16.4734C24.5956 15.9299 25.333 15.6246 26.1018 15.6248C26.8706 15.6249 27.6078 15.9305 28.1514 16.4742C28.6949 17.0179 29.0001 17.7553 29 18.5241C28.9999 19.2929 28.6943 20.0301 28.1506 20.5736L20.666 28.0566C20.23 28.4928 19.6837 28.8024 19.0854 28.9523L16.7642 29.5319C16.5333 29.5894 16.2916 29.5862 16.0623 29.5227C15.8331 29.4592 15.6242 29.3374 15.4559 29.1693C15.2876 29.0012 15.1657 28.7924 15.102 28.5632C15.0382 28.334 15.0348 28.0923 15.0921 27.8614L15.6732 25.5401C15.8219 24.9413 16.1316 24.3947 16.5689 23.9595" fill="white"/>
</svg>
