<svg width="24" height="24" viewBox="0 0 24 24" fill="none" xmlns="http://www.w3.org/2000/svg">
<path d="M11.8935 9.10766L3.63036 17.34C2.78947 18.1778 2.78994 19.5354 3.6314 20.3725C4.47285 21.2096 5.83665 21.2091 6.67762 20.3714L14.94 12.1404L11.8935 9.10766ZM17.0631 14.3435L16.9665 14.3371C16.6061 14.3371 16.3083 14.6037 16.2611 14.9495L16.2547 15.0457V15.7543H15.5429C15.1825 15.7543 14.8847 16.0209 14.8375 16.3666L14.8311 16.4628C14.8311 16.8216 15.0989 17.118 15.4463 17.165L15.5429 17.1714H16.2547V17.88C16.2547 18.2387 16.5225 18.5352 16.8699 18.5821L16.9665 18.5885C17.3268 18.5885 17.6247 18.3219 17.6718 17.9761L17.6783 17.88V17.1714H18.3901C18.7504 17.1714 19.0483 16.9048 19.0954 16.559L19.1019 16.4628C19.1019 16.1041 18.834 15.8076 18.4867 15.7607L18.3901 15.7543H17.6783V15.0457C17.6783 14.687 17.4104 14.3905 17.0631 14.3435ZM13.7051 7.31319L13.5759 7.43179L12.9005 8.10527L15.947 11.138L16.6228 10.4639C17.4556 9.63344 17.4553 8.28818 16.6218 7.45783L16.4733 7.31897C15.6787 6.64099 14.502 6.63913 13.7051 7.31319ZM7.57242 4.89599L7.47583 4.88952C7.11547 4.88952 6.81767 5.15608 6.77054 5.50194L6.76404 5.59809V6.30666H6.05224C5.69188 6.30666 5.39407 6.57322 5.34694 6.91908L5.34044 7.01523C5.34044 7.37395 5.60822 7.67041 5.95565 7.71733L6.05224 7.7238H6.76404V8.43237C6.76404 8.79109 7.03181 9.08755 7.37925 9.13447L7.47583 9.14094C7.83619 9.14094 8.134 8.87437 8.18113 8.52852L8.18763 8.43237V7.7238H8.89943C9.25979 7.7238 9.5576 7.45723 9.60473 7.11138L9.61123 7.01523C9.61123 6.6565 9.34345 6.36005 8.99602 6.31313L8.89943 6.30666H8.18763V5.59809C8.18763 5.23936 7.91985 4.94291 7.57242 4.89599ZM18.9612 3.00647L18.8646 3C18.5042 3 18.2064 3.26656 18.1593 3.61242L18.1528 3.70857V4.41714H17.441C17.0806 4.41714 16.7828 4.6837 16.7357 5.02956L16.7292 5.12571C16.7292 5.48443 16.997 5.78089 17.3444 5.82781L17.441 5.83428H18.1528V6.54285C18.1528 6.90157 18.4206 7.19803 18.768 7.24495L18.8646 7.25142C19.225 7.25142 19.5228 6.98485 19.57 6.639L19.5764 6.54285V5.83428H20.2882C20.6486 5.83428 20.9464 5.56772 20.9935 5.22186L21 5.12571C21 4.76698 20.7322 4.47053 20.3848 4.42361L20.2882 4.41714H19.5764V3.70857C19.5764 3.34984 19.3086 3.05339 18.9612 3.00647Z" fill="#9E9E9E"/>
</svg>
