<svg width="24" height="24" viewBox="0 0 24 24" fill="none" xmlns="http://www.w3.org/2000/svg">
<g clip-path="url(#clip0_1934_3787)">
<path d="M21.2632 17.8235C21.7092 17.8237 22.1381 17.9808 22.4609 18.2623C22.7837 18.5438 22.9757 18.928 22.9971 19.3354C23.0186 19.7428 22.8678 20.1422 22.576 20.4507C22.2842 20.7592 21.8739 20.9532 21.4299 20.9926L21.2632 21H2.73684C2.2908 20.9998 1.86194 20.8427 1.53913 20.5612C1.21632 20.2797 1.0243 19.8955 1.00287 19.4881C0.981431 19.0807 1.13222 18.6814 1.42399 18.3728C1.71576 18.0643 2.12615 17.8703 2.57011 17.8309L2.73684 17.8235H21.2632ZM21.2632 10.4118C21.7238 10.4118 22.1656 10.5791 22.4913 10.8769C22.817 11.1748 23 11.5788 23 12C23 12.4212 22.817 12.8252 22.4913 13.1231C22.1656 13.4209 21.7238 13.5882 21.2632 13.5882H2.73684C2.2762 13.5882 1.83443 13.4209 1.50871 13.1231C1.18299 12.8252 1 12.4212 1 12C1 11.5788 1.18299 11.1748 1.50871 10.8769C1.83443 10.5791 2.2762 10.4118 2.73684 10.4118H21.2632ZM21.2632 3C21.7238 3 22.1656 3.16733 22.4913 3.46518C22.817 3.76304 23 4.16701 23 4.58824C23 5.00946 22.817 5.41344 22.4913 5.71129C22.1656 6.00914 21.7238 6.17647 21.2632 6.17647H2.73684C2.2762 6.17647 1.83443 6.00914 1.50871 5.71129C1.18299 5.41344 1 5.00946 1 4.58824C1 4.16701 1.18299 3.76304 1.50871 3.46518C1.83443 3.16733 2.2762 3 2.73684 3H21.2632Z" fill="#9E9E9E"/>
</g>
<defs>
<clipPath id="clip0_1934_3787">
<rect width="24" height="24" fill="white"/>
</clipPath>
</defs>
</svg>
