<svg width="24" height="24" viewBox="0 0 24 24" fill="none" xmlns="http://www.w3.org/2000/svg">
<path fill-rule="evenodd" clip-rule="evenodd" d="M12.4941 20.9994H18.3394C19.4706 20.9994 20.3868 20.09 20.3868 18.9673V16.0696C20.3879 15.2537 19.8944 14.5171 19.1359 14.2021L13.9959 12.4586C13.3581 12.233 12.6906 12.1243 12.0232 12.1213V12.1172C12.015 12.1172 12.0068 12.1192 11.9976 12.1192C11.9894 12.1192 11.9812 12.1172 11.973 12.1172V12.1213C11.3056 12.1243 10.6381 12.233 10.0003 12.4586L4.86034 14.2021C4.10178 14.5171 3.60835 15.2537 3.60938 16.0696V18.9673C3.60938 20.09 4.52559 20.9994 5.65678 20.9994H11.973H12.4941Z" fill="#9E9E9E"/>
<path fill-rule="evenodd" clip-rule="evenodd" d="M12.0312 11.1322C14.4845 11.1322 16.4723 9.14333 16.4723 6.69109C16.4723 4.23772 14.4845 2.25 12.0312 2.25C9.57894 2.25 7.59009 4.23772 7.59009 6.69109C7.59009 9.14333 9.57894 11.1322 12.0312 11.1322Z" fill="#9E9E9E"/>
</svg>
