<svg width="24" height="24" viewBox="0 0 24 24" fill="none" xmlns="http://www.w3.org/2000/svg">
<path fill-rule="evenodd" clip-rule="evenodd" d="M5.70049 20.3H18.3005V3.7H5.70049L5.70049 20.3ZM4.00049 20.5C4.00049 21.3284 4.67206 22 5.50049 22H18.5005C19.3289 22 20.0005 21.3284 20.0005 20.5V3.5C20.0005 2.67157 19.3289 2 18.5005 2H5.50049C4.67206 2 4.00049 2.67157 4.00049 3.5L4.00049 20.5Z" fill="#D6D6D6"/>
<path d="M3.5 21C3.5 21.2652 3.60536 21.5196 3.79289 21.7071C3.98043 21.8946 4.23478 22 4.5 22C4.76522 22 5.01957 21.8946 5.20711 21.7071C5.39464 21.5196 5.5 21.2652 5.5 21C5.5 20.7348 5.39464 20.4804 5.20711 20.2929C5.01957 20.1054 4.76522 20 4.5 20C4.23478 20 3.98043 20.1054 3.79289 20.2929C3.60536 20.4804 3.5 20.7348 3.5 21ZM3.5 3C3.5 3.26522 3.60536 3.51957 3.79289 3.70711C3.98043 3.89464 4.23478 4 4.5 4C4.76522 4 5.01957 3.89464 5.20711 3.70711C5.39464 3.51957 5.5 3.26522 5.5 3C5.5 2.73478 5.39464 2.48043 5.20711 2.29289C5.01957 2.10536 4.76522 2 4.5 2C4.23478 2 3.98043 2.10536 3.79289 2.29289C3.60536 2.48043 3.5 2.73478 3.5 3Z" fill="#D6D6D6" stroke="#D6D6D6" stroke-width="3.5" stroke-linecap="round" stroke-linejoin="round"/>
<path d="M18.5 21C18.5 21.2652 18.6054 21.5196 18.7929 21.7071C18.9804 21.8946 19.2348 22 19.5 22C19.7652 22 20.0196 21.8946 20.2071 21.7071C20.3946 21.5196 20.5 21.2652 20.5 21C20.5 20.7348 20.3946 20.4804 20.2071 20.2929C20.0196 20.1054 19.7652 20 19.5 20C19.2348 20 18.9804 20.1054 18.7929 20.2929C18.6054 20.4804 18.5 20.7348 18.5 21ZM18.5 3C18.5 3.26522 18.6054 3.51957 18.7929 3.70711C18.9804 3.89464 19.2348 4 19.5 4C19.7652 4 20.0196 3.89464 20.2071 3.70711C20.3946 3.51957 20.5 3.26522 20.5 3C20.5 2.73478 20.3946 2.48043 20.2071 2.29289C20.0196 2.10536 19.7652 2 19.5 2C19.2348 2 18.9804 2.10536 18.7929 2.29289C18.6054 2.48043 18.5 2.73478 18.5 3Z" fill="#D6D6D6" stroke="#D6D6D6" stroke-width="3.5" stroke-linecap="round" stroke-linejoin="round"/>
</svg>
