<svg width="24" height="24" viewBox="0 0 24 24" fill="none" xmlns="http://www.w3.org/2000/svg">
<path d="M15.2874 10.4401L14.7474 5.65507C15.2607 5.12931 15.6144 4.46875 15.7674 3.75007C15.7984 3.61492 15.7984 3.47447 15.7672 3.33934C15.736 3.20422 15.6745 3.07795 15.5874 2.97007C15.4998 2.86351 15.39 2.7774 15.2656 2.7178C15.1412 2.6582 15.0053 2.62655 14.8674 2.62507H9.06237C8.92391 2.62331 8.78691 2.65353 8.66202 2.71337C8.53714 2.7732 8.42776 2.86105 8.34237 2.97007C8.25548 3.07511 8.19402 3.1988 8.1628 3.3315C8.13158 3.46419 8.13143 3.60231 8.16237 3.73507C8.31397 4.45751 8.67377 5.11975 9.19737 5.64007L8.62737 10.4401C7.61359 10.9785 6.748 11.7582 6.10705 12.7105C5.4661 13.6627 5.06954 14.7582 4.95237 15.9001C4.93898 16.0314 4.95199 16.1641 4.99063 16.2903C5.02927 16.4165 5.09276 16.5337 5.17737 16.6351C5.26668 16.7335 5.37545 16.8124 5.49681 16.8666C5.61816 16.9208 5.74946 16.9492 5.88237 16.9501H11.0424V21.0601C11.0458 21.3063 11.1423 21.5421 11.3124 21.7201C11.3954 21.802 11.4938 21.8667 11.6019 21.9105C11.71 21.9542 11.8257 21.9762 11.9424 21.9751C12.188 21.9688 12.4228 21.8727 12.6024 21.7051C12.6843 21.622 12.749 21.5236 12.7928 21.4155C12.8365 21.3074 12.8585 21.1917 12.8574 21.0751V16.9501H18.0324C18.1628 16.9472 18.2912 16.9178 18.4098 16.8636C18.5284 16.8094 18.6348 16.7317 18.7224 16.6351C18.8128 16.5369 18.881 16.4205 18.9224 16.2937C18.9638 16.1669 18.9774 16.0326 18.9624 15.9001C18.8452 14.7582 18.4486 13.6627 17.8077 12.7105C17.1668 11.7582 16.3012 10.9785 15.2874 10.4401Z" stroke="#BDBDBD" stroke-width="1.8"/>
</svg>
