<svg width="24" height="24" viewBox="0 0 24 24" fill="none" xmlns="http://www.w3.org/2000/svg">
<path d="M17.625 16.2C17.625 16.3657 17.4907 16.5 17.325 16.5H15.375C14.3881 16.5 13.6609 15.4611 12.9656 14.0667C12.8499 13.8347 12.5153 13.8414 12.4166 14.0811C12.1776 14.6615 11.9249 15.2823 11.6211 15.906C11.5771 15.9962 11.5797 16.1025 11.6307 16.1889C12.5173 17.6907 13.6284 18.75 15.375 18.75H17.325C17.4907 18.75 17.625 18.8843 17.625 19.05V20.2757C17.625 20.543 17.9481 20.6769 18.1371 20.4879L20.7879 17.8371C20.905 17.72 20.905 17.53 20.7879 17.4129L18.1371 14.7621C17.9481 14.5731 17.625 14.707 17.625 14.9743V16.2ZM8.78016 9.84927C8.89941 10.0751 9.22709 10.0644 9.32503 9.82848C9.56322 9.25481 9.81462 8.65372 10.1165 8.09971C10.1673 8.00643 10.168 7.89318 10.1136 7.80193C9.22127 6.30496 8.00913 5.25 6.375 5.25H3.3C3.13431 5.25 3 5.38431 3 5.55V7.2C3 7.36569 3.13431 7.5 3.3 7.5H6.375C7.35991 7.5 8.08614 8.53472 8.78016 9.84927Z" fill="#9E9E9E"/>
<path d="M20.7879 6.58713C20.905 6.46998 20.905 6.28003 20.7879 6.16287L18.1371 3.51213C17.9481 3.32314 17.625 3.45699 17.625 3.72426V4.95C17.625 5.11569 17.4907 5.25 17.325 5.25H15.375C12.3375 5.25 10.9875 8.625 9.75 11.6625C8.85 14.025 7.8375 16.5 6.375 16.5H3.3C3.13431 16.5 3 16.6343 3 16.8V18.45C3 18.6157 3.13431 18.75 3.3 18.75H6.375C9.3 18.75 10.65 15.6 11.8875 12.45C12.9 9.975 13.9125 7.5 15.375 7.5H17.325C17.4907 7.5 17.625 7.63431 17.625 7.8V9.02574C17.625 9.29301 17.9481 9.42686 18.1371 9.23787L20.7879 6.58713Z" fill="#9E9E9E"/>
</svg>
