<svg width="16" height="16" viewBox="0 0 16 16" fill="none" xmlns="http://www.w3.org/2000/svg">
<path d="M12.8597 1.56942H12.1612V0.86381C12.1612 0.676671 12.0876 0.497198 11.9566 0.364871C11.8256 0.232544 11.6479 0.158203 11.4626 0.158203C11.2774 0.158203 11.0997 0.232544 10.9687 0.364871C10.8377 0.497198 10.7641 0.676671 10.7641 0.86381V1.56942H5.17568V0.86381C5.17568 0.676671 5.10208 0.497198 4.97108 0.364871C4.84008 0.232544 4.6624 0.158203 4.47713 0.158203C4.29186 0.158203 4.11418 0.232544 3.98318 0.364871C3.85218 0.497198 3.77858 0.676671 3.77858 0.86381V1.56942H3.08003C2.52423 1.56942 1.99119 1.79244 1.59818 2.18942C1.20517 2.5864 0.984375 3.12482 0.984375 3.68624V13.5647C0.984375 14.1261 1.20517 14.6646 1.59818 15.0616C1.99119 15.4585 2.52423 15.6816 3.08003 15.6816H12.8597C13.4155 15.6816 13.9486 15.4585 14.3416 15.0616C14.7346 14.6646 14.9554 14.1261 14.9554 13.5647V3.68624C14.9554 3.12482 14.7346 2.5864 14.3416 2.18942C13.9486 1.79244 13.4155 1.56942 12.8597 1.56942ZM13.5583 13.5647C13.5583 13.7519 13.4847 13.9313 13.3537 14.0637C13.2227 14.196 13.045 14.2703 12.8597 14.2703H3.08003C2.89476 14.2703 2.71708 14.196 2.58608 14.0637C2.45507 13.9313 2.38148 13.7519 2.38148 13.5647V7.21427H13.5583V13.5647ZM13.5583 5.80306H2.38148V3.68624C2.38148 3.4991 2.45507 3.31963 2.58608 3.1873C2.71708 3.05497 2.89476 2.98063 3.08003 2.98063H3.77858V3.68624C3.77858 3.87338 3.85218 4.05285 3.98318 4.18518C4.11418 4.3175 4.29186 4.39184 4.47713 4.39184C4.6624 4.39184 4.84008 4.3175 4.97108 4.18518C5.10208 4.05285 5.17568 3.87338 5.17568 3.68624V2.98063H10.7641V3.68624C10.7641 3.87338 10.8377 4.05285 10.9687 4.18518C11.0997 4.3175 11.2774 4.39184 11.4626 4.39184C11.6479 4.39184 11.8256 4.3175 11.9566 4.18518C12.0876 4.05285 12.1612 3.87338 12.1612 3.68624V2.98063H12.8597C13.045 2.98063 13.2227 3.05497 13.3537 3.1873C13.4847 3.31963 13.5583 3.4991 13.5583 3.68624V5.80306Z" fill="#9E9E9E"/>
</svg>
