<svg width="24" height="24" viewBox="0 0 24 24" fill="none" xmlns="http://www.w3.org/2000/svg">
<path d="M18.0496 4.02503H17.1856V3.15229C17.1856 2.92082 17.0946 2.69883 16.9325 2.53516C16.7705 2.37149 16.5507 2.27954 16.3216 2.27954C16.0924 2.27954 15.8727 2.37149 15.7106 2.53516C15.5486 2.69883 15.4576 2.92082 15.4576 3.15229V4.02503H8.54543V3.15229C8.54543 2.92082 8.4544 2.69883 8.29237 2.53516C8.13033 2.37149 7.91057 2.27954 7.68142 2.27954C7.45226 2.27954 7.2325 2.37149 7.07046 2.53516C6.90843 2.69883 6.8174 2.92082 6.8174 3.15229V4.02503H5.95338C5.26593 4.02503 4.60663 4.30088 4.12052 4.79189C3.63442 5.28291 3.36133 5.94887 3.36133 6.64327V18.8617C3.36133 19.5561 3.63442 20.2221 4.12052 20.7131C4.60663 21.2041 5.26593 21.4799 5.95338 21.4799H18.0496C18.7371 21.4799 19.3964 21.2041 19.8825 20.7131C20.3686 20.2221 20.6417 19.5561 20.6417 18.8617V6.64327C20.6417 5.94887 20.3686 5.28291 19.8825 4.79189C19.3964 4.30088 18.7371 4.02503 18.0496 4.02503ZM18.9136 18.8617C18.9136 19.0932 18.8226 19.3152 18.6606 19.4788C18.4985 19.6425 18.2788 19.7344 18.0496 19.7344H5.95338C5.72423 19.7344 5.50446 19.6425 5.34243 19.4788C5.18039 19.3152 5.08936 19.0932 5.08936 18.8617V11.007H18.9136V18.8617ZM18.9136 9.2615H5.08936V6.64327C5.08936 6.4118 5.18039 6.18981 5.34243 6.02614C5.50446 5.86247 5.72423 5.77052 5.95338 5.77052H6.8174V6.64327C6.8174 6.87473 6.90843 7.09672 7.07046 7.26039C7.2325 7.42406 7.45226 7.51601 7.68142 7.51601C7.91057 7.51601 8.13033 7.42406 8.29237 7.26039C8.4544 7.09672 8.54543 6.87473 8.54543 6.64327V5.77052H15.4576V6.64327C15.4576 6.87473 15.5486 7.09672 15.7106 7.26039C15.8727 7.42406 16.0924 7.51601 16.3216 7.51601C16.5507 7.51601 16.7705 7.42406 16.9325 7.26039C17.0946 7.09672 17.1856 6.87473 17.1856 6.64327V5.77052H18.0496C18.2788 5.77052 18.4985 5.86247 18.6606 6.02614C18.8226 6.18981 18.9136 6.4118 18.9136 6.64327V9.2615Z" fill="#9E9E9E"/>
</svg>
