<svg width="12" height="12" viewBox="0 0 12 12" fill="none" xmlns="http://www.w3.org/2000/svg">
<path d="M6.00008 10.5834C5.2223 10.5834 4.50703 10.4063 3.85425 10.0521C3.20147 9.69794 2.66675 9.22572 2.25008 8.63544V9.33335C2.25008 9.45141 2.21008 9.55044 2.13008 9.63044C2.05008 9.71044 1.95119 9.7503 1.83341 9.75002C1.71536 9.75002 1.61647 9.71002 1.53675 9.63002C1.45703 9.55002 1.41703 9.45113 1.41675 9.33335V7.66669C1.41675 7.54863 1.45675 7.44974 1.53675 7.37002C1.61675 7.2903 1.71564 7.2503 1.83341 7.25002H3.50008C3.61814 7.25002 3.71716 7.29002 3.79716 7.37002C3.87716 7.45002 3.91703 7.54891 3.91675 7.66669C3.91675 7.78474 3.87675 7.88377 3.79675 7.96377C3.71675 8.04377 3.61786 8.08363 3.50008 8.08335H2.8855C3.21883 8.58335 3.65814 8.98613 4.20341 9.29169C4.74869 9.59724 5.34758 9.75002 6.00008 9.75002C6.97925 9.75002 7.82133 9.42363 8.52633 8.77085C9.23133 8.11808 9.6323 7.31599 9.72925 6.3646C9.74314 6.25349 9.79175 6.16488 9.87508 6.09877C9.95841 6.03266 10.0556 5.99974 10.1667 6.00002C10.2848 6.00002 10.3855 6.03655 10.4688 6.1096C10.5522 6.18266 10.5869 6.27113 10.573 6.37502C10.5244 6.9653 10.3716 7.51558 10.1147 8.02585C9.85772 8.53613 9.52439 8.98058 9.11466 9.35919C8.70494 9.7378 8.23453 10.0364 7.70341 10.255C7.1723 10.4736 6.60453 10.5831 6.00008 10.5834ZM6.00008 2.25002C5.02091 2.25002 4.17897 2.57641 3.47425 3.22919C2.76953 3.88196 2.36841 4.68405 2.27091 5.63544C2.25703 5.74655 2.20841 5.83516 2.12508 5.90127C2.04175 5.96738 1.94453 6.0003 1.83341 6.00002C1.71536 6.00002 1.61466 5.96363 1.53133 5.89085C1.448 5.81808 1.41328 5.72947 1.42716 5.62502C1.47578 5.03474 1.62855 4.48446 1.8855 3.97419C2.14244 3.46391 2.47578 3.01946 2.8855 2.64085C3.29522 2.26224 3.76578 1.96363 4.29716 1.74502C4.82855 1.52641 5.39619 1.41696 6.00008 1.41669C6.77786 1.41669 7.49314 1.59377 8.14591 1.94794C8.79869 2.3021 9.33341 2.77433 9.75008 3.3646V2.66669C9.75008 2.54863 9.79008 2.44974 9.87008 2.37002C9.95008 2.2903 10.049 2.2503 10.1667 2.25002C10.2848 2.25002 10.3838 2.29002 10.4638 2.37002C10.5438 2.45002 10.5837 2.54891 10.5834 2.66669V4.33335C10.5834 4.45141 10.5434 4.55044 10.4634 4.63044C10.3834 4.71044 10.2845 4.7503 10.1667 4.75002H8.50008C8.38203 4.75002 8.28314 4.71002 8.20341 4.63002C8.12369 4.55002 8.08369 4.45113 8.08341 4.33335C8.08341 4.2153 8.12341 4.11641 8.20341 4.03669C8.28341 3.95696 8.3823 3.91696 8.50008 3.91669H9.11466C8.78133 3.41669 8.34216 3.01391 7.79716 2.70835C7.25216 2.4028 6.65314 2.25002 6.00008 2.25002Z" fill="#616161" stroke="#616161" stroke-width="0.2"/>
</svg>
