<svg width="52" height="52" viewBox="0 0 52 52" fill="none" xmlns="http://www.w3.org/2000/svg">
<path fill-rule="evenodd" clip-rule="evenodd" d="M32.905 46.0438C33.7697 46.0438 34.5987 45.6992 35.2086 45.0863L43.5786 36.6758C44.1847 36.0668 44.5249 35.2425 44.5249 34.3832V11.2463C44.5249 9.80336 44.0178 8.41951 43.1153 7.39919C42.2127 6.37887 40.9885 5.80566 39.7121 5.80566H13.7426C12.4661 5.80566 11.2419 6.37887 10.3393 7.39919C9.43674 8.41951 8.92969 9.80336 8.92969 11.2463V40.6031C8.92969 42.0461 9.43674 43.4299 10.3393 44.4502C11.2419 45.4706 12.4661 46.0438 13.7426 46.0438H32.905ZM15.4734 14.0693C14.3965 14.0693 13.5234 15.0151 13.5234 16.1818C13.5234 17.3485 14.3965 18.2943 15.4734 18.2943H30.6401C31.7171 18.2943 32.5901 17.3485 32.5901 16.1818C32.5901 15.0151 31.7171 14.0693 30.6401 14.0693H15.4734ZM13.5234 26.4211C13.5234 25.2544 14.3965 24.3086 15.4734 24.3086H24.1401C25.2171 24.3086 26.0901 25.2544 26.0901 26.4211C26.0901 27.5878 25.2171 28.5336 24.1401 28.5336H15.4734C14.3965 28.5336 13.5234 27.5878 13.5234 26.4211ZM35.6098 32.5C34.3542 32.5 33.1501 32.9071 32.2623 33.6318C31.3745 34.3565 30.8758 35.3394 30.8758 36.3643V41.7263C30.8758 42.564 31.8624 43.0117 32.4928 42.4601L41.9229 34.2088C42.6004 33.6159 42.1811 32.5 41.2809 32.5H35.6098Z" fill="#FCD049"/>
</svg>
