<svg width="70" height="70" viewBox="0 0 70 70" fill="none" xmlns="http://www.w3.org/2000/svg">
<circle cx="35" cy="35" r="32" fill="#D4DAE7"/>
<path d="M35.2209 51.1357C36.764 51.1357 38.0149 49.8807 38.0149 48.3326C38.0149 46.7845 36.764 45.5295 35.2209 45.5295C33.6779 45.5295 32.427 46.7845 32.427 48.3326C32.427 49.8807 33.6779 51.1357 35.2209 51.1357Z" fill="white"/>
<path d="M35.221 51.5479C33.4415 51.5479 32 50.1017 32 48.3163C32 46.5309 33.4415 45.0847 35.221 45.0847C37.0006 45.0847 38.4421 46.5309 38.4421 48.3163C38.4421 50.1017 37.0006 51.5479 35.221 51.5479ZM35.221 45.9596C33.922 45.9596 32.8542 47.0308 32.8542 48.3342C32.8542 49.6375 33.922 50.7088 35.221 50.7088C36.5201 50.7088 37.5879 49.6375 37.5879 48.3342C37.5879 47.0308 36.5379 45.9596 35.221 45.9596Z" fill="white"/>
<path d="M35.2212 40.5128C33.8153 40.5128 32.6764 39.3702 32.6764 37.9597V20.9804C32.6764 19.5699 33.8153 18.4272 35.2212 18.4272C36.6271 18.4272 37.766 19.5699 37.766 20.9804V37.9597C37.7838 39.3702 36.6271 40.5128 35.2212 40.5128Z" fill="white"/>
</svg>
