<svg width="32" height="32" viewBox="0 0 32 32" fill="none" xmlns="http://www.w3.org/2000/svg">
<path d="M10.7637 7.1493C10.7637 7.15522 10.7637 7.16115 10.7637 7.16708L10.7637 14.2559C10.7637 17.0195 13.0736 19.2523 15.9516 19.2523C18.8295 19.2523 21.2246 17.0195 21.2246 14.2559V6.7155H21.2034C20.961 4.14745 18.672 2.15234 15.9515 2.15234C13.2311 2.15234 11.0182 4.14745 10.7841 6.7155H10.7637V7.1493Z" fill="white"/>
<path d="M25.0185 15.2105V13.1373C25.0185 12.787 24.6872 12.5693 24.3369 12.5693H23.2956C22.9642 12.5693 22.7275 12.787 22.7275 13.1373V15.2105C22.7275 18.9973 19.7455 21.9888 15.9492 21.9888C12.153 21.9888 9.28453 19.0068 9.28453 15.2105V13.1373C9.28453 12.787 8.93426 12.5693 8.69759 12.5693H7.56156C7.32488 12.5693 6.97461 12.787 6.97461 13.1373V15.2105C6.97461 19.6789 10.4395 23.5793 14.9079 24.1662V26.5992H10.2028C9.85255 26.5992 9.63481 26.8359 9.63481 27.1672V28.2086C9.63481 28.5589 9.85255 28.9092 10.2028 28.9092H21.8187C22.0365 28.9092 22.3867 28.5589 22.3867 28.2086V27.1672C22.3867 26.8359 22.0365 26.5992 21.8187 26.5992H17.0947V24.1662C21.582 23.5793 25.028 19.6789 25.028 15.2105H25.0185Z" fill="white"/>
</svg>
