<svg width="38" height="38" viewBox="0 0 38 38" fill="none" xmlns="http://www.w3.org/2000/svg">
<path d="M12.293 27.0393C12.293 28.351 13.3563 29.4143 14.668 29.4143H23.3297C24.6414 29.4143 25.7047 28.351 25.7047 27.0393V22.8481C25.7047 21.5365 24.6414 20.4731 23.3297 20.4731H14.668C13.3563 20.4731 12.293 21.5365 12.293 22.8481V27.0393ZM14.3229 22.0854H23.6748C23.8135 22.0854 23.9466 22.1452 24.0447 22.2517C24.1429 22.3581 24.198 22.5025 24.198 22.6531C24.198 22.8036 24.1429 22.948 24.0447 23.0545C23.9466 23.161 23.8135 23.2208 23.6748 23.2208H14.3229C14.1842 23.2208 14.0511 23.161 13.953 23.0545C13.8549 22.948 13.7997 22.8036 13.7997 22.6531C13.7997 22.5025 13.8549 22.3581 13.953 22.2517C14.0511 22.1452 14.1842 22.0854 14.3229 22.0854Z" fill="#FF8737"/>
<path d="M34.9011 21.7013H31.8791V14.4122C31.8762 12.2345 31.0096 10.1468 29.4694 8.60728C27.9291 7.06773 25.8411 6.20203 23.6634 6.20012H23.4137C23.3575 5.0674 22.8679 3.99965 22.0464 3.21784C21.2248 2.43603 20.1341 2 19 2C17.8659 2 16.7752 2.43603 15.9536 3.21784C15.1321 3.99965 14.6425 5.0674 14.5863 6.20012H14.333C12.1559 6.20299 10.0688 7.06911 8.52935 8.60854C6.98991 10.148 6.12379 12.2351 6.12092 14.4122V21.7013H3.09885C2.90687 21.7013 2.72276 21.7776 2.58701 21.9134C2.45126 22.0491 2.375 22.2332 2.375 22.4252V29.1172C2.37602 30.1486 2.75965 31.143 3.45163 31.9078C4.14361 32.6727 5.09474 33.1536 6.12092 33.2576V33.786C6.12092 33.978 6.19718 34.1621 6.33293 34.2978C6.46868 34.4336 6.65279 34.5098 6.84477 34.5098H31.1552C31.3472 34.5098 31.5313 34.4336 31.6671 34.2978C31.8028 34.1621 31.8791 33.978 31.8791 33.786V33.2576C32.9053 33.1536 33.8564 32.6727 34.5484 31.9078C35.2403 31.143 35.624 30.1486 35.625 29.1172V22.4252C35.625 22.3301 35.6063 22.236 35.5699 22.1482C35.5335 22.0604 35.4802 21.9806 35.413 21.9134C35.3458 21.8461 35.266 21.7928 35.1781 21.7564C35.0903 21.7201 34.9962 21.7013 34.9011 21.7013ZM18.9982 3.41692C19.7536 3.41804 20.4803 3.70612 21.0313 4.22285C21.5823 4.73958 21.9164 5.44636 21.966 6.20012H16.0232C16.072 5.4448 16.4068 4.73649 16.9595 4.2194C17.5123 3.70232 18.2413 3.41534 18.9982 3.41692ZM3.8227 29.1136V23.149H6.12092V31.7954C5.4815 31.6962 4.89855 31.3718 4.47716 30.8808C4.05578 30.3897 3.82367 29.7642 3.8227 29.1172V29.1136ZM30.4314 33.0585H7.56862V14.4122C7.57053 12.6187 8.28382 10.8993 9.55197 9.63117C10.8201 8.36302 12.5395 7.64973 14.333 7.64781H23.6634C25.4574 7.64877 27.1778 8.36164 28.4467 9.62989C29.7157 10.8981 30.4295 12.6181 30.4314 14.4122V33.0585ZM34.1773 29.1136C34.1763 29.7606 33.9442 30.3861 33.5228 30.8771C33.1014 31.3682 32.5185 31.6926 31.8791 31.7918V23.149H34.1773V29.1136Z" fill="#FF8737" stroke="#FF8737" stroke-width="0.894118"/>
</svg>
