<svg width="24" height="24" viewBox="0 0 24 24" fill="none" xmlns="http://www.w3.org/2000/svg">
<path d="M19.8791 6.67979H18.5136V3.57447C18.5136 3.38476 18.4422 3.20136 18.3127 3.06497C18.1829 2.92832 18.0052 2.85 17.8182 2.85H6.18182C5.99479 2.85 5.8171 2.92832 5.68735 3.06497C5.55784 3.20136 5.48636 3.38476 5.48636 3.57447V6.67979H4.12091C2.86996 6.67979 1.85 7.69096 1.85 8.93617V16.5957C1.85 16.7854 1.92148 16.9688 2.05098 17.1052C2.18073 17.2419 2.35843 17.3202 2.54545 17.3202H5.48636V20.4255C5.48636 20.6152 5.55784 20.7986 5.68735 20.935C5.8171 21.0717 5.99479 21.15 6.18182 21.15H17.8182C18.0052 21.15 18.1829 21.0717 18.3127 20.935C18.4422 20.7986 18.5136 20.6152 18.5136 20.4255V17.3202H21.4545C21.6416 17.3202 21.8193 17.2419 21.949 17.1052C22.0785 16.9688 22.15 16.7854 22.15 16.5957V8.93617C22.15 7.69096 21.13 6.67979 19.8791 6.67979ZM6.87727 4.29894H17.1227V6.67979H6.87727V4.29894ZM17.1227 19.7011H6.87727V15.0223H17.1227V19.7011ZM20.7591 15.8713H18.5136V14.2979C18.5136 14.1082 18.4422 13.9248 18.3127 13.7884C18.1829 13.6517 18.0052 13.5734 17.8182 13.5734H6.18182C5.99479 13.5734 5.8171 13.6517 5.68735 13.7884C5.55784 13.9248 5.48636 14.1082 5.48636 14.2979V15.8713H3.24091V8.93617C3.24091 8.50153 3.62513 8.12872 4.12091 8.12872H19.8791C20.3749 8.12872 20.7591 8.50153 20.7591 8.93617V15.8713ZM18.3371 11.4634C18.4525 11.2815 18.5136 11.0684 18.5136 10.8511C18.5136 10.5598 18.4038 10.279 18.2061 10.0708C18.0082 9.86229 17.738 9.74362 17.4545 9.74362C17.2433 9.74362 17.0375 9.80963 16.8632 9.93231C16.6889 10.0549 16.5543 10.2283 16.4751 10.4298C16.3959 10.6312 16.3752 10.8524 16.4155 11.0657C16.4558 11.279 16.5555 11.476 16.7029 11.6314C16.8505 11.7868 17.0395 11.8936 17.2464 11.9369C17.4535 11.9803 17.6679 11.958 17.8624 11.8731C18.0568 11.7883 18.2217 11.6453 18.3371 11.4634Z" fill="#9E9E9E" stroke="#9E9E9E" stroke-width="0.3"/>
</svg>
