<svg width="24" height="24" viewBox="0 0 24 24" fill="none" xmlns="http://www.w3.org/2000/svg">
<path fill-rule="evenodd" clip-rule="evenodd" d="M11.9998 22.0007C17.5226 22.0007 21.9997 17.5236 21.9997 12.0008C21.9997 6.47806 17.5226 2.00098 11.9998 2.00098C6.47708 2.00098 2 6.47806 2 12.0008C2 17.5236 6.47708 22.0007 11.9998 22.0007ZM12.8257 6.29016C12.5008 5.58574 11.4996 5.58574 11.1747 6.29016L10.0973 8.62607C9.96483 8.91317 9.69276 9.11084 9.37879 9.14806L6.82425 9.45095C6.05391 9.54228 5.74453 10.4944 6.31407 11.0211L8.20271 12.7677C8.43483 12.9823 8.53875 13.3022 8.47713 13.6123L7.97579 16.1354C7.82461 16.8963 8.63456 17.4847 9.31147 17.1058L11.5562 15.8493C11.832 15.6949 12.1684 15.6949 12.4442 15.8493L14.6889 17.1058C15.3658 17.4847 16.1758 16.8963 16.0246 16.1354L15.5233 13.6123C15.4617 13.3022 15.5656 12.9823 15.7977 12.7677L17.6863 11.0211C18.2559 10.4944 17.9465 9.54228 17.1761 9.45095L14.6216 9.14806C14.3076 9.11084 14.0356 8.91317 13.9031 8.62607L12.8257 6.29016Z" fill="white"/>
</svg>
