<svg width="27" height="22" viewBox="0 0 27 22" fill="none" xmlns="http://www.w3.org/2000/svg">
<path d="M17.3571 21.7142H2.14286C1.57454 21.7142 1.02949 21.4885 0.627628 21.0866C0.225765 20.6847 0 20.1397 0 19.5714V2.4285C0 1.86018 0.225765 1.31514 0.627628 0.913273C1.02949 0.511409 1.57454 0.285645 2.14286 0.285645H17.3571C17.9255 0.285645 18.4705 0.511409 18.8724 0.913273C19.2742 1.31514 19.5 1.86018 19.5 2.4285V6.7785L25.3071 2.63207C25.4671 2.51821 25.6552 2.45048 25.851 2.43626C26.0468 2.42203 26.2427 2.46187 26.4174 2.55143C26.5921 2.64098 26.7388 2.77681 26.8415 2.94408C26.9443 3.11135 26.9991 3.30363 27 3.49993V18.4999C26.9991 18.6962 26.9443 18.8885 26.8415 19.0558C26.7388 19.2231 26.5921 19.3589 26.4174 19.4484C26.2427 19.538 26.0468 19.5778 25.851 19.5636C25.6552 19.5494 25.4671 19.4816 25.3071 19.3678L19.5 15.2214V19.5714C19.5 20.1397 19.2742 20.6847 18.8724 21.0866C18.4705 21.4885 17.9255 21.7142 17.3571 21.7142ZM2.14286 2.4285V19.5714H17.3571V13.1428C17.358 12.9465 17.4129 12.7542 17.5156 12.5869C17.6184 12.4197 17.7651 12.2838 17.9398 12.1943C18.1145 12.1047 18.3104 12.0649 18.5062 12.0791C18.702 12.0933 18.8901 12.1611 19.05 12.2749L24.8571 16.4214V5.5785L19.05 9.72493C18.8901 9.83879 18.702 9.90653 18.5062 9.92075C18.3104 9.93497 18.1145 9.89513 17.9398 9.80557C17.7651 9.71602 17.6184 9.58019 17.5156 9.41293C17.4129 9.24566 17.358 9.05338 17.3571 8.85707V2.4285H2.14286Z" fill="#BDBDBD"/>
</svg>
