<svg width="20" height="20" viewBox="0 0 20 20" fill="none" xmlns="http://www.w3.org/2000/svg">
<path d="M10 19C14.9706 19 19 14.9706 19 10C19 5.02944 14.9706 1 10 1C5.02944 1 1 5.02944 1 10C1 14.9706 5.02944 19 10 19Z" stroke="#222222" stroke-width="1.5"/>
<path d="M7.74656 7.2407C7.49627 6.99052 7.15686 6.84998 6.80297 6.84998C6.44907 6.84998 6.10967 6.99052 5.85938 7.2407" stroke="#222222" stroke-width="1.5" stroke-linecap="round" stroke-linejoin="round"/>
<path d="M14.1388 7.24058C13.8885 6.99039 13.5491 6.84985 13.1952 6.84985C12.8413 6.84985 12.5019 6.99039 12.2516 7.24058" stroke="#222222" stroke-width="1.5" stroke-linecap="round" stroke-linejoin="round"/>
<path d="M11.612 10.5274C9.95843 10.3937 9.35357 12.7282 9.25784 13.9122C11.2789 14.6477 12.588 13.4664 12.9899 12.7839C13.1278 11.0789 12.1288 10.5691 11.612 10.5274Z" stroke="#222222" stroke-width="1.45" stroke-linecap="round" stroke-linejoin="bevel"/>
<path d="M5.78363 13.0572C7.58682 14.1718 11.4292 15.243 14.3106 12.789" stroke="#222222" stroke-width="1.5" stroke-linecap="round" stroke-linejoin="bevel"/>
</svg>
