<svg width="32" height="32" viewBox="0 0 32 32" fill="none" xmlns="http://www.w3.org/2000/svg">
<g clip-path="url(#clip0_3058_374)">
<path fill-rule="evenodd" clip-rule="evenodd" d="M25.9064 10.4396L17.7666 2.2998H6.57431C5.26312 2.2998 4.2002 3.36273 4.2002 4.67392V26.0152C4.2002 27.3264 5.26312 28.3893 6.57431 28.3893H15.4062C15.2711 28.0017 15.2002 27.5907 15.2002 27.1723V26.5474C15.2002 25.7761 15.3612 25.0537 15.7144 24.3747C16.0424 23.7442 16.4791 23.2661 16.8325 22.9127C17.2586 22.4867 17.7464 22.1367 18.2751 21.8716C17.8815 21.0942 17.6743 20.2322 17.6743 19.3546V19.3264L17.6787 19.1377L17.6798 19.1127C17.7421 17.6779 18.3559 16.3226 19.3932 15.3293C20.4305 14.336 21.8113 13.7815 23.2475 13.7814C24.1789 13.7814 25.0926 14.0148 25.9064 14.4566V10.4396ZM25.9064 17.7136C25.672 17.3337 25.3578 17.0068 24.9834 16.7566C24.4696 16.4133 23.8655 16.2301 23.2475 16.2301C22.9439 16.2301 22.6447 16.2743 22.3587 16.3592C22.6446 16.2744 22.9437 16.2302 23.2471 16.2302C23.8651 16.2302 24.4692 16.4134 24.983 16.7568C25.3576 17.007 25.6719 17.3342 25.9064 17.7143V17.7136ZM24.1919 22.333C24.6492 22.188 25.0683 21.9392 25.4155 21.6046C25.4294 21.5912 25.4432 21.5777 25.4569 21.564C25.5443 21.4765 25.6262 21.3842 25.7022 21.2877C25.7759 21.1941 25.8441 21.0966 25.9064 20.9956V20.9951C25.7797 21.2005 25.6289 21.3916 25.4565 21.5641C25.1014 21.9191 24.6673 22.1822 24.1919 22.333ZM25.9064 23.7677C25.7451 23.7421 25.581 23.729 25.4155 23.729H20.7734C20.4899 23.729 20.2104 23.7675 19.9419 23.8416C19.927 23.8457 19.9121 23.85 19.8972 23.8543C20.1792 23.772 20.4739 23.7291 20.773 23.7291H25.4151C25.5807 23.7291 25.7449 23.7422 25.9064 23.7679V23.7677ZM24.041 11.7963L16.4099 3.9956V10.3C16.4099 11.1264 17.0799 11.7963 17.9062 11.7963H24.041Z" fill="#222222"/>
<path d="M23.1311 15.7812C23.8167 15.7812 24.4869 15.9846 25.057 16.3654C25.627 16.7463 26.0713 17.2877 26.3337 17.9211C26.596 18.5545 26.6647 19.2515 26.5309 19.9239C26.3972 20.5963 26.067 21.214 25.5822 21.6988C25.0975 22.1835 24.4798 22.5137 23.8074 22.6474C23.135 22.7812 22.438 22.7125 21.8046 22.4502C21.1712 22.1878 20.6298 21.7435 20.2489 21.1735C19.868 20.6034 19.6647 19.9332 19.6647 19.2476L19.6682 19.0972C19.707 18.2048 20.0888 17.3618 20.7339 16.744C21.3791 16.1262 22.2379 15.7813 23.1311 15.7812ZM25.5364 24.1006C26.4557 24.1006 27.3374 24.4658 27.9875 25.1159C28.6376 25.766 29.0028 26.3081 29.0028 27.2274V27.9207C29.0028 28.2884 28.8567 28.6411 28.5967 28.9012C28.3366 29.1612 27.984 29.3073 27.6162 29.3073H18.3065C17.9387 29.3073 17.5861 29.1612 17.326 28.9012C17.066 28.6411 16.9199 28.2884 16.9199 27.9207V27.2274C16.9199 26.3081 17.2851 25.766 17.9352 25.1159C18.5853 24.4658 19.467 24.1006 20.3863 24.1006H25.5364Z" fill="#222222"/>
</g>
<defs>
<clipPath id="clip0_3058_374">
<rect width="32" height="32" fill="white"/>
</clipPath>
</defs>
</svg>
