<svg width="24" height="24" viewBox="0 0 24 24" fill="none" xmlns="http://www.w3.org/2000/svg">
<path d="M21 18.25V10H3V18.25C3 19.2446 3.39509 20.1984 4.09835 20.9016C4.80161 21.6049 5.75544 22 6.75 22H17.25C18.2446 22 19.1984 21.6049 19.9016 20.9016C20.6049 20.1984 21 19.2446 21 18.25ZM8.9955 13.372C8.9955 13.6698 8.87721 13.9553 8.66665 14.1659C8.4561 14.3765 8.17052 14.4948 7.87275 14.4948C7.57498 14.4948 7.2894 14.3765 7.07885 14.1659C6.86829 13.9553 6.75 13.6698 6.75 13.372C6.75 13.0742 6.86829 12.7887 7.07885 12.5781C7.2894 12.3675 7.57498 12.2492 7.87275 12.2492C8.17052 12.2492 8.4561 12.3675 8.66665 12.5781C8.87721 12.7887 8.9955 13.0742 8.9955 13.372ZM8.9955 17.122C8.9955 17.4198 8.87721 17.7053 8.66665 17.9159C8.4561 18.1265 8.17052 18.2448 7.87275 18.2448C7.57498 18.2448 7.2894 18.1265 7.07885 17.9159C6.86829 17.7053 6.75 17.4198 6.75 17.122C6.75 16.8242 6.86829 16.5387 7.07885 16.3281C7.2894 16.1175 7.57498 15.9993 7.87275 15.9993C8.17052 15.9993 8.4561 16.1175 8.66665 16.3281C8.87721 16.5387 8.9955 16.8242 8.9955 17.122ZM13.1235 13.372C13.1235 13.6698 13.0052 13.9553 12.7947 14.1659C12.5841 14.3765 12.2985 14.4948 12.0007 14.4948C11.703 14.4948 11.4174 14.3765 11.2068 14.1659C10.9963 13.9553 10.878 13.6698 10.878 13.372C10.878 13.0742 10.9963 12.7887 11.2068 12.5781C11.4174 12.3675 11.703 12.2492 12.0007 12.2492C12.2985 12.2492 12.5841 12.3675 12.7947 12.5781C13.0052 12.7887 13.1235 13.0742 13.1235 13.372ZM13.1235 17.122C13.1235 17.4198 13.0052 17.7053 12.7947 17.9159C12.5841 18.1265 12.2985 18.2448 12.0007 18.2448C11.703 18.2448 11.4174 18.1265 11.2068 17.9159C10.9963 17.7053 10.878 17.4198 10.878 17.122C10.878 16.8242 10.9963 16.5387 11.2068 16.3281C11.4174 16.1175 11.703 15.9993 12.0007 15.9993C12.2985 15.9993 12.5841 16.1175 12.7947 16.3281C13.0052 16.5387 13.1235 16.8242 13.1235 17.122ZM17.2455 13.372C17.2455 13.6698 17.1272 13.9553 16.9167 14.1659C16.7061 14.3765 16.4205 14.4948 16.1227 14.4948C15.825 14.4948 15.5394 14.3765 15.3288 14.1659C15.1183 13.9553 15 13.6698 15 13.372C15 13.0742 15.1183 12.7887 15.3288 12.5781C15.5394 12.3675 15.825 12.2492 16.1227 12.2492C16.4205 12.2492 16.7061 12.3675 16.9167 12.5781C17.1272 12.7887 17.2455 13.0742 17.2455 13.372ZM21 7.75C21 6.75544 20.6049 5.80161 19.9016 5.09835C19.1984 4.39509 18.2446 4 17.25 4H6.75C5.75544 4 4.80161 4.39509 4.09835 5.09835C3.39509 5.80161 3 6.75544 3 7.75V8.5H21V7.75Z" fill="#9E9E9E"/>
<rect x="6.5459" y="2.0918" width="1.63636" height="3.27273" rx="0.818182" fill="#9E9E9E"/>
<rect x="16.3633" y="2.0918" width="1.63636" height="3.27273" rx="0.818182" fill="#9E9E9E"/>
</svg>
