<svg width="28" height="29" viewBox="0 0 28 29" fill="none" xmlns="http://www.w3.org/2000/svg">
<path d="M15.1666 6.71642L19.8333 11.3831M21.5833 17.7998L19.25 21.2997H23.9166L21.5833 24.7997M4.08331 22.4664H8.74998L21 10.2164C21.3064 9.91 21.5495 9.54623 21.7153 9.14587C21.8811 8.74552 21.9665 8.31642 21.9665 7.88308C21.9665 7.44974 21.8811 7.02065 21.7153 6.62029C21.5495 6.21994 21.3064 5.85617 21 5.54975C20.6936 5.24333 20.3298 5.00027 19.9294 4.83444C19.5291 4.6686 19.1 4.58325 18.6666 4.58325C18.2333 4.58325 17.8042 4.6686 17.4039 4.83444C17.0035 5.00027 16.6397 5.24333 16.3333 5.54975L4.08331 17.7998V22.4664Z" stroke="#739EEB" stroke-width="2" stroke-linecap="round" stroke-linejoin="round"/>
</svg>
