<svg width="72" height="72" viewBox="0 0 72 72" fill="none" xmlns="http://www.w3.org/2000/svg">
<path d="M36 36C40.5466 36 44.9069 34.2089 48.1218 31.0208C51.3367 27.8327 53.1429 23.5087 53.1429 19C53.1429 14.4913 51.3367 10.1673 48.1218 6.97919C44.9069 3.79107 40.5466 2 36 2C31.4534 2 27.0931 3.79107 23.8782 6.97919C20.6633 10.1673 18.8571 14.4913 18.8571 19C18.8571 23.5087 20.6633 27.8327 23.8782 31.0208C27.0931 34.2089 31.4534 36 36 36ZM29.8795 42.375C16.6875 42.375 6 52.9734 6 66.0555C6 68.2336 7.78125 70 9.97768 70H62.0223C64.2187 70 66 68.2336 66 66.0555C66 52.9734 55.3125 42.375 42.1205 42.375H29.8795Z" fill="#D6D6D6"/>
</svg>
