<svg width="20" height="20" viewBox="0 0 20 20" fill="none" xmlns="http://www.w3.org/2000/svg">
<path d="M7.67698 17.0905H3.66814C3.49094 17.0905 3.32099 17.0201 3.19569 16.8948C3.07039 16.7695 3 16.5995 3 16.4223V12.6902C3 12.6025 3.01728 12.5156 3.05086 12.4346C3.08444 12.3535 3.13365 12.2798 3.19569 12.2178L13.2178 2.19569C13.3431 2.07039 13.513 2 13.6902 2C13.8674 2 14.0374 2.07039 14.1627 2.19569L17.8948 5.92778C18.0201 6.05308 18.0905 6.22303 18.0905 6.40023C18.0905 6.57743 18.0201 6.74737 17.8948 6.87267L7.67698 17.0905Z" stroke="#BDBDBD" stroke-width="1.4" stroke-linecap="round" stroke-linejoin="round"/>
<path d="M11.0176 4.39605L15.6946 9.07303" stroke="#BDBDBD" stroke-width="1.4" stroke-linecap="round" stroke-linejoin="round"/>
</svg>
