<svg width="20" height="20" viewBox="0 0 20 20" fill="none" xmlns="http://www.w3.org/2000/svg">
<path d="M15.9091 3.5H4.09091C3.76456 3.5 3.5 3.76456 3.5 4.09091V15.9091C3.5 16.2354 3.76456 16.5 4.09091 16.5H15.9091C16.2354 16.5 16.5 16.2354 16.5 15.9091V4.09091C16.5 3.76456 16.2354 3.5 15.9091 3.5Z" stroke="#222222" stroke-width="1.6" stroke-linecap="round" stroke-linejoin="round"/>
<path d="M16.5 12.3637L13.3724 9.23606C13.2616 9.12524 13.1113 9.06299 12.9545 9.06299C12.7978 9.06299 12.6475 9.12524 12.5367 9.23606L9.23602 12.5368C9.1252 12.6476 8.9749 12.7098 8.81818 12.7098C8.66146 12.7098 8.51116 12.6476 8.40034 12.5368L6.87238 11.0088C6.76156 10.898 6.61126 10.8357 6.45454 10.8357C6.29782 10.8357 6.14752 10.898 6.03671 11.0088L3.5 13.5455" stroke="#222222" stroke-width="1.6" stroke-linecap="round" stroke-linejoin="round"/>
<path d="M7.92933 8.22732C8.41886 8.22732 8.8157 7.83048 8.8157 7.34095C8.8157 6.85143 8.41886 6.45459 7.92933 6.45459C7.43981 6.45459 7.04297 6.85143 7.04297 7.34095C7.04297 7.83048 7.43981 8.22732 7.92933 8.22732Z" fill="#222222"/>
</svg>
