<svg width="32" height="32" viewBox="0 0 32 32" fill="none" xmlns="http://www.w3.org/2000/svg">
<g clip-path="url(#clip0_3058_364)">
<path d="M5.7 29C4.9575 29 4.3221 28.7359 3.7938 28.2076C3.2655 27.6793 3.0009 27.0434 3 26.3V7.4C3 6.6575 3.2646 6.0221 3.7938 5.4938C4.323 4.9655 4.9584 4.7009 5.7 4.7H7.05V3.35C7.05 2.60442 7.65442 2 8.4 2C9.14558 2 9.75 2.60442 9.75 3.35V4.7H20.55V3.35C20.55 2.60442 21.1544 2 21.9 2C22.6456 2 23.25 2.60442 23.25 3.35V4.7H24.6C25.3425 4.7 25.9783 4.9646 26.5075 5.4938C27.0367 6.023 27.3009 6.6584 27.3 7.4V14.15H24.6V12.8H5.7V26.3H15.15V29H5.7ZM17.85 29V24.8487L25.3087 17.4238C25.5112 17.2213 25.7362 17.075 25.9837 16.985C26.2312 16.895 26.4788 16.85 26.7262 16.85C26.9963 16.85 27.255 16.9009 27.5025 17.0026C27.75 17.1042 27.975 17.2559 28.1775 17.4575L29.4262 18.7063C29.6062 18.9088 29.7471 19.1338 29.8488 19.3813C29.9505 19.6287 30.0009 19.8763 30 20.1238C30 20.3713 29.955 20.6246 29.865 20.8838C29.775 21.143 29.6287 21.3734 29.4262 21.575L22.0012 29H17.85ZM26.7262 21.44L27.975 20.1238L26.7262 18.875L25.4437 20.1575L26.7262 21.44Z" fill="#222222"/>
<rect x="8.40039" y="15.5" width="10.5" height="2.9" rx="1.45" fill="#222222"/>
<rect x="8.40039" y="20.7646" width="6.75" height="2.9" rx="1.45" fill="#222222"/>
</g>
<defs>
<clipPath id="clip0_3058_364">
<rect width="32" height="32" fill="white"/>
</clipPath>
</defs>
</svg>
