<svg width="20" height="20" viewBox="0 0 20 20" fill="none" xmlns="http://www.w3.org/2000/svg">
<path d="M3.33398 5.00044H16.6673" stroke="#FF8737" stroke-width="1.7" stroke-linecap="round" stroke-linejoin="round"/>
<path d="M8.33398 8.33296V13.333" stroke="#FF8737" stroke-width="1.7" stroke-linecap="round" stroke-linejoin="round"/>
<path d="M11.6699 8.33295V13.3329" stroke="#FF8737" stroke-width="1.7" stroke-linecap="round" stroke-linejoin="round"/>
<path d="M4.16992 5.00043L5.00326 15.0004C5.00326 15.4425 5.17885 15.8664 5.49141 16.1789C5.80397 16.4915 6.22789 16.6671 6.66992 16.6671H13.3366C13.7786 16.6671 14.2025 16.4915 14.5151 16.1789C14.8277 15.8664 15.0033 15.4425 15.0033 15.0004L15.8366 5.00043" stroke="#FF8737" stroke-width="1.7" stroke-linecap="round" stroke-linejoin="round"/>
<path d="M7.5 5.00002V2.50002C7.5 2.27901 7.5878 2.06704 7.74408 1.91076C7.90036 1.75448 8.11232 1.66669 8.33333 1.66669H11.6667C11.8877 1.66669 12.0996 1.75448 12.2559 1.91076C12.4122 2.06704 12.5 2.27901 12.5 2.50002V5.00002" stroke="#FF8737" stroke-width="1.7" stroke-linecap="round" stroke-linejoin="round"/>
</svg>
