<svg width="52" height="52" viewBox="0 0 52 52" fill="none" xmlns="http://www.w3.org/2000/svg">
<path d="M11.7613 45.1017C11.3214 45.2903 10.832 44.9676 10.832 44.489V10.8333C10.832 9.64167 11.2567 8.62117 12.106 7.77184C12.9554 6.9225 13.9751 6.49856 15.1654 6.5H30.332C29.6098 7.58334 29.0681 8.62189 28.707 9.61567C28.3459 10.6094 28.1654 11.7376 28.1654 13C28.1654 15.6 28.9865 17.8931 30.6289 19.8792C32.2712 21.8653 34.3389 23.1111 36.832 23.6167C37.6626 23.725 38.3848 23.7792 38.9987 23.7792C39.6126 23.7792 40.3348 23.725 41.1654 23.6167V44.489C41.1654 44.9676 40.676 45.2903 40.2361 45.1017L25.9987 39L11.7613 45.1017ZM36.832 19.5V15.1667H32.4987V10.8333H36.832V6.5H41.1654V10.8333H45.4987V15.1667H41.1654V19.5H36.832Z" fill="#D6D6D6"/>
</svg>
