<svg width="24" height="24" viewBox="0 0 24 24" fill="none" xmlns="http://www.w3.org/2000/svg">
<path d="M6.7041 10.6151C6.7041 10.84 6.79344 11.0557 6.95248 11.2147C7.11153 11.3738 7.32724 11.4631 7.55217 11.4631H13.6945C13.81 11.4702 13.9257 11.4535 14.0344 11.4141C14.1432 11.3747 14.2428 11.3135 14.3271 11.2342C14.4113 11.1549 14.4785 11.0592 14.5244 10.953C14.5703 10.8468 14.5939 10.7323 14.5939 10.6166C14.5939 10.5009 14.5703 10.3864 14.5244 10.2802C14.4785 10.174 14.4113 10.0783 14.3271 9.99903C14.2428 9.91974 14.1432 9.85853 14.0344 9.81916C13.9257 9.77978 13.81 9.7631 13.6945 9.77011H7.55217C7.44094 9.7697 7.33073 9.79124 7.22785 9.83352C7.12498 9.8758 7.03147 9.93798 6.95267 10.0165C6.87388 10.095 6.81139 10.1883 6.76873 10.291C6.72607 10.3937 6.7041 10.5038 6.7041 10.6151Z" fill="#FF8737"/>
<path d="M12.3671 13.2275H7.39113C7.20891 13.2275 7.03416 13.3169 6.90532 13.4759C6.77648 13.635 6.7041 13.8507 6.7041 14.0756C6.7041 14.3005 6.77648 14.5162 6.90532 14.6753C7.03416 14.8343 7.20891 14.9237 7.39113 14.9237H12.3671C12.5493 14.9237 12.724 14.8343 12.8529 14.6753C12.9817 14.5162 13.0541 14.3005 13.0541 14.0756C13.0541 13.8507 12.9817 13.635 12.8529 13.4759C12.724 13.3169 12.5493 13.2275 12.3671 13.2275Z" fill="#FF8737"/>
<path fill-rule="evenodd" clip-rule="evenodd" d="M17.711 6.41498L18.2005 6.90759C18.3597 7.06621 18.4494 7.28154 18.45 7.50625V11.2615C17.9346 11.0269 17.3617 10.8985 16.7598 10.9035L16.7569 7.86168H13.4363C13.325 7.86168 13.2147 7.83975 13.1118 7.79713C13.0089 7.75451 12.9154 7.69204 12.8366 7.61329C12.7579 7.53454 12.6954 7.44105 12.6528 7.33815C12.6102 7.23526 12.5883 7.12498 12.5883 7.01361V3.69614H4.48167V17.6145H12.6876C12.3254 17.9863 12.0198 18.4075 11.7813 18.8659C11.7073 19.0084 11.6401 19.1537 11.5799 19.3013H3.62736C3.40244 19.3013 3.18672 19.212 3.02768 19.0529C2.86864 18.8939 2.7793 18.6782 2.7793 18.4533V2.84808C2.7793 2.62315 2.86864 2.40744 3.02768 2.24839C3.18672 2.08935 3.40244 2 3.62736 2H12.9437C13.055 1.99993 13.1653 2.02194 13.268 2.06475C13.3708 2.10757 13.464 2.17034 13.5424 2.24943L14.035 2.74206L17.711 6.41498Z" fill="#FF8737"/>
<path fill-rule="evenodd" clip-rule="evenodd" d="M19.836 14.7743C19.88 16.4529 18.5549 17.8493 16.8763 17.8933C15.1977 17.9372 13.8013 16.6121 13.7573 14.9335C13.7134 13.2549 15.0385 11.8585 16.7171 11.8145C18.3957 11.7706 19.7921 13.0957 19.836 14.7743ZM16.8166 18.7355C17.7962 18.7355 18.7401 18.3676 19.4613 17.7047C20.0068 18.1158 20.4493 18.6482 20.7537 19.2597C21.0582 19.8713 21.2163 20.5452 21.2155 21.2283C21.2155 21.3972 21.1487 21.5593 21.0296 21.679C20.9106 21.7988 20.7489 21.8666 20.58 21.8676H13.0494C12.9655 21.8676 12.8824 21.8511 12.8048 21.819C12.7272 21.7868 12.6568 21.7397 12.5974 21.6804C12.538 21.621 12.4909 21.5505 12.4588 21.473C12.4267 21.3954 12.4102 21.3123 12.4102 21.2283C12.4103 20.5446 12.5696 19.8702 12.8754 19.2586C13.1812 18.6471 13.6251 18.1151 14.172 17.7047C14.8932 18.3676 15.837 18.7355 16.8166 18.7355Z" fill="#FF8737"/>
</svg>
