<svg width="24" height="24" viewBox="0 0 24 24" fill="none" xmlns="http://www.w3.org/2000/svg">
<path d="M4.00391 6.57227H20.0039" stroke="#9E9E9E" stroke-width="1.8" stroke-linecap="round" stroke-linejoin="round"/>
<path d="M10.0039 10.5703V16.5703" stroke="#9E9E9E" stroke-width="1.8" stroke-linecap="round" stroke-linejoin="round"/>
<path d="M14.0078 10.5703V16.5703" stroke="#9E9E9E" stroke-width="1.8" stroke-linecap="round" stroke-linejoin="round"/>
<path d="M5.00781 6.57227L6.00781 18.5723C6.00781 19.1027 6.21853 19.6114 6.5936 19.9865C6.96867 20.3616 7.47738 20.5723 8.00781 20.5723H16.0078C16.5382 20.5723 17.047 20.3616 17.422 19.9865C17.7971 19.6114 18.0078 19.1027 18.0078 18.5723L19.0078 6.57227" stroke="#9E9E9E" stroke-width="1.8" stroke-linecap="round" stroke-linejoin="round"/>
<path d="M9 6.57129V3.57129C9 3.30607 9.10536 3.05172 9.29289 2.86418C9.48043 2.67665 9.73478 2.57129 10 2.57129H14C14.2652 2.57129 14.5196 2.67665 14.7071 2.86418C14.8946 3.05172 15 3.30607 15 3.57129V6.57129" stroke="#9E9E9E" stroke-width="1.8" stroke-linecap="round" stroke-linejoin="round"/>
</svg>
