<svg width="20" height="20" viewBox="0 0 20 20" fill="none" xmlns="http://www.w3.org/2000/svg">
    <path d="M13.807 2.123a.524.524 0 0 0-.438-.11L3.837 3.61a.533.533 0 0 0-.435.524v11.733a.532.532 0 0 0 .435.523l9.532 1.6a.53.53 0 0 0 .631-.524V2.534a.532.532 0 0 0-.193-.41z" fill="#E76C4E"/>
    <rect x="15" y="2.997" width="1.5" height="13.964" rx=".5" fill="#E76C4E"/>
    <path d="M9.447 11.202h-1.9v-.767h1.9c.368 0 .666-.059.894-.176.228-.117.394-.28.498-.488.107-.208.161-.446.161-.713 0-.244-.054-.473-.161-.688a1.19 1.19 0 0 0-.498-.518c-.228-.133-.526-.2-.894-.2h-1.68v6.338h-.942V6.88h2.622c.537 0 .992.093 1.363.279.37.185.652.442.844.771.192.326.288.698.288 1.118 0 .456-.096.845-.288 1.167a1.841 1.841 0 0 1-.844.738c-.372.166-.826.249-1.363.249z" fill="#fff"/>
</svg>
