<svg width="18" height="18" viewBox="0 0 18 18" fill="none" xmlns="http://www.w3.org/2000/svg">
<path d="M12.9771 0.771143C12.9143 0.718903 12.8405 0.68137 12.7613 0.661303C12.682 0.641237 12.5992 0.639148 12.5191 0.65519L2.56196 2.32454C2.43401 2.34839 2.31848 2.4162 2.23544 2.51618C2.15241 2.61616 2.10711 2.74201 2.10742 2.87184V15.1281C2.10734 15.2579 2.15271 15.3836 2.23571 15.4836C2.31871 15.5835 2.43411 15.6514 2.56196 15.6755L12.5191 17.3467C12.5527 17.3534 12.587 17.3567 12.6214 17.3568C12.7514 17.357 12.8773 17.3116 12.9771 17.2285C13.0401 17.176 13.0908 17.1104 13.1256 17.0363C13.1603 16.9621 13.1783 16.8813 13.1782 16.7994V1.20056C13.1784 1.11864 13.1604 1.03769 13.1257 0.963466C13.0909 0.889244 13.0402 0.823579 12.9771 0.771143Z" fill="#30A364"/>
<rect x="14.2227" y="1.68457" width="1.56696" height="14.5878" rx="0.321429" fill="#30A364"/>
<g clip-path="url(#clip0_9712_6983)">
<path d="M9.88785 13.1471C9.81053 13.1487 9.73422 13.1294 9.66708 13.0911C9.59993 13.0529 9.54448 12.9971 9.50666 12.9298L4.96865 5.68747C4.93592 5.63806 4.91366 5.58249 4.90324 5.52418C4.89282 5.46588 4.89447 5.40606 4.90806 5.34841C4.92166 5.29076 4.94694 5.23649 4.98233 5.18894C5.01772 5.14138 5.06248 5.10154 5.11386 5.07187C5.16324 5.04008 5.21844 5.01837 5.27628 5.00799C5.33412 4.99761 5.39345 4.99876 5.45084 5.01139C5.50823 5.02402 5.56254 5.04786 5.61063 5.08155C5.65873 5.11524 5.69965 5.15811 5.73103 5.20767L10.269 12.45C10.31 12.5189 10.3324 12.5972 10.3338 12.6773C10.3353 12.7574 10.3158 12.8365 10.2774 12.9068C10.2389 12.9771 10.1828 13.0362 10.1145 13.0784C10.0462 13.1205 9.9681 13.1442 9.88785 13.1471Z" fill="white"/>
<path d="M5.35039 13.1468C5.26585 13.1494 5.18284 13.1239 5.11441 13.0743C5.06273 13.0438 5.0178 13.0031 4.98232 12.9547C4.94684 12.9064 4.92155 12.8513 4.90798 12.793C4.89441 12.7346 4.89284 12.6741 4.90336 12.6151C4.91388 12.5561 4.93628 12.4998 4.9692 12.4497L9.50721 5.20734C9.57231 5.10664 9.67479 5.03579 9.79219 5.01033C9.90958 4.98488 10.0323 5.00689 10.1335 5.07155C10.1831 5.10286 10.2261 5.14367 10.2599 5.19164C10.2937 5.23962 10.3176 5.29379 10.3302 5.35103C10.3429 5.40827 10.344 5.46745 10.3336 5.52514C10.3232 5.58284 10.3015 5.6379 10.2696 5.68715L5.73158 12.9295C5.69376 12.9968 5.63831 13.0525 5.57116 13.0908C5.50402 13.1291 5.42771 13.1484 5.35039 13.1468Z" fill="white"/>
</g>
<defs>
<clipPath id="clip0_9712_6983">
<rect width="5.44561" height="8.14764" fill="white" transform="translate(4.89844 4.99902)"/>
</clipPath>
</defs>
</svg>
